G04 #@! TF.GenerationSoftware,KiCad,Pcbnew,(5.1.5-0-10_14)*
G04 #@! TF.CreationDate,2020-04-18T12:09:05+12:00*
G04 #@! TF.ProjectId,ZapierStompBox,5a617069-6572-4537-946f-6d70426f782e,rev?*
G04 #@! TF.SameCoordinates,Original*
G04 #@! TF.FileFunction,Paste,Top*
G04 #@! TF.FilePolarity,Positive*
%FSLAX46Y46*%
G04 Gerber Fmt 4.6, Leading zero omitted, Abs format (unit mm)*
G04 Created by KiCad (PCBNEW (5.1.5-0-10_14)) date 2020-04-18 12:09:05*
%MOMM*%
%LPD*%
G04 APERTURE LIST*
%ADD10C,0.100000*%
%ADD11R,1.200000X1.400000*%
G04 APERTURE END LIST*
D10*
G36*
X383649504Y61523796D02*
G01*
X383673773Y61520196D01*
X383697571Y61514235D01*
X383720671Y61505970D01*
X383742849Y61495480D01*
X383763893Y61482867D01*
X383783598Y61468253D01*
X383801777Y61451777D01*
X383818253Y61433598D01*
X383832867Y61413893D01*
X383845480Y61392849D01*
X383855970Y61370671D01*
X383864235Y61347571D01*
X383870196Y61323773D01*
X383873796Y61299504D01*
X383875000Y61275000D01*
X383875000Y60525000D01*
X383873796Y60500496D01*
X383870196Y60476227D01*
X383864235Y60452429D01*
X383855970Y60429329D01*
X383845480Y60407151D01*
X383832867Y60386107D01*
X383818253Y60366402D01*
X383801777Y60348223D01*
X383783598Y60331747D01*
X383763893Y60317133D01*
X383742849Y60304520D01*
X383720671Y60294030D01*
X383697571Y60285765D01*
X383673773Y60279804D01*
X383649504Y60276204D01*
X383625000Y60275000D01*
X382375000Y60275000D01*
X382350496Y60276204D01*
X382326227Y60279804D01*
X382302429Y60285765D01*
X382279329Y60294030D01*
X382257151Y60304520D01*
X382236107Y60317133D01*
X382216402Y60331747D01*
X382198223Y60348223D01*
X382181747Y60366402D01*
X382167133Y60386107D01*
X382154520Y60407151D01*
X382144030Y60429329D01*
X382135765Y60452429D01*
X382129804Y60476227D01*
X382126204Y60500496D01*
X382125000Y60525000D01*
X382125000Y61275000D01*
X382126204Y61299504D01*
X382129804Y61323773D01*
X382135765Y61347571D01*
X382144030Y61370671D01*
X382154520Y61392849D01*
X382167133Y61413893D01*
X382181747Y61433598D01*
X382198223Y61451777D01*
X382216402Y61468253D01*
X382236107Y61482867D01*
X382257151Y61495480D01*
X382279329Y61505970D01*
X382302429Y61514235D01*
X382326227Y61520196D01*
X382350496Y61523796D01*
X382375000Y61525000D01*
X383625000Y61525000D01*
X383649504Y61523796D01*
G37*
G36*
X383649504Y58723796D02*
G01*
X383673773Y58720196D01*
X383697571Y58714235D01*
X383720671Y58705970D01*
X383742849Y58695480D01*
X383763893Y58682867D01*
X383783598Y58668253D01*
X383801777Y58651777D01*
X383818253Y58633598D01*
X383832867Y58613893D01*
X383845480Y58592849D01*
X383855970Y58570671D01*
X383864235Y58547571D01*
X383870196Y58523773D01*
X383873796Y58499504D01*
X383875000Y58475000D01*
X383875000Y57725000D01*
X383873796Y57700496D01*
X383870196Y57676227D01*
X383864235Y57652429D01*
X383855970Y57629329D01*
X383845480Y57607151D01*
X383832867Y57586107D01*
X383818253Y57566402D01*
X383801777Y57548223D01*
X383783598Y57531747D01*
X383763893Y57517133D01*
X383742849Y57504520D01*
X383720671Y57494030D01*
X383697571Y57485765D01*
X383673773Y57479804D01*
X383649504Y57476204D01*
X383625000Y57475000D01*
X382375000Y57475000D01*
X382350496Y57476204D01*
X382326227Y57479804D01*
X382302429Y57485765D01*
X382279329Y57494030D01*
X382257151Y57504520D01*
X382236107Y57517133D01*
X382216402Y57531747D01*
X382198223Y57548223D01*
X382181747Y57566402D01*
X382167133Y57586107D01*
X382154520Y57607151D01*
X382144030Y57629329D01*
X382135765Y57652429D01*
X382129804Y57676227D01*
X382126204Y57700496D01*
X382125000Y57725000D01*
X382125000Y58475000D01*
X382126204Y58499504D01*
X382129804Y58523773D01*
X382135765Y58547571D01*
X382144030Y58570671D01*
X382154520Y58592849D01*
X382167133Y58613893D01*
X382181747Y58633598D01*
X382198223Y58651777D01*
X382216402Y58668253D01*
X382236107Y58682867D01*
X382257151Y58695480D01*
X382279329Y58705970D01*
X382302429Y58714235D01*
X382326227Y58720196D01*
X382350496Y58723796D01*
X382375000Y58725000D01*
X383625000Y58725000D01*
X383649504Y58723796D01*
G37*
G36*
X381330142Y65198826D02*
G01*
X381353803Y65195316D01*
X381377007Y65189504D01*
X381399529Y65181446D01*
X381421153Y65171218D01*
X381441670Y65158921D01*
X381460883Y65144671D01*
X381478607Y65128607D01*
X381494671Y65110883D01*
X381508921Y65091670D01*
X381521218Y65071153D01*
X381531446Y65049529D01*
X381539504Y65027007D01*
X381545316Y65003803D01*
X381548826Y64980142D01*
X381550000Y64956250D01*
X381550000Y64043750D01*
X381548826Y64019858D01*
X381545316Y63996197D01*
X381539504Y63972993D01*
X381531446Y63950471D01*
X381521218Y63928847D01*
X381508921Y63908330D01*
X381494671Y63889117D01*
X381478607Y63871393D01*
X381460883Y63855329D01*
X381441670Y63841079D01*
X381421153Y63828782D01*
X381399529Y63818554D01*
X381377007Y63810496D01*
X381353803Y63804684D01*
X381330142Y63801174D01*
X381306250Y63800000D01*
X380818750Y63800000D01*
X380794858Y63801174D01*
X380771197Y63804684D01*
X380747993Y63810496D01*
X380725471Y63818554D01*
X380703847Y63828782D01*
X380683330Y63841079D01*
X380664117Y63855329D01*
X380646393Y63871393D01*
X380630329Y63889117D01*
X380616079Y63908330D01*
X380603782Y63928847D01*
X380593554Y63950471D01*
X380585496Y63972993D01*
X380579684Y63996197D01*
X380576174Y64019858D01*
X380575000Y64043750D01*
X380575000Y64956250D01*
X380576174Y64980142D01*
X380579684Y65003803D01*
X380585496Y65027007D01*
X380593554Y65049529D01*
X380603782Y65071153D01*
X380616079Y65091670D01*
X380630329Y65110883D01*
X380646393Y65128607D01*
X380664117Y65144671D01*
X380683330Y65158921D01*
X380703847Y65171218D01*
X380725471Y65181446D01*
X380747993Y65189504D01*
X380771197Y65195316D01*
X380794858Y65198826D01*
X380818750Y65200000D01*
X381306250Y65200000D01*
X381330142Y65198826D01*
G37*
G36*
X383205142Y65198826D02*
G01*
X383228803Y65195316D01*
X383252007Y65189504D01*
X383274529Y65181446D01*
X383296153Y65171218D01*
X383316670Y65158921D01*
X383335883Y65144671D01*
X383353607Y65128607D01*
X383369671Y65110883D01*
X383383921Y65091670D01*
X383396218Y65071153D01*
X383406446Y65049529D01*
X383414504Y65027007D01*
X383420316Y65003803D01*
X383423826Y64980142D01*
X383425000Y64956250D01*
X383425000Y64043750D01*
X383423826Y64019858D01*
X383420316Y63996197D01*
X383414504Y63972993D01*
X383406446Y63950471D01*
X383396218Y63928847D01*
X383383921Y63908330D01*
X383369671Y63889117D01*
X383353607Y63871393D01*
X383335883Y63855329D01*
X383316670Y63841079D01*
X383296153Y63828782D01*
X383274529Y63818554D01*
X383252007Y63810496D01*
X383228803Y63804684D01*
X383205142Y63801174D01*
X383181250Y63800000D01*
X382693750Y63800000D01*
X382669858Y63801174D01*
X382646197Y63804684D01*
X382622993Y63810496D01*
X382600471Y63818554D01*
X382578847Y63828782D01*
X382558330Y63841079D01*
X382539117Y63855329D01*
X382521393Y63871393D01*
X382505329Y63889117D01*
X382491079Y63908330D01*
X382478782Y63928847D01*
X382468554Y63950471D01*
X382460496Y63972993D01*
X382454684Y63996197D01*
X382451174Y64019858D01*
X382450000Y64043750D01*
X382450000Y64956250D01*
X382451174Y64980142D01*
X382454684Y65003803D01*
X382460496Y65027007D01*
X382468554Y65049529D01*
X382478782Y65071153D01*
X382491079Y65091670D01*
X382505329Y65110883D01*
X382521393Y65128607D01*
X382539117Y65144671D01*
X382558330Y65158921D01*
X382578847Y65171218D01*
X382600471Y65181446D01*
X382622993Y65189504D01*
X382646197Y65195316D01*
X382669858Y65198826D01*
X382693750Y65200000D01*
X383181250Y65200000D01*
X383205142Y65198826D01*
G37*
G36*
X381705142Y72698826D02*
G01*
X381728803Y72695316D01*
X381752007Y72689504D01*
X381774529Y72681446D01*
X381796153Y72671218D01*
X381816670Y72658921D01*
X381835883Y72644671D01*
X381853607Y72628607D01*
X381869671Y72610883D01*
X381883921Y72591670D01*
X381896218Y72571153D01*
X381906446Y72549529D01*
X381914504Y72527007D01*
X381920316Y72503803D01*
X381923826Y72480142D01*
X381925000Y72456250D01*
X381925000Y71543750D01*
X381923826Y71519858D01*
X381920316Y71496197D01*
X381914504Y71472993D01*
X381906446Y71450471D01*
X381896218Y71428847D01*
X381883921Y71408330D01*
X381869671Y71389117D01*
X381853607Y71371393D01*
X381835883Y71355329D01*
X381816670Y71341079D01*
X381796153Y71328782D01*
X381774529Y71318554D01*
X381752007Y71310496D01*
X381728803Y71304684D01*
X381705142Y71301174D01*
X381681250Y71300000D01*
X381193750Y71300000D01*
X381169858Y71301174D01*
X381146197Y71304684D01*
X381122993Y71310496D01*
X381100471Y71318554D01*
X381078847Y71328782D01*
X381058330Y71341079D01*
X381039117Y71355329D01*
X381021393Y71371393D01*
X381005329Y71389117D01*
X380991079Y71408330D01*
X380978782Y71428847D01*
X380968554Y71450471D01*
X380960496Y71472993D01*
X380954684Y71496197D01*
X380951174Y71519858D01*
X380950000Y71543750D01*
X380950000Y72456250D01*
X380951174Y72480142D01*
X380954684Y72503803D01*
X380960496Y72527007D01*
X380968554Y72549529D01*
X380978782Y72571153D01*
X380991079Y72591670D01*
X381005329Y72610883D01*
X381021393Y72628607D01*
X381039117Y72644671D01*
X381058330Y72658921D01*
X381078847Y72671218D01*
X381100471Y72681446D01*
X381122993Y72689504D01*
X381146197Y72695316D01*
X381169858Y72698826D01*
X381193750Y72700000D01*
X381681250Y72700000D01*
X381705142Y72698826D01*
G37*
G36*
X379830142Y72698826D02*
G01*
X379853803Y72695316D01*
X379877007Y72689504D01*
X379899529Y72681446D01*
X379921153Y72671218D01*
X379941670Y72658921D01*
X379960883Y72644671D01*
X379978607Y72628607D01*
X379994671Y72610883D01*
X380008921Y72591670D01*
X380021218Y72571153D01*
X380031446Y72549529D01*
X380039504Y72527007D01*
X380045316Y72503803D01*
X380048826Y72480142D01*
X380050000Y72456250D01*
X380050000Y71543750D01*
X380048826Y71519858D01*
X380045316Y71496197D01*
X380039504Y71472993D01*
X380031446Y71450471D01*
X380021218Y71428847D01*
X380008921Y71408330D01*
X379994671Y71389117D01*
X379978607Y71371393D01*
X379960883Y71355329D01*
X379941670Y71341079D01*
X379921153Y71328782D01*
X379899529Y71318554D01*
X379877007Y71310496D01*
X379853803Y71304684D01*
X379830142Y71301174D01*
X379806250Y71300000D01*
X379318750Y71300000D01*
X379294858Y71301174D01*
X379271197Y71304684D01*
X379247993Y71310496D01*
X379225471Y71318554D01*
X379203847Y71328782D01*
X379183330Y71341079D01*
X379164117Y71355329D01*
X379146393Y71371393D01*
X379130329Y71389117D01*
X379116079Y71408330D01*
X379103782Y71428847D01*
X379093554Y71450471D01*
X379085496Y71472993D01*
X379079684Y71496197D01*
X379076174Y71519858D01*
X379075000Y71543750D01*
X379075000Y72456250D01*
X379076174Y72480142D01*
X379079684Y72503803D01*
X379085496Y72527007D01*
X379093554Y72549529D01*
X379103782Y72571153D01*
X379116079Y72591670D01*
X379130329Y72610883D01*
X379146393Y72628607D01*
X379164117Y72644671D01*
X379183330Y72658921D01*
X379203847Y72671218D01*
X379225471Y72681446D01*
X379247993Y72689504D01*
X379271197Y72695316D01*
X379294858Y72698826D01*
X379318750Y72700000D01*
X379806250Y72700000D01*
X379830142Y72698826D01*
G37*
G36*
X390277691Y63223947D02*
G01*
X390298926Y63220797D01*
X390319750Y63215581D01*
X390339962Y63208349D01*
X390359368Y63199170D01*
X390377781Y63188134D01*
X390395024Y63175346D01*
X390410930Y63160930D01*
X390425346Y63145024D01*
X390438134Y63127781D01*
X390449170Y63109368D01*
X390458349Y63089962D01*
X390465581Y63069750D01*
X390470797Y63048926D01*
X390473947Y63027691D01*
X390475000Y63006250D01*
X390475000Y62568750D01*
X390473947Y62547309D01*
X390470797Y62526074D01*
X390465581Y62505250D01*
X390458349Y62485038D01*
X390449170Y62465632D01*
X390438134Y62447219D01*
X390425346Y62429976D01*
X390410930Y62414070D01*
X390395024Y62399654D01*
X390377781Y62386866D01*
X390359368Y62375830D01*
X390339962Y62366651D01*
X390319750Y62359419D01*
X390298926Y62354203D01*
X390277691Y62351053D01*
X390256250Y62350000D01*
X389743750Y62350000D01*
X389722309Y62351053D01*
X389701074Y62354203D01*
X389680250Y62359419D01*
X389660038Y62366651D01*
X389640632Y62375830D01*
X389622219Y62386866D01*
X389604976Y62399654D01*
X389589070Y62414070D01*
X389574654Y62429976D01*
X389561866Y62447219D01*
X389550830Y62465632D01*
X389541651Y62485038D01*
X389534419Y62505250D01*
X389529203Y62526074D01*
X389526053Y62547309D01*
X389525000Y62568750D01*
X389525000Y63006250D01*
X389526053Y63027691D01*
X389529203Y63048926D01*
X389534419Y63069750D01*
X389541651Y63089962D01*
X389550830Y63109368D01*
X389561866Y63127781D01*
X389574654Y63145024D01*
X389589070Y63160930D01*
X389604976Y63175346D01*
X389622219Y63188134D01*
X389640632Y63199170D01*
X389660038Y63208349D01*
X389680250Y63215581D01*
X389701074Y63220797D01*
X389722309Y63223947D01*
X389743750Y63225000D01*
X390256250Y63225000D01*
X390277691Y63223947D01*
G37*
G36*
X390277691Y61648947D02*
G01*
X390298926Y61645797D01*
X390319750Y61640581D01*
X390339962Y61633349D01*
X390359368Y61624170D01*
X390377781Y61613134D01*
X390395024Y61600346D01*
X390410930Y61585930D01*
X390425346Y61570024D01*
X390438134Y61552781D01*
X390449170Y61534368D01*
X390458349Y61514962D01*
X390465581Y61494750D01*
X390470797Y61473926D01*
X390473947Y61452691D01*
X390475000Y61431250D01*
X390475000Y60993750D01*
X390473947Y60972309D01*
X390470797Y60951074D01*
X390465581Y60930250D01*
X390458349Y60910038D01*
X390449170Y60890632D01*
X390438134Y60872219D01*
X390425346Y60854976D01*
X390410930Y60839070D01*
X390395024Y60824654D01*
X390377781Y60811866D01*
X390359368Y60800830D01*
X390339962Y60791651D01*
X390319750Y60784419D01*
X390298926Y60779203D01*
X390277691Y60776053D01*
X390256250Y60775000D01*
X389743750Y60775000D01*
X389722309Y60776053D01*
X389701074Y60779203D01*
X389680250Y60784419D01*
X389660038Y60791651D01*
X389640632Y60800830D01*
X389622219Y60811866D01*
X389604976Y60824654D01*
X389589070Y60839070D01*
X389574654Y60854976D01*
X389561866Y60872219D01*
X389550830Y60890632D01*
X389541651Y60910038D01*
X389534419Y60930250D01*
X389529203Y60951074D01*
X389526053Y60972309D01*
X389525000Y60993750D01*
X389525000Y61431250D01*
X389526053Y61452691D01*
X389529203Y61473926D01*
X389534419Y61494750D01*
X389541651Y61514962D01*
X389550830Y61534368D01*
X389561866Y61552781D01*
X389574654Y61570024D01*
X389589070Y61585930D01*
X389604976Y61600346D01*
X389622219Y61613134D01*
X389640632Y61624170D01*
X389660038Y61633349D01*
X389680250Y61640581D01*
X389701074Y61645797D01*
X389722309Y61648947D01*
X389743750Y61650000D01*
X390256250Y61650000D01*
X390277691Y61648947D01*
G37*
G36*
X375608292Y65813617D02*
G01*
X375616010Y65812472D01*
X375623578Y65810577D01*
X375630923Y65807948D01*
X375637976Y65804613D01*
X375644668Y65800602D01*
X375650934Y65795954D01*
X375656715Y65790715D01*
X375661954Y65784934D01*
X375666602Y65778668D01*
X375670613Y65771976D01*
X375673948Y65764923D01*
X375676577Y65757578D01*
X375678472Y65750010D01*
X375679617Y65742292D01*
X375680000Y65734500D01*
X375680000Y65575500D01*
X375679617Y65567708D01*
X375678472Y65559990D01*
X375676577Y65552422D01*
X375673948Y65545077D01*
X375670613Y65538024D01*
X375666602Y65531332D01*
X375661954Y65525066D01*
X375656715Y65519285D01*
X375650934Y65514046D01*
X375644668Y65509398D01*
X375637976Y65505387D01*
X375630923Y65502052D01*
X375623578Y65499423D01*
X375616010Y65497528D01*
X375608292Y65496383D01*
X375600500Y65496000D01*
X375399500Y65496000D01*
X375391708Y65496383D01*
X375383990Y65497528D01*
X375376422Y65499423D01*
X375369077Y65502052D01*
X375362024Y65505387D01*
X375355332Y65509398D01*
X375349066Y65514046D01*
X375343285Y65519285D01*
X375338046Y65525066D01*
X375333398Y65531332D01*
X375329387Y65538024D01*
X375326052Y65545077D01*
X375323423Y65552422D01*
X375321528Y65559990D01*
X375320383Y65567708D01*
X375320000Y65575500D01*
X375320000Y65734500D01*
X375320383Y65742292D01*
X375321528Y65750010D01*
X375323423Y65757578D01*
X375326052Y65764923D01*
X375329387Y65771976D01*
X375333398Y65778668D01*
X375338046Y65784934D01*
X375343285Y65790715D01*
X375349066Y65795954D01*
X375355332Y65800602D01*
X375362024Y65804613D01*
X375369077Y65807948D01*
X375376422Y65810577D01*
X375383990Y65812472D01*
X375391708Y65813617D01*
X375399500Y65814000D01*
X375600500Y65814000D01*
X375608292Y65813617D01*
G37*
G36*
X375608292Y66503617D02*
G01*
X375616010Y66502472D01*
X375623578Y66500577D01*
X375630923Y66497948D01*
X375637976Y66494613D01*
X375644668Y66490602D01*
X375650934Y66485954D01*
X375656715Y66480715D01*
X375661954Y66474934D01*
X375666602Y66468668D01*
X375670613Y66461976D01*
X375673948Y66454923D01*
X375676577Y66447578D01*
X375678472Y66440010D01*
X375679617Y66432292D01*
X375680000Y66424500D01*
X375680000Y66265500D01*
X375679617Y66257708D01*
X375678472Y66249990D01*
X375676577Y66242422D01*
X375673948Y66235077D01*
X375670613Y66228024D01*
X375666602Y66221332D01*
X375661954Y66215066D01*
X375656715Y66209285D01*
X375650934Y66204046D01*
X375644668Y66199398D01*
X375637976Y66195387D01*
X375630923Y66192052D01*
X375623578Y66189423D01*
X375616010Y66187528D01*
X375608292Y66186383D01*
X375600500Y66186000D01*
X375399500Y66186000D01*
X375391708Y66186383D01*
X375383990Y66187528D01*
X375376422Y66189423D01*
X375369077Y66192052D01*
X375362024Y66195387D01*
X375355332Y66199398D01*
X375349066Y66204046D01*
X375343285Y66209285D01*
X375338046Y66215066D01*
X375333398Y66221332D01*
X375329387Y66228024D01*
X375326052Y66235077D01*
X375323423Y66242422D01*
X375321528Y66249990D01*
X375320383Y66257708D01*
X375320000Y66265500D01*
X375320000Y66424500D01*
X375320383Y66432292D01*
X375321528Y66440010D01*
X375323423Y66447578D01*
X375326052Y66454923D01*
X375329387Y66461976D01*
X375333398Y66468668D01*
X375338046Y66474934D01*
X375343285Y66480715D01*
X375349066Y66485954D01*
X375355332Y66490602D01*
X375362024Y66494613D01*
X375369077Y66497948D01*
X375376422Y66500577D01*
X375383990Y66502472D01*
X375391708Y66503617D01*
X375399500Y66504000D01*
X375600500Y66504000D01*
X375608292Y66503617D01*
G37*
G36*
X377608292Y66503617D02*
G01*
X377616010Y66502472D01*
X377623578Y66500577D01*
X377630923Y66497948D01*
X377637976Y66494613D01*
X377644668Y66490602D01*
X377650934Y66485954D01*
X377656715Y66480715D01*
X377661954Y66474934D01*
X377666602Y66468668D01*
X377670613Y66461976D01*
X377673948Y66454923D01*
X377676577Y66447578D01*
X377678472Y66440010D01*
X377679617Y66432292D01*
X377680000Y66424500D01*
X377680000Y66265500D01*
X377679617Y66257708D01*
X377678472Y66249990D01*
X377676577Y66242422D01*
X377673948Y66235077D01*
X377670613Y66228024D01*
X377666602Y66221332D01*
X377661954Y66215066D01*
X377656715Y66209285D01*
X377650934Y66204046D01*
X377644668Y66199398D01*
X377637976Y66195387D01*
X377630923Y66192052D01*
X377623578Y66189423D01*
X377616010Y66187528D01*
X377608292Y66186383D01*
X377600500Y66186000D01*
X377399500Y66186000D01*
X377391708Y66186383D01*
X377383990Y66187528D01*
X377376422Y66189423D01*
X377369077Y66192052D01*
X377362024Y66195387D01*
X377355332Y66199398D01*
X377349066Y66204046D01*
X377343285Y66209285D01*
X377338046Y66215066D01*
X377333398Y66221332D01*
X377329387Y66228024D01*
X377326052Y66235077D01*
X377323423Y66242422D01*
X377321528Y66249990D01*
X377320383Y66257708D01*
X377320000Y66265500D01*
X377320000Y66424500D01*
X377320383Y66432292D01*
X377321528Y66440010D01*
X377323423Y66447578D01*
X377326052Y66454923D01*
X377329387Y66461976D01*
X377333398Y66468668D01*
X377338046Y66474934D01*
X377343285Y66480715D01*
X377349066Y66485954D01*
X377355332Y66490602D01*
X377362024Y66494613D01*
X377369077Y66497948D01*
X377376422Y66500577D01*
X377383990Y66502472D01*
X377391708Y66503617D01*
X377399500Y66504000D01*
X377600500Y66504000D01*
X377608292Y66503617D01*
G37*
G36*
X377608292Y65813617D02*
G01*
X377616010Y65812472D01*
X377623578Y65810577D01*
X377630923Y65807948D01*
X377637976Y65804613D01*
X377644668Y65800602D01*
X377650934Y65795954D01*
X377656715Y65790715D01*
X377661954Y65784934D01*
X377666602Y65778668D01*
X377670613Y65771976D01*
X377673948Y65764923D01*
X377676577Y65757578D01*
X377678472Y65750010D01*
X377679617Y65742292D01*
X377680000Y65734500D01*
X377680000Y65575500D01*
X377679617Y65567708D01*
X377678472Y65559990D01*
X377676577Y65552422D01*
X377673948Y65545077D01*
X377670613Y65538024D01*
X377666602Y65531332D01*
X377661954Y65525066D01*
X377656715Y65519285D01*
X377650934Y65514046D01*
X377644668Y65509398D01*
X377637976Y65505387D01*
X377630923Y65502052D01*
X377623578Y65499423D01*
X377616010Y65497528D01*
X377608292Y65496383D01*
X377600500Y65496000D01*
X377399500Y65496000D01*
X377391708Y65496383D01*
X377383990Y65497528D01*
X377376422Y65499423D01*
X377369077Y65502052D01*
X377362024Y65505387D01*
X377355332Y65509398D01*
X377349066Y65514046D01*
X377343285Y65519285D01*
X377338046Y65525066D01*
X377333398Y65531332D01*
X377329387Y65538024D01*
X377326052Y65545077D01*
X377323423Y65552422D01*
X377321528Y65559990D01*
X377320383Y65567708D01*
X377320000Y65575500D01*
X377320000Y65734500D01*
X377320383Y65742292D01*
X377321528Y65750010D01*
X377323423Y65757578D01*
X377326052Y65764923D01*
X377329387Y65771976D01*
X377333398Y65778668D01*
X377338046Y65784934D01*
X377343285Y65790715D01*
X377349066Y65795954D01*
X377355332Y65800602D01*
X377362024Y65804613D01*
X377369077Y65807948D01*
X377376422Y65810577D01*
X377383990Y65812472D01*
X377391708Y65813617D01*
X377399500Y65814000D01*
X377600500Y65814000D01*
X377608292Y65813617D01*
G37*
G36*
X386165191Y61973947D02*
G01*
X386186426Y61970797D01*
X386207250Y61965581D01*
X386227462Y61958349D01*
X386246868Y61949170D01*
X386265281Y61938134D01*
X386282524Y61925346D01*
X386298430Y61910930D01*
X386312846Y61895024D01*
X386325634Y61877781D01*
X386336670Y61859368D01*
X386345849Y61839962D01*
X386353081Y61819750D01*
X386358297Y61798926D01*
X386361447Y61777691D01*
X386362500Y61756250D01*
X386362500Y61243750D01*
X386361447Y61222309D01*
X386358297Y61201074D01*
X386353081Y61180250D01*
X386345849Y61160038D01*
X386336670Y61140632D01*
X386325634Y61122219D01*
X386312846Y61104976D01*
X386298430Y61089070D01*
X386282524Y61074654D01*
X386265281Y61061866D01*
X386246868Y61050830D01*
X386227462Y61041651D01*
X386207250Y61034419D01*
X386186426Y61029203D01*
X386165191Y61026053D01*
X386143750Y61025000D01*
X385706250Y61025000D01*
X385684809Y61026053D01*
X385663574Y61029203D01*
X385642750Y61034419D01*
X385622538Y61041651D01*
X385603132Y61050830D01*
X385584719Y61061866D01*
X385567476Y61074654D01*
X385551570Y61089070D01*
X385537154Y61104976D01*
X385524366Y61122219D01*
X385513330Y61140632D01*
X385504151Y61160038D01*
X385496919Y61180250D01*
X385491703Y61201074D01*
X385488553Y61222309D01*
X385487500Y61243750D01*
X385487500Y61756250D01*
X385488553Y61777691D01*
X385491703Y61798926D01*
X385496919Y61819750D01*
X385504151Y61839962D01*
X385513330Y61859368D01*
X385524366Y61877781D01*
X385537154Y61895024D01*
X385551570Y61910930D01*
X385567476Y61925346D01*
X385584719Y61938134D01*
X385603132Y61949170D01*
X385622538Y61958349D01*
X385642750Y61965581D01*
X385663574Y61970797D01*
X385684809Y61973947D01*
X385706250Y61975000D01*
X386143750Y61975000D01*
X386165191Y61973947D01*
G37*
G36*
X387740191Y61973947D02*
G01*
X387761426Y61970797D01*
X387782250Y61965581D01*
X387802462Y61958349D01*
X387821868Y61949170D01*
X387840281Y61938134D01*
X387857524Y61925346D01*
X387873430Y61910930D01*
X387887846Y61895024D01*
X387900634Y61877781D01*
X387911670Y61859368D01*
X387920849Y61839962D01*
X387928081Y61819750D01*
X387933297Y61798926D01*
X387936447Y61777691D01*
X387937500Y61756250D01*
X387937500Y61243750D01*
X387936447Y61222309D01*
X387933297Y61201074D01*
X387928081Y61180250D01*
X387920849Y61160038D01*
X387911670Y61140632D01*
X387900634Y61122219D01*
X387887846Y61104976D01*
X387873430Y61089070D01*
X387857524Y61074654D01*
X387840281Y61061866D01*
X387821868Y61050830D01*
X387802462Y61041651D01*
X387782250Y61034419D01*
X387761426Y61029203D01*
X387740191Y61026053D01*
X387718750Y61025000D01*
X387281250Y61025000D01*
X387259809Y61026053D01*
X387238574Y61029203D01*
X387217750Y61034419D01*
X387197538Y61041651D01*
X387178132Y61050830D01*
X387159719Y61061866D01*
X387142476Y61074654D01*
X387126570Y61089070D01*
X387112154Y61104976D01*
X387099366Y61122219D01*
X387088330Y61140632D01*
X387079151Y61160038D01*
X387071919Y61180250D01*
X387066703Y61201074D01*
X387063553Y61222309D01*
X387062500Y61243750D01*
X387062500Y61756250D01*
X387063553Y61777691D01*
X387066703Y61798926D01*
X387071919Y61819750D01*
X387079151Y61839962D01*
X387088330Y61859368D01*
X387099366Y61877781D01*
X387112154Y61895024D01*
X387126570Y61910930D01*
X387142476Y61925346D01*
X387159719Y61938134D01*
X387178132Y61949170D01*
X387197538Y61958349D01*
X387217750Y61965581D01*
X387238574Y61970797D01*
X387259809Y61973947D01*
X387281250Y61975000D01*
X387718750Y61975000D01*
X387740191Y61973947D01*
G37*
G36*
X375952691Y70473947D02*
G01*
X375973926Y70470797D01*
X375994750Y70465581D01*
X376014962Y70458349D01*
X376034368Y70449170D01*
X376052781Y70438134D01*
X376070024Y70425346D01*
X376085930Y70410930D01*
X376100346Y70395024D01*
X376113134Y70377781D01*
X376124170Y70359368D01*
X376133349Y70339962D01*
X376140581Y70319750D01*
X376145797Y70298926D01*
X376148947Y70277691D01*
X376150000Y70256250D01*
X376150000Y69743750D01*
X376148947Y69722309D01*
X376145797Y69701074D01*
X376140581Y69680250D01*
X376133349Y69660038D01*
X376124170Y69640632D01*
X376113134Y69622219D01*
X376100346Y69604976D01*
X376085930Y69589070D01*
X376070024Y69574654D01*
X376052781Y69561866D01*
X376034368Y69550830D01*
X376014962Y69541651D01*
X375994750Y69534419D01*
X375973926Y69529203D01*
X375952691Y69526053D01*
X375931250Y69525000D01*
X375493750Y69525000D01*
X375472309Y69526053D01*
X375451074Y69529203D01*
X375430250Y69534419D01*
X375410038Y69541651D01*
X375390632Y69550830D01*
X375372219Y69561866D01*
X375354976Y69574654D01*
X375339070Y69589070D01*
X375324654Y69604976D01*
X375311866Y69622219D01*
X375300830Y69640632D01*
X375291651Y69660038D01*
X375284419Y69680250D01*
X375279203Y69701074D01*
X375276053Y69722309D01*
X375275000Y69743750D01*
X375275000Y70256250D01*
X375276053Y70277691D01*
X375279203Y70298926D01*
X375284419Y70319750D01*
X375291651Y70339962D01*
X375300830Y70359368D01*
X375311866Y70377781D01*
X375324654Y70395024D01*
X375339070Y70410930D01*
X375354976Y70425346D01*
X375372219Y70438134D01*
X375390632Y70449170D01*
X375410038Y70458349D01*
X375430250Y70465581D01*
X375451074Y70470797D01*
X375472309Y70473947D01*
X375493750Y70475000D01*
X375931250Y70475000D01*
X375952691Y70473947D01*
G37*
G36*
X377527691Y70473947D02*
G01*
X377548926Y70470797D01*
X377569750Y70465581D01*
X377589962Y70458349D01*
X377609368Y70449170D01*
X377627781Y70438134D01*
X377645024Y70425346D01*
X377660930Y70410930D01*
X377675346Y70395024D01*
X377688134Y70377781D01*
X377699170Y70359368D01*
X377708349Y70339962D01*
X377715581Y70319750D01*
X377720797Y70298926D01*
X377723947Y70277691D01*
X377725000Y70256250D01*
X377725000Y69743750D01*
X377723947Y69722309D01*
X377720797Y69701074D01*
X377715581Y69680250D01*
X377708349Y69660038D01*
X377699170Y69640632D01*
X377688134Y69622219D01*
X377675346Y69604976D01*
X377660930Y69589070D01*
X377645024Y69574654D01*
X377627781Y69561866D01*
X377609368Y69550830D01*
X377589962Y69541651D01*
X377569750Y69534419D01*
X377548926Y69529203D01*
X377527691Y69526053D01*
X377506250Y69525000D01*
X377068750Y69525000D01*
X377047309Y69526053D01*
X377026074Y69529203D01*
X377005250Y69534419D01*
X376985038Y69541651D01*
X376965632Y69550830D01*
X376947219Y69561866D01*
X376929976Y69574654D01*
X376914070Y69589070D01*
X376899654Y69604976D01*
X376886866Y69622219D01*
X376875830Y69640632D01*
X376866651Y69660038D01*
X376859419Y69680250D01*
X376854203Y69701074D01*
X376851053Y69722309D01*
X376850000Y69743750D01*
X376850000Y70256250D01*
X376851053Y70277691D01*
X376854203Y70298926D01*
X376859419Y70319750D01*
X376866651Y70339962D01*
X376875830Y70359368D01*
X376886866Y70377781D01*
X376899654Y70395024D01*
X376914070Y70410930D01*
X376929976Y70425346D01*
X376947219Y70438134D01*
X376965632Y70449170D01*
X376985038Y70458349D01*
X377005250Y70465581D01*
X377026074Y70470797D01*
X377047309Y70473947D01*
X377068750Y70475000D01*
X377506250Y70475000D01*
X377527691Y70473947D01*
G37*
G36*
X377527691Y72473947D02*
G01*
X377548926Y72470797D01*
X377569750Y72465581D01*
X377589962Y72458349D01*
X377609368Y72449170D01*
X377627781Y72438134D01*
X377645024Y72425346D01*
X377660930Y72410930D01*
X377675346Y72395024D01*
X377688134Y72377781D01*
X377699170Y72359368D01*
X377708349Y72339962D01*
X377715581Y72319750D01*
X377720797Y72298926D01*
X377723947Y72277691D01*
X377725000Y72256250D01*
X377725000Y71743750D01*
X377723947Y71722309D01*
X377720797Y71701074D01*
X377715581Y71680250D01*
X377708349Y71660038D01*
X377699170Y71640632D01*
X377688134Y71622219D01*
X377675346Y71604976D01*
X377660930Y71589070D01*
X377645024Y71574654D01*
X377627781Y71561866D01*
X377609368Y71550830D01*
X377589962Y71541651D01*
X377569750Y71534419D01*
X377548926Y71529203D01*
X377527691Y71526053D01*
X377506250Y71525000D01*
X377068750Y71525000D01*
X377047309Y71526053D01*
X377026074Y71529203D01*
X377005250Y71534419D01*
X376985038Y71541651D01*
X376965632Y71550830D01*
X376947219Y71561866D01*
X376929976Y71574654D01*
X376914070Y71589070D01*
X376899654Y71604976D01*
X376886866Y71622219D01*
X376875830Y71640632D01*
X376866651Y71660038D01*
X376859419Y71680250D01*
X376854203Y71701074D01*
X376851053Y71722309D01*
X376850000Y71743750D01*
X376850000Y72256250D01*
X376851053Y72277691D01*
X376854203Y72298926D01*
X376859419Y72319750D01*
X376866651Y72339962D01*
X376875830Y72359368D01*
X376886866Y72377781D01*
X376899654Y72395024D01*
X376914070Y72410930D01*
X376929976Y72425346D01*
X376947219Y72438134D01*
X376965632Y72449170D01*
X376985038Y72458349D01*
X377005250Y72465581D01*
X377026074Y72470797D01*
X377047309Y72473947D01*
X377068750Y72475000D01*
X377506250Y72475000D01*
X377527691Y72473947D01*
G37*
G36*
X375952691Y72473947D02*
G01*
X375973926Y72470797D01*
X375994750Y72465581D01*
X376014962Y72458349D01*
X376034368Y72449170D01*
X376052781Y72438134D01*
X376070024Y72425346D01*
X376085930Y72410930D01*
X376100346Y72395024D01*
X376113134Y72377781D01*
X376124170Y72359368D01*
X376133349Y72339962D01*
X376140581Y72319750D01*
X376145797Y72298926D01*
X376148947Y72277691D01*
X376150000Y72256250D01*
X376150000Y71743750D01*
X376148947Y71722309D01*
X376145797Y71701074D01*
X376140581Y71680250D01*
X376133349Y71660038D01*
X376124170Y71640632D01*
X376113134Y71622219D01*
X376100346Y71604976D01*
X376085930Y71589070D01*
X376070024Y71574654D01*
X376052781Y71561866D01*
X376034368Y71550830D01*
X376014962Y71541651D01*
X375994750Y71534419D01*
X375973926Y71529203D01*
X375952691Y71526053D01*
X375931250Y71525000D01*
X375493750Y71525000D01*
X375472309Y71526053D01*
X375451074Y71529203D01*
X375430250Y71534419D01*
X375410038Y71541651D01*
X375390632Y71550830D01*
X375372219Y71561866D01*
X375354976Y71574654D01*
X375339070Y71589070D01*
X375324654Y71604976D01*
X375311866Y71622219D01*
X375300830Y71640632D01*
X375291651Y71660038D01*
X375284419Y71680250D01*
X375279203Y71701074D01*
X375276053Y71722309D01*
X375275000Y71743750D01*
X375275000Y72256250D01*
X375276053Y72277691D01*
X375279203Y72298926D01*
X375284419Y72319750D01*
X375291651Y72339962D01*
X375300830Y72359368D01*
X375311866Y72377781D01*
X375324654Y72395024D01*
X375339070Y72410930D01*
X375354976Y72425346D01*
X375372219Y72438134D01*
X375390632Y72449170D01*
X375410038Y72458349D01*
X375430250Y72465581D01*
X375451074Y72470797D01*
X375472309Y72473947D01*
X375493750Y72475000D01*
X375931250Y72475000D01*
X375952691Y72473947D01*
G37*
G36*
X384480142Y68923826D02*
G01*
X384503803Y68920316D01*
X384527007Y68914504D01*
X384549529Y68906446D01*
X384571153Y68896218D01*
X384591670Y68883921D01*
X384610883Y68869671D01*
X384628607Y68853607D01*
X384644671Y68835883D01*
X384658921Y68816670D01*
X384671218Y68796153D01*
X384681446Y68774529D01*
X384689504Y68752007D01*
X384695316Y68728803D01*
X384698826Y68705142D01*
X384700000Y68681250D01*
X384700000Y68193750D01*
X384698826Y68169858D01*
X384695316Y68146197D01*
X384689504Y68122993D01*
X384681446Y68100471D01*
X384671218Y68078847D01*
X384658921Y68058330D01*
X384644671Y68039117D01*
X384628607Y68021393D01*
X384610883Y68005329D01*
X384591670Y67991079D01*
X384571153Y67978782D01*
X384549529Y67968554D01*
X384527007Y67960496D01*
X384503803Y67954684D01*
X384480142Y67951174D01*
X384456250Y67950000D01*
X383543750Y67950000D01*
X383519858Y67951174D01*
X383496197Y67954684D01*
X383472993Y67960496D01*
X383450471Y67968554D01*
X383428847Y67978782D01*
X383408330Y67991079D01*
X383389117Y68005329D01*
X383371393Y68021393D01*
X383355329Y68039117D01*
X383341079Y68058330D01*
X383328782Y68078847D01*
X383318554Y68100471D01*
X383310496Y68122993D01*
X383304684Y68146197D01*
X383301174Y68169858D01*
X383300000Y68193750D01*
X383300000Y68681250D01*
X383301174Y68705142D01*
X383304684Y68728803D01*
X383310496Y68752007D01*
X383318554Y68774529D01*
X383328782Y68796153D01*
X383341079Y68816670D01*
X383355329Y68835883D01*
X383371393Y68853607D01*
X383389117Y68869671D01*
X383408330Y68883921D01*
X383428847Y68896218D01*
X383450471Y68906446D01*
X383472993Y68914504D01*
X383496197Y68920316D01*
X383519858Y68923826D01*
X383543750Y68925000D01*
X384456250Y68925000D01*
X384480142Y68923826D01*
G37*
G36*
X384480142Y67048826D02*
G01*
X384503803Y67045316D01*
X384527007Y67039504D01*
X384549529Y67031446D01*
X384571153Y67021218D01*
X384591670Y67008921D01*
X384610883Y66994671D01*
X384628607Y66978607D01*
X384644671Y66960883D01*
X384658921Y66941670D01*
X384671218Y66921153D01*
X384681446Y66899529D01*
X384689504Y66877007D01*
X384695316Y66853803D01*
X384698826Y66830142D01*
X384700000Y66806250D01*
X384700000Y66318750D01*
X384698826Y66294858D01*
X384695316Y66271197D01*
X384689504Y66247993D01*
X384681446Y66225471D01*
X384671218Y66203847D01*
X384658921Y66183330D01*
X384644671Y66164117D01*
X384628607Y66146393D01*
X384610883Y66130329D01*
X384591670Y66116079D01*
X384571153Y66103782D01*
X384549529Y66093554D01*
X384527007Y66085496D01*
X384503803Y66079684D01*
X384480142Y66076174D01*
X384456250Y66075000D01*
X383543750Y66075000D01*
X383519858Y66076174D01*
X383496197Y66079684D01*
X383472993Y66085496D01*
X383450471Y66093554D01*
X383428847Y66103782D01*
X383408330Y66116079D01*
X383389117Y66130329D01*
X383371393Y66146393D01*
X383355329Y66164117D01*
X383341079Y66183330D01*
X383328782Y66203847D01*
X383318554Y66225471D01*
X383310496Y66247993D01*
X383304684Y66271197D01*
X383301174Y66294858D01*
X383300000Y66318750D01*
X383300000Y66806250D01*
X383301174Y66830142D01*
X383304684Y66853803D01*
X383310496Y66877007D01*
X383318554Y66899529D01*
X383328782Y66921153D01*
X383341079Y66941670D01*
X383355329Y66960883D01*
X383371393Y66978607D01*
X383389117Y66994671D01*
X383408330Y67008921D01*
X383428847Y67021218D01*
X383450471Y67031446D01*
X383472993Y67039504D01*
X383496197Y67045316D01*
X383519858Y67048826D01*
X383543750Y67050000D01*
X384456250Y67050000D01*
X384480142Y67048826D01*
G37*
D11*
X381350000Y67400000D03*
X381350000Y69600000D03*
X379650000Y69600000D03*
X379650000Y67400000D03*
D10*
G36*
X388721313Y68402142D02*
G01*
X388740879Y68399240D01*
X388760066Y68394434D01*
X388778689Y68387770D01*
X388796570Y68379314D01*
X388813536Y68369145D01*
X388829423Y68357362D01*
X388844079Y68344079D01*
X388857362Y68329423D01*
X388869145Y68313536D01*
X388879314Y68296570D01*
X388887770Y68278689D01*
X388894434Y68260066D01*
X388899240Y68240879D01*
X388902142Y68221313D01*
X388903113Y68201557D01*
X388903113Y67798443D01*
X388902142Y67778687D01*
X388899240Y67759121D01*
X388894434Y67739934D01*
X388887770Y67721311D01*
X388879314Y67703430D01*
X388869145Y67686464D01*
X388857362Y67670577D01*
X388844079Y67655921D01*
X388829423Y67642638D01*
X388813536Y67630855D01*
X388796570Y67620686D01*
X388778689Y67612230D01*
X388760066Y67605566D01*
X388740879Y67600760D01*
X388721313Y67597858D01*
X388701557Y67596887D01*
X388298443Y67596887D01*
X388278687Y67597858D01*
X388259121Y67600760D01*
X388239934Y67605566D01*
X388221311Y67612230D01*
X388203430Y67620686D01*
X388186464Y67630855D01*
X388170577Y67642638D01*
X388155921Y67655921D01*
X388142638Y67670577D01*
X388130855Y67686464D01*
X388120686Y67703430D01*
X388112230Y67721311D01*
X388105566Y67739934D01*
X388100760Y67759121D01*
X388097858Y67778687D01*
X388096887Y67798443D01*
X388096887Y68201557D01*
X388097858Y68221313D01*
X388100760Y68240879D01*
X388105566Y68260066D01*
X388112230Y68278689D01*
X388120686Y68296570D01*
X388130855Y68313536D01*
X388142638Y68329423D01*
X388155921Y68344079D01*
X388170577Y68357362D01*
X388186464Y68369145D01*
X388203430Y68379314D01*
X388221311Y68387770D01*
X388239934Y68394434D01*
X388259121Y68399240D01*
X388278687Y68402142D01*
X388298443Y68403113D01*
X388701557Y68403113D01*
X388721313Y68402142D01*
G37*
G36*
X388721313Y67402142D02*
G01*
X388740879Y67399240D01*
X388760066Y67394434D01*
X388778689Y67387770D01*
X388796570Y67379314D01*
X388813536Y67369145D01*
X388829423Y67357362D01*
X388844079Y67344079D01*
X388857362Y67329423D01*
X388869145Y67313536D01*
X388879314Y67296570D01*
X388887770Y67278689D01*
X388894434Y67260066D01*
X388899240Y67240879D01*
X388902142Y67221313D01*
X388903113Y67201557D01*
X388903113Y66798443D01*
X388902142Y66778687D01*
X388899240Y66759121D01*
X388894434Y66739934D01*
X388887770Y66721311D01*
X388879314Y66703430D01*
X388869145Y66686464D01*
X388857362Y66670577D01*
X388844079Y66655921D01*
X388829423Y66642638D01*
X388813536Y66630855D01*
X388796570Y66620686D01*
X388778689Y66612230D01*
X388760066Y66605566D01*
X388740879Y66600760D01*
X388721313Y66597858D01*
X388701557Y66596887D01*
X388298443Y66596887D01*
X388278687Y66597858D01*
X388259121Y66600760D01*
X388239934Y66605566D01*
X388221311Y66612230D01*
X388203430Y66620686D01*
X388186464Y66630855D01*
X388170577Y66642638D01*
X388155921Y66655921D01*
X388142638Y66670577D01*
X388130855Y66686464D01*
X388120686Y66703430D01*
X388112230Y66721311D01*
X388105566Y66739934D01*
X388100760Y66759121D01*
X388097858Y66778687D01*
X388096887Y66798443D01*
X388096887Y67201557D01*
X388097858Y67221313D01*
X388100760Y67240879D01*
X388105566Y67260066D01*
X388112230Y67278689D01*
X388120686Y67296570D01*
X388130855Y67313536D01*
X388142638Y67329423D01*
X388155921Y67344079D01*
X388170577Y67357362D01*
X388186464Y67369145D01*
X388203430Y67379314D01*
X388221311Y67387770D01*
X388239934Y67394434D01*
X388259121Y67399240D01*
X388278687Y67402142D01*
X388298443Y67403113D01*
X388701557Y67403113D01*
X388721313Y67402142D01*
G37*
G36*
X389721313Y68402142D02*
G01*
X389740879Y68399240D01*
X389760066Y68394434D01*
X389778689Y68387770D01*
X389796570Y68379314D01*
X389813536Y68369145D01*
X389829423Y68357362D01*
X389844079Y68344079D01*
X389857362Y68329423D01*
X389869145Y68313536D01*
X389879314Y68296570D01*
X389887770Y68278689D01*
X389894434Y68260066D01*
X389899240Y68240879D01*
X389902142Y68221313D01*
X389903113Y68201557D01*
X389903113Y67798443D01*
X389902142Y67778687D01*
X389899240Y67759121D01*
X389894434Y67739934D01*
X389887770Y67721311D01*
X389879314Y67703430D01*
X389869145Y67686464D01*
X389857362Y67670577D01*
X389844079Y67655921D01*
X389829423Y67642638D01*
X389813536Y67630855D01*
X389796570Y67620686D01*
X389778689Y67612230D01*
X389760066Y67605566D01*
X389740879Y67600760D01*
X389721313Y67597858D01*
X389701557Y67596887D01*
X389298443Y67596887D01*
X389278687Y67597858D01*
X389259121Y67600760D01*
X389239934Y67605566D01*
X389221311Y67612230D01*
X389203430Y67620686D01*
X389186464Y67630855D01*
X389170577Y67642638D01*
X389155921Y67655921D01*
X389142638Y67670577D01*
X389130855Y67686464D01*
X389120686Y67703430D01*
X389112230Y67721311D01*
X389105566Y67739934D01*
X389100760Y67759121D01*
X389097858Y67778687D01*
X389096887Y67798443D01*
X389096887Y68201557D01*
X389097858Y68221313D01*
X389100760Y68240879D01*
X389105566Y68260066D01*
X389112230Y68278689D01*
X389120686Y68296570D01*
X389130855Y68313536D01*
X389142638Y68329423D01*
X389155921Y68344079D01*
X389170577Y68357362D01*
X389186464Y68369145D01*
X389203430Y68379314D01*
X389221311Y68387770D01*
X389239934Y68394434D01*
X389259121Y68399240D01*
X389278687Y68402142D01*
X389298443Y68403113D01*
X389701557Y68403113D01*
X389721313Y68402142D01*
G37*
G36*
X389721313Y67402142D02*
G01*
X389740879Y67399240D01*
X389760066Y67394434D01*
X389778689Y67387770D01*
X389796570Y67379314D01*
X389813536Y67369145D01*
X389829423Y67357362D01*
X389844079Y67344079D01*
X389857362Y67329423D01*
X389869145Y67313536D01*
X389879314Y67296570D01*
X389887770Y67278689D01*
X389894434Y67260066D01*
X389899240Y67240879D01*
X389902142Y67221313D01*
X389903113Y67201557D01*
X389903113Y66798443D01*
X389902142Y66778687D01*
X389899240Y66759121D01*
X389894434Y66739934D01*
X389887770Y66721311D01*
X389879314Y66703430D01*
X389869145Y66686464D01*
X389857362Y66670577D01*
X389844079Y66655921D01*
X389829423Y66642638D01*
X389813536Y66630855D01*
X389796570Y66620686D01*
X389778689Y66612230D01*
X389760066Y66605566D01*
X389740879Y66600760D01*
X389721313Y66597858D01*
X389701557Y66596887D01*
X389298443Y66596887D01*
X389278687Y66597858D01*
X389259121Y66600760D01*
X389239934Y66605566D01*
X389221311Y66612230D01*
X389203430Y66620686D01*
X389186464Y66630855D01*
X389170577Y66642638D01*
X389155921Y66655921D01*
X389142638Y66670577D01*
X389130855Y66686464D01*
X389120686Y66703430D01*
X389112230Y66721311D01*
X389105566Y66739934D01*
X389100760Y66759121D01*
X389097858Y66778687D01*
X389096887Y66798443D01*
X389096887Y67201557D01*
X389097858Y67221313D01*
X389100760Y67240879D01*
X389105566Y67260066D01*
X389112230Y67278689D01*
X389120686Y67296570D01*
X389130855Y67313536D01*
X389142638Y67329423D01*
X389155921Y67344079D01*
X389170577Y67357362D01*
X389186464Y67369145D01*
X389203430Y67379314D01*
X389221311Y67387770D01*
X389239934Y67394434D01*
X389259121Y67399240D01*
X389278687Y67402142D01*
X389298443Y67403113D01*
X389701557Y67403113D01*
X389721313Y67402142D01*
G37*
G36*
X387922490Y68294667D02*
G01*
X387922490Y67705333D01*
X387814044Y67596887D01*
X387277510Y67596887D01*
X387277510Y68403113D01*
X387814044Y68403113D01*
X387922490Y68294667D01*
G37*
G36*
X387922490Y67294667D02*
G01*
X387922490Y66705333D01*
X387814044Y66596887D01*
X387277510Y66596887D01*
X387277510Y67403113D01*
X387814044Y67403113D01*
X387922490Y67294667D01*
G37*
G36*
X390722490Y67596887D02*
G01*
X390185956Y67596887D01*
X390077510Y67705333D01*
X390077510Y68294667D01*
X390185956Y68403113D01*
X390722490Y68403113D01*
X390722490Y67596887D01*
G37*
G36*
X390722490Y66596887D02*
G01*
X390185956Y66596887D01*
X390077510Y66705333D01*
X390077510Y67294667D01*
X390185956Y67403113D01*
X390722490Y67403113D01*
X390722490Y66596887D01*
G37*
G36*
X388903113Y68685956D02*
G01*
X388794667Y68577510D01*
X388205333Y68577510D01*
X388096887Y68685956D01*
X388096887Y69222490D01*
X388903113Y69222490D01*
X388903113Y68685956D01*
G37*
G36*
X389903113Y68685956D02*
G01*
X389794667Y68577510D01*
X389205333Y68577510D01*
X389096887Y68685956D01*
X389096887Y69222490D01*
X389903113Y69222490D01*
X389903113Y68685956D01*
G37*
G36*
X388903113Y66314044D02*
G01*
X388903113Y65777510D01*
X388096887Y65777510D01*
X388096887Y66314044D01*
X388205333Y66422490D01*
X388794667Y66422490D01*
X388903113Y66314044D01*
G37*
G36*
X389903113Y66314044D02*
G01*
X389903113Y65777510D01*
X389096887Y65777510D01*
X389096887Y66314044D01*
X389205333Y66422490D01*
X389794667Y66422490D01*
X389903113Y66314044D01*
G37*
G36*
X387922490Y68705333D02*
G01*
X387794667Y68577510D01*
X387277510Y68577510D01*
X387277510Y69222490D01*
X387922490Y69222490D01*
X387922490Y68705333D01*
G37*
G36*
X387922490Y66294667D02*
G01*
X387922490Y65777510D01*
X387277510Y65777510D01*
X387277510Y66422490D01*
X387794667Y66422490D01*
X387922490Y66294667D01*
G37*
G36*
X390722490Y68577510D02*
G01*
X390205333Y68577510D01*
X390077510Y68705333D01*
X390077510Y69222490D01*
X390722490Y69222490D01*
X390722490Y68577510D01*
G37*
G36*
X390722490Y65777510D02*
G01*
X390077510Y65777510D01*
X390077510Y66294667D01*
X390205333Y66422490D01*
X390722490Y66422490D01*
X390722490Y65777510D01*
G37*
G36*
X386893626Y69374699D02*
G01*
X386899693Y69373799D01*
X386905643Y69372309D01*
X386911418Y69370242D01*
X386916962Y69367620D01*
X386922223Y69364467D01*
X386927150Y69360813D01*
X386931694Y69356694D01*
X386935813Y69352150D01*
X386939467Y69347223D01*
X386942620Y69341962D01*
X386945242Y69336418D01*
X386947309Y69330643D01*
X386948799Y69324693D01*
X386949699Y69318626D01*
X386950000Y69312500D01*
X386950000Y69187500D01*
X386949699Y69181374D01*
X386948799Y69175307D01*
X386947309Y69169357D01*
X386945242Y69163582D01*
X386942620Y69158038D01*
X386939467Y69152777D01*
X386935813Y69147850D01*
X386931694Y69143306D01*
X386927150Y69139187D01*
X386922223Y69135533D01*
X386916962Y69132380D01*
X386911418Y69129758D01*
X386905643Y69127691D01*
X386899693Y69126201D01*
X386893626Y69125301D01*
X386887500Y69125000D01*
X386212500Y69125000D01*
X386206374Y69125301D01*
X386200307Y69126201D01*
X386194357Y69127691D01*
X386188582Y69129758D01*
X386183038Y69132380D01*
X386177777Y69135533D01*
X386172850Y69139187D01*
X386168306Y69143306D01*
X386164187Y69147850D01*
X386160533Y69152777D01*
X386157380Y69158038D01*
X386154758Y69163582D01*
X386152691Y69169357D01*
X386151201Y69175307D01*
X386150301Y69181374D01*
X386150000Y69187500D01*
X386150000Y69312500D01*
X386150301Y69318626D01*
X386151201Y69324693D01*
X386152691Y69330643D01*
X386154758Y69336418D01*
X386157380Y69341962D01*
X386160533Y69347223D01*
X386164187Y69352150D01*
X386168306Y69356694D01*
X386172850Y69360813D01*
X386177777Y69364467D01*
X386183038Y69367620D01*
X386188582Y69370242D01*
X386194357Y69372309D01*
X386200307Y69373799D01*
X386206374Y69374699D01*
X386212500Y69375000D01*
X386887500Y69375000D01*
X386893626Y69374699D01*
G37*
G36*
X386893626Y68874699D02*
G01*
X386899693Y68873799D01*
X386905643Y68872309D01*
X386911418Y68870242D01*
X386916962Y68867620D01*
X386922223Y68864467D01*
X386927150Y68860813D01*
X386931694Y68856694D01*
X386935813Y68852150D01*
X386939467Y68847223D01*
X386942620Y68841962D01*
X386945242Y68836418D01*
X386947309Y68830643D01*
X386948799Y68824693D01*
X386949699Y68818626D01*
X386950000Y68812500D01*
X386950000Y68687500D01*
X386949699Y68681374D01*
X386948799Y68675307D01*
X386947309Y68669357D01*
X386945242Y68663582D01*
X386942620Y68658038D01*
X386939467Y68652777D01*
X386935813Y68647850D01*
X386931694Y68643306D01*
X386927150Y68639187D01*
X386922223Y68635533D01*
X386916962Y68632380D01*
X386911418Y68629758D01*
X386905643Y68627691D01*
X386899693Y68626201D01*
X386893626Y68625301D01*
X386887500Y68625000D01*
X386212500Y68625000D01*
X386206374Y68625301D01*
X386200307Y68626201D01*
X386194357Y68627691D01*
X386188582Y68629758D01*
X386183038Y68632380D01*
X386177777Y68635533D01*
X386172850Y68639187D01*
X386168306Y68643306D01*
X386164187Y68647850D01*
X386160533Y68652777D01*
X386157380Y68658038D01*
X386154758Y68663582D01*
X386152691Y68669357D01*
X386151201Y68675307D01*
X386150301Y68681374D01*
X386150000Y68687500D01*
X386150000Y68812500D01*
X386150301Y68818626D01*
X386151201Y68824693D01*
X386152691Y68830643D01*
X386154758Y68836418D01*
X386157380Y68841962D01*
X386160533Y68847223D01*
X386164187Y68852150D01*
X386168306Y68856694D01*
X386172850Y68860813D01*
X386177777Y68864467D01*
X386183038Y68867620D01*
X386188582Y68870242D01*
X386194357Y68872309D01*
X386200307Y68873799D01*
X386206374Y68874699D01*
X386212500Y68875000D01*
X386887500Y68875000D01*
X386893626Y68874699D01*
G37*
G36*
X386893626Y68374699D02*
G01*
X386899693Y68373799D01*
X386905643Y68372309D01*
X386911418Y68370242D01*
X386916962Y68367620D01*
X386922223Y68364467D01*
X386927150Y68360813D01*
X386931694Y68356694D01*
X386935813Y68352150D01*
X386939467Y68347223D01*
X386942620Y68341962D01*
X386945242Y68336418D01*
X386947309Y68330643D01*
X386948799Y68324693D01*
X386949699Y68318626D01*
X386950000Y68312500D01*
X386950000Y68187500D01*
X386949699Y68181374D01*
X386948799Y68175307D01*
X386947309Y68169357D01*
X386945242Y68163582D01*
X386942620Y68158038D01*
X386939467Y68152777D01*
X386935813Y68147850D01*
X386931694Y68143306D01*
X386927150Y68139187D01*
X386922223Y68135533D01*
X386916962Y68132380D01*
X386911418Y68129758D01*
X386905643Y68127691D01*
X386899693Y68126201D01*
X386893626Y68125301D01*
X386887500Y68125000D01*
X386212500Y68125000D01*
X386206374Y68125301D01*
X386200307Y68126201D01*
X386194357Y68127691D01*
X386188582Y68129758D01*
X386183038Y68132380D01*
X386177777Y68135533D01*
X386172850Y68139187D01*
X386168306Y68143306D01*
X386164187Y68147850D01*
X386160533Y68152777D01*
X386157380Y68158038D01*
X386154758Y68163582D01*
X386152691Y68169357D01*
X386151201Y68175307D01*
X386150301Y68181374D01*
X386150000Y68187500D01*
X386150000Y68312500D01*
X386150301Y68318626D01*
X386151201Y68324693D01*
X386152691Y68330643D01*
X386154758Y68336418D01*
X386157380Y68341962D01*
X386160533Y68347223D01*
X386164187Y68352150D01*
X386168306Y68356694D01*
X386172850Y68360813D01*
X386177777Y68364467D01*
X386183038Y68367620D01*
X386188582Y68370242D01*
X386194357Y68372309D01*
X386200307Y68373799D01*
X386206374Y68374699D01*
X386212500Y68375000D01*
X386887500Y68375000D01*
X386893626Y68374699D01*
G37*
G36*
X386893626Y67874699D02*
G01*
X386899693Y67873799D01*
X386905643Y67872309D01*
X386911418Y67870242D01*
X386916962Y67867620D01*
X386922223Y67864467D01*
X386927150Y67860813D01*
X386931694Y67856694D01*
X386935813Y67852150D01*
X386939467Y67847223D01*
X386942620Y67841962D01*
X386945242Y67836418D01*
X386947309Y67830643D01*
X386948799Y67824693D01*
X386949699Y67818626D01*
X386950000Y67812500D01*
X386950000Y67687500D01*
X386949699Y67681374D01*
X386948799Y67675307D01*
X386947309Y67669357D01*
X386945242Y67663582D01*
X386942620Y67658038D01*
X386939467Y67652777D01*
X386935813Y67647850D01*
X386931694Y67643306D01*
X386927150Y67639187D01*
X386922223Y67635533D01*
X386916962Y67632380D01*
X386911418Y67629758D01*
X386905643Y67627691D01*
X386899693Y67626201D01*
X386893626Y67625301D01*
X386887500Y67625000D01*
X386212500Y67625000D01*
X386206374Y67625301D01*
X386200307Y67626201D01*
X386194357Y67627691D01*
X386188582Y67629758D01*
X386183038Y67632380D01*
X386177777Y67635533D01*
X386172850Y67639187D01*
X386168306Y67643306D01*
X386164187Y67647850D01*
X386160533Y67652777D01*
X386157380Y67658038D01*
X386154758Y67663582D01*
X386152691Y67669357D01*
X386151201Y67675307D01*
X386150301Y67681374D01*
X386150000Y67687500D01*
X386150000Y67812500D01*
X386150301Y67818626D01*
X386151201Y67824693D01*
X386152691Y67830643D01*
X386154758Y67836418D01*
X386157380Y67841962D01*
X386160533Y67847223D01*
X386164187Y67852150D01*
X386168306Y67856694D01*
X386172850Y67860813D01*
X386177777Y67864467D01*
X386183038Y67867620D01*
X386188582Y67870242D01*
X386194357Y67872309D01*
X386200307Y67873799D01*
X386206374Y67874699D01*
X386212500Y67875000D01*
X386887500Y67875000D01*
X386893626Y67874699D01*
G37*
G36*
X386893626Y67374699D02*
G01*
X386899693Y67373799D01*
X386905643Y67372309D01*
X386911418Y67370242D01*
X386916962Y67367620D01*
X386922223Y67364467D01*
X386927150Y67360813D01*
X386931694Y67356694D01*
X386935813Y67352150D01*
X386939467Y67347223D01*
X386942620Y67341962D01*
X386945242Y67336418D01*
X386947309Y67330643D01*
X386948799Y67324693D01*
X386949699Y67318626D01*
X386950000Y67312500D01*
X386950000Y67187500D01*
X386949699Y67181374D01*
X386948799Y67175307D01*
X386947309Y67169357D01*
X386945242Y67163582D01*
X386942620Y67158038D01*
X386939467Y67152777D01*
X386935813Y67147850D01*
X386931694Y67143306D01*
X386927150Y67139187D01*
X386922223Y67135533D01*
X386916962Y67132380D01*
X386911418Y67129758D01*
X386905643Y67127691D01*
X386899693Y67126201D01*
X386893626Y67125301D01*
X386887500Y67125000D01*
X386212500Y67125000D01*
X386206374Y67125301D01*
X386200307Y67126201D01*
X386194357Y67127691D01*
X386188582Y67129758D01*
X386183038Y67132380D01*
X386177777Y67135533D01*
X386172850Y67139187D01*
X386168306Y67143306D01*
X386164187Y67147850D01*
X386160533Y67152777D01*
X386157380Y67158038D01*
X386154758Y67163582D01*
X386152691Y67169357D01*
X386151201Y67175307D01*
X386150301Y67181374D01*
X386150000Y67187500D01*
X386150000Y67312500D01*
X386150301Y67318626D01*
X386151201Y67324693D01*
X386152691Y67330643D01*
X386154758Y67336418D01*
X386157380Y67341962D01*
X386160533Y67347223D01*
X386164187Y67352150D01*
X386168306Y67356694D01*
X386172850Y67360813D01*
X386177777Y67364467D01*
X386183038Y67367620D01*
X386188582Y67370242D01*
X386194357Y67372309D01*
X386200307Y67373799D01*
X386206374Y67374699D01*
X386212500Y67375000D01*
X386887500Y67375000D01*
X386893626Y67374699D01*
G37*
G36*
X386893626Y66874699D02*
G01*
X386899693Y66873799D01*
X386905643Y66872309D01*
X386911418Y66870242D01*
X386916962Y66867620D01*
X386922223Y66864467D01*
X386927150Y66860813D01*
X386931694Y66856694D01*
X386935813Y66852150D01*
X386939467Y66847223D01*
X386942620Y66841962D01*
X386945242Y66836418D01*
X386947309Y66830643D01*
X386948799Y66824693D01*
X386949699Y66818626D01*
X386950000Y66812500D01*
X386950000Y66687500D01*
X386949699Y66681374D01*
X386948799Y66675307D01*
X386947309Y66669357D01*
X386945242Y66663582D01*
X386942620Y66658038D01*
X386939467Y66652777D01*
X386935813Y66647850D01*
X386931694Y66643306D01*
X386927150Y66639187D01*
X386922223Y66635533D01*
X386916962Y66632380D01*
X386911418Y66629758D01*
X386905643Y66627691D01*
X386899693Y66626201D01*
X386893626Y66625301D01*
X386887500Y66625000D01*
X386212500Y66625000D01*
X386206374Y66625301D01*
X386200307Y66626201D01*
X386194357Y66627691D01*
X386188582Y66629758D01*
X386183038Y66632380D01*
X386177777Y66635533D01*
X386172850Y66639187D01*
X386168306Y66643306D01*
X386164187Y66647850D01*
X386160533Y66652777D01*
X386157380Y66658038D01*
X386154758Y66663582D01*
X386152691Y66669357D01*
X386151201Y66675307D01*
X386150301Y66681374D01*
X386150000Y66687500D01*
X386150000Y66812500D01*
X386150301Y66818626D01*
X386151201Y66824693D01*
X386152691Y66830643D01*
X386154758Y66836418D01*
X386157380Y66841962D01*
X386160533Y66847223D01*
X386164187Y66852150D01*
X386168306Y66856694D01*
X386172850Y66860813D01*
X386177777Y66864467D01*
X386183038Y66867620D01*
X386188582Y66870242D01*
X386194357Y66872309D01*
X386200307Y66873799D01*
X386206374Y66874699D01*
X386212500Y66875000D01*
X386887500Y66875000D01*
X386893626Y66874699D01*
G37*
G36*
X386893626Y66374699D02*
G01*
X386899693Y66373799D01*
X386905643Y66372309D01*
X386911418Y66370242D01*
X386916962Y66367620D01*
X386922223Y66364467D01*
X386927150Y66360813D01*
X386931694Y66356694D01*
X386935813Y66352150D01*
X386939467Y66347223D01*
X386942620Y66341962D01*
X386945242Y66336418D01*
X386947309Y66330643D01*
X386948799Y66324693D01*
X386949699Y66318626D01*
X386950000Y66312500D01*
X386950000Y66187500D01*
X386949699Y66181374D01*
X386948799Y66175307D01*
X386947309Y66169357D01*
X386945242Y66163582D01*
X386942620Y66158038D01*
X386939467Y66152777D01*
X386935813Y66147850D01*
X386931694Y66143306D01*
X386927150Y66139187D01*
X386922223Y66135533D01*
X386916962Y66132380D01*
X386911418Y66129758D01*
X386905643Y66127691D01*
X386899693Y66126201D01*
X386893626Y66125301D01*
X386887500Y66125000D01*
X386212500Y66125000D01*
X386206374Y66125301D01*
X386200307Y66126201D01*
X386194357Y66127691D01*
X386188582Y66129758D01*
X386183038Y66132380D01*
X386177777Y66135533D01*
X386172850Y66139187D01*
X386168306Y66143306D01*
X386164187Y66147850D01*
X386160533Y66152777D01*
X386157380Y66158038D01*
X386154758Y66163582D01*
X386152691Y66169357D01*
X386151201Y66175307D01*
X386150301Y66181374D01*
X386150000Y66187500D01*
X386150000Y66312500D01*
X386150301Y66318626D01*
X386151201Y66324693D01*
X386152691Y66330643D01*
X386154758Y66336418D01*
X386157380Y66341962D01*
X386160533Y66347223D01*
X386164187Y66352150D01*
X386168306Y66356694D01*
X386172850Y66360813D01*
X386177777Y66364467D01*
X386183038Y66367620D01*
X386188582Y66370242D01*
X386194357Y66372309D01*
X386200307Y66373799D01*
X386206374Y66374699D01*
X386212500Y66375000D01*
X386887500Y66375000D01*
X386893626Y66374699D01*
G37*
G36*
X386893626Y65874699D02*
G01*
X386899693Y65873799D01*
X386905643Y65872309D01*
X386911418Y65870242D01*
X386916962Y65867620D01*
X386922223Y65864467D01*
X386927150Y65860813D01*
X386931694Y65856694D01*
X386935813Y65852150D01*
X386939467Y65847223D01*
X386942620Y65841962D01*
X386945242Y65836418D01*
X386947309Y65830643D01*
X386948799Y65824693D01*
X386949699Y65818626D01*
X386950000Y65812500D01*
X386950000Y65687500D01*
X386949699Y65681374D01*
X386948799Y65675307D01*
X386947309Y65669357D01*
X386945242Y65663582D01*
X386942620Y65658038D01*
X386939467Y65652777D01*
X386935813Y65647850D01*
X386931694Y65643306D01*
X386927150Y65639187D01*
X386922223Y65635533D01*
X386916962Y65632380D01*
X386911418Y65629758D01*
X386905643Y65627691D01*
X386899693Y65626201D01*
X386893626Y65625301D01*
X386887500Y65625000D01*
X386212500Y65625000D01*
X386206374Y65625301D01*
X386200307Y65626201D01*
X386194357Y65627691D01*
X386188582Y65629758D01*
X386183038Y65632380D01*
X386177777Y65635533D01*
X386172850Y65639187D01*
X386168306Y65643306D01*
X386164187Y65647850D01*
X386160533Y65652777D01*
X386157380Y65658038D01*
X386154758Y65663582D01*
X386152691Y65669357D01*
X386151201Y65675307D01*
X386150301Y65681374D01*
X386150000Y65687500D01*
X386150000Y65812500D01*
X386150301Y65818626D01*
X386151201Y65824693D01*
X386152691Y65830643D01*
X386154758Y65836418D01*
X386157380Y65841962D01*
X386160533Y65847223D01*
X386164187Y65852150D01*
X386168306Y65856694D01*
X386172850Y65860813D01*
X386177777Y65864467D01*
X386183038Y65867620D01*
X386188582Y65870242D01*
X386194357Y65872309D01*
X386200307Y65873799D01*
X386206374Y65874699D01*
X386212500Y65875000D01*
X386887500Y65875000D01*
X386893626Y65874699D01*
G37*
G36*
X387318626Y65449699D02*
G01*
X387324693Y65448799D01*
X387330643Y65447309D01*
X387336418Y65445242D01*
X387341962Y65442620D01*
X387347223Y65439467D01*
X387352150Y65435813D01*
X387356694Y65431694D01*
X387360813Y65427150D01*
X387364467Y65422223D01*
X387367620Y65416962D01*
X387370242Y65411418D01*
X387372309Y65405643D01*
X387373799Y65399693D01*
X387374699Y65393626D01*
X387375000Y65387500D01*
X387375000Y64712500D01*
X387374699Y64706374D01*
X387373799Y64700307D01*
X387372309Y64694357D01*
X387370242Y64688582D01*
X387367620Y64683038D01*
X387364467Y64677777D01*
X387360813Y64672850D01*
X387356694Y64668306D01*
X387352150Y64664187D01*
X387347223Y64660533D01*
X387341962Y64657380D01*
X387336418Y64654758D01*
X387330643Y64652691D01*
X387324693Y64651201D01*
X387318626Y64650301D01*
X387312500Y64650000D01*
X387187500Y64650000D01*
X387181374Y64650301D01*
X387175307Y64651201D01*
X387169357Y64652691D01*
X387163582Y64654758D01*
X387158038Y64657380D01*
X387152777Y64660533D01*
X387147850Y64664187D01*
X387143306Y64668306D01*
X387139187Y64672850D01*
X387135533Y64677777D01*
X387132380Y64683038D01*
X387129758Y64688582D01*
X387127691Y64694357D01*
X387126201Y64700307D01*
X387125301Y64706374D01*
X387125000Y64712500D01*
X387125000Y65387500D01*
X387125301Y65393626D01*
X387126201Y65399693D01*
X387127691Y65405643D01*
X387129758Y65411418D01*
X387132380Y65416962D01*
X387135533Y65422223D01*
X387139187Y65427150D01*
X387143306Y65431694D01*
X387147850Y65435813D01*
X387152777Y65439467D01*
X387158038Y65442620D01*
X387163582Y65445242D01*
X387169357Y65447309D01*
X387175307Y65448799D01*
X387181374Y65449699D01*
X387187500Y65450000D01*
X387312500Y65450000D01*
X387318626Y65449699D01*
G37*
G36*
X387818626Y65449699D02*
G01*
X387824693Y65448799D01*
X387830643Y65447309D01*
X387836418Y65445242D01*
X387841962Y65442620D01*
X387847223Y65439467D01*
X387852150Y65435813D01*
X387856694Y65431694D01*
X387860813Y65427150D01*
X387864467Y65422223D01*
X387867620Y65416962D01*
X387870242Y65411418D01*
X387872309Y65405643D01*
X387873799Y65399693D01*
X387874699Y65393626D01*
X387875000Y65387500D01*
X387875000Y64712500D01*
X387874699Y64706374D01*
X387873799Y64700307D01*
X387872309Y64694357D01*
X387870242Y64688582D01*
X387867620Y64683038D01*
X387864467Y64677777D01*
X387860813Y64672850D01*
X387856694Y64668306D01*
X387852150Y64664187D01*
X387847223Y64660533D01*
X387841962Y64657380D01*
X387836418Y64654758D01*
X387830643Y64652691D01*
X387824693Y64651201D01*
X387818626Y64650301D01*
X387812500Y64650000D01*
X387687500Y64650000D01*
X387681374Y64650301D01*
X387675307Y64651201D01*
X387669357Y64652691D01*
X387663582Y64654758D01*
X387658038Y64657380D01*
X387652777Y64660533D01*
X387647850Y64664187D01*
X387643306Y64668306D01*
X387639187Y64672850D01*
X387635533Y64677777D01*
X387632380Y64683038D01*
X387629758Y64688582D01*
X387627691Y64694357D01*
X387626201Y64700307D01*
X387625301Y64706374D01*
X387625000Y64712500D01*
X387625000Y65387500D01*
X387625301Y65393626D01*
X387626201Y65399693D01*
X387627691Y65405643D01*
X387629758Y65411418D01*
X387632380Y65416962D01*
X387635533Y65422223D01*
X387639187Y65427150D01*
X387643306Y65431694D01*
X387647850Y65435813D01*
X387652777Y65439467D01*
X387658038Y65442620D01*
X387663582Y65445242D01*
X387669357Y65447309D01*
X387675307Y65448799D01*
X387681374Y65449699D01*
X387687500Y65450000D01*
X387812500Y65450000D01*
X387818626Y65449699D01*
G37*
G36*
X388318626Y65449699D02*
G01*
X388324693Y65448799D01*
X388330643Y65447309D01*
X388336418Y65445242D01*
X388341962Y65442620D01*
X388347223Y65439467D01*
X388352150Y65435813D01*
X388356694Y65431694D01*
X388360813Y65427150D01*
X388364467Y65422223D01*
X388367620Y65416962D01*
X388370242Y65411418D01*
X388372309Y65405643D01*
X388373799Y65399693D01*
X388374699Y65393626D01*
X388375000Y65387500D01*
X388375000Y64712500D01*
X388374699Y64706374D01*
X388373799Y64700307D01*
X388372309Y64694357D01*
X388370242Y64688582D01*
X388367620Y64683038D01*
X388364467Y64677777D01*
X388360813Y64672850D01*
X388356694Y64668306D01*
X388352150Y64664187D01*
X388347223Y64660533D01*
X388341962Y64657380D01*
X388336418Y64654758D01*
X388330643Y64652691D01*
X388324693Y64651201D01*
X388318626Y64650301D01*
X388312500Y64650000D01*
X388187500Y64650000D01*
X388181374Y64650301D01*
X388175307Y64651201D01*
X388169357Y64652691D01*
X388163582Y64654758D01*
X388158038Y64657380D01*
X388152777Y64660533D01*
X388147850Y64664187D01*
X388143306Y64668306D01*
X388139187Y64672850D01*
X388135533Y64677777D01*
X388132380Y64683038D01*
X388129758Y64688582D01*
X388127691Y64694357D01*
X388126201Y64700307D01*
X388125301Y64706374D01*
X388125000Y64712500D01*
X388125000Y65387500D01*
X388125301Y65393626D01*
X388126201Y65399693D01*
X388127691Y65405643D01*
X388129758Y65411418D01*
X388132380Y65416962D01*
X388135533Y65422223D01*
X388139187Y65427150D01*
X388143306Y65431694D01*
X388147850Y65435813D01*
X388152777Y65439467D01*
X388158038Y65442620D01*
X388163582Y65445242D01*
X388169357Y65447309D01*
X388175307Y65448799D01*
X388181374Y65449699D01*
X388187500Y65450000D01*
X388312500Y65450000D01*
X388318626Y65449699D01*
G37*
G36*
X388818626Y65449699D02*
G01*
X388824693Y65448799D01*
X388830643Y65447309D01*
X388836418Y65445242D01*
X388841962Y65442620D01*
X388847223Y65439467D01*
X388852150Y65435813D01*
X388856694Y65431694D01*
X388860813Y65427150D01*
X388864467Y65422223D01*
X388867620Y65416962D01*
X388870242Y65411418D01*
X388872309Y65405643D01*
X388873799Y65399693D01*
X388874699Y65393626D01*
X388875000Y65387500D01*
X388875000Y64712500D01*
X388874699Y64706374D01*
X388873799Y64700307D01*
X388872309Y64694357D01*
X388870242Y64688582D01*
X388867620Y64683038D01*
X388864467Y64677777D01*
X388860813Y64672850D01*
X388856694Y64668306D01*
X388852150Y64664187D01*
X388847223Y64660533D01*
X388841962Y64657380D01*
X388836418Y64654758D01*
X388830643Y64652691D01*
X388824693Y64651201D01*
X388818626Y64650301D01*
X388812500Y64650000D01*
X388687500Y64650000D01*
X388681374Y64650301D01*
X388675307Y64651201D01*
X388669357Y64652691D01*
X388663582Y64654758D01*
X388658038Y64657380D01*
X388652777Y64660533D01*
X388647850Y64664187D01*
X388643306Y64668306D01*
X388639187Y64672850D01*
X388635533Y64677777D01*
X388632380Y64683038D01*
X388629758Y64688582D01*
X388627691Y64694357D01*
X388626201Y64700307D01*
X388625301Y64706374D01*
X388625000Y64712500D01*
X388625000Y65387500D01*
X388625301Y65393626D01*
X388626201Y65399693D01*
X388627691Y65405643D01*
X388629758Y65411418D01*
X388632380Y65416962D01*
X388635533Y65422223D01*
X388639187Y65427150D01*
X388643306Y65431694D01*
X388647850Y65435813D01*
X388652777Y65439467D01*
X388658038Y65442620D01*
X388663582Y65445242D01*
X388669357Y65447309D01*
X388675307Y65448799D01*
X388681374Y65449699D01*
X388687500Y65450000D01*
X388812500Y65450000D01*
X388818626Y65449699D01*
G37*
G36*
X389318626Y65449699D02*
G01*
X389324693Y65448799D01*
X389330643Y65447309D01*
X389336418Y65445242D01*
X389341962Y65442620D01*
X389347223Y65439467D01*
X389352150Y65435813D01*
X389356694Y65431694D01*
X389360813Y65427150D01*
X389364467Y65422223D01*
X389367620Y65416962D01*
X389370242Y65411418D01*
X389372309Y65405643D01*
X389373799Y65399693D01*
X389374699Y65393626D01*
X389375000Y65387500D01*
X389375000Y64712500D01*
X389374699Y64706374D01*
X389373799Y64700307D01*
X389372309Y64694357D01*
X389370242Y64688582D01*
X389367620Y64683038D01*
X389364467Y64677777D01*
X389360813Y64672850D01*
X389356694Y64668306D01*
X389352150Y64664187D01*
X389347223Y64660533D01*
X389341962Y64657380D01*
X389336418Y64654758D01*
X389330643Y64652691D01*
X389324693Y64651201D01*
X389318626Y64650301D01*
X389312500Y64650000D01*
X389187500Y64650000D01*
X389181374Y64650301D01*
X389175307Y64651201D01*
X389169357Y64652691D01*
X389163582Y64654758D01*
X389158038Y64657380D01*
X389152777Y64660533D01*
X389147850Y64664187D01*
X389143306Y64668306D01*
X389139187Y64672850D01*
X389135533Y64677777D01*
X389132380Y64683038D01*
X389129758Y64688582D01*
X389127691Y64694357D01*
X389126201Y64700307D01*
X389125301Y64706374D01*
X389125000Y64712500D01*
X389125000Y65387500D01*
X389125301Y65393626D01*
X389126201Y65399693D01*
X389127691Y65405643D01*
X389129758Y65411418D01*
X389132380Y65416962D01*
X389135533Y65422223D01*
X389139187Y65427150D01*
X389143306Y65431694D01*
X389147850Y65435813D01*
X389152777Y65439467D01*
X389158038Y65442620D01*
X389163582Y65445242D01*
X389169357Y65447309D01*
X389175307Y65448799D01*
X389181374Y65449699D01*
X389187500Y65450000D01*
X389312500Y65450000D01*
X389318626Y65449699D01*
G37*
G36*
X389818626Y65449699D02*
G01*
X389824693Y65448799D01*
X389830643Y65447309D01*
X389836418Y65445242D01*
X389841962Y65442620D01*
X389847223Y65439467D01*
X389852150Y65435813D01*
X389856694Y65431694D01*
X389860813Y65427150D01*
X389864467Y65422223D01*
X389867620Y65416962D01*
X389870242Y65411418D01*
X389872309Y65405643D01*
X389873799Y65399693D01*
X389874699Y65393626D01*
X389875000Y65387500D01*
X389875000Y64712500D01*
X389874699Y64706374D01*
X389873799Y64700307D01*
X389872309Y64694357D01*
X389870242Y64688582D01*
X389867620Y64683038D01*
X389864467Y64677777D01*
X389860813Y64672850D01*
X389856694Y64668306D01*
X389852150Y64664187D01*
X389847223Y64660533D01*
X389841962Y64657380D01*
X389836418Y64654758D01*
X389830643Y64652691D01*
X389824693Y64651201D01*
X389818626Y64650301D01*
X389812500Y64650000D01*
X389687500Y64650000D01*
X389681374Y64650301D01*
X389675307Y64651201D01*
X389669357Y64652691D01*
X389663582Y64654758D01*
X389658038Y64657380D01*
X389652777Y64660533D01*
X389647850Y64664187D01*
X389643306Y64668306D01*
X389639187Y64672850D01*
X389635533Y64677777D01*
X389632380Y64683038D01*
X389629758Y64688582D01*
X389627691Y64694357D01*
X389626201Y64700307D01*
X389625301Y64706374D01*
X389625000Y64712500D01*
X389625000Y65387500D01*
X389625301Y65393626D01*
X389626201Y65399693D01*
X389627691Y65405643D01*
X389629758Y65411418D01*
X389632380Y65416962D01*
X389635533Y65422223D01*
X389639187Y65427150D01*
X389643306Y65431694D01*
X389647850Y65435813D01*
X389652777Y65439467D01*
X389658038Y65442620D01*
X389663582Y65445242D01*
X389669357Y65447309D01*
X389675307Y65448799D01*
X389681374Y65449699D01*
X389687500Y65450000D01*
X389812500Y65450000D01*
X389818626Y65449699D01*
G37*
G36*
X390318626Y65449699D02*
G01*
X390324693Y65448799D01*
X390330643Y65447309D01*
X390336418Y65445242D01*
X390341962Y65442620D01*
X390347223Y65439467D01*
X390352150Y65435813D01*
X390356694Y65431694D01*
X390360813Y65427150D01*
X390364467Y65422223D01*
X390367620Y65416962D01*
X390370242Y65411418D01*
X390372309Y65405643D01*
X390373799Y65399693D01*
X390374699Y65393626D01*
X390375000Y65387500D01*
X390375000Y64712500D01*
X390374699Y64706374D01*
X390373799Y64700307D01*
X390372309Y64694357D01*
X390370242Y64688582D01*
X390367620Y64683038D01*
X390364467Y64677777D01*
X390360813Y64672850D01*
X390356694Y64668306D01*
X390352150Y64664187D01*
X390347223Y64660533D01*
X390341962Y64657380D01*
X390336418Y64654758D01*
X390330643Y64652691D01*
X390324693Y64651201D01*
X390318626Y64650301D01*
X390312500Y64650000D01*
X390187500Y64650000D01*
X390181374Y64650301D01*
X390175307Y64651201D01*
X390169357Y64652691D01*
X390163582Y64654758D01*
X390158038Y64657380D01*
X390152777Y64660533D01*
X390147850Y64664187D01*
X390143306Y64668306D01*
X390139187Y64672850D01*
X390135533Y64677777D01*
X390132380Y64683038D01*
X390129758Y64688582D01*
X390127691Y64694357D01*
X390126201Y64700307D01*
X390125301Y64706374D01*
X390125000Y64712500D01*
X390125000Y65387500D01*
X390125301Y65393626D01*
X390126201Y65399693D01*
X390127691Y65405643D01*
X390129758Y65411418D01*
X390132380Y65416962D01*
X390135533Y65422223D01*
X390139187Y65427150D01*
X390143306Y65431694D01*
X390147850Y65435813D01*
X390152777Y65439467D01*
X390158038Y65442620D01*
X390163582Y65445242D01*
X390169357Y65447309D01*
X390175307Y65448799D01*
X390181374Y65449699D01*
X390187500Y65450000D01*
X390312500Y65450000D01*
X390318626Y65449699D01*
G37*
G36*
X390818626Y65449699D02*
G01*
X390824693Y65448799D01*
X390830643Y65447309D01*
X390836418Y65445242D01*
X390841962Y65442620D01*
X390847223Y65439467D01*
X390852150Y65435813D01*
X390856694Y65431694D01*
X390860813Y65427150D01*
X390864467Y65422223D01*
X390867620Y65416962D01*
X390870242Y65411418D01*
X390872309Y65405643D01*
X390873799Y65399693D01*
X390874699Y65393626D01*
X390875000Y65387500D01*
X390875000Y64712500D01*
X390874699Y64706374D01*
X390873799Y64700307D01*
X390872309Y64694357D01*
X390870242Y64688582D01*
X390867620Y64683038D01*
X390864467Y64677777D01*
X390860813Y64672850D01*
X390856694Y64668306D01*
X390852150Y64664187D01*
X390847223Y64660533D01*
X390841962Y64657380D01*
X390836418Y64654758D01*
X390830643Y64652691D01*
X390824693Y64651201D01*
X390818626Y64650301D01*
X390812500Y64650000D01*
X390687500Y64650000D01*
X390681374Y64650301D01*
X390675307Y64651201D01*
X390669357Y64652691D01*
X390663582Y64654758D01*
X390658038Y64657380D01*
X390652777Y64660533D01*
X390647850Y64664187D01*
X390643306Y64668306D01*
X390639187Y64672850D01*
X390635533Y64677777D01*
X390632380Y64683038D01*
X390629758Y64688582D01*
X390627691Y64694357D01*
X390626201Y64700307D01*
X390625301Y64706374D01*
X390625000Y64712500D01*
X390625000Y65387500D01*
X390625301Y65393626D01*
X390626201Y65399693D01*
X390627691Y65405643D01*
X390629758Y65411418D01*
X390632380Y65416962D01*
X390635533Y65422223D01*
X390639187Y65427150D01*
X390643306Y65431694D01*
X390647850Y65435813D01*
X390652777Y65439467D01*
X390658038Y65442620D01*
X390663582Y65445242D01*
X390669357Y65447309D01*
X390675307Y65448799D01*
X390681374Y65449699D01*
X390687500Y65450000D01*
X390812500Y65450000D01*
X390818626Y65449699D01*
G37*
G36*
X391793626Y65874699D02*
G01*
X391799693Y65873799D01*
X391805643Y65872309D01*
X391811418Y65870242D01*
X391816962Y65867620D01*
X391822223Y65864467D01*
X391827150Y65860813D01*
X391831694Y65856694D01*
X391835813Y65852150D01*
X391839467Y65847223D01*
X391842620Y65841962D01*
X391845242Y65836418D01*
X391847309Y65830643D01*
X391848799Y65824693D01*
X391849699Y65818626D01*
X391850000Y65812500D01*
X391850000Y65687500D01*
X391849699Y65681374D01*
X391848799Y65675307D01*
X391847309Y65669357D01*
X391845242Y65663582D01*
X391842620Y65658038D01*
X391839467Y65652777D01*
X391835813Y65647850D01*
X391831694Y65643306D01*
X391827150Y65639187D01*
X391822223Y65635533D01*
X391816962Y65632380D01*
X391811418Y65629758D01*
X391805643Y65627691D01*
X391799693Y65626201D01*
X391793626Y65625301D01*
X391787500Y65625000D01*
X391112500Y65625000D01*
X391106374Y65625301D01*
X391100307Y65626201D01*
X391094357Y65627691D01*
X391088582Y65629758D01*
X391083038Y65632380D01*
X391077777Y65635533D01*
X391072850Y65639187D01*
X391068306Y65643306D01*
X391064187Y65647850D01*
X391060533Y65652777D01*
X391057380Y65658038D01*
X391054758Y65663582D01*
X391052691Y65669357D01*
X391051201Y65675307D01*
X391050301Y65681374D01*
X391050000Y65687500D01*
X391050000Y65812500D01*
X391050301Y65818626D01*
X391051201Y65824693D01*
X391052691Y65830643D01*
X391054758Y65836418D01*
X391057380Y65841962D01*
X391060533Y65847223D01*
X391064187Y65852150D01*
X391068306Y65856694D01*
X391072850Y65860813D01*
X391077777Y65864467D01*
X391083038Y65867620D01*
X391088582Y65870242D01*
X391094357Y65872309D01*
X391100307Y65873799D01*
X391106374Y65874699D01*
X391112500Y65875000D01*
X391787500Y65875000D01*
X391793626Y65874699D01*
G37*
G36*
X391793626Y66374699D02*
G01*
X391799693Y66373799D01*
X391805643Y66372309D01*
X391811418Y66370242D01*
X391816962Y66367620D01*
X391822223Y66364467D01*
X391827150Y66360813D01*
X391831694Y66356694D01*
X391835813Y66352150D01*
X391839467Y66347223D01*
X391842620Y66341962D01*
X391845242Y66336418D01*
X391847309Y66330643D01*
X391848799Y66324693D01*
X391849699Y66318626D01*
X391850000Y66312500D01*
X391850000Y66187500D01*
X391849699Y66181374D01*
X391848799Y66175307D01*
X391847309Y66169357D01*
X391845242Y66163582D01*
X391842620Y66158038D01*
X391839467Y66152777D01*
X391835813Y66147850D01*
X391831694Y66143306D01*
X391827150Y66139187D01*
X391822223Y66135533D01*
X391816962Y66132380D01*
X391811418Y66129758D01*
X391805643Y66127691D01*
X391799693Y66126201D01*
X391793626Y66125301D01*
X391787500Y66125000D01*
X391112500Y66125000D01*
X391106374Y66125301D01*
X391100307Y66126201D01*
X391094357Y66127691D01*
X391088582Y66129758D01*
X391083038Y66132380D01*
X391077777Y66135533D01*
X391072850Y66139187D01*
X391068306Y66143306D01*
X391064187Y66147850D01*
X391060533Y66152777D01*
X391057380Y66158038D01*
X391054758Y66163582D01*
X391052691Y66169357D01*
X391051201Y66175307D01*
X391050301Y66181374D01*
X391050000Y66187500D01*
X391050000Y66312500D01*
X391050301Y66318626D01*
X391051201Y66324693D01*
X391052691Y66330643D01*
X391054758Y66336418D01*
X391057380Y66341962D01*
X391060533Y66347223D01*
X391064187Y66352150D01*
X391068306Y66356694D01*
X391072850Y66360813D01*
X391077777Y66364467D01*
X391083038Y66367620D01*
X391088582Y66370242D01*
X391094357Y66372309D01*
X391100307Y66373799D01*
X391106374Y66374699D01*
X391112500Y66375000D01*
X391787500Y66375000D01*
X391793626Y66374699D01*
G37*
G36*
X391793626Y66874699D02*
G01*
X391799693Y66873799D01*
X391805643Y66872309D01*
X391811418Y66870242D01*
X391816962Y66867620D01*
X391822223Y66864467D01*
X391827150Y66860813D01*
X391831694Y66856694D01*
X391835813Y66852150D01*
X391839467Y66847223D01*
X391842620Y66841962D01*
X391845242Y66836418D01*
X391847309Y66830643D01*
X391848799Y66824693D01*
X391849699Y66818626D01*
X391850000Y66812500D01*
X391850000Y66687500D01*
X391849699Y66681374D01*
X391848799Y66675307D01*
X391847309Y66669357D01*
X391845242Y66663582D01*
X391842620Y66658038D01*
X391839467Y66652777D01*
X391835813Y66647850D01*
X391831694Y66643306D01*
X391827150Y66639187D01*
X391822223Y66635533D01*
X391816962Y66632380D01*
X391811418Y66629758D01*
X391805643Y66627691D01*
X391799693Y66626201D01*
X391793626Y66625301D01*
X391787500Y66625000D01*
X391112500Y66625000D01*
X391106374Y66625301D01*
X391100307Y66626201D01*
X391094357Y66627691D01*
X391088582Y66629758D01*
X391083038Y66632380D01*
X391077777Y66635533D01*
X391072850Y66639187D01*
X391068306Y66643306D01*
X391064187Y66647850D01*
X391060533Y66652777D01*
X391057380Y66658038D01*
X391054758Y66663582D01*
X391052691Y66669357D01*
X391051201Y66675307D01*
X391050301Y66681374D01*
X391050000Y66687500D01*
X391050000Y66812500D01*
X391050301Y66818626D01*
X391051201Y66824693D01*
X391052691Y66830643D01*
X391054758Y66836418D01*
X391057380Y66841962D01*
X391060533Y66847223D01*
X391064187Y66852150D01*
X391068306Y66856694D01*
X391072850Y66860813D01*
X391077777Y66864467D01*
X391083038Y66867620D01*
X391088582Y66870242D01*
X391094357Y66872309D01*
X391100307Y66873799D01*
X391106374Y66874699D01*
X391112500Y66875000D01*
X391787500Y66875000D01*
X391793626Y66874699D01*
G37*
G36*
X391793626Y67374699D02*
G01*
X391799693Y67373799D01*
X391805643Y67372309D01*
X391811418Y67370242D01*
X391816962Y67367620D01*
X391822223Y67364467D01*
X391827150Y67360813D01*
X391831694Y67356694D01*
X391835813Y67352150D01*
X391839467Y67347223D01*
X391842620Y67341962D01*
X391845242Y67336418D01*
X391847309Y67330643D01*
X391848799Y67324693D01*
X391849699Y67318626D01*
X391850000Y67312500D01*
X391850000Y67187500D01*
X391849699Y67181374D01*
X391848799Y67175307D01*
X391847309Y67169357D01*
X391845242Y67163582D01*
X391842620Y67158038D01*
X391839467Y67152777D01*
X391835813Y67147850D01*
X391831694Y67143306D01*
X391827150Y67139187D01*
X391822223Y67135533D01*
X391816962Y67132380D01*
X391811418Y67129758D01*
X391805643Y67127691D01*
X391799693Y67126201D01*
X391793626Y67125301D01*
X391787500Y67125000D01*
X391112500Y67125000D01*
X391106374Y67125301D01*
X391100307Y67126201D01*
X391094357Y67127691D01*
X391088582Y67129758D01*
X391083038Y67132380D01*
X391077777Y67135533D01*
X391072850Y67139187D01*
X391068306Y67143306D01*
X391064187Y67147850D01*
X391060533Y67152777D01*
X391057380Y67158038D01*
X391054758Y67163582D01*
X391052691Y67169357D01*
X391051201Y67175307D01*
X391050301Y67181374D01*
X391050000Y67187500D01*
X391050000Y67312500D01*
X391050301Y67318626D01*
X391051201Y67324693D01*
X391052691Y67330643D01*
X391054758Y67336418D01*
X391057380Y67341962D01*
X391060533Y67347223D01*
X391064187Y67352150D01*
X391068306Y67356694D01*
X391072850Y67360813D01*
X391077777Y67364467D01*
X391083038Y67367620D01*
X391088582Y67370242D01*
X391094357Y67372309D01*
X391100307Y67373799D01*
X391106374Y67374699D01*
X391112500Y67375000D01*
X391787500Y67375000D01*
X391793626Y67374699D01*
G37*
G36*
X391793626Y67874699D02*
G01*
X391799693Y67873799D01*
X391805643Y67872309D01*
X391811418Y67870242D01*
X391816962Y67867620D01*
X391822223Y67864467D01*
X391827150Y67860813D01*
X391831694Y67856694D01*
X391835813Y67852150D01*
X391839467Y67847223D01*
X391842620Y67841962D01*
X391845242Y67836418D01*
X391847309Y67830643D01*
X391848799Y67824693D01*
X391849699Y67818626D01*
X391850000Y67812500D01*
X391850000Y67687500D01*
X391849699Y67681374D01*
X391848799Y67675307D01*
X391847309Y67669357D01*
X391845242Y67663582D01*
X391842620Y67658038D01*
X391839467Y67652777D01*
X391835813Y67647850D01*
X391831694Y67643306D01*
X391827150Y67639187D01*
X391822223Y67635533D01*
X391816962Y67632380D01*
X391811418Y67629758D01*
X391805643Y67627691D01*
X391799693Y67626201D01*
X391793626Y67625301D01*
X391787500Y67625000D01*
X391112500Y67625000D01*
X391106374Y67625301D01*
X391100307Y67626201D01*
X391094357Y67627691D01*
X391088582Y67629758D01*
X391083038Y67632380D01*
X391077777Y67635533D01*
X391072850Y67639187D01*
X391068306Y67643306D01*
X391064187Y67647850D01*
X391060533Y67652777D01*
X391057380Y67658038D01*
X391054758Y67663582D01*
X391052691Y67669357D01*
X391051201Y67675307D01*
X391050301Y67681374D01*
X391050000Y67687500D01*
X391050000Y67812500D01*
X391050301Y67818626D01*
X391051201Y67824693D01*
X391052691Y67830643D01*
X391054758Y67836418D01*
X391057380Y67841962D01*
X391060533Y67847223D01*
X391064187Y67852150D01*
X391068306Y67856694D01*
X391072850Y67860813D01*
X391077777Y67864467D01*
X391083038Y67867620D01*
X391088582Y67870242D01*
X391094357Y67872309D01*
X391100307Y67873799D01*
X391106374Y67874699D01*
X391112500Y67875000D01*
X391787500Y67875000D01*
X391793626Y67874699D01*
G37*
G36*
X391793626Y68374699D02*
G01*
X391799693Y68373799D01*
X391805643Y68372309D01*
X391811418Y68370242D01*
X391816962Y68367620D01*
X391822223Y68364467D01*
X391827150Y68360813D01*
X391831694Y68356694D01*
X391835813Y68352150D01*
X391839467Y68347223D01*
X391842620Y68341962D01*
X391845242Y68336418D01*
X391847309Y68330643D01*
X391848799Y68324693D01*
X391849699Y68318626D01*
X391850000Y68312500D01*
X391850000Y68187500D01*
X391849699Y68181374D01*
X391848799Y68175307D01*
X391847309Y68169357D01*
X391845242Y68163582D01*
X391842620Y68158038D01*
X391839467Y68152777D01*
X391835813Y68147850D01*
X391831694Y68143306D01*
X391827150Y68139187D01*
X391822223Y68135533D01*
X391816962Y68132380D01*
X391811418Y68129758D01*
X391805643Y68127691D01*
X391799693Y68126201D01*
X391793626Y68125301D01*
X391787500Y68125000D01*
X391112500Y68125000D01*
X391106374Y68125301D01*
X391100307Y68126201D01*
X391094357Y68127691D01*
X391088582Y68129758D01*
X391083038Y68132380D01*
X391077777Y68135533D01*
X391072850Y68139187D01*
X391068306Y68143306D01*
X391064187Y68147850D01*
X391060533Y68152777D01*
X391057380Y68158038D01*
X391054758Y68163582D01*
X391052691Y68169357D01*
X391051201Y68175307D01*
X391050301Y68181374D01*
X391050000Y68187500D01*
X391050000Y68312500D01*
X391050301Y68318626D01*
X391051201Y68324693D01*
X391052691Y68330643D01*
X391054758Y68336418D01*
X391057380Y68341962D01*
X391060533Y68347223D01*
X391064187Y68352150D01*
X391068306Y68356694D01*
X391072850Y68360813D01*
X391077777Y68364467D01*
X391083038Y68367620D01*
X391088582Y68370242D01*
X391094357Y68372309D01*
X391100307Y68373799D01*
X391106374Y68374699D01*
X391112500Y68375000D01*
X391787500Y68375000D01*
X391793626Y68374699D01*
G37*
G36*
X391793626Y68874699D02*
G01*
X391799693Y68873799D01*
X391805643Y68872309D01*
X391811418Y68870242D01*
X391816962Y68867620D01*
X391822223Y68864467D01*
X391827150Y68860813D01*
X391831694Y68856694D01*
X391835813Y68852150D01*
X391839467Y68847223D01*
X391842620Y68841962D01*
X391845242Y68836418D01*
X391847309Y68830643D01*
X391848799Y68824693D01*
X391849699Y68818626D01*
X391850000Y68812500D01*
X391850000Y68687500D01*
X391849699Y68681374D01*
X391848799Y68675307D01*
X391847309Y68669357D01*
X391845242Y68663582D01*
X391842620Y68658038D01*
X391839467Y68652777D01*
X391835813Y68647850D01*
X391831694Y68643306D01*
X391827150Y68639187D01*
X391822223Y68635533D01*
X391816962Y68632380D01*
X391811418Y68629758D01*
X391805643Y68627691D01*
X391799693Y68626201D01*
X391793626Y68625301D01*
X391787500Y68625000D01*
X391112500Y68625000D01*
X391106374Y68625301D01*
X391100307Y68626201D01*
X391094357Y68627691D01*
X391088582Y68629758D01*
X391083038Y68632380D01*
X391077777Y68635533D01*
X391072850Y68639187D01*
X391068306Y68643306D01*
X391064187Y68647850D01*
X391060533Y68652777D01*
X391057380Y68658038D01*
X391054758Y68663582D01*
X391052691Y68669357D01*
X391051201Y68675307D01*
X391050301Y68681374D01*
X391050000Y68687500D01*
X391050000Y68812500D01*
X391050301Y68818626D01*
X391051201Y68824693D01*
X391052691Y68830643D01*
X391054758Y68836418D01*
X391057380Y68841962D01*
X391060533Y68847223D01*
X391064187Y68852150D01*
X391068306Y68856694D01*
X391072850Y68860813D01*
X391077777Y68864467D01*
X391083038Y68867620D01*
X391088582Y68870242D01*
X391094357Y68872309D01*
X391100307Y68873799D01*
X391106374Y68874699D01*
X391112500Y68875000D01*
X391787500Y68875000D01*
X391793626Y68874699D01*
G37*
G36*
X391793626Y69374699D02*
G01*
X391799693Y69373799D01*
X391805643Y69372309D01*
X391811418Y69370242D01*
X391816962Y69367620D01*
X391822223Y69364467D01*
X391827150Y69360813D01*
X391831694Y69356694D01*
X391835813Y69352150D01*
X391839467Y69347223D01*
X391842620Y69341962D01*
X391845242Y69336418D01*
X391847309Y69330643D01*
X391848799Y69324693D01*
X391849699Y69318626D01*
X391850000Y69312500D01*
X391850000Y69187500D01*
X391849699Y69181374D01*
X391848799Y69175307D01*
X391847309Y69169357D01*
X391845242Y69163582D01*
X391842620Y69158038D01*
X391839467Y69152777D01*
X391835813Y69147850D01*
X391831694Y69143306D01*
X391827150Y69139187D01*
X391822223Y69135533D01*
X391816962Y69132380D01*
X391811418Y69129758D01*
X391805643Y69127691D01*
X391799693Y69126201D01*
X391793626Y69125301D01*
X391787500Y69125000D01*
X391112500Y69125000D01*
X391106374Y69125301D01*
X391100307Y69126201D01*
X391094357Y69127691D01*
X391088582Y69129758D01*
X391083038Y69132380D01*
X391077777Y69135533D01*
X391072850Y69139187D01*
X391068306Y69143306D01*
X391064187Y69147850D01*
X391060533Y69152777D01*
X391057380Y69158038D01*
X391054758Y69163582D01*
X391052691Y69169357D01*
X391051201Y69175307D01*
X391050301Y69181374D01*
X391050000Y69187500D01*
X391050000Y69312500D01*
X391050301Y69318626D01*
X391051201Y69324693D01*
X391052691Y69330643D01*
X391054758Y69336418D01*
X391057380Y69341962D01*
X391060533Y69347223D01*
X391064187Y69352150D01*
X391068306Y69356694D01*
X391072850Y69360813D01*
X391077777Y69364467D01*
X391083038Y69367620D01*
X391088582Y69370242D01*
X391094357Y69372309D01*
X391100307Y69373799D01*
X391106374Y69374699D01*
X391112500Y69375000D01*
X391787500Y69375000D01*
X391793626Y69374699D01*
G37*
G36*
X390818626Y70349699D02*
G01*
X390824693Y70348799D01*
X390830643Y70347309D01*
X390836418Y70345242D01*
X390841962Y70342620D01*
X390847223Y70339467D01*
X390852150Y70335813D01*
X390856694Y70331694D01*
X390860813Y70327150D01*
X390864467Y70322223D01*
X390867620Y70316962D01*
X390870242Y70311418D01*
X390872309Y70305643D01*
X390873799Y70299693D01*
X390874699Y70293626D01*
X390875000Y70287500D01*
X390875000Y69612500D01*
X390874699Y69606374D01*
X390873799Y69600307D01*
X390872309Y69594357D01*
X390870242Y69588582D01*
X390867620Y69583038D01*
X390864467Y69577777D01*
X390860813Y69572850D01*
X390856694Y69568306D01*
X390852150Y69564187D01*
X390847223Y69560533D01*
X390841962Y69557380D01*
X390836418Y69554758D01*
X390830643Y69552691D01*
X390824693Y69551201D01*
X390818626Y69550301D01*
X390812500Y69550000D01*
X390687500Y69550000D01*
X390681374Y69550301D01*
X390675307Y69551201D01*
X390669357Y69552691D01*
X390663582Y69554758D01*
X390658038Y69557380D01*
X390652777Y69560533D01*
X390647850Y69564187D01*
X390643306Y69568306D01*
X390639187Y69572850D01*
X390635533Y69577777D01*
X390632380Y69583038D01*
X390629758Y69588582D01*
X390627691Y69594357D01*
X390626201Y69600307D01*
X390625301Y69606374D01*
X390625000Y69612500D01*
X390625000Y70287500D01*
X390625301Y70293626D01*
X390626201Y70299693D01*
X390627691Y70305643D01*
X390629758Y70311418D01*
X390632380Y70316962D01*
X390635533Y70322223D01*
X390639187Y70327150D01*
X390643306Y70331694D01*
X390647850Y70335813D01*
X390652777Y70339467D01*
X390658038Y70342620D01*
X390663582Y70345242D01*
X390669357Y70347309D01*
X390675307Y70348799D01*
X390681374Y70349699D01*
X390687500Y70350000D01*
X390812500Y70350000D01*
X390818626Y70349699D01*
G37*
G36*
X390318626Y70349699D02*
G01*
X390324693Y70348799D01*
X390330643Y70347309D01*
X390336418Y70345242D01*
X390341962Y70342620D01*
X390347223Y70339467D01*
X390352150Y70335813D01*
X390356694Y70331694D01*
X390360813Y70327150D01*
X390364467Y70322223D01*
X390367620Y70316962D01*
X390370242Y70311418D01*
X390372309Y70305643D01*
X390373799Y70299693D01*
X390374699Y70293626D01*
X390375000Y70287500D01*
X390375000Y69612500D01*
X390374699Y69606374D01*
X390373799Y69600307D01*
X390372309Y69594357D01*
X390370242Y69588582D01*
X390367620Y69583038D01*
X390364467Y69577777D01*
X390360813Y69572850D01*
X390356694Y69568306D01*
X390352150Y69564187D01*
X390347223Y69560533D01*
X390341962Y69557380D01*
X390336418Y69554758D01*
X390330643Y69552691D01*
X390324693Y69551201D01*
X390318626Y69550301D01*
X390312500Y69550000D01*
X390187500Y69550000D01*
X390181374Y69550301D01*
X390175307Y69551201D01*
X390169357Y69552691D01*
X390163582Y69554758D01*
X390158038Y69557380D01*
X390152777Y69560533D01*
X390147850Y69564187D01*
X390143306Y69568306D01*
X390139187Y69572850D01*
X390135533Y69577777D01*
X390132380Y69583038D01*
X390129758Y69588582D01*
X390127691Y69594357D01*
X390126201Y69600307D01*
X390125301Y69606374D01*
X390125000Y69612500D01*
X390125000Y70287500D01*
X390125301Y70293626D01*
X390126201Y70299693D01*
X390127691Y70305643D01*
X390129758Y70311418D01*
X390132380Y70316962D01*
X390135533Y70322223D01*
X390139187Y70327150D01*
X390143306Y70331694D01*
X390147850Y70335813D01*
X390152777Y70339467D01*
X390158038Y70342620D01*
X390163582Y70345242D01*
X390169357Y70347309D01*
X390175307Y70348799D01*
X390181374Y70349699D01*
X390187500Y70350000D01*
X390312500Y70350000D01*
X390318626Y70349699D01*
G37*
G36*
X389818626Y70349699D02*
G01*
X389824693Y70348799D01*
X389830643Y70347309D01*
X389836418Y70345242D01*
X389841962Y70342620D01*
X389847223Y70339467D01*
X389852150Y70335813D01*
X389856694Y70331694D01*
X389860813Y70327150D01*
X389864467Y70322223D01*
X389867620Y70316962D01*
X389870242Y70311418D01*
X389872309Y70305643D01*
X389873799Y70299693D01*
X389874699Y70293626D01*
X389875000Y70287500D01*
X389875000Y69612500D01*
X389874699Y69606374D01*
X389873799Y69600307D01*
X389872309Y69594357D01*
X389870242Y69588582D01*
X389867620Y69583038D01*
X389864467Y69577777D01*
X389860813Y69572850D01*
X389856694Y69568306D01*
X389852150Y69564187D01*
X389847223Y69560533D01*
X389841962Y69557380D01*
X389836418Y69554758D01*
X389830643Y69552691D01*
X389824693Y69551201D01*
X389818626Y69550301D01*
X389812500Y69550000D01*
X389687500Y69550000D01*
X389681374Y69550301D01*
X389675307Y69551201D01*
X389669357Y69552691D01*
X389663582Y69554758D01*
X389658038Y69557380D01*
X389652777Y69560533D01*
X389647850Y69564187D01*
X389643306Y69568306D01*
X389639187Y69572850D01*
X389635533Y69577777D01*
X389632380Y69583038D01*
X389629758Y69588582D01*
X389627691Y69594357D01*
X389626201Y69600307D01*
X389625301Y69606374D01*
X389625000Y69612500D01*
X389625000Y70287500D01*
X389625301Y70293626D01*
X389626201Y70299693D01*
X389627691Y70305643D01*
X389629758Y70311418D01*
X389632380Y70316962D01*
X389635533Y70322223D01*
X389639187Y70327150D01*
X389643306Y70331694D01*
X389647850Y70335813D01*
X389652777Y70339467D01*
X389658038Y70342620D01*
X389663582Y70345242D01*
X389669357Y70347309D01*
X389675307Y70348799D01*
X389681374Y70349699D01*
X389687500Y70350000D01*
X389812500Y70350000D01*
X389818626Y70349699D01*
G37*
G36*
X389318626Y70349699D02*
G01*
X389324693Y70348799D01*
X389330643Y70347309D01*
X389336418Y70345242D01*
X389341962Y70342620D01*
X389347223Y70339467D01*
X389352150Y70335813D01*
X389356694Y70331694D01*
X389360813Y70327150D01*
X389364467Y70322223D01*
X389367620Y70316962D01*
X389370242Y70311418D01*
X389372309Y70305643D01*
X389373799Y70299693D01*
X389374699Y70293626D01*
X389375000Y70287500D01*
X389375000Y69612500D01*
X389374699Y69606374D01*
X389373799Y69600307D01*
X389372309Y69594357D01*
X389370242Y69588582D01*
X389367620Y69583038D01*
X389364467Y69577777D01*
X389360813Y69572850D01*
X389356694Y69568306D01*
X389352150Y69564187D01*
X389347223Y69560533D01*
X389341962Y69557380D01*
X389336418Y69554758D01*
X389330643Y69552691D01*
X389324693Y69551201D01*
X389318626Y69550301D01*
X389312500Y69550000D01*
X389187500Y69550000D01*
X389181374Y69550301D01*
X389175307Y69551201D01*
X389169357Y69552691D01*
X389163582Y69554758D01*
X389158038Y69557380D01*
X389152777Y69560533D01*
X389147850Y69564187D01*
X389143306Y69568306D01*
X389139187Y69572850D01*
X389135533Y69577777D01*
X389132380Y69583038D01*
X389129758Y69588582D01*
X389127691Y69594357D01*
X389126201Y69600307D01*
X389125301Y69606374D01*
X389125000Y69612500D01*
X389125000Y70287500D01*
X389125301Y70293626D01*
X389126201Y70299693D01*
X389127691Y70305643D01*
X389129758Y70311418D01*
X389132380Y70316962D01*
X389135533Y70322223D01*
X389139187Y70327150D01*
X389143306Y70331694D01*
X389147850Y70335813D01*
X389152777Y70339467D01*
X389158038Y70342620D01*
X389163582Y70345242D01*
X389169357Y70347309D01*
X389175307Y70348799D01*
X389181374Y70349699D01*
X389187500Y70350000D01*
X389312500Y70350000D01*
X389318626Y70349699D01*
G37*
G36*
X388818626Y70349699D02*
G01*
X388824693Y70348799D01*
X388830643Y70347309D01*
X388836418Y70345242D01*
X388841962Y70342620D01*
X388847223Y70339467D01*
X388852150Y70335813D01*
X388856694Y70331694D01*
X388860813Y70327150D01*
X388864467Y70322223D01*
X388867620Y70316962D01*
X388870242Y70311418D01*
X388872309Y70305643D01*
X388873799Y70299693D01*
X388874699Y70293626D01*
X388875000Y70287500D01*
X388875000Y69612500D01*
X388874699Y69606374D01*
X388873799Y69600307D01*
X388872309Y69594357D01*
X388870242Y69588582D01*
X388867620Y69583038D01*
X388864467Y69577777D01*
X388860813Y69572850D01*
X388856694Y69568306D01*
X388852150Y69564187D01*
X388847223Y69560533D01*
X388841962Y69557380D01*
X388836418Y69554758D01*
X388830643Y69552691D01*
X388824693Y69551201D01*
X388818626Y69550301D01*
X388812500Y69550000D01*
X388687500Y69550000D01*
X388681374Y69550301D01*
X388675307Y69551201D01*
X388669357Y69552691D01*
X388663582Y69554758D01*
X388658038Y69557380D01*
X388652777Y69560533D01*
X388647850Y69564187D01*
X388643306Y69568306D01*
X388639187Y69572850D01*
X388635533Y69577777D01*
X388632380Y69583038D01*
X388629758Y69588582D01*
X388627691Y69594357D01*
X388626201Y69600307D01*
X388625301Y69606374D01*
X388625000Y69612500D01*
X388625000Y70287500D01*
X388625301Y70293626D01*
X388626201Y70299693D01*
X388627691Y70305643D01*
X388629758Y70311418D01*
X388632380Y70316962D01*
X388635533Y70322223D01*
X388639187Y70327150D01*
X388643306Y70331694D01*
X388647850Y70335813D01*
X388652777Y70339467D01*
X388658038Y70342620D01*
X388663582Y70345242D01*
X388669357Y70347309D01*
X388675307Y70348799D01*
X388681374Y70349699D01*
X388687500Y70350000D01*
X388812500Y70350000D01*
X388818626Y70349699D01*
G37*
G36*
X388318626Y70349699D02*
G01*
X388324693Y70348799D01*
X388330643Y70347309D01*
X388336418Y70345242D01*
X388341962Y70342620D01*
X388347223Y70339467D01*
X388352150Y70335813D01*
X388356694Y70331694D01*
X388360813Y70327150D01*
X388364467Y70322223D01*
X388367620Y70316962D01*
X388370242Y70311418D01*
X388372309Y70305643D01*
X388373799Y70299693D01*
X388374699Y70293626D01*
X388375000Y70287500D01*
X388375000Y69612500D01*
X388374699Y69606374D01*
X388373799Y69600307D01*
X388372309Y69594357D01*
X388370242Y69588582D01*
X388367620Y69583038D01*
X388364467Y69577777D01*
X388360813Y69572850D01*
X388356694Y69568306D01*
X388352150Y69564187D01*
X388347223Y69560533D01*
X388341962Y69557380D01*
X388336418Y69554758D01*
X388330643Y69552691D01*
X388324693Y69551201D01*
X388318626Y69550301D01*
X388312500Y69550000D01*
X388187500Y69550000D01*
X388181374Y69550301D01*
X388175307Y69551201D01*
X388169357Y69552691D01*
X388163582Y69554758D01*
X388158038Y69557380D01*
X388152777Y69560533D01*
X388147850Y69564187D01*
X388143306Y69568306D01*
X388139187Y69572850D01*
X388135533Y69577777D01*
X388132380Y69583038D01*
X388129758Y69588582D01*
X388127691Y69594357D01*
X388126201Y69600307D01*
X388125301Y69606374D01*
X388125000Y69612500D01*
X388125000Y70287500D01*
X388125301Y70293626D01*
X388126201Y70299693D01*
X388127691Y70305643D01*
X388129758Y70311418D01*
X388132380Y70316962D01*
X388135533Y70322223D01*
X388139187Y70327150D01*
X388143306Y70331694D01*
X388147850Y70335813D01*
X388152777Y70339467D01*
X388158038Y70342620D01*
X388163582Y70345242D01*
X388169357Y70347309D01*
X388175307Y70348799D01*
X388181374Y70349699D01*
X388187500Y70350000D01*
X388312500Y70350000D01*
X388318626Y70349699D01*
G37*
G36*
X387818626Y70349699D02*
G01*
X387824693Y70348799D01*
X387830643Y70347309D01*
X387836418Y70345242D01*
X387841962Y70342620D01*
X387847223Y70339467D01*
X387852150Y70335813D01*
X387856694Y70331694D01*
X387860813Y70327150D01*
X387864467Y70322223D01*
X387867620Y70316962D01*
X387870242Y70311418D01*
X387872309Y70305643D01*
X387873799Y70299693D01*
X387874699Y70293626D01*
X387875000Y70287500D01*
X387875000Y69612500D01*
X387874699Y69606374D01*
X387873799Y69600307D01*
X387872309Y69594357D01*
X387870242Y69588582D01*
X387867620Y69583038D01*
X387864467Y69577777D01*
X387860813Y69572850D01*
X387856694Y69568306D01*
X387852150Y69564187D01*
X387847223Y69560533D01*
X387841962Y69557380D01*
X387836418Y69554758D01*
X387830643Y69552691D01*
X387824693Y69551201D01*
X387818626Y69550301D01*
X387812500Y69550000D01*
X387687500Y69550000D01*
X387681374Y69550301D01*
X387675307Y69551201D01*
X387669357Y69552691D01*
X387663582Y69554758D01*
X387658038Y69557380D01*
X387652777Y69560533D01*
X387647850Y69564187D01*
X387643306Y69568306D01*
X387639187Y69572850D01*
X387635533Y69577777D01*
X387632380Y69583038D01*
X387629758Y69588582D01*
X387627691Y69594357D01*
X387626201Y69600307D01*
X387625301Y69606374D01*
X387625000Y69612500D01*
X387625000Y70287500D01*
X387625301Y70293626D01*
X387626201Y70299693D01*
X387627691Y70305643D01*
X387629758Y70311418D01*
X387632380Y70316962D01*
X387635533Y70322223D01*
X387639187Y70327150D01*
X387643306Y70331694D01*
X387647850Y70335813D01*
X387652777Y70339467D01*
X387658038Y70342620D01*
X387663582Y70345242D01*
X387669357Y70347309D01*
X387675307Y70348799D01*
X387681374Y70349699D01*
X387687500Y70350000D01*
X387812500Y70350000D01*
X387818626Y70349699D01*
G37*
G36*
X387318626Y70349699D02*
G01*
X387324693Y70348799D01*
X387330643Y70347309D01*
X387336418Y70345242D01*
X387341962Y70342620D01*
X387347223Y70339467D01*
X387352150Y70335813D01*
X387356694Y70331694D01*
X387360813Y70327150D01*
X387364467Y70322223D01*
X387367620Y70316962D01*
X387370242Y70311418D01*
X387372309Y70305643D01*
X387373799Y70299693D01*
X387374699Y70293626D01*
X387375000Y70287500D01*
X387375000Y69612500D01*
X387374699Y69606374D01*
X387373799Y69600307D01*
X387372309Y69594357D01*
X387370242Y69588582D01*
X387367620Y69583038D01*
X387364467Y69577777D01*
X387360813Y69572850D01*
X387356694Y69568306D01*
X387352150Y69564187D01*
X387347223Y69560533D01*
X387341962Y69557380D01*
X387336418Y69554758D01*
X387330643Y69552691D01*
X387324693Y69551201D01*
X387318626Y69550301D01*
X387312500Y69550000D01*
X387187500Y69550000D01*
X387181374Y69550301D01*
X387175307Y69551201D01*
X387169357Y69552691D01*
X387163582Y69554758D01*
X387158038Y69557380D01*
X387152777Y69560533D01*
X387147850Y69564187D01*
X387143306Y69568306D01*
X387139187Y69572850D01*
X387135533Y69577777D01*
X387132380Y69583038D01*
X387129758Y69588582D01*
X387127691Y69594357D01*
X387126201Y69600307D01*
X387125301Y69606374D01*
X387125000Y69612500D01*
X387125000Y70287500D01*
X387125301Y70293626D01*
X387126201Y70299693D01*
X387127691Y70305643D01*
X387129758Y70311418D01*
X387132380Y70316962D01*
X387135533Y70322223D01*
X387139187Y70327150D01*
X387143306Y70331694D01*
X387147850Y70335813D01*
X387152777Y70339467D01*
X387158038Y70342620D01*
X387163582Y70345242D01*
X387169357Y70347309D01*
X387175307Y70348799D01*
X387181374Y70349699D01*
X387187500Y70350000D01*
X387312500Y70350000D01*
X387318626Y70349699D01*
G37*
G36*
X393799504Y74873796D02*
G01*
X393823773Y74870196D01*
X393847571Y74864235D01*
X393870671Y74855970D01*
X393892849Y74845480D01*
X393913893Y74832867D01*
X393933598Y74818253D01*
X393951777Y74801777D01*
X393968253Y74783598D01*
X393982867Y74763893D01*
X393995480Y74742849D01*
X394005970Y74720671D01*
X394014235Y74697571D01*
X394020196Y74673773D01*
X394023796Y74649504D01*
X394025000Y74625000D01*
X394025000Y73375000D01*
X394023796Y73350496D01*
X394020196Y73326227D01*
X394014235Y73302429D01*
X394005970Y73279329D01*
X393995480Y73257151D01*
X393982867Y73236107D01*
X393968253Y73216402D01*
X393951777Y73198223D01*
X393933598Y73181747D01*
X393913893Y73167133D01*
X393892849Y73154520D01*
X393870671Y73144030D01*
X393847571Y73135765D01*
X393823773Y73129804D01*
X393799504Y73126204D01*
X393775000Y73125000D01*
X393025000Y73125000D01*
X393000496Y73126204D01*
X392976227Y73129804D01*
X392952429Y73135765D01*
X392929329Y73144030D01*
X392907151Y73154520D01*
X392886107Y73167133D01*
X392866402Y73181747D01*
X392848223Y73198223D01*
X392831747Y73216402D01*
X392817133Y73236107D01*
X392804520Y73257151D01*
X392794030Y73279329D01*
X392785765Y73302429D01*
X392779804Y73326227D01*
X392776204Y73350496D01*
X392775000Y73375000D01*
X392775000Y74625000D01*
X392776204Y74649504D01*
X392779804Y74673773D01*
X392785765Y74697571D01*
X392794030Y74720671D01*
X392804520Y74742849D01*
X392817133Y74763893D01*
X392831747Y74783598D01*
X392848223Y74801777D01*
X392866402Y74818253D01*
X392886107Y74832867D01*
X392907151Y74845480D01*
X392929329Y74855970D01*
X392952429Y74864235D01*
X392976227Y74870196D01*
X393000496Y74873796D01*
X393025000Y74875000D01*
X393775000Y74875000D01*
X393799504Y74873796D01*
G37*
G36*
X390999504Y74873796D02*
G01*
X391023773Y74870196D01*
X391047571Y74864235D01*
X391070671Y74855970D01*
X391092849Y74845480D01*
X391113893Y74832867D01*
X391133598Y74818253D01*
X391151777Y74801777D01*
X391168253Y74783598D01*
X391182867Y74763893D01*
X391195480Y74742849D01*
X391205970Y74720671D01*
X391214235Y74697571D01*
X391220196Y74673773D01*
X391223796Y74649504D01*
X391225000Y74625000D01*
X391225000Y73375000D01*
X391223796Y73350496D01*
X391220196Y73326227D01*
X391214235Y73302429D01*
X391205970Y73279329D01*
X391195480Y73257151D01*
X391182867Y73236107D01*
X391168253Y73216402D01*
X391151777Y73198223D01*
X391133598Y73181747D01*
X391113893Y73167133D01*
X391092849Y73154520D01*
X391070671Y73144030D01*
X391047571Y73135765D01*
X391023773Y73129804D01*
X390999504Y73126204D01*
X390975000Y73125000D01*
X390225000Y73125000D01*
X390200496Y73126204D01*
X390176227Y73129804D01*
X390152429Y73135765D01*
X390129329Y73144030D01*
X390107151Y73154520D01*
X390086107Y73167133D01*
X390066402Y73181747D01*
X390048223Y73198223D01*
X390031747Y73216402D01*
X390017133Y73236107D01*
X390004520Y73257151D01*
X389994030Y73279329D01*
X389985765Y73302429D01*
X389979804Y73326227D01*
X389976204Y73350496D01*
X389975000Y73375000D01*
X389975000Y74625000D01*
X389976204Y74649504D01*
X389979804Y74673773D01*
X389985765Y74697571D01*
X389994030Y74720671D01*
X390004520Y74742849D01*
X390017133Y74763893D01*
X390031747Y74783598D01*
X390048223Y74801777D01*
X390066402Y74818253D01*
X390086107Y74832867D01*
X390107151Y74845480D01*
X390129329Y74855970D01*
X390152429Y74864235D01*
X390176227Y74870196D01*
X390200496Y74873796D01*
X390225000Y74875000D01*
X390975000Y74875000D01*
X390999504Y74873796D01*
G37*
M02*
