G04 #@! TF.GenerationSoftware,KiCad,Pcbnew,(5.1.5-0-10_14)*
G04 #@! TF.CreationDate,2020-04-17T14:33:50+12:00*
G04 #@! TF.ProjectId,ZapierStompBox,5a617069-6572-4537-946f-6d70426f782e,rev?*
G04 #@! TF.SameCoordinates,Original*
G04 #@! TF.FileFunction,Copper,L1,Top*
G04 #@! TF.FilePolarity,Positive*
%FSLAX46Y46*%
G04 Gerber Fmt 4.6, Leading zero omitted, Abs format (unit mm)*
G04 Created by KiCad (PCBNEW (5.1.5-0-10_14)) date 2020-04-17 14:33:50*
%MOMM*%
%LPD*%
G04 APERTURE LIST*
%ADD10C,0.100000*%
%ADD11R,1.700000X1.700000*%
%ADD12C,1.700000*%
%ADD13C,3.500000*%
%ADD14O,1.700000X1.700000*%
%ADD15R,1.600000X0.550000*%
%ADD16R,0.550000X1.600000*%
%ADD17R,1.200000X1.400000*%
%ADD18C,0.800000*%
%ADD19C,0.250000*%
G04 APERTURE END LIST*
G04 #@! TA.AperFunction,SMDPad,CuDef*
D10*
G36*
X382649504Y57023796D02*
G01*
X382673773Y57020196D01*
X382697571Y57014235D01*
X382720671Y57005970D01*
X382742849Y56995480D01*
X382763893Y56982867D01*
X382783598Y56968253D01*
X382801777Y56951777D01*
X382818253Y56933598D01*
X382832867Y56913893D01*
X382845480Y56892849D01*
X382855970Y56870671D01*
X382864235Y56847571D01*
X382870196Y56823773D01*
X382873796Y56799504D01*
X382875000Y56775000D01*
X382875000Y56025000D01*
X382873796Y56000496D01*
X382870196Y55976227D01*
X382864235Y55952429D01*
X382855970Y55929329D01*
X382845480Y55907151D01*
X382832867Y55886107D01*
X382818253Y55866402D01*
X382801777Y55848223D01*
X382783598Y55831747D01*
X382763893Y55817133D01*
X382742849Y55804520D01*
X382720671Y55794030D01*
X382697571Y55785765D01*
X382673773Y55779804D01*
X382649504Y55776204D01*
X382625000Y55775000D01*
X381375000Y55775000D01*
X381350496Y55776204D01*
X381326227Y55779804D01*
X381302429Y55785765D01*
X381279329Y55794030D01*
X381257151Y55804520D01*
X381236107Y55817133D01*
X381216402Y55831747D01*
X381198223Y55848223D01*
X381181747Y55866402D01*
X381167133Y55886107D01*
X381154520Y55907151D01*
X381144030Y55929329D01*
X381135765Y55952429D01*
X381129804Y55976227D01*
X381126204Y56000496D01*
X381125000Y56025000D01*
X381125000Y56775000D01*
X381126204Y56799504D01*
X381129804Y56823773D01*
X381135765Y56847571D01*
X381144030Y56870671D01*
X381154520Y56892849D01*
X381167133Y56913893D01*
X381181747Y56933598D01*
X381198223Y56951777D01*
X381216402Y56968253D01*
X381236107Y56982867D01*
X381257151Y56995480D01*
X381279329Y57005970D01*
X381302429Y57014235D01*
X381326227Y57020196D01*
X381350496Y57023796D01*
X381375000Y57025000D01*
X382625000Y57025000D01*
X382649504Y57023796D01*
G37*
G04 #@! TD.AperFunction*
G04 #@! TA.AperFunction,SMDPad,CuDef*
G36*
X382649504Y54223796D02*
G01*
X382673773Y54220196D01*
X382697571Y54214235D01*
X382720671Y54205970D01*
X382742849Y54195480D01*
X382763893Y54182867D01*
X382783598Y54168253D01*
X382801777Y54151777D01*
X382818253Y54133598D01*
X382832867Y54113893D01*
X382845480Y54092849D01*
X382855970Y54070671D01*
X382864235Y54047571D01*
X382870196Y54023773D01*
X382873796Y53999504D01*
X382875000Y53975000D01*
X382875000Y53225000D01*
X382873796Y53200496D01*
X382870196Y53176227D01*
X382864235Y53152429D01*
X382855970Y53129329D01*
X382845480Y53107151D01*
X382832867Y53086107D01*
X382818253Y53066402D01*
X382801777Y53048223D01*
X382783598Y53031747D01*
X382763893Y53017133D01*
X382742849Y53004520D01*
X382720671Y52994030D01*
X382697571Y52985765D01*
X382673773Y52979804D01*
X382649504Y52976204D01*
X382625000Y52975000D01*
X381375000Y52975000D01*
X381350496Y52976204D01*
X381326227Y52979804D01*
X381302429Y52985765D01*
X381279329Y52994030D01*
X381257151Y53004520D01*
X381236107Y53017133D01*
X381216402Y53031747D01*
X381198223Y53048223D01*
X381181747Y53066402D01*
X381167133Y53086107D01*
X381154520Y53107151D01*
X381144030Y53129329D01*
X381135765Y53152429D01*
X381129804Y53176227D01*
X381126204Y53200496D01*
X381125000Y53225000D01*
X381125000Y53975000D01*
X381126204Y53999504D01*
X381129804Y54023773D01*
X381135765Y54047571D01*
X381144030Y54070671D01*
X381154520Y54092849D01*
X381167133Y54113893D01*
X381181747Y54133598D01*
X381198223Y54151777D01*
X381216402Y54168253D01*
X381236107Y54182867D01*
X381257151Y54195480D01*
X381279329Y54205970D01*
X381302429Y54214235D01*
X381326227Y54220196D01*
X381350496Y54223796D01*
X381375000Y54225000D01*
X382625000Y54225000D01*
X382649504Y54223796D01*
G37*
G04 #@! TD.AperFunction*
G04 #@! TA.AperFunction,SMDPad,CuDef*
G36*
X393974505Y75173796D02*
G01*
X393998773Y75170196D01*
X394022572Y75164235D01*
X394045671Y75155970D01*
X394067850Y75145480D01*
X394088893Y75132868D01*
X394108599Y75118253D01*
X394126777Y75101777D01*
X394143253Y75083599D01*
X394157868Y75063893D01*
X394170480Y75042850D01*
X394180970Y75020671D01*
X394189235Y74997572D01*
X394195196Y74973773D01*
X394198796Y74949505D01*
X394200000Y74925001D01*
X394200000Y73074999D01*
X394198796Y73050495D01*
X394195196Y73026227D01*
X394189235Y73002428D01*
X394180970Y72979329D01*
X394170480Y72957150D01*
X394157868Y72936107D01*
X394143253Y72916401D01*
X394126777Y72898223D01*
X394108599Y72881747D01*
X394088893Y72867132D01*
X394067850Y72854520D01*
X394045671Y72844030D01*
X394022572Y72835765D01*
X393998773Y72829804D01*
X393974505Y72826204D01*
X393950001Y72825000D01*
X393124999Y72825000D01*
X393100495Y72826204D01*
X393076227Y72829804D01*
X393052428Y72835765D01*
X393029329Y72844030D01*
X393007150Y72854520D01*
X392986107Y72867132D01*
X392966401Y72881747D01*
X392948223Y72898223D01*
X392931747Y72916401D01*
X392917132Y72936107D01*
X392904520Y72957150D01*
X392894030Y72979329D01*
X392885765Y73002428D01*
X392879804Y73026227D01*
X392876204Y73050495D01*
X392875000Y73074999D01*
X392875000Y74925001D01*
X392876204Y74949505D01*
X392879804Y74973773D01*
X392885765Y74997572D01*
X392894030Y75020671D01*
X392904520Y75042850D01*
X392917132Y75063893D01*
X392931747Y75083599D01*
X392948223Y75101777D01*
X392966401Y75118253D01*
X392986107Y75132868D01*
X393007150Y75145480D01*
X393029329Y75155970D01*
X393052428Y75164235D01*
X393076227Y75170196D01*
X393100495Y75173796D01*
X393124999Y75175000D01*
X393950001Y75175000D01*
X393974505Y75173796D01*
G37*
G04 #@! TD.AperFunction*
G04 #@! TA.AperFunction,SMDPad,CuDef*
G36*
X390899505Y75173796D02*
G01*
X390923773Y75170196D01*
X390947572Y75164235D01*
X390970671Y75155970D01*
X390992850Y75145480D01*
X391013893Y75132868D01*
X391033599Y75118253D01*
X391051777Y75101777D01*
X391068253Y75083599D01*
X391082868Y75063893D01*
X391095480Y75042850D01*
X391105970Y75020671D01*
X391114235Y74997572D01*
X391120196Y74973773D01*
X391123796Y74949505D01*
X391125000Y74925001D01*
X391125000Y73074999D01*
X391123796Y73050495D01*
X391120196Y73026227D01*
X391114235Y73002428D01*
X391105970Y72979329D01*
X391095480Y72957150D01*
X391082868Y72936107D01*
X391068253Y72916401D01*
X391051777Y72898223D01*
X391033599Y72881747D01*
X391013893Y72867132D01*
X390992850Y72854520D01*
X390970671Y72844030D01*
X390947572Y72835765D01*
X390923773Y72829804D01*
X390899505Y72826204D01*
X390875001Y72825000D01*
X390049999Y72825000D01*
X390025495Y72826204D01*
X390001227Y72829804D01*
X389977428Y72835765D01*
X389954329Y72844030D01*
X389932150Y72854520D01*
X389911107Y72867132D01*
X389891401Y72881747D01*
X389873223Y72898223D01*
X389856747Y72916401D01*
X389842132Y72936107D01*
X389829520Y72957150D01*
X389819030Y72979329D01*
X389810765Y73002428D01*
X389804804Y73026227D01*
X389801204Y73050495D01*
X389800000Y73074999D01*
X389800000Y74925001D01*
X389801204Y74949505D01*
X389804804Y74973773D01*
X389810765Y74997572D01*
X389819030Y75020671D01*
X389829520Y75042850D01*
X389842132Y75063893D01*
X389856747Y75083599D01*
X389873223Y75101777D01*
X389891401Y75118253D01*
X389911107Y75132868D01*
X389932150Y75145480D01*
X389954329Y75155970D01*
X389977428Y75164235D01*
X390001227Y75170196D01*
X390025495Y75173796D01*
X390049999Y75175000D01*
X390875001Y75175000D01*
X390899505Y75173796D01*
G37*
G04 #@! TD.AperFunction*
G04 #@! TA.AperFunction,SMDPad,CuDef*
G36*
X381330142Y65198826D02*
G01*
X381353803Y65195316D01*
X381377007Y65189504D01*
X381399529Y65181446D01*
X381421153Y65171218D01*
X381441670Y65158921D01*
X381460883Y65144671D01*
X381478607Y65128607D01*
X381494671Y65110883D01*
X381508921Y65091670D01*
X381521218Y65071153D01*
X381531446Y65049529D01*
X381539504Y65027007D01*
X381545316Y65003803D01*
X381548826Y64980142D01*
X381550000Y64956250D01*
X381550000Y64043750D01*
X381548826Y64019858D01*
X381545316Y63996197D01*
X381539504Y63972993D01*
X381531446Y63950471D01*
X381521218Y63928847D01*
X381508921Y63908330D01*
X381494671Y63889117D01*
X381478607Y63871393D01*
X381460883Y63855329D01*
X381441670Y63841079D01*
X381421153Y63828782D01*
X381399529Y63818554D01*
X381377007Y63810496D01*
X381353803Y63804684D01*
X381330142Y63801174D01*
X381306250Y63800000D01*
X380818750Y63800000D01*
X380794858Y63801174D01*
X380771197Y63804684D01*
X380747993Y63810496D01*
X380725471Y63818554D01*
X380703847Y63828782D01*
X380683330Y63841079D01*
X380664117Y63855329D01*
X380646393Y63871393D01*
X380630329Y63889117D01*
X380616079Y63908330D01*
X380603782Y63928847D01*
X380593554Y63950471D01*
X380585496Y63972993D01*
X380579684Y63996197D01*
X380576174Y64019858D01*
X380575000Y64043750D01*
X380575000Y64956250D01*
X380576174Y64980142D01*
X380579684Y65003803D01*
X380585496Y65027007D01*
X380593554Y65049529D01*
X380603782Y65071153D01*
X380616079Y65091670D01*
X380630329Y65110883D01*
X380646393Y65128607D01*
X380664117Y65144671D01*
X380683330Y65158921D01*
X380703847Y65171218D01*
X380725471Y65181446D01*
X380747993Y65189504D01*
X380771197Y65195316D01*
X380794858Y65198826D01*
X380818750Y65200000D01*
X381306250Y65200000D01*
X381330142Y65198826D01*
G37*
G04 #@! TD.AperFunction*
G04 #@! TA.AperFunction,SMDPad,CuDef*
G36*
X383205142Y65198826D02*
G01*
X383228803Y65195316D01*
X383252007Y65189504D01*
X383274529Y65181446D01*
X383296153Y65171218D01*
X383316670Y65158921D01*
X383335883Y65144671D01*
X383353607Y65128607D01*
X383369671Y65110883D01*
X383383921Y65091670D01*
X383396218Y65071153D01*
X383406446Y65049529D01*
X383414504Y65027007D01*
X383420316Y65003803D01*
X383423826Y64980142D01*
X383425000Y64956250D01*
X383425000Y64043750D01*
X383423826Y64019858D01*
X383420316Y63996197D01*
X383414504Y63972993D01*
X383406446Y63950471D01*
X383396218Y63928847D01*
X383383921Y63908330D01*
X383369671Y63889117D01*
X383353607Y63871393D01*
X383335883Y63855329D01*
X383316670Y63841079D01*
X383296153Y63828782D01*
X383274529Y63818554D01*
X383252007Y63810496D01*
X383228803Y63804684D01*
X383205142Y63801174D01*
X383181250Y63800000D01*
X382693750Y63800000D01*
X382669858Y63801174D01*
X382646197Y63804684D01*
X382622993Y63810496D01*
X382600471Y63818554D01*
X382578847Y63828782D01*
X382558330Y63841079D01*
X382539117Y63855329D01*
X382521393Y63871393D01*
X382505329Y63889117D01*
X382491079Y63908330D01*
X382478782Y63928847D01*
X382468554Y63950471D01*
X382460496Y63972993D01*
X382454684Y63996197D01*
X382451174Y64019858D01*
X382450000Y64043750D01*
X382450000Y64956250D01*
X382451174Y64980142D01*
X382454684Y65003803D01*
X382460496Y65027007D01*
X382468554Y65049529D01*
X382478782Y65071153D01*
X382491079Y65091670D01*
X382505329Y65110883D01*
X382521393Y65128607D01*
X382539117Y65144671D01*
X382558330Y65158921D01*
X382578847Y65171218D01*
X382600471Y65181446D01*
X382622993Y65189504D01*
X382646197Y65195316D01*
X382669858Y65198826D01*
X382693750Y65200000D01*
X383181250Y65200000D01*
X383205142Y65198826D01*
G37*
G04 #@! TD.AperFunction*
G04 #@! TA.AperFunction,SMDPad,CuDef*
G36*
X381705142Y72698826D02*
G01*
X381728803Y72695316D01*
X381752007Y72689504D01*
X381774529Y72681446D01*
X381796153Y72671218D01*
X381816670Y72658921D01*
X381835883Y72644671D01*
X381853607Y72628607D01*
X381869671Y72610883D01*
X381883921Y72591670D01*
X381896218Y72571153D01*
X381906446Y72549529D01*
X381914504Y72527007D01*
X381920316Y72503803D01*
X381923826Y72480142D01*
X381925000Y72456250D01*
X381925000Y71543750D01*
X381923826Y71519858D01*
X381920316Y71496197D01*
X381914504Y71472993D01*
X381906446Y71450471D01*
X381896218Y71428847D01*
X381883921Y71408330D01*
X381869671Y71389117D01*
X381853607Y71371393D01*
X381835883Y71355329D01*
X381816670Y71341079D01*
X381796153Y71328782D01*
X381774529Y71318554D01*
X381752007Y71310496D01*
X381728803Y71304684D01*
X381705142Y71301174D01*
X381681250Y71300000D01*
X381193750Y71300000D01*
X381169858Y71301174D01*
X381146197Y71304684D01*
X381122993Y71310496D01*
X381100471Y71318554D01*
X381078847Y71328782D01*
X381058330Y71341079D01*
X381039117Y71355329D01*
X381021393Y71371393D01*
X381005329Y71389117D01*
X380991079Y71408330D01*
X380978782Y71428847D01*
X380968554Y71450471D01*
X380960496Y71472993D01*
X380954684Y71496197D01*
X380951174Y71519858D01*
X380950000Y71543750D01*
X380950000Y72456250D01*
X380951174Y72480142D01*
X380954684Y72503803D01*
X380960496Y72527007D01*
X380968554Y72549529D01*
X380978782Y72571153D01*
X380991079Y72591670D01*
X381005329Y72610883D01*
X381021393Y72628607D01*
X381039117Y72644671D01*
X381058330Y72658921D01*
X381078847Y72671218D01*
X381100471Y72681446D01*
X381122993Y72689504D01*
X381146197Y72695316D01*
X381169858Y72698826D01*
X381193750Y72700000D01*
X381681250Y72700000D01*
X381705142Y72698826D01*
G37*
G04 #@! TD.AperFunction*
G04 #@! TA.AperFunction,SMDPad,CuDef*
G36*
X379830142Y72698826D02*
G01*
X379853803Y72695316D01*
X379877007Y72689504D01*
X379899529Y72681446D01*
X379921153Y72671218D01*
X379941670Y72658921D01*
X379960883Y72644671D01*
X379978607Y72628607D01*
X379994671Y72610883D01*
X380008921Y72591670D01*
X380021218Y72571153D01*
X380031446Y72549529D01*
X380039504Y72527007D01*
X380045316Y72503803D01*
X380048826Y72480142D01*
X380050000Y72456250D01*
X380050000Y71543750D01*
X380048826Y71519858D01*
X380045316Y71496197D01*
X380039504Y71472993D01*
X380031446Y71450471D01*
X380021218Y71428847D01*
X380008921Y71408330D01*
X379994671Y71389117D01*
X379978607Y71371393D01*
X379960883Y71355329D01*
X379941670Y71341079D01*
X379921153Y71328782D01*
X379899529Y71318554D01*
X379877007Y71310496D01*
X379853803Y71304684D01*
X379830142Y71301174D01*
X379806250Y71300000D01*
X379318750Y71300000D01*
X379294858Y71301174D01*
X379271197Y71304684D01*
X379247993Y71310496D01*
X379225471Y71318554D01*
X379203847Y71328782D01*
X379183330Y71341079D01*
X379164117Y71355329D01*
X379146393Y71371393D01*
X379130329Y71389117D01*
X379116079Y71408330D01*
X379103782Y71428847D01*
X379093554Y71450471D01*
X379085496Y71472993D01*
X379079684Y71496197D01*
X379076174Y71519858D01*
X379075000Y71543750D01*
X379075000Y72456250D01*
X379076174Y72480142D01*
X379079684Y72503803D01*
X379085496Y72527007D01*
X379093554Y72549529D01*
X379103782Y72571153D01*
X379116079Y72591670D01*
X379130329Y72610883D01*
X379146393Y72628607D01*
X379164117Y72644671D01*
X379183330Y72658921D01*
X379203847Y72671218D01*
X379225471Y72681446D01*
X379247993Y72689504D01*
X379271197Y72695316D01*
X379294858Y72698826D01*
X379318750Y72700000D01*
X379806250Y72700000D01*
X379830142Y72698826D01*
G37*
G04 #@! TD.AperFunction*
G04 #@! TA.AperFunction,SMDPad,CuDef*
G36*
X392027691Y56473947D02*
G01*
X392048926Y56470797D01*
X392069750Y56465581D01*
X392089962Y56458349D01*
X392109368Y56449170D01*
X392127781Y56438134D01*
X392145024Y56425346D01*
X392160930Y56410930D01*
X392175346Y56395024D01*
X392188134Y56377781D01*
X392199170Y56359368D01*
X392208349Y56339962D01*
X392215581Y56319750D01*
X392220797Y56298926D01*
X392223947Y56277691D01*
X392225000Y56256250D01*
X392225000Y55743750D01*
X392223947Y55722309D01*
X392220797Y55701074D01*
X392215581Y55680250D01*
X392208349Y55660038D01*
X392199170Y55640632D01*
X392188134Y55622219D01*
X392175346Y55604976D01*
X392160930Y55589070D01*
X392145024Y55574654D01*
X392127781Y55561866D01*
X392109368Y55550830D01*
X392089962Y55541651D01*
X392069750Y55534419D01*
X392048926Y55529203D01*
X392027691Y55526053D01*
X392006250Y55525000D01*
X391568750Y55525000D01*
X391547309Y55526053D01*
X391526074Y55529203D01*
X391505250Y55534419D01*
X391485038Y55541651D01*
X391465632Y55550830D01*
X391447219Y55561866D01*
X391429976Y55574654D01*
X391414070Y55589070D01*
X391399654Y55604976D01*
X391386866Y55622219D01*
X391375830Y55640632D01*
X391366651Y55660038D01*
X391359419Y55680250D01*
X391354203Y55701074D01*
X391351053Y55722309D01*
X391350000Y55743750D01*
X391350000Y56256250D01*
X391351053Y56277691D01*
X391354203Y56298926D01*
X391359419Y56319750D01*
X391366651Y56339962D01*
X391375830Y56359368D01*
X391386866Y56377781D01*
X391399654Y56395024D01*
X391414070Y56410930D01*
X391429976Y56425346D01*
X391447219Y56438134D01*
X391465632Y56449170D01*
X391485038Y56458349D01*
X391505250Y56465581D01*
X391526074Y56470797D01*
X391547309Y56473947D01*
X391568750Y56475000D01*
X392006250Y56475000D01*
X392027691Y56473947D01*
G37*
G04 #@! TD.AperFunction*
G04 #@! TA.AperFunction,SMDPad,CuDef*
G36*
X390452691Y56473947D02*
G01*
X390473926Y56470797D01*
X390494750Y56465581D01*
X390514962Y56458349D01*
X390534368Y56449170D01*
X390552781Y56438134D01*
X390570024Y56425346D01*
X390585930Y56410930D01*
X390600346Y56395024D01*
X390613134Y56377781D01*
X390624170Y56359368D01*
X390633349Y56339962D01*
X390640581Y56319750D01*
X390645797Y56298926D01*
X390648947Y56277691D01*
X390650000Y56256250D01*
X390650000Y55743750D01*
X390648947Y55722309D01*
X390645797Y55701074D01*
X390640581Y55680250D01*
X390633349Y55660038D01*
X390624170Y55640632D01*
X390613134Y55622219D01*
X390600346Y55604976D01*
X390585930Y55589070D01*
X390570024Y55574654D01*
X390552781Y55561866D01*
X390534368Y55550830D01*
X390514962Y55541651D01*
X390494750Y55534419D01*
X390473926Y55529203D01*
X390452691Y55526053D01*
X390431250Y55525000D01*
X389993750Y55525000D01*
X389972309Y55526053D01*
X389951074Y55529203D01*
X389930250Y55534419D01*
X389910038Y55541651D01*
X389890632Y55550830D01*
X389872219Y55561866D01*
X389854976Y55574654D01*
X389839070Y55589070D01*
X389824654Y55604976D01*
X389811866Y55622219D01*
X389800830Y55640632D01*
X389791651Y55660038D01*
X389784419Y55680250D01*
X389779203Y55701074D01*
X389776053Y55722309D01*
X389775000Y55743750D01*
X389775000Y56256250D01*
X389776053Y56277691D01*
X389779203Y56298926D01*
X389784419Y56319750D01*
X389791651Y56339962D01*
X389800830Y56359368D01*
X389811866Y56377781D01*
X389824654Y56395024D01*
X389839070Y56410930D01*
X389854976Y56425346D01*
X389872219Y56438134D01*
X389890632Y56449170D01*
X389910038Y56458349D01*
X389930250Y56465581D01*
X389951074Y56470797D01*
X389972309Y56473947D01*
X389993750Y56475000D01*
X390431250Y56475000D01*
X390452691Y56473947D01*
G37*
G04 #@! TD.AperFunction*
G04 #@! TA.AperFunction,SMDPad,CuDef*
G36*
X375609802Y65909518D02*
G01*
X375619509Y65908079D01*
X375629028Y65905694D01*
X375638268Y65902388D01*
X375647140Y65898192D01*
X375655557Y65893147D01*
X375663439Y65887301D01*
X375670711Y65880711D01*
X375677301Y65873439D01*
X375683147Y65865557D01*
X375688192Y65857140D01*
X375692388Y65848268D01*
X375695694Y65839028D01*
X375698079Y65829509D01*
X375699518Y65819802D01*
X375700000Y65810000D01*
X375700000Y65550000D01*
X375699518Y65540198D01*
X375698079Y65530491D01*
X375695694Y65520972D01*
X375692388Y65511732D01*
X375688192Y65502860D01*
X375683147Y65494443D01*
X375677301Y65486561D01*
X375670711Y65479289D01*
X375663439Y65472699D01*
X375655557Y65466853D01*
X375647140Y65461808D01*
X375638268Y65457612D01*
X375629028Y65454306D01*
X375619509Y65451921D01*
X375609802Y65450482D01*
X375600000Y65450000D01*
X375400000Y65450000D01*
X375390198Y65450482D01*
X375380491Y65451921D01*
X375370972Y65454306D01*
X375361732Y65457612D01*
X375352860Y65461808D01*
X375344443Y65466853D01*
X375336561Y65472699D01*
X375329289Y65479289D01*
X375322699Y65486561D01*
X375316853Y65494443D01*
X375311808Y65502860D01*
X375307612Y65511732D01*
X375304306Y65520972D01*
X375301921Y65530491D01*
X375300482Y65540198D01*
X375300000Y65550000D01*
X375300000Y65810000D01*
X375300482Y65819802D01*
X375301921Y65829509D01*
X375304306Y65839028D01*
X375307612Y65848268D01*
X375311808Y65857140D01*
X375316853Y65865557D01*
X375322699Y65873439D01*
X375329289Y65880711D01*
X375336561Y65887301D01*
X375344443Y65893147D01*
X375352860Y65898192D01*
X375361732Y65902388D01*
X375370972Y65905694D01*
X375380491Y65908079D01*
X375390198Y65909518D01*
X375400000Y65910000D01*
X375600000Y65910000D01*
X375609802Y65909518D01*
G37*
G04 #@! TD.AperFunction*
G04 #@! TA.AperFunction,SMDPad,CuDef*
G36*
X375609802Y66549518D02*
G01*
X375619509Y66548079D01*
X375629028Y66545694D01*
X375638268Y66542388D01*
X375647140Y66538192D01*
X375655557Y66533147D01*
X375663439Y66527301D01*
X375670711Y66520711D01*
X375677301Y66513439D01*
X375683147Y66505557D01*
X375688192Y66497140D01*
X375692388Y66488268D01*
X375695694Y66479028D01*
X375698079Y66469509D01*
X375699518Y66459802D01*
X375700000Y66450000D01*
X375700000Y66190000D01*
X375699518Y66180198D01*
X375698079Y66170491D01*
X375695694Y66160972D01*
X375692388Y66151732D01*
X375688192Y66142860D01*
X375683147Y66134443D01*
X375677301Y66126561D01*
X375670711Y66119289D01*
X375663439Y66112699D01*
X375655557Y66106853D01*
X375647140Y66101808D01*
X375638268Y66097612D01*
X375629028Y66094306D01*
X375619509Y66091921D01*
X375609802Y66090482D01*
X375600000Y66090000D01*
X375400000Y66090000D01*
X375390198Y66090482D01*
X375380491Y66091921D01*
X375370972Y66094306D01*
X375361732Y66097612D01*
X375352860Y66101808D01*
X375344443Y66106853D01*
X375336561Y66112699D01*
X375329289Y66119289D01*
X375322699Y66126561D01*
X375316853Y66134443D01*
X375311808Y66142860D01*
X375307612Y66151732D01*
X375304306Y66160972D01*
X375301921Y66170491D01*
X375300482Y66180198D01*
X375300000Y66190000D01*
X375300000Y66450000D01*
X375300482Y66459802D01*
X375301921Y66469509D01*
X375304306Y66479028D01*
X375307612Y66488268D01*
X375311808Y66497140D01*
X375316853Y66505557D01*
X375322699Y66513439D01*
X375329289Y66520711D01*
X375336561Y66527301D01*
X375344443Y66533147D01*
X375352860Y66538192D01*
X375361732Y66542388D01*
X375370972Y66545694D01*
X375380491Y66548079D01*
X375390198Y66549518D01*
X375400000Y66550000D01*
X375600000Y66550000D01*
X375609802Y66549518D01*
G37*
G04 #@! TD.AperFunction*
G04 #@! TA.AperFunction,SMDPad,CuDef*
G36*
X377609802Y66549518D02*
G01*
X377619509Y66548079D01*
X377629028Y66545694D01*
X377638268Y66542388D01*
X377647140Y66538192D01*
X377655557Y66533147D01*
X377663439Y66527301D01*
X377670711Y66520711D01*
X377677301Y66513439D01*
X377683147Y66505557D01*
X377688192Y66497140D01*
X377692388Y66488268D01*
X377695694Y66479028D01*
X377698079Y66469509D01*
X377699518Y66459802D01*
X377700000Y66450000D01*
X377700000Y66190000D01*
X377699518Y66180198D01*
X377698079Y66170491D01*
X377695694Y66160972D01*
X377692388Y66151732D01*
X377688192Y66142860D01*
X377683147Y66134443D01*
X377677301Y66126561D01*
X377670711Y66119289D01*
X377663439Y66112699D01*
X377655557Y66106853D01*
X377647140Y66101808D01*
X377638268Y66097612D01*
X377629028Y66094306D01*
X377619509Y66091921D01*
X377609802Y66090482D01*
X377600000Y66090000D01*
X377400000Y66090000D01*
X377390198Y66090482D01*
X377380491Y66091921D01*
X377370972Y66094306D01*
X377361732Y66097612D01*
X377352860Y66101808D01*
X377344443Y66106853D01*
X377336561Y66112699D01*
X377329289Y66119289D01*
X377322699Y66126561D01*
X377316853Y66134443D01*
X377311808Y66142860D01*
X377307612Y66151732D01*
X377304306Y66160972D01*
X377301921Y66170491D01*
X377300482Y66180198D01*
X377300000Y66190000D01*
X377300000Y66450000D01*
X377300482Y66459802D01*
X377301921Y66469509D01*
X377304306Y66479028D01*
X377307612Y66488268D01*
X377311808Y66497140D01*
X377316853Y66505557D01*
X377322699Y66513439D01*
X377329289Y66520711D01*
X377336561Y66527301D01*
X377344443Y66533147D01*
X377352860Y66538192D01*
X377361732Y66542388D01*
X377370972Y66545694D01*
X377380491Y66548079D01*
X377390198Y66549518D01*
X377400000Y66550000D01*
X377600000Y66550000D01*
X377609802Y66549518D01*
G37*
G04 #@! TD.AperFunction*
G04 #@! TA.AperFunction,SMDPad,CuDef*
G36*
X377609802Y65909518D02*
G01*
X377619509Y65908079D01*
X377629028Y65905694D01*
X377638268Y65902388D01*
X377647140Y65898192D01*
X377655557Y65893147D01*
X377663439Y65887301D01*
X377670711Y65880711D01*
X377677301Y65873439D01*
X377683147Y65865557D01*
X377688192Y65857140D01*
X377692388Y65848268D01*
X377695694Y65839028D01*
X377698079Y65829509D01*
X377699518Y65819802D01*
X377700000Y65810000D01*
X377700000Y65550000D01*
X377699518Y65540198D01*
X377698079Y65530491D01*
X377695694Y65520972D01*
X377692388Y65511732D01*
X377688192Y65502860D01*
X377683147Y65494443D01*
X377677301Y65486561D01*
X377670711Y65479289D01*
X377663439Y65472699D01*
X377655557Y65466853D01*
X377647140Y65461808D01*
X377638268Y65457612D01*
X377629028Y65454306D01*
X377619509Y65451921D01*
X377609802Y65450482D01*
X377600000Y65450000D01*
X377400000Y65450000D01*
X377390198Y65450482D01*
X377380491Y65451921D01*
X377370972Y65454306D01*
X377361732Y65457612D01*
X377352860Y65461808D01*
X377344443Y65466853D01*
X377336561Y65472699D01*
X377329289Y65479289D01*
X377322699Y65486561D01*
X377316853Y65494443D01*
X377311808Y65502860D01*
X377307612Y65511732D01*
X377304306Y65520972D01*
X377301921Y65530491D01*
X377300482Y65540198D01*
X377300000Y65550000D01*
X377300000Y65810000D01*
X377300482Y65819802D01*
X377301921Y65829509D01*
X377304306Y65839028D01*
X377307612Y65848268D01*
X377311808Y65857140D01*
X377316853Y65865557D01*
X377322699Y65873439D01*
X377329289Y65880711D01*
X377336561Y65887301D01*
X377344443Y65893147D01*
X377352860Y65898192D01*
X377361732Y65902388D01*
X377370972Y65905694D01*
X377380491Y65908079D01*
X377390198Y65909518D01*
X377400000Y65910000D01*
X377600000Y65910000D01*
X377609802Y65909518D01*
G37*
G04 #@! TD.AperFunction*
G04 #@! TA.AperFunction,SMDPad,CuDef*
G36*
X377980142Y63923826D02*
G01*
X378003803Y63920316D01*
X378027007Y63914504D01*
X378049529Y63906446D01*
X378071153Y63896218D01*
X378091670Y63883921D01*
X378110883Y63869671D01*
X378128607Y63853607D01*
X378144671Y63835883D01*
X378158921Y63816670D01*
X378171218Y63796153D01*
X378181446Y63774529D01*
X378189504Y63752007D01*
X378195316Y63728803D01*
X378198826Y63705142D01*
X378200000Y63681250D01*
X378200000Y63193750D01*
X378198826Y63169858D01*
X378195316Y63146197D01*
X378189504Y63122993D01*
X378181446Y63100471D01*
X378171218Y63078847D01*
X378158921Y63058330D01*
X378144671Y63039117D01*
X378128607Y63021393D01*
X378110883Y63005329D01*
X378091670Y62991079D01*
X378071153Y62978782D01*
X378049529Y62968554D01*
X378027007Y62960496D01*
X378003803Y62954684D01*
X377980142Y62951174D01*
X377956250Y62950000D01*
X377043750Y62950000D01*
X377019858Y62951174D01*
X376996197Y62954684D01*
X376972993Y62960496D01*
X376950471Y62968554D01*
X376928847Y62978782D01*
X376908330Y62991079D01*
X376889117Y63005329D01*
X376871393Y63021393D01*
X376855329Y63039117D01*
X376841079Y63058330D01*
X376828782Y63078847D01*
X376818554Y63100471D01*
X376810496Y63122993D01*
X376804684Y63146197D01*
X376801174Y63169858D01*
X376800000Y63193750D01*
X376800000Y63681250D01*
X376801174Y63705142D01*
X376804684Y63728803D01*
X376810496Y63752007D01*
X376818554Y63774529D01*
X376828782Y63796153D01*
X376841079Y63816670D01*
X376855329Y63835883D01*
X376871393Y63853607D01*
X376889117Y63869671D01*
X376908330Y63883921D01*
X376928847Y63896218D01*
X376950471Y63906446D01*
X376972993Y63914504D01*
X376996197Y63920316D01*
X377019858Y63923826D01*
X377043750Y63925000D01*
X377956250Y63925000D01*
X377980142Y63923826D01*
G37*
G04 #@! TD.AperFunction*
G04 #@! TA.AperFunction,SMDPad,CuDef*
G36*
X377980142Y62048826D02*
G01*
X378003803Y62045316D01*
X378027007Y62039504D01*
X378049529Y62031446D01*
X378071153Y62021218D01*
X378091670Y62008921D01*
X378110883Y61994671D01*
X378128607Y61978607D01*
X378144671Y61960883D01*
X378158921Y61941670D01*
X378171218Y61921153D01*
X378181446Y61899529D01*
X378189504Y61877007D01*
X378195316Y61853803D01*
X378198826Y61830142D01*
X378200000Y61806250D01*
X378200000Y61318750D01*
X378198826Y61294858D01*
X378195316Y61271197D01*
X378189504Y61247993D01*
X378181446Y61225471D01*
X378171218Y61203847D01*
X378158921Y61183330D01*
X378144671Y61164117D01*
X378128607Y61146393D01*
X378110883Y61130329D01*
X378091670Y61116079D01*
X378071153Y61103782D01*
X378049529Y61093554D01*
X378027007Y61085496D01*
X378003803Y61079684D01*
X377980142Y61076174D01*
X377956250Y61075000D01*
X377043750Y61075000D01*
X377019858Y61076174D01*
X376996197Y61079684D01*
X376972993Y61085496D01*
X376950471Y61093554D01*
X376928847Y61103782D01*
X376908330Y61116079D01*
X376889117Y61130329D01*
X376871393Y61146393D01*
X376855329Y61164117D01*
X376841079Y61183330D01*
X376828782Y61203847D01*
X376818554Y61225471D01*
X376810496Y61247993D01*
X376804684Y61271197D01*
X376801174Y61294858D01*
X376800000Y61318750D01*
X376800000Y61806250D01*
X376801174Y61830142D01*
X376804684Y61853803D01*
X376810496Y61877007D01*
X376818554Y61899529D01*
X376828782Y61921153D01*
X376841079Y61941670D01*
X376855329Y61960883D01*
X376871393Y61978607D01*
X376889117Y61994671D01*
X376908330Y62008921D01*
X376928847Y62021218D01*
X376950471Y62031446D01*
X376972993Y62039504D01*
X376996197Y62045316D01*
X377019858Y62048826D01*
X377043750Y62050000D01*
X377956250Y62050000D01*
X377980142Y62048826D01*
G37*
G04 #@! TD.AperFunction*
D11*
X372000000Y64000000D03*
D12*
X372000000Y66500000D03*
X370000000Y66500000D03*
X370000000Y64000000D03*
D13*
X367290000Y59230000D03*
X367290000Y71270000D03*
D11*
X391000000Y51000000D03*
D14*
X391000000Y48460000D03*
X388460000Y51000000D03*
X388460000Y48460000D03*
X385920000Y51000000D03*
X385920000Y48460000D03*
G04 #@! TA.AperFunction,SMDPad,CuDef*
D10*
G36*
X386452691Y56473947D02*
G01*
X386473926Y56470797D01*
X386494750Y56465581D01*
X386514962Y56458349D01*
X386534368Y56449170D01*
X386552781Y56438134D01*
X386570024Y56425346D01*
X386585930Y56410930D01*
X386600346Y56395024D01*
X386613134Y56377781D01*
X386624170Y56359368D01*
X386633349Y56339962D01*
X386640581Y56319750D01*
X386645797Y56298926D01*
X386648947Y56277691D01*
X386650000Y56256250D01*
X386650000Y55743750D01*
X386648947Y55722309D01*
X386645797Y55701074D01*
X386640581Y55680250D01*
X386633349Y55660038D01*
X386624170Y55640632D01*
X386613134Y55622219D01*
X386600346Y55604976D01*
X386585930Y55589070D01*
X386570024Y55574654D01*
X386552781Y55561866D01*
X386534368Y55550830D01*
X386514962Y55541651D01*
X386494750Y55534419D01*
X386473926Y55529203D01*
X386452691Y55526053D01*
X386431250Y55525000D01*
X385993750Y55525000D01*
X385972309Y55526053D01*
X385951074Y55529203D01*
X385930250Y55534419D01*
X385910038Y55541651D01*
X385890632Y55550830D01*
X385872219Y55561866D01*
X385854976Y55574654D01*
X385839070Y55589070D01*
X385824654Y55604976D01*
X385811866Y55622219D01*
X385800830Y55640632D01*
X385791651Y55660038D01*
X385784419Y55680250D01*
X385779203Y55701074D01*
X385776053Y55722309D01*
X385775000Y55743750D01*
X385775000Y56256250D01*
X385776053Y56277691D01*
X385779203Y56298926D01*
X385784419Y56319750D01*
X385791651Y56339962D01*
X385800830Y56359368D01*
X385811866Y56377781D01*
X385824654Y56395024D01*
X385839070Y56410930D01*
X385854976Y56425346D01*
X385872219Y56438134D01*
X385890632Y56449170D01*
X385910038Y56458349D01*
X385930250Y56465581D01*
X385951074Y56470797D01*
X385972309Y56473947D01*
X385993750Y56475000D01*
X386431250Y56475000D01*
X386452691Y56473947D01*
G37*
G04 #@! TD.AperFunction*
G04 #@! TA.AperFunction,SMDPad,CuDef*
G36*
X388027691Y56473947D02*
G01*
X388048926Y56470797D01*
X388069750Y56465581D01*
X388089962Y56458349D01*
X388109368Y56449170D01*
X388127781Y56438134D01*
X388145024Y56425346D01*
X388160930Y56410930D01*
X388175346Y56395024D01*
X388188134Y56377781D01*
X388199170Y56359368D01*
X388208349Y56339962D01*
X388215581Y56319750D01*
X388220797Y56298926D01*
X388223947Y56277691D01*
X388225000Y56256250D01*
X388225000Y55743750D01*
X388223947Y55722309D01*
X388220797Y55701074D01*
X388215581Y55680250D01*
X388208349Y55660038D01*
X388199170Y55640632D01*
X388188134Y55622219D01*
X388175346Y55604976D01*
X388160930Y55589070D01*
X388145024Y55574654D01*
X388127781Y55561866D01*
X388109368Y55550830D01*
X388089962Y55541651D01*
X388069750Y55534419D01*
X388048926Y55529203D01*
X388027691Y55526053D01*
X388006250Y55525000D01*
X387568750Y55525000D01*
X387547309Y55526053D01*
X387526074Y55529203D01*
X387505250Y55534419D01*
X387485038Y55541651D01*
X387465632Y55550830D01*
X387447219Y55561866D01*
X387429976Y55574654D01*
X387414070Y55589070D01*
X387399654Y55604976D01*
X387386866Y55622219D01*
X387375830Y55640632D01*
X387366651Y55660038D01*
X387359419Y55680250D01*
X387354203Y55701074D01*
X387351053Y55722309D01*
X387350000Y55743750D01*
X387350000Y56256250D01*
X387351053Y56277691D01*
X387354203Y56298926D01*
X387359419Y56319750D01*
X387366651Y56339962D01*
X387375830Y56359368D01*
X387386866Y56377781D01*
X387399654Y56395024D01*
X387414070Y56410930D01*
X387429976Y56425346D01*
X387447219Y56438134D01*
X387465632Y56449170D01*
X387485038Y56458349D01*
X387505250Y56465581D01*
X387526074Y56470797D01*
X387547309Y56473947D01*
X387568750Y56475000D01*
X388006250Y56475000D01*
X388027691Y56473947D01*
G37*
G04 #@! TD.AperFunction*
G04 #@! TA.AperFunction,SMDPad,CuDef*
G36*
X375952691Y70473947D02*
G01*
X375973926Y70470797D01*
X375994750Y70465581D01*
X376014962Y70458349D01*
X376034368Y70449170D01*
X376052781Y70438134D01*
X376070024Y70425346D01*
X376085930Y70410930D01*
X376100346Y70395024D01*
X376113134Y70377781D01*
X376124170Y70359368D01*
X376133349Y70339962D01*
X376140581Y70319750D01*
X376145797Y70298926D01*
X376148947Y70277691D01*
X376150000Y70256250D01*
X376150000Y69743750D01*
X376148947Y69722309D01*
X376145797Y69701074D01*
X376140581Y69680250D01*
X376133349Y69660038D01*
X376124170Y69640632D01*
X376113134Y69622219D01*
X376100346Y69604976D01*
X376085930Y69589070D01*
X376070024Y69574654D01*
X376052781Y69561866D01*
X376034368Y69550830D01*
X376014962Y69541651D01*
X375994750Y69534419D01*
X375973926Y69529203D01*
X375952691Y69526053D01*
X375931250Y69525000D01*
X375493750Y69525000D01*
X375472309Y69526053D01*
X375451074Y69529203D01*
X375430250Y69534419D01*
X375410038Y69541651D01*
X375390632Y69550830D01*
X375372219Y69561866D01*
X375354976Y69574654D01*
X375339070Y69589070D01*
X375324654Y69604976D01*
X375311866Y69622219D01*
X375300830Y69640632D01*
X375291651Y69660038D01*
X375284419Y69680250D01*
X375279203Y69701074D01*
X375276053Y69722309D01*
X375275000Y69743750D01*
X375275000Y70256250D01*
X375276053Y70277691D01*
X375279203Y70298926D01*
X375284419Y70319750D01*
X375291651Y70339962D01*
X375300830Y70359368D01*
X375311866Y70377781D01*
X375324654Y70395024D01*
X375339070Y70410930D01*
X375354976Y70425346D01*
X375372219Y70438134D01*
X375390632Y70449170D01*
X375410038Y70458349D01*
X375430250Y70465581D01*
X375451074Y70470797D01*
X375472309Y70473947D01*
X375493750Y70475000D01*
X375931250Y70475000D01*
X375952691Y70473947D01*
G37*
G04 #@! TD.AperFunction*
G04 #@! TA.AperFunction,SMDPad,CuDef*
G36*
X377527691Y70473947D02*
G01*
X377548926Y70470797D01*
X377569750Y70465581D01*
X377589962Y70458349D01*
X377609368Y70449170D01*
X377627781Y70438134D01*
X377645024Y70425346D01*
X377660930Y70410930D01*
X377675346Y70395024D01*
X377688134Y70377781D01*
X377699170Y70359368D01*
X377708349Y70339962D01*
X377715581Y70319750D01*
X377720797Y70298926D01*
X377723947Y70277691D01*
X377725000Y70256250D01*
X377725000Y69743750D01*
X377723947Y69722309D01*
X377720797Y69701074D01*
X377715581Y69680250D01*
X377708349Y69660038D01*
X377699170Y69640632D01*
X377688134Y69622219D01*
X377675346Y69604976D01*
X377660930Y69589070D01*
X377645024Y69574654D01*
X377627781Y69561866D01*
X377609368Y69550830D01*
X377589962Y69541651D01*
X377569750Y69534419D01*
X377548926Y69529203D01*
X377527691Y69526053D01*
X377506250Y69525000D01*
X377068750Y69525000D01*
X377047309Y69526053D01*
X377026074Y69529203D01*
X377005250Y69534419D01*
X376985038Y69541651D01*
X376965632Y69550830D01*
X376947219Y69561866D01*
X376929976Y69574654D01*
X376914070Y69589070D01*
X376899654Y69604976D01*
X376886866Y69622219D01*
X376875830Y69640632D01*
X376866651Y69660038D01*
X376859419Y69680250D01*
X376854203Y69701074D01*
X376851053Y69722309D01*
X376850000Y69743750D01*
X376850000Y70256250D01*
X376851053Y70277691D01*
X376854203Y70298926D01*
X376859419Y70319750D01*
X376866651Y70339962D01*
X376875830Y70359368D01*
X376886866Y70377781D01*
X376899654Y70395024D01*
X376914070Y70410930D01*
X376929976Y70425346D01*
X376947219Y70438134D01*
X376965632Y70449170D01*
X376985038Y70458349D01*
X377005250Y70465581D01*
X377026074Y70470797D01*
X377047309Y70473947D01*
X377068750Y70475000D01*
X377506250Y70475000D01*
X377527691Y70473947D01*
G37*
G04 #@! TD.AperFunction*
G04 #@! TA.AperFunction,SMDPad,CuDef*
G36*
X377527691Y72473947D02*
G01*
X377548926Y72470797D01*
X377569750Y72465581D01*
X377589962Y72458349D01*
X377609368Y72449170D01*
X377627781Y72438134D01*
X377645024Y72425346D01*
X377660930Y72410930D01*
X377675346Y72395024D01*
X377688134Y72377781D01*
X377699170Y72359368D01*
X377708349Y72339962D01*
X377715581Y72319750D01*
X377720797Y72298926D01*
X377723947Y72277691D01*
X377725000Y72256250D01*
X377725000Y71743750D01*
X377723947Y71722309D01*
X377720797Y71701074D01*
X377715581Y71680250D01*
X377708349Y71660038D01*
X377699170Y71640632D01*
X377688134Y71622219D01*
X377675346Y71604976D01*
X377660930Y71589070D01*
X377645024Y71574654D01*
X377627781Y71561866D01*
X377609368Y71550830D01*
X377589962Y71541651D01*
X377569750Y71534419D01*
X377548926Y71529203D01*
X377527691Y71526053D01*
X377506250Y71525000D01*
X377068750Y71525000D01*
X377047309Y71526053D01*
X377026074Y71529203D01*
X377005250Y71534419D01*
X376985038Y71541651D01*
X376965632Y71550830D01*
X376947219Y71561866D01*
X376929976Y71574654D01*
X376914070Y71589070D01*
X376899654Y71604976D01*
X376886866Y71622219D01*
X376875830Y71640632D01*
X376866651Y71660038D01*
X376859419Y71680250D01*
X376854203Y71701074D01*
X376851053Y71722309D01*
X376850000Y71743750D01*
X376850000Y72256250D01*
X376851053Y72277691D01*
X376854203Y72298926D01*
X376859419Y72319750D01*
X376866651Y72339962D01*
X376875830Y72359368D01*
X376886866Y72377781D01*
X376899654Y72395024D01*
X376914070Y72410930D01*
X376929976Y72425346D01*
X376947219Y72438134D01*
X376965632Y72449170D01*
X376985038Y72458349D01*
X377005250Y72465581D01*
X377026074Y72470797D01*
X377047309Y72473947D01*
X377068750Y72475000D01*
X377506250Y72475000D01*
X377527691Y72473947D01*
G37*
G04 #@! TD.AperFunction*
G04 #@! TA.AperFunction,SMDPad,CuDef*
G36*
X375952691Y72473947D02*
G01*
X375973926Y72470797D01*
X375994750Y72465581D01*
X376014962Y72458349D01*
X376034368Y72449170D01*
X376052781Y72438134D01*
X376070024Y72425346D01*
X376085930Y72410930D01*
X376100346Y72395024D01*
X376113134Y72377781D01*
X376124170Y72359368D01*
X376133349Y72339962D01*
X376140581Y72319750D01*
X376145797Y72298926D01*
X376148947Y72277691D01*
X376150000Y72256250D01*
X376150000Y71743750D01*
X376148947Y71722309D01*
X376145797Y71701074D01*
X376140581Y71680250D01*
X376133349Y71660038D01*
X376124170Y71640632D01*
X376113134Y71622219D01*
X376100346Y71604976D01*
X376085930Y71589070D01*
X376070024Y71574654D01*
X376052781Y71561866D01*
X376034368Y71550830D01*
X376014962Y71541651D01*
X375994750Y71534419D01*
X375973926Y71529203D01*
X375952691Y71526053D01*
X375931250Y71525000D01*
X375493750Y71525000D01*
X375472309Y71526053D01*
X375451074Y71529203D01*
X375430250Y71534419D01*
X375410038Y71541651D01*
X375390632Y71550830D01*
X375372219Y71561866D01*
X375354976Y71574654D01*
X375339070Y71589070D01*
X375324654Y71604976D01*
X375311866Y71622219D01*
X375300830Y71640632D01*
X375291651Y71660038D01*
X375284419Y71680250D01*
X375279203Y71701074D01*
X375276053Y71722309D01*
X375275000Y71743750D01*
X375275000Y72256250D01*
X375276053Y72277691D01*
X375279203Y72298926D01*
X375284419Y72319750D01*
X375291651Y72339962D01*
X375300830Y72359368D01*
X375311866Y72377781D01*
X375324654Y72395024D01*
X375339070Y72410930D01*
X375354976Y72425346D01*
X375372219Y72438134D01*
X375390632Y72449170D01*
X375410038Y72458349D01*
X375430250Y72465581D01*
X375451074Y72470797D01*
X375472309Y72473947D01*
X375493750Y72475000D01*
X375931250Y72475000D01*
X375952691Y72473947D01*
G37*
G04 #@! TD.AperFunction*
G04 #@! TA.AperFunction,SMDPad,CuDef*
G36*
X384480142Y68923826D02*
G01*
X384503803Y68920316D01*
X384527007Y68914504D01*
X384549529Y68906446D01*
X384571153Y68896218D01*
X384591670Y68883921D01*
X384610883Y68869671D01*
X384628607Y68853607D01*
X384644671Y68835883D01*
X384658921Y68816670D01*
X384671218Y68796153D01*
X384681446Y68774529D01*
X384689504Y68752007D01*
X384695316Y68728803D01*
X384698826Y68705142D01*
X384700000Y68681250D01*
X384700000Y68193750D01*
X384698826Y68169858D01*
X384695316Y68146197D01*
X384689504Y68122993D01*
X384681446Y68100471D01*
X384671218Y68078847D01*
X384658921Y68058330D01*
X384644671Y68039117D01*
X384628607Y68021393D01*
X384610883Y68005329D01*
X384591670Y67991079D01*
X384571153Y67978782D01*
X384549529Y67968554D01*
X384527007Y67960496D01*
X384503803Y67954684D01*
X384480142Y67951174D01*
X384456250Y67950000D01*
X383543750Y67950000D01*
X383519858Y67951174D01*
X383496197Y67954684D01*
X383472993Y67960496D01*
X383450471Y67968554D01*
X383428847Y67978782D01*
X383408330Y67991079D01*
X383389117Y68005329D01*
X383371393Y68021393D01*
X383355329Y68039117D01*
X383341079Y68058330D01*
X383328782Y68078847D01*
X383318554Y68100471D01*
X383310496Y68122993D01*
X383304684Y68146197D01*
X383301174Y68169858D01*
X383300000Y68193750D01*
X383300000Y68681250D01*
X383301174Y68705142D01*
X383304684Y68728803D01*
X383310496Y68752007D01*
X383318554Y68774529D01*
X383328782Y68796153D01*
X383341079Y68816670D01*
X383355329Y68835883D01*
X383371393Y68853607D01*
X383389117Y68869671D01*
X383408330Y68883921D01*
X383428847Y68896218D01*
X383450471Y68906446D01*
X383472993Y68914504D01*
X383496197Y68920316D01*
X383519858Y68923826D01*
X383543750Y68925000D01*
X384456250Y68925000D01*
X384480142Y68923826D01*
G37*
G04 #@! TD.AperFunction*
G04 #@! TA.AperFunction,SMDPad,CuDef*
G36*
X384480142Y67048826D02*
G01*
X384503803Y67045316D01*
X384527007Y67039504D01*
X384549529Y67031446D01*
X384571153Y67021218D01*
X384591670Y67008921D01*
X384610883Y66994671D01*
X384628607Y66978607D01*
X384644671Y66960883D01*
X384658921Y66941670D01*
X384671218Y66921153D01*
X384681446Y66899529D01*
X384689504Y66877007D01*
X384695316Y66853803D01*
X384698826Y66830142D01*
X384700000Y66806250D01*
X384700000Y66318750D01*
X384698826Y66294858D01*
X384695316Y66271197D01*
X384689504Y66247993D01*
X384681446Y66225471D01*
X384671218Y66203847D01*
X384658921Y66183330D01*
X384644671Y66164117D01*
X384628607Y66146393D01*
X384610883Y66130329D01*
X384591670Y66116079D01*
X384571153Y66103782D01*
X384549529Y66093554D01*
X384527007Y66085496D01*
X384503803Y66079684D01*
X384480142Y66076174D01*
X384456250Y66075000D01*
X383543750Y66075000D01*
X383519858Y66076174D01*
X383496197Y66079684D01*
X383472993Y66085496D01*
X383450471Y66093554D01*
X383428847Y66103782D01*
X383408330Y66116079D01*
X383389117Y66130329D01*
X383371393Y66146393D01*
X383355329Y66164117D01*
X383341079Y66183330D01*
X383328782Y66203847D01*
X383318554Y66225471D01*
X383310496Y66247993D01*
X383304684Y66271197D01*
X383301174Y66294858D01*
X383300000Y66318750D01*
X383300000Y66806250D01*
X383301174Y66830142D01*
X383304684Y66853803D01*
X383310496Y66877007D01*
X383318554Y66899529D01*
X383328782Y66921153D01*
X383341079Y66941670D01*
X383355329Y66960883D01*
X383371393Y66978607D01*
X383389117Y66994671D01*
X383408330Y67008921D01*
X383428847Y67021218D01*
X383450471Y67031446D01*
X383472993Y67039504D01*
X383496197Y67045316D01*
X383519858Y67048826D01*
X383543750Y67050000D01*
X384456250Y67050000D01*
X384480142Y67048826D01*
G37*
G04 #@! TD.AperFunction*
D15*
X386750000Y67800000D03*
X386750000Y67000000D03*
X386750000Y66200000D03*
X386750000Y65400000D03*
X386750000Y64600000D03*
X386750000Y63800000D03*
X386750000Y63000000D03*
X386750000Y62200000D03*
D16*
X388200000Y60750000D03*
X389000000Y60750000D03*
X389800000Y60750000D03*
X390600000Y60750000D03*
X391400000Y60750000D03*
X392200000Y60750000D03*
X393000000Y60750000D03*
X393800000Y60750000D03*
D15*
X395250000Y62200000D03*
X395250000Y63000000D03*
X395250000Y63800000D03*
X395250000Y64600000D03*
X395250000Y65400000D03*
X395250000Y66200000D03*
X395250000Y67000000D03*
X395250000Y67800000D03*
D16*
X393800000Y69250000D03*
X393000000Y69250000D03*
X392200000Y69250000D03*
X391400000Y69250000D03*
X390600000Y69250000D03*
X389800000Y69250000D03*
X389000000Y69250000D03*
X388200000Y69250000D03*
D17*
X381350000Y67400000D03*
X381350000Y69600000D03*
X379650000Y69600000D03*
X379650000Y67400000D03*
D18*
X398000000Y59000000D03*
X397000000Y58000000D03*
X375500000Y61500000D03*
X375500000Y57500000D03*
X383000000Y72500000D03*
X388000000Y74000000D03*
X383500000Y63000000D03*
X384000000Y70000000D03*
X379500000Y65000000D03*
X382500000Y67500000D03*
X384000000Y54000000D03*
X375000000Y63500000D03*
X374500000Y67000000D03*
X374500000Y68500000D03*
X378500000Y71000000D03*
X390500000Y71500000D03*
D19*
X392200000Y72662500D02*
X393537500Y74000000D01*
X392200000Y69250000D02*
X392200000Y72662500D01*
X382000000Y52975000D02*
X382000000Y53600000D01*
X383975000Y51000000D02*
X382000000Y52975000D01*
X385920000Y51000000D02*
X383975000Y51000000D01*
X396300000Y67800000D02*
X395250000Y67800000D01*
X398000000Y66100000D02*
X396300000Y67800000D01*
X398000000Y59000000D02*
X398000000Y66100000D01*
X389309999Y47610001D02*
X388460000Y48460000D01*
X391564001Y47284999D02*
X389635001Y47284999D01*
X389635001Y47284999D02*
X389309999Y47610001D01*
X393800000Y49520998D02*
X391564001Y47284999D01*
X393800000Y60750000D02*
X393800000Y49520998D01*
X393000000Y55540000D02*
X388460000Y51000000D01*
X393000000Y60750000D02*
X393000000Y55540000D01*
X396300000Y62200000D02*
X395250000Y62200000D01*
X397000000Y61500000D02*
X396300000Y62200000D01*
X397000000Y58000000D02*
X397000000Y61500000D01*
X370000000Y62797919D02*
X370000000Y64000000D01*
X385920000Y48460000D02*
X384337919Y48460000D01*
X381350000Y69500000D02*
X381350000Y69600000D01*
X379650000Y67800000D02*
X381350000Y69500000D01*
X379650000Y67400000D02*
X379650000Y67800000D01*
X381350000Y71912500D02*
X381437500Y72000000D01*
X381350000Y69600000D02*
X381350000Y71912500D01*
X384189998Y64500000D02*
X385889998Y66200000D01*
X385889998Y66200000D02*
X386750000Y66200000D01*
X382937500Y64500000D02*
X384189998Y64500000D01*
X382937500Y64500000D02*
X382937500Y63800000D01*
X375562500Y61562500D02*
X375500000Y61500000D01*
X377500000Y61562500D02*
X375562500Y61562500D01*
X375500000Y57500000D02*
X370000000Y62797919D01*
X384337919Y48460000D02*
X375500000Y57500000D01*
X391400000Y73062500D02*
X390462500Y74000000D01*
X391400000Y69250000D02*
X391400000Y73062500D01*
X382500000Y72000000D02*
X383000000Y72500000D01*
X381437500Y72000000D02*
X382500000Y72000000D01*
X388000000Y74000000D02*
X390462500Y74000000D01*
X382068750Y62931250D02*
X383431250Y62931250D01*
X382937500Y63800000D02*
X382068750Y62931250D01*
X383431250Y62931250D02*
X383500000Y63000000D01*
X381750000Y70000000D02*
X381350000Y69600000D01*
X384000000Y70000000D02*
X381750000Y70000000D01*
X380700000Y61562500D02*
X382063720Y62926220D01*
X382063720Y62926220D02*
X382068750Y62931250D01*
X377500000Y61562500D02*
X380700000Y61562500D01*
X381350000Y68350000D02*
X381350000Y67400000D01*
X381437500Y68437500D02*
X381350000Y68350000D01*
X384000000Y68437500D02*
X381437500Y68437500D01*
X380000000Y64500000D02*
X379500000Y65000000D01*
X381062500Y64500000D02*
X380000000Y64500000D01*
X381450000Y67500000D02*
X381350000Y67400000D01*
X382500000Y67500000D02*
X381450000Y67500000D01*
X385358750Y67800000D02*
X386750000Y67800000D01*
X384637500Y67800000D02*
X385358750Y67800000D01*
X384000000Y68437500D02*
X384637500Y67800000D01*
X378800000Y69600000D02*
X379650000Y69600000D01*
X378724999Y69524999D02*
X378800000Y69600000D01*
X378724999Y66439999D02*
X378724999Y69524999D01*
X379088025Y66076973D02*
X378724999Y66439999D01*
X383514473Y66076973D02*
X379088025Y66076973D01*
X384000000Y66562500D02*
X383514473Y66076973D01*
X379650000Y71912500D02*
X379562500Y72000000D01*
X379650000Y69600000D02*
X379650000Y71912500D01*
X384013240Y66575740D02*
X384000000Y66562500D01*
X384437500Y67000000D02*
X384013240Y66575740D01*
X386750000Y67000000D02*
X384437500Y67000000D01*
X392200000Y56412500D02*
X391787500Y56000000D01*
X392200000Y60750000D02*
X392200000Y56412500D01*
X390212500Y56000000D02*
X387787500Y56000000D01*
X372000000Y62900000D02*
X372000000Y64000000D01*
X386212500Y56000000D02*
X385000000Y56000000D01*
X382875000Y56400000D02*
X383275000Y56000000D01*
X382000000Y56400000D02*
X382875000Y56400000D01*
X378500000Y56400000D02*
X372000000Y62900000D01*
X382000000Y56400000D02*
X378500000Y56400000D01*
X384000000Y54000000D02*
X384000000Y56000000D01*
X384000000Y56000000D02*
X385000000Y56000000D01*
X383275000Y56000000D02*
X384000000Y56000000D01*
X385726408Y65400000D02*
X385000000Y64673592D01*
X386750000Y65400000D02*
X385726408Y65400000D01*
X385000000Y64673592D02*
X385000000Y56000000D01*
X389000000Y69250000D02*
X388200000Y69250000D01*
X387800000Y65400000D02*
X386750000Y65400000D01*
X388200000Y65800000D02*
X387800000Y65400000D01*
X388200000Y69250000D02*
X388200000Y65800000D01*
X367290000Y71270000D02*
X367290000Y59230000D01*
X375500000Y65680000D02*
X377500000Y65680000D01*
X377500000Y65680000D02*
X377500000Y63437500D01*
X375500000Y64000000D02*
X375000000Y63500000D01*
X375500000Y65680000D02*
X375500000Y64000000D01*
X375320000Y66500000D02*
X375500000Y66320000D01*
X374500000Y66500000D02*
X374500000Y67000000D01*
X374500000Y66500000D02*
X375320000Y66500000D01*
X372000000Y66500000D02*
X374500000Y66500000D01*
X374500000Y71225000D02*
X375275000Y72000000D01*
X375275000Y72000000D02*
X375712500Y72000000D01*
X374500000Y68500000D02*
X374500000Y71225000D01*
X375392500Y70320000D02*
X375712500Y70000000D01*
X377500000Y66550000D02*
X377500000Y66320000D01*
X370000000Y66500000D02*
X371225002Y67725002D01*
X371225002Y67725002D02*
X376324998Y67725002D01*
X376324998Y67725002D02*
X377500000Y66550000D01*
X375712500Y69525000D02*
X376324998Y68912502D01*
X376324998Y68912502D02*
X376324998Y67725002D01*
X375712500Y70000000D02*
X375712500Y69525000D01*
X377287500Y70000000D02*
X377287500Y70475000D01*
X377500000Y70000000D02*
X378500000Y71000000D01*
X377287500Y70000000D02*
X377500000Y70000000D01*
X390500000Y69350000D02*
X390600000Y69250000D01*
X390500000Y71500000D02*
X390500000Y69350000D01*
X377287500Y72000000D02*
X377287500Y72475000D01*
X377287500Y72475000D02*
X378037502Y73225002D01*
X378037502Y73225002D02*
X386874998Y73225002D01*
X386874998Y73225002D02*
X389800000Y70300000D01*
X389800000Y70300000D02*
X389800000Y69250000D01*
M02*
