G04 #@! TF.GenerationSoftware,KiCad,Pcbnew,(5.1.5-0-10_14)*
G04 #@! TF.CreationDate,2020-04-17T16:58:58+12:00*
G04 #@! TF.ProjectId,ZapierStompBox,5a617069-6572-4537-946f-6d70426f782e,rev?*
G04 #@! TF.SameCoordinates,Original*
G04 #@! TF.FileFunction,Soldermask,Top*
G04 #@! TF.FilePolarity,Negative*
%FSLAX46Y46*%
G04 Gerber Fmt 4.6, Leading zero omitted, Abs format (unit mm)*
G04 Created by KiCad (PCBNEW (5.1.5-0-10_14)) date 2020-04-17 16:58:58*
%MOMM*%
%LPD*%
G04 APERTURE LIST*
%ADD10C,0.100000*%
G04 APERTURE END LIST*
D10*
G36*
X400375256Y51608702D02*
G01*
X400481579Y51587553D01*
X400782042Y51463097D01*
X401052451Y51282415D01*
X401282415Y51052451D01*
X401463097Y50782042D01*
X401587553Y50481579D01*
X401651000Y50162609D01*
X401651000Y49837391D01*
X401587553Y49518421D01*
X401463097Y49217958D01*
X401282415Y48947549D01*
X401052451Y48717585D01*
X400782042Y48536903D01*
X400481579Y48412447D01*
X400375256Y48391298D01*
X400162611Y48349000D01*
X399837389Y48349000D01*
X399624744Y48391298D01*
X399518421Y48412447D01*
X399217958Y48536903D01*
X398947549Y48717585D01*
X398717585Y48947549D01*
X398536903Y49217958D01*
X398412447Y49518421D01*
X398349000Y49837391D01*
X398349000Y50162609D01*
X398412447Y50481579D01*
X398536903Y50782042D01*
X398717585Y51052451D01*
X398947549Y51282415D01*
X399217958Y51463097D01*
X399518421Y51587553D01*
X399624744Y51608702D01*
X399837389Y51651000D01*
X400162611Y51651000D01*
X400375256Y51608702D01*
G37*
G36*
X369375256Y51608702D02*
G01*
X369481579Y51587553D01*
X369782042Y51463097D01*
X370052451Y51282415D01*
X370282415Y51052451D01*
X370463097Y50782042D01*
X370587553Y50481579D01*
X370651000Y50162609D01*
X370651000Y49837391D01*
X370587553Y49518421D01*
X370463097Y49217958D01*
X370282415Y48947549D01*
X370052451Y48717585D01*
X369782042Y48536903D01*
X369481579Y48412447D01*
X369375256Y48391298D01*
X369162611Y48349000D01*
X368837389Y48349000D01*
X368624744Y48391298D01*
X368518421Y48412447D01*
X368217958Y48536903D01*
X367947549Y48717585D01*
X367717585Y48947549D01*
X367536903Y49217958D01*
X367412447Y49518421D01*
X367349000Y49837391D01*
X367349000Y50162609D01*
X367412447Y50481579D01*
X367536903Y50782042D01*
X367717585Y51052451D01*
X367947549Y51282415D01*
X368217958Y51463097D01*
X368518421Y51587553D01*
X368624744Y51608702D01*
X368837389Y51651000D01*
X369162611Y51651000D01*
X369375256Y51608702D01*
G37*
G36*
X392613512Y55356073D02*
G01*
X392762812Y55326376D01*
X392926784Y55258456D01*
X393074354Y55159853D01*
X393199853Y55034354D01*
X393298456Y54886784D01*
X393366376Y54722812D01*
X393401000Y54548741D01*
X393401000Y54371259D01*
X393366376Y54197188D01*
X393298456Y54033216D01*
X393199853Y53885646D01*
X393074354Y53760147D01*
X392926784Y53661544D01*
X392762812Y53593624D01*
X392613512Y53563927D01*
X392588742Y53559000D01*
X392411258Y53559000D01*
X392386488Y53563927D01*
X392237188Y53593624D01*
X392073216Y53661544D01*
X391925646Y53760147D01*
X391800147Y53885646D01*
X391701544Y54033216D01*
X391633624Y54197188D01*
X391599000Y54371259D01*
X391599000Y54548741D01*
X391633624Y54722812D01*
X391701544Y54886784D01*
X391800147Y55034354D01*
X391925646Y55159853D01*
X392073216Y55258456D01*
X392237188Y55326376D01*
X392386488Y55356073D01*
X392411258Y55361000D01*
X392588742Y55361000D01*
X392613512Y55356073D01*
G37*
G36*
X390073512Y55356073D02*
G01*
X390222812Y55326376D01*
X390386784Y55258456D01*
X390534354Y55159853D01*
X390659853Y55034354D01*
X390758456Y54886784D01*
X390826376Y54722812D01*
X390861000Y54548741D01*
X390861000Y54371259D01*
X390826376Y54197188D01*
X390758456Y54033216D01*
X390659853Y53885646D01*
X390534354Y53760147D01*
X390386784Y53661544D01*
X390222812Y53593624D01*
X390073512Y53563927D01*
X390048742Y53559000D01*
X389871258Y53559000D01*
X389846488Y53563927D01*
X389697188Y53593624D01*
X389533216Y53661544D01*
X389385646Y53760147D01*
X389260147Y53885646D01*
X389161544Y54033216D01*
X389093624Y54197188D01*
X389059000Y54371259D01*
X389059000Y54548741D01*
X389093624Y54722812D01*
X389161544Y54886784D01*
X389260147Y55034354D01*
X389385646Y55159853D01*
X389533216Y55258456D01*
X389697188Y55326376D01*
X389846488Y55356073D01*
X389871258Y55361000D01*
X390048742Y55361000D01*
X390073512Y55356073D01*
G37*
G36*
X387533512Y55356073D02*
G01*
X387682812Y55326376D01*
X387846784Y55258456D01*
X387994354Y55159853D01*
X388119853Y55034354D01*
X388218456Y54886784D01*
X388286376Y54722812D01*
X388321000Y54548741D01*
X388321000Y54371259D01*
X388286376Y54197188D01*
X388218456Y54033216D01*
X388119853Y53885646D01*
X387994354Y53760147D01*
X387846784Y53661544D01*
X387682812Y53593624D01*
X387533512Y53563927D01*
X387508742Y53559000D01*
X387331258Y53559000D01*
X387306488Y53563927D01*
X387157188Y53593624D01*
X386993216Y53661544D01*
X386845646Y53760147D01*
X386720147Y53885646D01*
X386621544Y54033216D01*
X386553624Y54197188D01*
X386519000Y54371259D01*
X386519000Y54548741D01*
X386553624Y54722812D01*
X386621544Y54886784D01*
X386720147Y55034354D01*
X386845646Y55159853D01*
X386993216Y55258456D01*
X387157188Y55326376D01*
X387306488Y55356073D01*
X387331258Y55361000D01*
X387508742Y55361000D01*
X387533512Y55356073D01*
G37*
G36*
X393401000Y56099000D02*
G01*
X391599000Y56099000D01*
X391599000Y57901000D01*
X393401000Y57901000D01*
X393401000Y56099000D01*
G37*
G36*
X390073512Y57896073D02*
G01*
X390222812Y57866376D01*
X390386784Y57798456D01*
X390534354Y57699853D01*
X390659853Y57574354D01*
X390758456Y57426784D01*
X390826376Y57262812D01*
X390861000Y57088741D01*
X390861000Y56911259D01*
X390826376Y56737188D01*
X390758456Y56573216D01*
X390659853Y56425646D01*
X390534354Y56300147D01*
X390386784Y56201544D01*
X390222812Y56133624D01*
X390073512Y56103927D01*
X390048742Y56099000D01*
X389871258Y56099000D01*
X389846488Y56103927D01*
X389697188Y56133624D01*
X389533216Y56201544D01*
X389385646Y56300147D01*
X389260147Y56425646D01*
X389161544Y56573216D01*
X389093624Y56737188D01*
X389059000Y56911259D01*
X389059000Y57088741D01*
X389093624Y57262812D01*
X389161544Y57426784D01*
X389260147Y57574354D01*
X389385646Y57699853D01*
X389533216Y57798456D01*
X389697188Y57866376D01*
X389846488Y57896073D01*
X389871258Y57901000D01*
X390048742Y57901000D01*
X390073512Y57896073D01*
G37*
G36*
X387533512Y57896073D02*
G01*
X387682812Y57866376D01*
X387846784Y57798456D01*
X387994354Y57699853D01*
X388119853Y57574354D01*
X388218456Y57426784D01*
X388286376Y57262812D01*
X388321000Y57088741D01*
X388321000Y56911259D01*
X388286376Y56737188D01*
X388218456Y56573216D01*
X388119853Y56425646D01*
X387994354Y56300147D01*
X387846784Y56201544D01*
X387682812Y56133624D01*
X387533512Y56103927D01*
X387508742Y56099000D01*
X387331258Y56099000D01*
X387306488Y56103927D01*
X387157188Y56133624D01*
X386993216Y56201544D01*
X386845646Y56300147D01*
X386720147Y56425646D01*
X386621544Y56573216D01*
X386553624Y56737188D01*
X386519000Y56911259D01*
X386519000Y57088741D01*
X386553624Y57262812D01*
X386621544Y57426784D01*
X386720147Y57574354D01*
X386845646Y57699853D01*
X386993216Y57798456D01*
X387157188Y57866376D01*
X387306488Y57896073D01*
X387331258Y57901000D01*
X387508742Y57901000D01*
X387533512Y57896073D01*
G37*
G36*
X383768604Y58771653D02*
G01*
X383805144Y58760568D01*
X383838821Y58742567D01*
X383868341Y58718341D01*
X383892567Y58688821D01*
X383910568Y58655144D01*
X383921653Y58618604D01*
X383926000Y58574462D01*
X383926000Y57625538D01*
X383921653Y57581396D01*
X383910568Y57544856D01*
X383892567Y57511179D01*
X383868341Y57481659D01*
X383838821Y57457433D01*
X383805144Y57439432D01*
X383768604Y57428347D01*
X383724462Y57424000D01*
X382275538Y57424000D01*
X382231396Y57428347D01*
X382194856Y57439432D01*
X382161179Y57457433D01*
X382131659Y57481659D01*
X382107433Y57511179D01*
X382089432Y57544856D01*
X382078347Y57581396D01*
X382074000Y57625538D01*
X382074000Y58574462D01*
X382078347Y58618604D01*
X382089432Y58655144D01*
X382107433Y58688821D01*
X382131659Y58718341D01*
X382161179Y58742567D01*
X382194856Y58760568D01*
X382231396Y58771653D01*
X382275538Y58776000D01*
X383724462Y58776000D01*
X383768604Y58771653D01*
G37*
G36*
X367815331Y60961789D02*
G01*
X368143092Y60826026D01*
X368438070Y60628928D01*
X368688928Y60378070D01*
X368886026Y60083092D01*
X369021789Y59755331D01*
X369091000Y59407384D01*
X369091000Y59052616D01*
X369021789Y58704669D01*
X368886026Y58376908D01*
X368688928Y58081930D01*
X368438070Y57831072D01*
X368143092Y57633974D01*
X367815331Y57498211D01*
X367467384Y57429000D01*
X367112616Y57429000D01*
X366764669Y57498211D01*
X366436908Y57633974D01*
X366141930Y57831072D01*
X365891072Y58081930D01*
X365693974Y58376908D01*
X365558211Y58704669D01*
X365489000Y59052616D01*
X365489000Y59407384D01*
X365558211Y59755331D01*
X365693974Y60083092D01*
X365891072Y60378070D01*
X366141930Y60628928D01*
X366436908Y60826026D01*
X366764669Y60961789D01*
X367112616Y61031000D01*
X367467384Y61031000D01*
X367815331Y60961789D01*
G37*
G36*
X383768604Y61571653D02*
G01*
X383805144Y61560568D01*
X383838821Y61542567D01*
X383868341Y61518341D01*
X383892567Y61488821D01*
X383910568Y61455144D01*
X383921653Y61418604D01*
X383926000Y61374462D01*
X383926000Y60425538D01*
X383921653Y60381396D01*
X383910568Y60344856D01*
X383892567Y60311179D01*
X383868341Y60281659D01*
X383838821Y60257433D01*
X383805144Y60239432D01*
X383768604Y60228347D01*
X383724462Y60224000D01*
X382275538Y60224000D01*
X382231396Y60228347D01*
X382194856Y60239432D01*
X382161179Y60257433D01*
X382131659Y60281659D01*
X382107433Y60311179D01*
X382089432Y60344856D01*
X382078347Y60381396D01*
X382074000Y60425538D01*
X382074000Y61374462D01*
X382078347Y61418604D01*
X382089432Y61455144D01*
X382107433Y61488821D01*
X382131659Y61518341D01*
X382161179Y61542567D01*
X382194856Y61560568D01*
X382231396Y61571653D01*
X382275538Y61576000D01*
X383724462Y61576000D01*
X383768604Y61571653D01*
G37*
G36*
X390379591Y61696915D02*
G01*
X390413569Y61686607D01*
X390444890Y61669866D01*
X390472339Y61647339D01*
X390494866Y61619890D01*
X390511607Y61588569D01*
X390521915Y61554591D01*
X390526000Y61513110D01*
X390526000Y60911890D01*
X390521915Y60870409D01*
X390511607Y60836431D01*
X390494866Y60805110D01*
X390472339Y60777661D01*
X390444890Y60755134D01*
X390413569Y60738393D01*
X390379591Y60728085D01*
X390338110Y60724000D01*
X389661890Y60724000D01*
X389620409Y60728085D01*
X389586431Y60738393D01*
X389555110Y60755134D01*
X389527661Y60777661D01*
X389505134Y60805110D01*
X389488393Y60836431D01*
X389478085Y60870409D01*
X389474000Y60911890D01*
X389474000Y61513110D01*
X389478085Y61554591D01*
X389488393Y61588569D01*
X389505134Y61619890D01*
X389527661Y61647339D01*
X389555110Y61669866D01*
X389586431Y61686607D01*
X389620409Y61696915D01*
X389661890Y61701000D01*
X390338110Y61701000D01*
X390379591Y61696915D01*
G37*
G36*
X386267091Y62021915D02*
G01*
X386301069Y62011607D01*
X386332390Y61994866D01*
X386359839Y61972339D01*
X386382366Y61944890D01*
X386399107Y61913569D01*
X386409415Y61879591D01*
X386413500Y61838110D01*
X386413500Y61161890D01*
X386409415Y61120409D01*
X386399107Y61086431D01*
X386382366Y61055110D01*
X386359839Y61027661D01*
X386332390Y61005134D01*
X386301069Y60988393D01*
X386267091Y60978085D01*
X386225610Y60974000D01*
X385624390Y60974000D01*
X385582909Y60978085D01*
X385548931Y60988393D01*
X385517610Y61005134D01*
X385490161Y61027661D01*
X385467634Y61055110D01*
X385450893Y61086431D01*
X385440585Y61120409D01*
X385436500Y61161890D01*
X385436500Y61838110D01*
X385440585Y61879591D01*
X385450893Y61913569D01*
X385467634Y61944890D01*
X385490161Y61972339D01*
X385517610Y61994866D01*
X385548931Y62011607D01*
X385582909Y62021915D01*
X385624390Y62026000D01*
X386225610Y62026000D01*
X386267091Y62021915D01*
G37*
G36*
X387842091Y62021915D02*
G01*
X387876069Y62011607D01*
X387907390Y61994866D01*
X387934839Y61972339D01*
X387957366Y61944890D01*
X387974107Y61913569D01*
X387984415Y61879591D01*
X387988500Y61838110D01*
X387988500Y61161890D01*
X387984415Y61120409D01*
X387974107Y61086431D01*
X387957366Y61055110D01*
X387934839Y61027661D01*
X387907390Y61005134D01*
X387876069Y60988393D01*
X387842091Y60978085D01*
X387800610Y60974000D01*
X387199390Y60974000D01*
X387157909Y60978085D01*
X387123931Y60988393D01*
X387092610Y61005134D01*
X387065161Y61027661D01*
X387042634Y61055110D01*
X387025893Y61086431D01*
X387015585Y61120409D01*
X387011500Y61161890D01*
X387011500Y61838110D01*
X387015585Y61879591D01*
X387025893Y61913569D01*
X387042634Y61944890D01*
X387065161Y61972339D01*
X387092610Y61994866D01*
X387123931Y62011607D01*
X387157909Y62021915D01*
X387199390Y62026000D01*
X387800610Y62026000D01*
X387842091Y62021915D01*
G37*
G36*
X390379591Y63271915D02*
G01*
X390413569Y63261607D01*
X390444890Y63244866D01*
X390472339Y63222339D01*
X390494866Y63194890D01*
X390511607Y63163569D01*
X390521915Y63129591D01*
X390526000Y63088110D01*
X390526000Y62486890D01*
X390521915Y62445409D01*
X390511607Y62411431D01*
X390494866Y62380110D01*
X390472339Y62352661D01*
X390444890Y62330134D01*
X390413569Y62313393D01*
X390379591Y62303085D01*
X390338110Y62299000D01*
X389661890Y62299000D01*
X389620409Y62303085D01*
X389586431Y62313393D01*
X389555110Y62330134D01*
X389527661Y62352661D01*
X389505134Y62380110D01*
X389488393Y62411431D01*
X389478085Y62445409D01*
X389474000Y62486890D01*
X389474000Y63088110D01*
X389478085Y63129591D01*
X389488393Y63163569D01*
X389505134Y63194890D01*
X389527661Y63222339D01*
X389555110Y63244866D01*
X389586431Y63261607D01*
X389620409Y63271915D01*
X389661890Y63276000D01*
X390338110Y63276000D01*
X390379591Y63271915D01*
G37*
G36*
X370113512Y64896073D02*
G01*
X370262812Y64866376D01*
X370426784Y64798456D01*
X370574354Y64699853D01*
X370699853Y64574354D01*
X370798456Y64426784D01*
X370858523Y64281771D01*
X370870068Y64260171D01*
X370885613Y64241229D01*
X370904555Y64225684D01*
X370926166Y64214133D01*
X370949615Y64207020D01*
X370974001Y64204618D01*
X370998387Y64207020D01*
X371021836Y64214133D01*
X371043447Y64225684D01*
X371062389Y64241229D01*
X371077934Y64260171D01*
X371089485Y64281782D01*
X371096598Y64305231D01*
X371099000Y64329617D01*
X371099000Y64901000D01*
X372901000Y64901000D01*
X372901000Y63099000D01*
X371099000Y63099000D01*
X371099000Y63670383D01*
X371096598Y63694769D01*
X371089485Y63718218D01*
X371077934Y63739829D01*
X371062389Y63758771D01*
X371043447Y63774316D01*
X371021836Y63785867D01*
X370998387Y63792980D01*
X370974001Y63795382D01*
X370949615Y63792980D01*
X370926166Y63785867D01*
X370904555Y63774316D01*
X370885613Y63758771D01*
X370870068Y63739829D01*
X370858523Y63718229D01*
X370798456Y63573216D01*
X370699853Y63425646D01*
X370574354Y63300147D01*
X370426784Y63201544D01*
X370262812Y63133624D01*
X370113512Y63103927D01*
X370088742Y63099000D01*
X369911258Y63099000D01*
X369886488Y63103927D01*
X369737188Y63133624D01*
X369573216Y63201544D01*
X369425646Y63300147D01*
X369300147Y63425646D01*
X369201544Y63573216D01*
X369133624Y63737188D01*
X369099000Y63911259D01*
X369099000Y64088741D01*
X369133624Y64262812D01*
X369201544Y64426784D01*
X369300147Y64574354D01*
X369425646Y64699853D01*
X369573216Y64798456D01*
X369737188Y64866376D01*
X369886488Y64896073D01*
X369911258Y64901000D01*
X370088742Y64901000D01*
X370113512Y64896073D01*
G37*
G36*
X383309468Y65246435D02*
G01*
X383348138Y65234704D01*
X383383777Y65215654D01*
X383415017Y65190017D01*
X383440654Y65158777D01*
X383459704Y65123138D01*
X383471435Y65084468D01*
X383476000Y65038112D01*
X383476000Y63961888D01*
X383471435Y63915532D01*
X383459704Y63876862D01*
X383440654Y63841223D01*
X383415017Y63809983D01*
X383383777Y63784346D01*
X383348138Y63765296D01*
X383309468Y63753565D01*
X383263112Y63749000D01*
X382611888Y63749000D01*
X382565532Y63753565D01*
X382526862Y63765296D01*
X382491223Y63784346D01*
X382459983Y63809983D01*
X382434346Y63841223D01*
X382415296Y63876862D01*
X382403565Y63915532D01*
X382399000Y63961888D01*
X382399000Y65038112D01*
X382403565Y65084468D01*
X382415296Y65123138D01*
X382434346Y65158777D01*
X382459983Y65190017D01*
X382491223Y65215654D01*
X382526862Y65234704D01*
X382565532Y65246435D01*
X382611888Y65251000D01*
X383263112Y65251000D01*
X383309468Y65246435D01*
G37*
G36*
X381434468Y65246435D02*
G01*
X381473138Y65234704D01*
X381508777Y65215654D01*
X381540017Y65190017D01*
X381565654Y65158777D01*
X381584704Y65123138D01*
X381596435Y65084468D01*
X381601000Y65038112D01*
X381601000Y63961888D01*
X381596435Y63915532D01*
X381584704Y63876862D01*
X381565654Y63841223D01*
X381540017Y63809983D01*
X381508777Y63784346D01*
X381473138Y63765296D01*
X381434468Y63753565D01*
X381388112Y63749000D01*
X380736888Y63749000D01*
X380690532Y63753565D01*
X380651862Y63765296D01*
X380616223Y63784346D01*
X380584983Y63809983D01*
X380559346Y63841223D01*
X380540296Y63876862D01*
X380528565Y63915532D01*
X380524000Y63961888D01*
X380524000Y65038112D01*
X380528565Y65084468D01*
X380540296Y65123138D01*
X380559346Y65158777D01*
X380584983Y65190017D01*
X380616223Y65215654D01*
X380651862Y65234704D01*
X380690532Y65246435D01*
X380736888Y65251000D01*
X381388112Y65251000D01*
X381434468Y65246435D01*
G37*
G36*
X387405355Y70399917D02*
G01*
X387410029Y70398499D01*
X387414330Y70396200D01*
X387420702Y70390971D01*
X387441076Y70377357D01*
X387463715Y70367980D01*
X387487749Y70363200D01*
X387512253Y70363200D01*
X387536286Y70367981D01*
X387558925Y70377358D01*
X387579298Y70390971D01*
X387585670Y70396200D01*
X387589971Y70398499D01*
X387594645Y70399917D01*
X387605641Y70401000D01*
X387894359Y70401000D01*
X387905355Y70399917D01*
X387910029Y70398499D01*
X387914330Y70396200D01*
X387920702Y70390971D01*
X387941076Y70377357D01*
X387963715Y70367980D01*
X387987749Y70363200D01*
X388012253Y70363200D01*
X388036286Y70367981D01*
X388058925Y70377358D01*
X388079298Y70390971D01*
X388085670Y70396200D01*
X388089971Y70398499D01*
X388094645Y70399917D01*
X388105641Y70401000D01*
X388394359Y70401000D01*
X388405355Y70399917D01*
X388410029Y70398499D01*
X388414330Y70396200D01*
X388420702Y70390971D01*
X388441076Y70377357D01*
X388463715Y70367980D01*
X388487749Y70363200D01*
X388512253Y70363200D01*
X388536286Y70367981D01*
X388558925Y70377358D01*
X388579298Y70390971D01*
X388585670Y70396200D01*
X388589971Y70398499D01*
X388594645Y70399917D01*
X388605641Y70401000D01*
X388894359Y70401000D01*
X388905355Y70399917D01*
X388910029Y70398499D01*
X388914330Y70396200D01*
X388920702Y70390971D01*
X388941076Y70377357D01*
X388963715Y70367980D01*
X388987749Y70363200D01*
X389012253Y70363200D01*
X389036286Y70367981D01*
X389058925Y70377358D01*
X389079298Y70390971D01*
X389085670Y70396200D01*
X389089971Y70398499D01*
X389094645Y70399917D01*
X389105641Y70401000D01*
X389394359Y70401000D01*
X389405355Y70399917D01*
X389410029Y70398499D01*
X389414330Y70396200D01*
X389420702Y70390971D01*
X389441076Y70377357D01*
X389463715Y70367980D01*
X389487749Y70363200D01*
X389512253Y70363200D01*
X389536286Y70367981D01*
X389558925Y70377358D01*
X389579298Y70390971D01*
X389585670Y70396200D01*
X389589971Y70398499D01*
X389594645Y70399917D01*
X389605641Y70401000D01*
X389894359Y70401000D01*
X389905355Y70399917D01*
X389910029Y70398499D01*
X389914330Y70396200D01*
X389920702Y70390971D01*
X389941076Y70377357D01*
X389963715Y70367980D01*
X389987749Y70363200D01*
X390012253Y70363200D01*
X390036286Y70367981D01*
X390058925Y70377358D01*
X390079298Y70390971D01*
X390085670Y70396200D01*
X390089971Y70398499D01*
X390094645Y70399917D01*
X390105641Y70401000D01*
X390394359Y70401000D01*
X390405355Y70399917D01*
X390410029Y70398499D01*
X390414330Y70396200D01*
X390420702Y70390971D01*
X390441076Y70377357D01*
X390463715Y70367980D01*
X390487749Y70363200D01*
X390512253Y70363200D01*
X390536286Y70367981D01*
X390558925Y70377358D01*
X390579298Y70390971D01*
X390585670Y70396200D01*
X390589971Y70398499D01*
X390594645Y70399917D01*
X390605641Y70401000D01*
X390894359Y70401000D01*
X390905355Y70399917D01*
X390910029Y70398499D01*
X390914331Y70396200D01*
X390918104Y70393104D01*
X390921200Y70389331D01*
X390923499Y70385029D01*
X390924917Y70380355D01*
X390926000Y70369359D01*
X390926000Y69550999D01*
X390928402Y69526613D01*
X390935515Y69503164D01*
X390947066Y69481553D01*
X390962611Y69462611D01*
X390981553Y69447066D01*
X391003164Y69435515D01*
X391026613Y69428402D01*
X391050999Y69426000D01*
X391869359Y69426000D01*
X391880355Y69424917D01*
X391885029Y69423499D01*
X391889331Y69421200D01*
X391893104Y69418104D01*
X391896200Y69414331D01*
X391898499Y69410029D01*
X391899917Y69405355D01*
X391901000Y69394359D01*
X391901000Y69105641D01*
X391899917Y69094645D01*
X391898499Y69089971D01*
X391896200Y69085670D01*
X391890971Y69079298D01*
X391877357Y69058924D01*
X391867980Y69036285D01*
X391863200Y69012251D01*
X391863200Y68987747D01*
X391867981Y68963714D01*
X391877358Y68941075D01*
X391890971Y68920702D01*
X391896200Y68914330D01*
X391898499Y68910029D01*
X391899917Y68905355D01*
X391901000Y68894359D01*
X391901000Y68605641D01*
X391899917Y68594645D01*
X391898499Y68589971D01*
X391896200Y68585670D01*
X391890971Y68579298D01*
X391877357Y68558924D01*
X391867980Y68536285D01*
X391863200Y68512251D01*
X391863200Y68487747D01*
X391867981Y68463714D01*
X391877358Y68441075D01*
X391890971Y68420702D01*
X391896200Y68414330D01*
X391898499Y68410029D01*
X391899917Y68405355D01*
X391901000Y68394359D01*
X391901000Y68105641D01*
X391899917Y68094645D01*
X391898499Y68089971D01*
X391896200Y68085670D01*
X391890971Y68079298D01*
X391877357Y68058924D01*
X391867980Y68036285D01*
X391863200Y68012251D01*
X391863200Y67987747D01*
X391867981Y67963714D01*
X391877358Y67941075D01*
X391890971Y67920702D01*
X391896200Y67914330D01*
X391898499Y67910029D01*
X391899917Y67905355D01*
X391901000Y67894359D01*
X391901000Y67605641D01*
X391899917Y67594645D01*
X391898499Y67589971D01*
X391896200Y67585670D01*
X391890971Y67579298D01*
X391877357Y67558924D01*
X391867980Y67536285D01*
X391863200Y67512251D01*
X391863200Y67487747D01*
X391867981Y67463714D01*
X391877358Y67441075D01*
X391890971Y67420702D01*
X391896200Y67414330D01*
X391898499Y67410029D01*
X391899917Y67405355D01*
X391901000Y67394359D01*
X391901000Y67105641D01*
X391899917Y67094645D01*
X391898499Y67089971D01*
X391896200Y67085670D01*
X391890971Y67079298D01*
X391877357Y67058924D01*
X391867980Y67036285D01*
X391863200Y67012251D01*
X391863200Y66987747D01*
X391867981Y66963714D01*
X391877358Y66941075D01*
X391890971Y66920702D01*
X391896200Y66914330D01*
X391898499Y66910029D01*
X391899917Y66905355D01*
X391901000Y66894359D01*
X391901000Y66605641D01*
X391899917Y66594645D01*
X391898499Y66589971D01*
X391896200Y66585670D01*
X391890971Y66579298D01*
X391877357Y66558924D01*
X391867980Y66536285D01*
X391863200Y66512251D01*
X391863200Y66487747D01*
X391867981Y66463714D01*
X391877358Y66441075D01*
X391890971Y66420702D01*
X391896200Y66414330D01*
X391898499Y66410029D01*
X391899917Y66405355D01*
X391901000Y66394359D01*
X391901000Y66105641D01*
X391899917Y66094645D01*
X391898499Y66089971D01*
X391896200Y66085670D01*
X391890971Y66079298D01*
X391877357Y66058924D01*
X391867980Y66036285D01*
X391863200Y66012251D01*
X391863200Y65987747D01*
X391867981Y65963714D01*
X391877358Y65941075D01*
X391890971Y65920702D01*
X391896200Y65914330D01*
X391898499Y65910029D01*
X391899917Y65905355D01*
X391901000Y65894359D01*
X391901000Y65605641D01*
X391899917Y65594645D01*
X391898499Y65589971D01*
X391896200Y65585669D01*
X391893104Y65581896D01*
X391889331Y65578800D01*
X391885029Y65576501D01*
X391880355Y65575083D01*
X391869359Y65574000D01*
X391050999Y65574000D01*
X391026613Y65571598D01*
X391003164Y65564485D01*
X390981553Y65552934D01*
X390962611Y65537389D01*
X390947066Y65518447D01*
X390935515Y65496836D01*
X390928402Y65473387D01*
X390926000Y65449001D01*
X390926000Y64630641D01*
X390924917Y64619645D01*
X390923499Y64614971D01*
X390921200Y64610669D01*
X390918104Y64606896D01*
X390914331Y64603800D01*
X390910029Y64601501D01*
X390905355Y64600083D01*
X390894359Y64599000D01*
X390605641Y64599000D01*
X390594645Y64600083D01*
X390589971Y64601501D01*
X390585670Y64603800D01*
X390579298Y64609029D01*
X390558924Y64622643D01*
X390536285Y64632020D01*
X390512251Y64636800D01*
X390487747Y64636800D01*
X390463714Y64632019D01*
X390441075Y64622642D01*
X390420702Y64609029D01*
X390414330Y64603800D01*
X390410029Y64601501D01*
X390405355Y64600083D01*
X390394359Y64599000D01*
X390105641Y64599000D01*
X390094645Y64600083D01*
X390089971Y64601501D01*
X390085670Y64603800D01*
X390079298Y64609029D01*
X390058924Y64622643D01*
X390036285Y64632020D01*
X390012251Y64636800D01*
X389987747Y64636800D01*
X389963714Y64632019D01*
X389941075Y64622642D01*
X389920702Y64609029D01*
X389914330Y64603800D01*
X389910029Y64601501D01*
X389905355Y64600083D01*
X389894359Y64599000D01*
X389605641Y64599000D01*
X389594645Y64600083D01*
X389589971Y64601501D01*
X389585670Y64603800D01*
X389579298Y64609029D01*
X389558924Y64622643D01*
X389536285Y64632020D01*
X389512251Y64636800D01*
X389487747Y64636800D01*
X389463714Y64632019D01*
X389441075Y64622642D01*
X389420702Y64609029D01*
X389414330Y64603800D01*
X389410029Y64601501D01*
X389405355Y64600083D01*
X389394359Y64599000D01*
X389105641Y64599000D01*
X389094645Y64600083D01*
X389089971Y64601501D01*
X389085670Y64603800D01*
X389079298Y64609029D01*
X389058924Y64622643D01*
X389036285Y64632020D01*
X389012251Y64636800D01*
X388987747Y64636800D01*
X388963714Y64632019D01*
X388941075Y64622642D01*
X388920702Y64609029D01*
X388914330Y64603800D01*
X388910029Y64601501D01*
X388905355Y64600083D01*
X388894359Y64599000D01*
X388605641Y64599000D01*
X388594645Y64600083D01*
X388589971Y64601501D01*
X388585670Y64603800D01*
X388579298Y64609029D01*
X388558924Y64622643D01*
X388536285Y64632020D01*
X388512251Y64636800D01*
X388487747Y64636800D01*
X388463714Y64632019D01*
X388441075Y64622642D01*
X388420702Y64609029D01*
X388414330Y64603800D01*
X388410029Y64601501D01*
X388405355Y64600083D01*
X388394359Y64599000D01*
X388105641Y64599000D01*
X388094645Y64600083D01*
X388089971Y64601501D01*
X388085670Y64603800D01*
X388079298Y64609029D01*
X388058924Y64622643D01*
X388036285Y64632020D01*
X388012251Y64636800D01*
X387987747Y64636800D01*
X387963714Y64632019D01*
X387941075Y64622642D01*
X387920702Y64609029D01*
X387914330Y64603800D01*
X387910029Y64601501D01*
X387905355Y64600083D01*
X387894359Y64599000D01*
X387605641Y64599000D01*
X387594645Y64600083D01*
X387589971Y64601501D01*
X387585670Y64603800D01*
X387579298Y64609029D01*
X387558924Y64622643D01*
X387536285Y64632020D01*
X387512251Y64636800D01*
X387487747Y64636800D01*
X387463714Y64632019D01*
X387441075Y64622642D01*
X387420702Y64609029D01*
X387414330Y64603800D01*
X387410029Y64601501D01*
X387405355Y64600083D01*
X387394359Y64599000D01*
X387105641Y64599000D01*
X387094645Y64600083D01*
X387089971Y64601501D01*
X387085669Y64603800D01*
X387081896Y64606896D01*
X387078800Y64610669D01*
X387076501Y64614971D01*
X387075083Y64619645D01*
X387074000Y64630641D01*
X387074000Y65449001D01*
X387071598Y65473387D01*
X387064485Y65496836D01*
X387052934Y65518447D01*
X387037389Y65537389D01*
X387018447Y65552934D01*
X386996836Y65564485D01*
X386973387Y65571598D01*
X386949001Y65574000D01*
X386130641Y65574000D01*
X386119645Y65575083D01*
X386114971Y65576501D01*
X386110669Y65578800D01*
X386106896Y65581896D01*
X386103800Y65585669D01*
X386101501Y65589971D01*
X386100083Y65594645D01*
X386099000Y65605641D01*
X386099000Y65894359D01*
X386100083Y65905355D01*
X386101501Y65910029D01*
X386103800Y65914330D01*
X386109029Y65920702D01*
X386122643Y65941076D01*
X386132020Y65963715D01*
X386136800Y65987749D01*
X386136800Y66012253D01*
X386132019Y66036286D01*
X386122642Y66058925D01*
X386109029Y66079298D01*
X386103800Y66085670D01*
X386101501Y66089971D01*
X386100083Y66094645D01*
X386099000Y66105641D01*
X386099000Y66394359D01*
X386100083Y66405355D01*
X386101501Y66410029D01*
X386103800Y66414330D01*
X386109029Y66420702D01*
X386122643Y66441076D01*
X386132020Y66463715D01*
X386136800Y66487749D01*
X386136800Y66512253D01*
X386132019Y66536286D01*
X386122642Y66558925D01*
X386109029Y66579298D01*
X386103800Y66585670D01*
X386101501Y66589971D01*
X386100083Y66594645D01*
X386099000Y66605641D01*
X386099000Y66894359D01*
X386100083Y66905355D01*
X386101501Y66910029D01*
X386103800Y66914330D01*
X386109029Y66920702D01*
X386122643Y66941076D01*
X386132020Y66963715D01*
X386136800Y66987749D01*
X386136800Y67012253D01*
X386132019Y67036286D01*
X386122642Y67058925D01*
X386109029Y67079298D01*
X386103800Y67085670D01*
X386101501Y67089971D01*
X386100083Y67094645D01*
X386099000Y67105641D01*
X386099000Y67394359D01*
X386100083Y67405355D01*
X386101501Y67410029D01*
X386103800Y67414330D01*
X386109029Y67420702D01*
X386122643Y67441076D01*
X386132020Y67463715D01*
X386136800Y67487749D01*
X386136800Y67512253D01*
X386132019Y67536286D01*
X386122642Y67558925D01*
X386109029Y67579298D01*
X386103800Y67585670D01*
X386101501Y67589971D01*
X386100083Y67594645D01*
X386099000Y67605641D01*
X386099000Y67894359D01*
X386100083Y67905355D01*
X386101501Y67910029D01*
X386103800Y67914330D01*
X386109029Y67920702D01*
X386122643Y67941076D01*
X386132020Y67963715D01*
X386136800Y67987749D01*
X386136800Y68012253D01*
X386132019Y68036286D01*
X386122642Y68058925D01*
X386109029Y68079298D01*
X386103800Y68085670D01*
X386101501Y68089971D01*
X386100083Y68094645D01*
X386099000Y68105641D01*
X386099000Y68394359D01*
X386100083Y68405355D01*
X386101501Y68410029D01*
X386103800Y68414330D01*
X386109029Y68420702D01*
X386122643Y68441076D01*
X386132020Y68463715D01*
X386136800Y68487749D01*
X386136800Y68512253D01*
X386132019Y68536286D01*
X386122642Y68558925D01*
X386109029Y68579298D01*
X386103800Y68585670D01*
X386101501Y68589971D01*
X386100083Y68594645D01*
X386099000Y68605641D01*
X386099000Y68894359D01*
X386100083Y68905355D01*
X386101501Y68910029D01*
X386103800Y68914330D01*
X386109029Y68920702D01*
X386122643Y68941076D01*
X386132020Y68963715D01*
X386136800Y68987749D01*
X386136800Y69012253D01*
X386132019Y69036286D01*
X386122642Y69058925D01*
X386109029Y69079298D01*
X386103800Y69085670D01*
X386101501Y69089971D01*
X386100083Y69094645D01*
X386099000Y69105641D01*
X386099000Y69394359D01*
X386100083Y69405355D01*
X386101501Y69410029D01*
X386103800Y69414331D01*
X386106896Y69418104D01*
X386110669Y69421200D01*
X386114971Y69423499D01*
X386119645Y69424917D01*
X386130641Y69426000D01*
X386949001Y69426000D01*
X386973387Y69428402D01*
X386996836Y69435515D01*
X387018447Y69447066D01*
X387037389Y69462611D01*
X387052934Y69481553D01*
X387064485Y69503164D01*
X387071598Y69526613D01*
X387074000Y69550999D01*
X387074000Y70369359D01*
X387075083Y70380355D01*
X387076501Y70385029D01*
X387078800Y70389331D01*
X387081896Y70393104D01*
X387085669Y70396200D01*
X387089971Y70398499D01*
X387094645Y70399917D01*
X387105641Y70401000D01*
X387394359Y70401000D01*
X387405355Y70399917D01*
G37*
G36*
X377700170Y66599197D02*
G01*
X377711875Y66595646D01*
X377722665Y66589879D01*
X377732119Y66582119D01*
X377739879Y66572665D01*
X377745646Y66561875D01*
X377749197Y66550170D01*
X377751000Y66531862D01*
X377751000Y66108138D01*
X377749197Y66089830D01*
X377745645Y66078123D01*
X377735383Y66058923D01*
X377726006Y66036284D01*
X377721226Y66012251D01*
X377721226Y65987747D01*
X377726007Y65963714D01*
X377735383Y65941077D01*
X377745645Y65921877D01*
X377749197Y65910170D01*
X377751000Y65891862D01*
X377751000Y65468138D01*
X377749197Y65449830D01*
X377745646Y65438125D01*
X377739879Y65427335D01*
X377732119Y65417881D01*
X377722665Y65410121D01*
X377711875Y65404354D01*
X377700170Y65400803D01*
X377681862Y65399000D01*
X377318138Y65399000D01*
X377299830Y65400803D01*
X377288125Y65404354D01*
X377277335Y65410121D01*
X377267881Y65417881D01*
X377260121Y65427335D01*
X377254354Y65438125D01*
X377250803Y65449830D01*
X377249000Y65468138D01*
X377249000Y65891862D01*
X377250803Y65910170D01*
X377254355Y65921877D01*
X377264617Y65941077D01*
X377273994Y65963716D01*
X377278774Y65987749D01*
X377278774Y66012253D01*
X377273993Y66036286D01*
X377264617Y66058923D01*
X377254355Y66078123D01*
X377250803Y66089830D01*
X377249000Y66108138D01*
X377249000Y66531862D01*
X377250803Y66550170D01*
X377254354Y66561875D01*
X377260121Y66572665D01*
X377267881Y66582119D01*
X377277335Y66589879D01*
X377288125Y66595646D01*
X377299830Y66599197D01*
X377318138Y66601000D01*
X377681862Y66601000D01*
X377700170Y66599197D01*
G37*
G36*
X375700170Y66599197D02*
G01*
X375711875Y66595646D01*
X375722665Y66589879D01*
X375732119Y66582119D01*
X375739879Y66572665D01*
X375745646Y66561875D01*
X375749197Y66550170D01*
X375751000Y66531862D01*
X375751000Y66108138D01*
X375749197Y66089830D01*
X375745645Y66078123D01*
X375735383Y66058923D01*
X375726006Y66036284D01*
X375721226Y66012251D01*
X375721226Y65987747D01*
X375726007Y65963714D01*
X375735383Y65941077D01*
X375745645Y65921877D01*
X375749197Y65910170D01*
X375751000Y65891862D01*
X375751000Y65468138D01*
X375749197Y65449830D01*
X375745646Y65438125D01*
X375739879Y65427335D01*
X375732119Y65417881D01*
X375722665Y65410121D01*
X375711875Y65404354D01*
X375700170Y65400803D01*
X375681862Y65399000D01*
X375318138Y65399000D01*
X375299830Y65400803D01*
X375288125Y65404354D01*
X375277335Y65410121D01*
X375267881Y65417881D01*
X375260121Y65427335D01*
X375254354Y65438125D01*
X375250803Y65449830D01*
X375249000Y65468138D01*
X375249000Y65891862D01*
X375250803Y65910170D01*
X375254355Y65921877D01*
X375264617Y65941077D01*
X375273994Y65963716D01*
X375278774Y65987749D01*
X375278774Y66012253D01*
X375273993Y66036286D01*
X375264617Y66058923D01*
X375254355Y66078123D01*
X375250803Y66089830D01*
X375249000Y66108138D01*
X375249000Y66531862D01*
X375250803Y66550170D01*
X375254354Y66561875D01*
X375260121Y66572665D01*
X375267881Y66582119D01*
X375277335Y66589879D01*
X375288125Y66595646D01*
X375299830Y66599197D01*
X375318138Y66601000D01*
X375681862Y66601000D01*
X375700170Y66599197D01*
G37*
G36*
X370113512Y67396073D02*
G01*
X370262812Y67366376D01*
X370426784Y67298456D01*
X370574354Y67199853D01*
X370699853Y67074354D01*
X370798456Y66926784D01*
X370866376Y66762812D01*
X370877405Y66707362D01*
X370884516Y66683922D01*
X370896067Y66662311D01*
X370911613Y66643369D01*
X370930555Y66627824D01*
X370952165Y66616273D01*
X370975614Y66609160D01*
X371000000Y66606758D01*
X371024387Y66609160D01*
X371047835Y66616273D01*
X371069446Y66627824D01*
X371088388Y66643370D01*
X371103933Y66662312D01*
X371115484Y66683922D01*
X371122595Y66707362D01*
X371133624Y66762812D01*
X371201544Y66926784D01*
X371300147Y67074354D01*
X371425646Y67199853D01*
X371573216Y67298456D01*
X371737188Y67366376D01*
X371886488Y67396073D01*
X371911258Y67401000D01*
X372088742Y67401000D01*
X372113512Y67396073D01*
X372262812Y67366376D01*
X372426784Y67298456D01*
X372574354Y67199853D01*
X372699853Y67074354D01*
X372798456Y66926784D01*
X372866376Y66762812D01*
X372886366Y66662312D01*
X372901000Y66588742D01*
X372901000Y66411258D01*
X372897416Y66393242D01*
X372866376Y66237188D01*
X372798456Y66073216D01*
X372699853Y65925646D01*
X372574354Y65800147D01*
X372426784Y65701544D01*
X372262812Y65633624D01*
X372122128Y65605641D01*
X372088742Y65599000D01*
X371911258Y65599000D01*
X371877872Y65605641D01*
X371737188Y65633624D01*
X371573216Y65701544D01*
X371425646Y65800147D01*
X371300147Y65925646D01*
X371201544Y66073216D01*
X371133624Y66237188D01*
X371122595Y66292638D01*
X371115484Y66316078D01*
X371103933Y66337689D01*
X371088387Y66356631D01*
X371069445Y66372176D01*
X371047835Y66383727D01*
X371024386Y66390840D01*
X371000000Y66393242D01*
X370975613Y66390840D01*
X370952165Y66383727D01*
X370930554Y66372176D01*
X370911612Y66356630D01*
X370896067Y66337688D01*
X370884516Y66316078D01*
X370877405Y66292638D01*
X370866376Y66237188D01*
X370798456Y66073216D01*
X370699853Y65925646D01*
X370574354Y65800147D01*
X370426784Y65701544D01*
X370262812Y65633624D01*
X370122128Y65605641D01*
X370088742Y65599000D01*
X369911258Y65599000D01*
X369877872Y65605641D01*
X369737188Y65633624D01*
X369573216Y65701544D01*
X369425646Y65800147D01*
X369300147Y65925646D01*
X369201544Y66073216D01*
X369133624Y66237188D01*
X369102584Y66393242D01*
X369099000Y66411258D01*
X369099000Y66588742D01*
X369113634Y66662312D01*
X369133624Y66762812D01*
X369201544Y66926784D01*
X369300147Y67074354D01*
X369425646Y67199853D01*
X369573216Y67298456D01*
X369737188Y67366376D01*
X369886488Y67396073D01*
X369911258Y67401000D01*
X370088742Y67401000D01*
X370113512Y67396073D01*
G37*
G36*
X384584468Y67096435D02*
G01*
X384623138Y67084704D01*
X384658777Y67065654D01*
X384690017Y67040017D01*
X384715654Y67008777D01*
X384734704Y66973138D01*
X384746435Y66934468D01*
X384751000Y66888112D01*
X384751000Y66236888D01*
X384746435Y66190532D01*
X384734704Y66151862D01*
X384715654Y66116223D01*
X384690017Y66084983D01*
X384658777Y66059346D01*
X384623138Y66040296D01*
X384584468Y66028565D01*
X384538112Y66024000D01*
X383461888Y66024000D01*
X383415532Y66028565D01*
X383376862Y66040296D01*
X383341223Y66059346D01*
X383309983Y66084983D01*
X383284346Y66116223D01*
X383265296Y66151862D01*
X383253565Y66190532D01*
X383249000Y66236888D01*
X383249000Y66888112D01*
X383253565Y66934468D01*
X383265296Y66973138D01*
X383284346Y67008777D01*
X383309983Y67040017D01*
X383341223Y67065654D01*
X383376862Y67084704D01*
X383415532Y67096435D01*
X383461888Y67101000D01*
X384538112Y67101000D01*
X384584468Y67096435D01*
G37*
G36*
X382001000Y66649000D02*
G01*
X380699000Y66649000D01*
X380699000Y68151000D01*
X382001000Y68151000D01*
X382001000Y66649000D01*
G37*
G36*
X380301000Y66649000D02*
G01*
X378999000Y66649000D01*
X378999000Y68151000D01*
X380301000Y68151000D01*
X380301000Y66649000D01*
G37*
G36*
X384584468Y68971435D02*
G01*
X384623138Y68959704D01*
X384658777Y68940654D01*
X384690017Y68915017D01*
X384715654Y68883777D01*
X384734704Y68848138D01*
X384746435Y68809468D01*
X384751000Y68763112D01*
X384751000Y68111888D01*
X384746435Y68065532D01*
X384734704Y68026862D01*
X384715654Y67991223D01*
X384690017Y67959983D01*
X384658777Y67934346D01*
X384623138Y67915296D01*
X384584468Y67903565D01*
X384538112Y67899000D01*
X383461888Y67899000D01*
X383415532Y67903565D01*
X383376862Y67915296D01*
X383341223Y67934346D01*
X383309983Y67959983D01*
X383284346Y67991223D01*
X383265296Y68026862D01*
X383253565Y68065532D01*
X383249000Y68111888D01*
X383249000Y68763112D01*
X383253565Y68809468D01*
X383265296Y68848138D01*
X383284346Y68883777D01*
X383309983Y68915017D01*
X383341223Y68940654D01*
X383376862Y68959704D01*
X383415532Y68971435D01*
X383461888Y68976000D01*
X384538112Y68976000D01*
X384584468Y68971435D01*
G37*
G36*
X380301000Y68849000D02*
G01*
X378999000Y68849000D01*
X378999000Y70351000D01*
X380301000Y70351000D01*
X380301000Y68849000D01*
G37*
G36*
X382001000Y68849000D02*
G01*
X380699000Y68849000D01*
X380699000Y70351000D01*
X382001000Y70351000D01*
X382001000Y68849000D01*
G37*
G36*
X367815331Y73001789D02*
G01*
X368143092Y72866026D01*
X368438070Y72668928D01*
X368688928Y72418070D01*
X368886026Y72123092D01*
X369021789Y71795331D01*
X369091000Y71447384D01*
X369091000Y71092616D01*
X369021789Y70744669D01*
X368886026Y70416908D01*
X368688928Y70121930D01*
X368438070Y69871072D01*
X368143092Y69673974D01*
X367815331Y69538211D01*
X367467384Y69469000D01*
X367112616Y69469000D01*
X366764669Y69538211D01*
X366436908Y69673974D01*
X366141930Y69871072D01*
X365891072Y70121930D01*
X365693974Y70416908D01*
X365558211Y70744669D01*
X365489000Y71092616D01*
X365489000Y71447384D01*
X365558211Y71795331D01*
X365693974Y72123092D01*
X365891072Y72418070D01*
X366141930Y72668928D01*
X366436908Y72866026D01*
X366764669Y73001789D01*
X367112616Y73071000D01*
X367467384Y73071000D01*
X367815331Y73001789D01*
G37*
G36*
X376054591Y70521915D02*
G01*
X376088569Y70511607D01*
X376119890Y70494866D01*
X376147339Y70472339D01*
X376169866Y70444890D01*
X376186607Y70413569D01*
X376196915Y70379591D01*
X376201000Y70338110D01*
X376201000Y69661890D01*
X376196915Y69620409D01*
X376186607Y69586431D01*
X376169866Y69555110D01*
X376147339Y69527661D01*
X376119890Y69505134D01*
X376088569Y69488393D01*
X376054591Y69478085D01*
X376013110Y69474000D01*
X375411890Y69474000D01*
X375370409Y69478085D01*
X375336431Y69488393D01*
X375305110Y69505134D01*
X375277661Y69527661D01*
X375255134Y69555110D01*
X375238393Y69586431D01*
X375228085Y69620409D01*
X375224000Y69661890D01*
X375224000Y70338110D01*
X375228085Y70379591D01*
X375238393Y70413569D01*
X375255134Y70444890D01*
X375277661Y70472339D01*
X375305110Y70494866D01*
X375336431Y70511607D01*
X375370409Y70521915D01*
X375411890Y70526000D01*
X376013110Y70526000D01*
X376054591Y70521915D01*
G37*
G36*
X377629591Y70521915D02*
G01*
X377663569Y70511607D01*
X377694890Y70494866D01*
X377722339Y70472339D01*
X377744866Y70444890D01*
X377761607Y70413569D01*
X377771915Y70379591D01*
X377776000Y70338110D01*
X377776000Y69661890D01*
X377771915Y69620409D01*
X377761607Y69586431D01*
X377744866Y69555110D01*
X377722339Y69527661D01*
X377694890Y69505134D01*
X377663569Y69488393D01*
X377629591Y69478085D01*
X377588110Y69474000D01*
X376986890Y69474000D01*
X376945409Y69478085D01*
X376911431Y69488393D01*
X376880110Y69505134D01*
X376852661Y69527661D01*
X376830134Y69555110D01*
X376813393Y69586431D01*
X376803085Y69620409D01*
X376799000Y69661890D01*
X376799000Y70338110D01*
X376803085Y70379591D01*
X376813393Y70413569D01*
X376830134Y70444890D01*
X376852661Y70472339D01*
X376880110Y70494866D01*
X376911431Y70511607D01*
X376945409Y70521915D01*
X376986890Y70526000D01*
X377588110Y70526000D01*
X377629591Y70521915D01*
G37*
G36*
X379934468Y72746435D02*
G01*
X379973138Y72734704D01*
X380008777Y72715654D01*
X380040017Y72690017D01*
X380065654Y72658777D01*
X380084704Y72623138D01*
X380096435Y72584468D01*
X380101000Y72538112D01*
X380101000Y71461888D01*
X380096435Y71415532D01*
X380084704Y71376862D01*
X380065654Y71341223D01*
X380040017Y71309983D01*
X380008777Y71284346D01*
X379973138Y71265296D01*
X379934468Y71253565D01*
X379888112Y71249000D01*
X379236888Y71249000D01*
X379190532Y71253565D01*
X379151862Y71265296D01*
X379116223Y71284346D01*
X379084983Y71309983D01*
X379059346Y71341223D01*
X379040296Y71376862D01*
X379028565Y71415532D01*
X379024000Y71461888D01*
X379024000Y72538112D01*
X379028565Y72584468D01*
X379040296Y72623138D01*
X379059346Y72658777D01*
X379084983Y72690017D01*
X379116223Y72715654D01*
X379151862Y72734704D01*
X379190532Y72746435D01*
X379236888Y72751000D01*
X379888112Y72751000D01*
X379934468Y72746435D01*
G37*
G36*
X381809468Y72746435D02*
G01*
X381848138Y72734704D01*
X381883777Y72715654D01*
X381915017Y72690017D01*
X381940654Y72658777D01*
X381959704Y72623138D01*
X381971435Y72584468D01*
X381976000Y72538112D01*
X381976000Y71461888D01*
X381971435Y71415532D01*
X381959704Y71376862D01*
X381940654Y71341223D01*
X381915017Y71309983D01*
X381883777Y71284346D01*
X381848138Y71265296D01*
X381809468Y71253565D01*
X381763112Y71249000D01*
X381111888Y71249000D01*
X381065532Y71253565D01*
X381026862Y71265296D01*
X380991223Y71284346D01*
X380959983Y71309983D01*
X380934346Y71341223D01*
X380915296Y71376862D01*
X380903565Y71415532D01*
X380899000Y71461888D01*
X380899000Y72538112D01*
X380903565Y72584468D01*
X380915296Y72623138D01*
X380934346Y72658777D01*
X380959983Y72690017D01*
X380991223Y72715654D01*
X381026862Y72734704D01*
X381065532Y72746435D01*
X381111888Y72751000D01*
X381763112Y72751000D01*
X381809468Y72746435D01*
G37*
G36*
X377629591Y72521915D02*
G01*
X377663569Y72511607D01*
X377694890Y72494866D01*
X377722339Y72472339D01*
X377744866Y72444890D01*
X377761607Y72413569D01*
X377771915Y72379591D01*
X377776000Y72338110D01*
X377776000Y71661890D01*
X377771915Y71620409D01*
X377761607Y71586431D01*
X377744866Y71555110D01*
X377722339Y71527661D01*
X377694890Y71505134D01*
X377663569Y71488393D01*
X377629591Y71478085D01*
X377588110Y71474000D01*
X376986890Y71474000D01*
X376945409Y71478085D01*
X376911431Y71488393D01*
X376880110Y71505134D01*
X376852661Y71527661D01*
X376830134Y71555110D01*
X376813393Y71586431D01*
X376803085Y71620409D01*
X376799000Y71661890D01*
X376799000Y72338110D01*
X376803085Y72379591D01*
X376813393Y72413569D01*
X376830134Y72444890D01*
X376852661Y72472339D01*
X376880110Y72494866D01*
X376911431Y72511607D01*
X376945409Y72521915D01*
X376986890Y72526000D01*
X377588110Y72526000D01*
X377629591Y72521915D01*
G37*
G36*
X376054591Y72521915D02*
G01*
X376088569Y72511607D01*
X376119890Y72494866D01*
X376147339Y72472339D01*
X376169866Y72444890D01*
X376186607Y72413569D01*
X376196915Y72379591D01*
X376201000Y72338110D01*
X376201000Y71661890D01*
X376196915Y71620409D01*
X376186607Y71586431D01*
X376169866Y71555110D01*
X376147339Y71527661D01*
X376119890Y71505134D01*
X376088569Y71488393D01*
X376054591Y71478085D01*
X376013110Y71474000D01*
X375411890Y71474000D01*
X375370409Y71478085D01*
X375336431Y71488393D01*
X375305110Y71505134D01*
X375277661Y71527661D01*
X375255134Y71555110D01*
X375238393Y71586431D01*
X375228085Y71620409D01*
X375224000Y71661890D01*
X375224000Y72338110D01*
X375228085Y72379591D01*
X375238393Y72413569D01*
X375255134Y72444890D01*
X375277661Y72472339D01*
X375305110Y72494866D01*
X375336431Y72511607D01*
X375370409Y72521915D01*
X375411890Y72526000D01*
X376013110Y72526000D01*
X376054591Y72521915D01*
G37*
G36*
X391021811Y75221729D02*
G01*
X391057603Y75210871D01*
X391090595Y75193237D01*
X391119508Y75169508D01*
X391143237Y75140595D01*
X391160871Y75107603D01*
X391171729Y75071811D01*
X391176000Y75028445D01*
X391176000Y72971555D01*
X391171729Y72928189D01*
X391160871Y72892397D01*
X391143237Y72859405D01*
X391119508Y72830492D01*
X391090595Y72806763D01*
X391057603Y72789129D01*
X391021811Y72778271D01*
X390978445Y72774000D01*
X389946555Y72774000D01*
X389903189Y72778271D01*
X389867397Y72789129D01*
X389834405Y72806763D01*
X389805492Y72830492D01*
X389781763Y72859405D01*
X389764129Y72892397D01*
X389753271Y72928189D01*
X389749000Y72971555D01*
X389749000Y75028445D01*
X389753271Y75071811D01*
X389764129Y75107603D01*
X389781763Y75140595D01*
X389805492Y75169508D01*
X389834405Y75193237D01*
X389867397Y75210871D01*
X389903189Y75221729D01*
X389946555Y75226000D01*
X390978445Y75226000D01*
X391021811Y75221729D01*
G37*
G36*
X394096811Y75221729D02*
G01*
X394132603Y75210871D01*
X394165595Y75193237D01*
X394194508Y75169508D01*
X394218237Y75140595D01*
X394235871Y75107603D01*
X394246729Y75071811D01*
X394251000Y75028445D01*
X394251000Y72971555D01*
X394246729Y72928189D01*
X394235871Y72892397D01*
X394218237Y72859405D01*
X394194508Y72830492D01*
X394165595Y72806763D01*
X394132603Y72789129D01*
X394096811Y72778271D01*
X394053445Y72774000D01*
X393021555Y72774000D01*
X392978189Y72778271D01*
X392942397Y72789129D01*
X392909405Y72806763D01*
X392880492Y72830492D01*
X392856763Y72859405D01*
X392839129Y72892397D01*
X392828271Y72928189D01*
X392824000Y72971555D01*
X392824000Y75028445D01*
X392828271Y75071811D01*
X392839129Y75107603D01*
X392856763Y75140595D01*
X392880492Y75169508D01*
X392909405Y75193237D01*
X392942397Y75210871D01*
X392978189Y75221729D01*
X393021555Y75226000D01*
X394053445Y75226000D01*
X394096811Y75221729D01*
G37*
G36*
X400375256Y81608702D02*
G01*
X400481579Y81587553D01*
X400782042Y81463097D01*
X401052451Y81282415D01*
X401282415Y81052451D01*
X401463097Y80782042D01*
X401587553Y80481579D01*
X401651000Y80162609D01*
X401651000Y79837391D01*
X401587553Y79518421D01*
X401463097Y79217958D01*
X401282415Y78947549D01*
X401052451Y78717585D01*
X400782042Y78536903D01*
X400481579Y78412447D01*
X400375256Y78391298D01*
X400162611Y78349000D01*
X399837389Y78349000D01*
X399624744Y78391298D01*
X399518421Y78412447D01*
X399217958Y78536903D01*
X398947549Y78717585D01*
X398717585Y78947549D01*
X398536903Y79217958D01*
X398412447Y79518421D01*
X398349000Y79837391D01*
X398349000Y80162609D01*
X398412447Y80481579D01*
X398536903Y80782042D01*
X398717585Y81052451D01*
X398947549Y81282415D01*
X399217958Y81463097D01*
X399518421Y81587553D01*
X399624744Y81608702D01*
X399837389Y81651000D01*
X400162611Y81651000D01*
X400375256Y81608702D01*
G37*
G36*
X369375256Y81608702D02*
G01*
X369481579Y81587553D01*
X369782042Y81463097D01*
X370052451Y81282415D01*
X370282415Y81052451D01*
X370463097Y80782042D01*
X370587553Y80481579D01*
X370651000Y80162609D01*
X370651000Y79837391D01*
X370587553Y79518421D01*
X370463097Y79217958D01*
X370282415Y78947549D01*
X370052451Y78717585D01*
X369782042Y78536903D01*
X369481579Y78412447D01*
X369375256Y78391298D01*
X369162611Y78349000D01*
X368837389Y78349000D01*
X368624744Y78391298D01*
X368518421Y78412447D01*
X368217958Y78536903D01*
X367947549Y78717585D01*
X367717585Y78947549D01*
X367536903Y79217958D01*
X367412447Y79518421D01*
X367349000Y79837391D01*
X367349000Y80162609D01*
X367412447Y80481579D01*
X367536903Y80782042D01*
X367717585Y81052451D01*
X367947549Y81282415D01*
X368217958Y81463097D01*
X368518421Y81587553D01*
X368624744Y81608702D01*
X368837389Y81651000D01*
X369162611Y81651000D01*
X369375256Y81608702D01*
G37*
M02*
