G04 #@! TF.GenerationSoftware,KiCad,Pcbnew,(5.1.5-0-10_14)*
G04 #@! TF.CreationDate,2020-04-17T16:58:58+12:00*
G04 #@! TF.ProjectId,ZapierStompBox,5a617069-6572-4537-946f-6d70426f782e,rev?*
G04 #@! TF.SameCoordinates,Original*
G04 #@! TF.FileFunction,Copper,L1,Top*
G04 #@! TF.FilePolarity,Positive*
%FSLAX46Y46*%
G04 Gerber Fmt 4.6, Leading zero omitted, Abs format (unit mm)*
G04 Created by KiCad (PCBNEW (5.1.5-0-10_14)) date 2020-04-17 16:58:58*
%MOMM*%
%LPD*%
G04 APERTURE LIST*
%ADD10C,0.100000*%
%ADD11R,1.700000X1.700000*%
%ADD12C,1.700000*%
%ADD13C,3.500000*%
%ADD14O,1.700000X1.700000*%
%ADD15R,1.200000X1.400000*%
%ADD16C,0.500000*%
%ADD17C,0.800000*%
%ADD18C,0.250000*%
%ADD19C,0.254000*%
G04 APERTURE END LIST*
G04 #@! TA.AperFunction,SMDPad,CuDef*
D10*
G36*
X383649504Y61523796D02*
G01*
X383673773Y61520196D01*
X383697571Y61514235D01*
X383720671Y61505970D01*
X383742849Y61495480D01*
X383763893Y61482867D01*
X383783598Y61468253D01*
X383801777Y61451777D01*
X383818253Y61433598D01*
X383832867Y61413893D01*
X383845480Y61392849D01*
X383855970Y61370671D01*
X383864235Y61347571D01*
X383870196Y61323773D01*
X383873796Y61299504D01*
X383875000Y61275000D01*
X383875000Y60525000D01*
X383873796Y60500496D01*
X383870196Y60476227D01*
X383864235Y60452429D01*
X383855970Y60429329D01*
X383845480Y60407151D01*
X383832867Y60386107D01*
X383818253Y60366402D01*
X383801777Y60348223D01*
X383783598Y60331747D01*
X383763893Y60317133D01*
X383742849Y60304520D01*
X383720671Y60294030D01*
X383697571Y60285765D01*
X383673773Y60279804D01*
X383649504Y60276204D01*
X383625000Y60275000D01*
X382375000Y60275000D01*
X382350496Y60276204D01*
X382326227Y60279804D01*
X382302429Y60285765D01*
X382279329Y60294030D01*
X382257151Y60304520D01*
X382236107Y60317133D01*
X382216402Y60331747D01*
X382198223Y60348223D01*
X382181747Y60366402D01*
X382167133Y60386107D01*
X382154520Y60407151D01*
X382144030Y60429329D01*
X382135765Y60452429D01*
X382129804Y60476227D01*
X382126204Y60500496D01*
X382125000Y60525000D01*
X382125000Y61275000D01*
X382126204Y61299504D01*
X382129804Y61323773D01*
X382135765Y61347571D01*
X382144030Y61370671D01*
X382154520Y61392849D01*
X382167133Y61413893D01*
X382181747Y61433598D01*
X382198223Y61451777D01*
X382216402Y61468253D01*
X382236107Y61482867D01*
X382257151Y61495480D01*
X382279329Y61505970D01*
X382302429Y61514235D01*
X382326227Y61520196D01*
X382350496Y61523796D01*
X382375000Y61525000D01*
X383625000Y61525000D01*
X383649504Y61523796D01*
G37*
G04 #@! TD.AperFunction*
G04 #@! TA.AperFunction,SMDPad,CuDef*
G36*
X383649504Y58723796D02*
G01*
X383673773Y58720196D01*
X383697571Y58714235D01*
X383720671Y58705970D01*
X383742849Y58695480D01*
X383763893Y58682867D01*
X383783598Y58668253D01*
X383801777Y58651777D01*
X383818253Y58633598D01*
X383832867Y58613893D01*
X383845480Y58592849D01*
X383855970Y58570671D01*
X383864235Y58547571D01*
X383870196Y58523773D01*
X383873796Y58499504D01*
X383875000Y58475000D01*
X383875000Y57725000D01*
X383873796Y57700496D01*
X383870196Y57676227D01*
X383864235Y57652429D01*
X383855970Y57629329D01*
X383845480Y57607151D01*
X383832867Y57586107D01*
X383818253Y57566402D01*
X383801777Y57548223D01*
X383783598Y57531747D01*
X383763893Y57517133D01*
X383742849Y57504520D01*
X383720671Y57494030D01*
X383697571Y57485765D01*
X383673773Y57479804D01*
X383649504Y57476204D01*
X383625000Y57475000D01*
X382375000Y57475000D01*
X382350496Y57476204D01*
X382326227Y57479804D01*
X382302429Y57485765D01*
X382279329Y57494030D01*
X382257151Y57504520D01*
X382236107Y57517133D01*
X382216402Y57531747D01*
X382198223Y57548223D01*
X382181747Y57566402D01*
X382167133Y57586107D01*
X382154520Y57607151D01*
X382144030Y57629329D01*
X382135765Y57652429D01*
X382129804Y57676227D01*
X382126204Y57700496D01*
X382125000Y57725000D01*
X382125000Y58475000D01*
X382126204Y58499504D01*
X382129804Y58523773D01*
X382135765Y58547571D01*
X382144030Y58570671D01*
X382154520Y58592849D01*
X382167133Y58613893D01*
X382181747Y58633598D01*
X382198223Y58651777D01*
X382216402Y58668253D01*
X382236107Y58682867D01*
X382257151Y58695480D01*
X382279329Y58705970D01*
X382302429Y58714235D01*
X382326227Y58720196D01*
X382350496Y58723796D01*
X382375000Y58725000D01*
X383625000Y58725000D01*
X383649504Y58723796D01*
G37*
G04 #@! TD.AperFunction*
G04 #@! TA.AperFunction,SMDPad,CuDef*
G36*
X393974505Y75173796D02*
G01*
X393998773Y75170196D01*
X394022572Y75164235D01*
X394045671Y75155970D01*
X394067850Y75145480D01*
X394088893Y75132868D01*
X394108599Y75118253D01*
X394126777Y75101777D01*
X394143253Y75083599D01*
X394157868Y75063893D01*
X394170480Y75042850D01*
X394180970Y75020671D01*
X394189235Y74997572D01*
X394195196Y74973773D01*
X394198796Y74949505D01*
X394200000Y74925001D01*
X394200000Y73074999D01*
X394198796Y73050495D01*
X394195196Y73026227D01*
X394189235Y73002428D01*
X394180970Y72979329D01*
X394170480Y72957150D01*
X394157868Y72936107D01*
X394143253Y72916401D01*
X394126777Y72898223D01*
X394108599Y72881747D01*
X394088893Y72867132D01*
X394067850Y72854520D01*
X394045671Y72844030D01*
X394022572Y72835765D01*
X393998773Y72829804D01*
X393974505Y72826204D01*
X393950001Y72825000D01*
X393124999Y72825000D01*
X393100495Y72826204D01*
X393076227Y72829804D01*
X393052428Y72835765D01*
X393029329Y72844030D01*
X393007150Y72854520D01*
X392986107Y72867132D01*
X392966401Y72881747D01*
X392948223Y72898223D01*
X392931747Y72916401D01*
X392917132Y72936107D01*
X392904520Y72957150D01*
X392894030Y72979329D01*
X392885765Y73002428D01*
X392879804Y73026227D01*
X392876204Y73050495D01*
X392875000Y73074999D01*
X392875000Y74925001D01*
X392876204Y74949505D01*
X392879804Y74973773D01*
X392885765Y74997572D01*
X392894030Y75020671D01*
X392904520Y75042850D01*
X392917132Y75063893D01*
X392931747Y75083599D01*
X392948223Y75101777D01*
X392966401Y75118253D01*
X392986107Y75132868D01*
X393007150Y75145480D01*
X393029329Y75155970D01*
X393052428Y75164235D01*
X393076227Y75170196D01*
X393100495Y75173796D01*
X393124999Y75175000D01*
X393950001Y75175000D01*
X393974505Y75173796D01*
G37*
G04 #@! TD.AperFunction*
G04 #@! TA.AperFunction,SMDPad,CuDef*
G36*
X390899505Y75173796D02*
G01*
X390923773Y75170196D01*
X390947572Y75164235D01*
X390970671Y75155970D01*
X390992850Y75145480D01*
X391013893Y75132868D01*
X391033599Y75118253D01*
X391051777Y75101777D01*
X391068253Y75083599D01*
X391082868Y75063893D01*
X391095480Y75042850D01*
X391105970Y75020671D01*
X391114235Y74997572D01*
X391120196Y74973773D01*
X391123796Y74949505D01*
X391125000Y74925001D01*
X391125000Y73074999D01*
X391123796Y73050495D01*
X391120196Y73026227D01*
X391114235Y73002428D01*
X391105970Y72979329D01*
X391095480Y72957150D01*
X391082868Y72936107D01*
X391068253Y72916401D01*
X391051777Y72898223D01*
X391033599Y72881747D01*
X391013893Y72867132D01*
X390992850Y72854520D01*
X390970671Y72844030D01*
X390947572Y72835765D01*
X390923773Y72829804D01*
X390899505Y72826204D01*
X390875001Y72825000D01*
X390049999Y72825000D01*
X390025495Y72826204D01*
X390001227Y72829804D01*
X389977428Y72835765D01*
X389954329Y72844030D01*
X389932150Y72854520D01*
X389911107Y72867132D01*
X389891401Y72881747D01*
X389873223Y72898223D01*
X389856747Y72916401D01*
X389842132Y72936107D01*
X389829520Y72957150D01*
X389819030Y72979329D01*
X389810765Y73002428D01*
X389804804Y73026227D01*
X389801204Y73050495D01*
X389800000Y73074999D01*
X389800000Y74925001D01*
X389801204Y74949505D01*
X389804804Y74973773D01*
X389810765Y74997572D01*
X389819030Y75020671D01*
X389829520Y75042850D01*
X389842132Y75063893D01*
X389856747Y75083599D01*
X389873223Y75101777D01*
X389891401Y75118253D01*
X389911107Y75132868D01*
X389932150Y75145480D01*
X389954329Y75155970D01*
X389977428Y75164235D01*
X390001227Y75170196D01*
X390025495Y75173796D01*
X390049999Y75175000D01*
X390875001Y75175000D01*
X390899505Y75173796D01*
G37*
G04 #@! TD.AperFunction*
G04 #@! TA.AperFunction,SMDPad,CuDef*
G36*
X381330142Y65198826D02*
G01*
X381353803Y65195316D01*
X381377007Y65189504D01*
X381399529Y65181446D01*
X381421153Y65171218D01*
X381441670Y65158921D01*
X381460883Y65144671D01*
X381478607Y65128607D01*
X381494671Y65110883D01*
X381508921Y65091670D01*
X381521218Y65071153D01*
X381531446Y65049529D01*
X381539504Y65027007D01*
X381545316Y65003803D01*
X381548826Y64980142D01*
X381550000Y64956250D01*
X381550000Y64043750D01*
X381548826Y64019858D01*
X381545316Y63996197D01*
X381539504Y63972993D01*
X381531446Y63950471D01*
X381521218Y63928847D01*
X381508921Y63908330D01*
X381494671Y63889117D01*
X381478607Y63871393D01*
X381460883Y63855329D01*
X381441670Y63841079D01*
X381421153Y63828782D01*
X381399529Y63818554D01*
X381377007Y63810496D01*
X381353803Y63804684D01*
X381330142Y63801174D01*
X381306250Y63800000D01*
X380818750Y63800000D01*
X380794858Y63801174D01*
X380771197Y63804684D01*
X380747993Y63810496D01*
X380725471Y63818554D01*
X380703847Y63828782D01*
X380683330Y63841079D01*
X380664117Y63855329D01*
X380646393Y63871393D01*
X380630329Y63889117D01*
X380616079Y63908330D01*
X380603782Y63928847D01*
X380593554Y63950471D01*
X380585496Y63972993D01*
X380579684Y63996197D01*
X380576174Y64019858D01*
X380575000Y64043750D01*
X380575000Y64956250D01*
X380576174Y64980142D01*
X380579684Y65003803D01*
X380585496Y65027007D01*
X380593554Y65049529D01*
X380603782Y65071153D01*
X380616079Y65091670D01*
X380630329Y65110883D01*
X380646393Y65128607D01*
X380664117Y65144671D01*
X380683330Y65158921D01*
X380703847Y65171218D01*
X380725471Y65181446D01*
X380747993Y65189504D01*
X380771197Y65195316D01*
X380794858Y65198826D01*
X380818750Y65200000D01*
X381306250Y65200000D01*
X381330142Y65198826D01*
G37*
G04 #@! TD.AperFunction*
G04 #@! TA.AperFunction,SMDPad,CuDef*
G36*
X383205142Y65198826D02*
G01*
X383228803Y65195316D01*
X383252007Y65189504D01*
X383274529Y65181446D01*
X383296153Y65171218D01*
X383316670Y65158921D01*
X383335883Y65144671D01*
X383353607Y65128607D01*
X383369671Y65110883D01*
X383383921Y65091670D01*
X383396218Y65071153D01*
X383406446Y65049529D01*
X383414504Y65027007D01*
X383420316Y65003803D01*
X383423826Y64980142D01*
X383425000Y64956250D01*
X383425000Y64043750D01*
X383423826Y64019858D01*
X383420316Y63996197D01*
X383414504Y63972993D01*
X383406446Y63950471D01*
X383396218Y63928847D01*
X383383921Y63908330D01*
X383369671Y63889117D01*
X383353607Y63871393D01*
X383335883Y63855329D01*
X383316670Y63841079D01*
X383296153Y63828782D01*
X383274529Y63818554D01*
X383252007Y63810496D01*
X383228803Y63804684D01*
X383205142Y63801174D01*
X383181250Y63800000D01*
X382693750Y63800000D01*
X382669858Y63801174D01*
X382646197Y63804684D01*
X382622993Y63810496D01*
X382600471Y63818554D01*
X382578847Y63828782D01*
X382558330Y63841079D01*
X382539117Y63855329D01*
X382521393Y63871393D01*
X382505329Y63889117D01*
X382491079Y63908330D01*
X382478782Y63928847D01*
X382468554Y63950471D01*
X382460496Y63972993D01*
X382454684Y63996197D01*
X382451174Y64019858D01*
X382450000Y64043750D01*
X382450000Y64956250D01*
X382451174Y64980142D01*
X382454684Y65003803D01*
X382460496Y65027007D01*
X382468554Y65049529D01*
X382478782Y65071153D01*
X382491079Y65091670D01*
X382505329Y65110883D01*
X382521393Y65128607D01*
X382539117Y65144671D01*
X382558330Y65158921D01*
X382578847Y65171218D01*
X382600471Y65181446D01*
X382622993Y65189504D01*
X382646197Y65195316D01*
X382669858Y65198826D01*
X382693750Y65200000D01*
X383181250Y65200000D01*
X383205142Y65198826D01*
G37*
G04 #@! TD.AperFunction*
G04 #@! TA.AperFunction,SMDPad,CuDef*
G36*
X381705142Y72698826D02*
G01*
X381728803Y72695316D01*
X381752007Y72689504D01*
X381774529Y72681446D01*
X381796153Y72671218D01*
X381816670Y72658921D01*
X381835883Y72644671D01*
X381853607Y72628607D01*
X381869671Y72610883D01*
X381883921Y72591670D01*
X381896218Y72571153D01*
X381906446Y72549529D01*
X381914504Y72527007D01*
X381920316Y72503803D01*
X381923826Y72480142D01*
X381925000Y72456250D01*
X381925000Y71543750D01*
X381923826Y71519858D01*
X381920316Y71496197D01*
X381914504Y71472993D01*
X381906446Y71450471D01*
X381896218Y71428847D01*
X381883921Y71408330D01*
X381869671Y71389117D01*
X381853607Y71371393D01*
X381835883Y71355329D01*
X381816670Y71341079D01*
X381796153Y71328782D01*
X381774529Y71318554D01*
X381752007Y71310496D01*
X381728803Y71304684D01*
X381705142Y71301174D01*
X381681250Y71300000D01*
X381193750Y71300000D01*
X381169858Y71301174D01*
X381146197Y71304684D01*
X381122993Y71310496D01*
X381100471Y71318554D01*
X381078847Y71328782D01*
X381058330Y71341079D01*
X381039117Y71355329D01*
X381021393Y71371393D01*
X381005329Y71389117D01*
X380991079Y71408330D01*
X380978782Y71428847D01*
X380968554Y71450471D01*
X380960496Y71472993D01*
X380954684Y71496197D01*
X380951174Y71519858D01*
X380950000Y71543750D01*
X380950000Y72456250D01*
X380951174Y72480142D01*
X380954684Y72503803D01*
X380960496Y72527007D01*
X380968554Y72549529D01*
X380978782Y72571153D01*
X380991079Y72591670D01*
X381005329Y72610883D01*
X381021393Y72628607D01*
X381039117Y72644671D01*
X381058330Y72658921D01*
X381078847Y72671218D01*
X381100471Y72681446D01*
X381122993Y72689504D01*
X381146197Y72695316D01*
X381169858Y72698826D01*
X381193750Y72700000D01*
X381681250Y72700000D01*
X381705142Y72698826D01*
G37*
G04 #@! TD.AperFunction*
G04 #@! TA.AperFunction,SMDPad,CuDef*
G36*
X379830142Y72698826D02*
G01*
X379853803Y72695316D01*
X379877007Y72689504D01*
X379899529Y72681446D01*
X379921153Y72671218D01*
X379941670Y72658921D01*
X379960883Y72644671D01*
X379978607Y72628607D01*
X379994671Y72610883D01*
X380008921Y72591670D01*
X380021218Y72571153D01*
X380031446Y72549529D01*
X380039504Y72527007D01*
X380045316Y72503803D01*
X380048826Y72480142D01*
X380050000Y72456250D01*
X380050000Y71543750D01*
X380048826Y71519858D01*
X380045316Y71496197D01*
X380039504Y71472993D01*
X380031446Y71450471D01*
X380021218Y71428847D01*
X380008921Y71408330D01*
X379994671Y71389117D01*
X379978607Y71371393D01*
X379960883Y71355329D01*
X379941670Y71341079D01*
X379921153Y71328782D01*
X379899529Y71318554D01*
X379877007Y71310496D01*
X379853803Y71304684D01*
X379830142Y71301174D01*
X379806250Y71300000D01*
X379318750Y71300000D01*
X379294858Y71301174D01*
X379271197Y71304684D01*
X379247993Y71310496D01*
X379225471Y71318554D01*
X379203847Y71328782D01*
X379183330Y71341079D01*
X379164117Y71355329D01*
X379146393Y71371393D01*
X379130329Y71389117D01*
X379116079Y71408330D01*
X379103782Y71428847D01*
X379093554Y71450471D01*
X379085496Y71472993D01*
X379079684Y71496197D01*
X379076174Y71519858D01*
X379075000Y71543750D01*
X379075000Y72456250D01*
X379076174Y72480142D01*
X379079684Y72503803D01*
X379085496Y72527007D01*
X379093554Y72549529D01*
X379103782Y72571153D01*
X379116079Y72591670D01*
X379130329Y72610883D01*
X379146393Y72628607D01*
X379164117Y72644671D01*
X379183330Y72658921D01*
X379203847Y72671218D01*
X379225471Y72681446D01*
X379247993Y72689504D01*
X379271197Y72695316D01*
X379294858Y72698826D01*
X379318750Y72700000D01*
X379806250Y72700000D01*
X379830142Y72698826D01*
G37*
G04 #@! TD.AperFunction*
G04 #@! TA.AperFunction,SMDPad,CuDef*
G36*
X390277691Y63223947D02*
G01*
X390298926Y63220797D01*
X390319750Y63215581D01*
X390339962Y63208349D01*
X390359368Y63199170D01*
X390377781Y63188134D01*
X390395024Y63175346D01*
X390410930Y63160930D01*
X390425346Y63145024D01*
X390438134Y63127781D01*
X390449170Y63109368D01*
X390458349Y63089962D01*
X390465581Y63069750D01*
X390470797Y63048926D01*
X390473947Y63027691D01*
X390475000Y63006250D01*
X390475000Y62568750D01*
X390473947Y62547309D01*
X390470797Y62526074D01*
X390465581Y62505250D01*
X390458349Y62485038D01*
X390449170Y62465632D01*
X390438134Y62447219D01*
X390425346Y62429976D01*
X390410930Y62414070D01*
X390395024Y62399654D01*
X390377781Y62386866D01*
X390359368Y62375830D01*
X390339962Y62366651D01*
X390319750Y62359419D01*
X390298926Y62354203D01*
X390277691Y62351053D01*
X390256250Y62350000D01*
X389743750Y62350000D01*
X389722309Y62351053D01*
X389701074Y62354203D01*
X389680250Y62359419D01*
X389660038Y62366651D01*
X389640632Y62375830D01*
X389622219Y62386866D01*
X389604976Y62399654D01*
X389589070Y62414070D01*
X389574654Y62429976D01*
X389561866Y62447219D01*
X389550830Y62465632D01*
X389541651Y62485038D01*
X389534419Y62505250D01*
X389529203Y62526074D01*
X389526053Y62547309D01*
X389525000Y62568750D01*
X389525000Y63006250D01*
X389526053Y63027691D01*
X389529203Y63048926D01*
X389534419Y63069750D01*
X389541651Y63089962D01*
X389550830Y63109368D01*
X389561866Y63127781D01*
X389574654Y63145024D01*
X389589070Y63160930D01*
X389604976Y63175346D01*
X389622219Y63188134D01*
X389640632Y63199170D01*
X389660038Y63208349D01*
X389680250Y63215581D01*
X389701074Y63220797D01*
X389722309Y63223947D01*
X389743750Y63225000D01*
X390256250Y63225000D01*
X390277691Y63223947D01*
G37*
G04 #@! TD.AperFunction*
G04 #@! TA.AperFunction,SMDPad,CuDef*
G36*
X390277691Y61648947D02*
G01*
X390298926Y61645797D01*
X390319750Y61640581D01*
X390339962Y61633349D01*
X390359368Y61624170D01*
X390377781Y61613134D01*
X390395024Y61600346D01*
X390410930Y61585930D01*
X390425346Y61570024D01*
X390438134Y61552781D01*
X390449170Y61534368D01*
X390458349Y61514962D01*
X390465581Y61494750D01*
X390470797Y61473926D01*
X390473947Y61452691D01*
X390475000Y61431250D01*
X390475000Y60993750D01*
X390473947Y60972309D01*
X390470797Y60951074D01*
X390465581Y60930250D01*
X390458349Y60910038D01*
X390449170Y60890632D01*
X390438134Y60872219D01*
X390425346Y60854976D01*
X390410930Y60839070D01*
X390395024Y60824654D01*
X390377781Y60811866D01*
X390359368Y60800830D01*
X390339962Y60791651D01*
X390319750Y60784419D01*
X390298926Y60779203D01*
X390277691Y60776053D01*
X390256250Y60775000D01*
X389743750Y60775000D01*
X389722309Y60776053D01*
X389701074Y60779203D01*
X389680250Y60784419D01*
X389660038Y60791651D01*
X389640632Y60800830D01*
X389622219Y60811866D01*
X389604976Y60824654D01*
X389589070Y60839070D01*
X389574654Y60854976D01*
X389561866Y60872219D01*
X389550830Y60890632D01*
X389541651Y60910038D01*
X389534419Y60930250D01*
X389529203Y60951074D01*
X389526053Y60972309D01*
X389525000Y60993750D01*
X389525000Y61431250D01*
X389526053Y61452691D01*
X389529203Y61473926D01*
X389534419Y61494750D01*
X389541651Y61514962D01*
X389550830Y61534368D01*
X389561866Y61552781D01*
X389574654Y61570024D01*
X389589070Y61585930D01*
X389604976Y61600346D01*
X389622219Y61613134D01*
X389640632Y61624170D01*
X389660038Y61633349D01*
X389680250Y61640581D01*
X389701074Y61645797D01*
X389722309Y61648947D01*
X389743750Y61650000D01*
X390256250Y61650000D01*
X390277691Y61648947D01*
G37*
G04 #@! TD.AperFunction*
G04 #@! TA.AperFunction,SMDPad,CuDef*
G36*
X375609802Y65909518D02*
G01*
X375619509Y65908079D01*
X375629028Y65905694D01*
X375638268Y65902388D01*
X375647140Y65898192D01*
X375655557Y65893147D01*
X375663439Y65887301D01*
X375670711Y65880711D01*
X375677301Y65873439D01*
X375683147Y65865557D01*
X375688192Y65857140D01*
X375692388Y65848268D01*
X375695694Y65839028D01*
X375698079Y65829509D01*
X375699518Y65819802D01*
X375700000Y65810000D01*
X375700000Y65550000D01*
X375699518Y65540198D01*
X375698079Y65530491D01*
X375695694Y65520972D01*
X375692388Y65511732D01*
X375688192Y65502860D01*
X375683147Y65494443D01*
X375677301Y65486561D01*
X375670711Y65479289D01*
X375663439Y65472699D01*
X375655557Y65466853D01*
X375647140Y65461808D01*
X375638268Y65457612D01*
X375629028Y65454306D01*
X375619509Y65451921D01*
X375609802Y65450482D01*
X375600000Y65450000D01*
X375400000Y65450000D01*
X375390198Y65450482D01*
X375380491Y65451921D01*
X375370972Y65454306D01*
X375361732Y65457612D01*
X375352860Y65461808D01*
X375344443Y65466853D01*
X375336561Y65472699D01*
X375329289Y65479289D01*
X375322699Y65486561D01*
X375316853Y65494443D01*
X375311808Y65502860D01*
X375307612Y65511732D01*
X375304306Y65520972D01*
X375301921Y65530491D01*
X375300482Y65540198D01*
X375300000Y65550000D01*
X375300000Y65810000D01*
X375300482Y65819802D01*
X375301921Y65829509D01*
X375304306Y65839028D01*
X375307612Y65848268D01*
X375311808Y65857140D01*
X375316853Y65865557D01*
X375322699Y65873439D01*
X375329289Y65880711D01*
X375336561Y65887301D01*
X375344443Y65893147D01*
X375352860Y65898192D01*
X375361732Y65902388D01*
X375370972Y65905694D01*
X375380491Y65908079D01*
X375390198Y65909518D01*
X375400000Y65910000D01*
X375600000Y65910000D01*
X375609802Y65909518D01*
G37*
G04 #@! TD.AperFunction*
G04 #@! TA.AperFunction,SMDPad,CuDef*
G36*
X375609802Y66549518D02*
G01*
X375619509Y66548079D01*
X375629028Y66545694D01*
X375638268Y66542388D01*
X375647140Y66538192D01*
X375655557Y66533147D01*
X375663439Y66527301D01*
X375670711Y66520711D01*
X375677301Y66513439D01*
X375683147Y66505557D01*
X375688192Y66497140D01*
X375692388Y66488268D01*
X375695694Y66479028D01*
X375698079Y66469509D01*
X375699518Y66459802D01*
X375700000Y66450000D01*
X375700000Y66190000D01*
X375699518Y66180198D01*
X375698079Y66170491D01*
X375695694Y66160972D01*
X375692388Y66151732D01*
X375688192Y66142860D01*
X375683147Y66134443D01*
X375677301Y66126561D01*
X375670711Y66119289D01*
X375663439Y66112699D01*
X375655557Y66106853D01*
X375647140Y66101808D01*
X375638268Y66097612D01*
X375629028Y66094306D01*
X375619509Y66091921D01*
X375609802Y66090482D01*
X375600000Y66090000D01*
X375400000Y66090000D01*
X375390198Y66090482D01*
X375380491Y66091921D01*
X375370972Y66094306D01*
X375361732Y66097612D01*
X375352860Y66101808D01*
X375344443Y66106853D01*
X375336561Y66112699D01*
X375329289Y66119289D01*
X375322699Y66126561D01*
X375316853Y66134443D01*
X375311808Y66142860D01*
X375307612Y66151732D01*
X375304306Y66160972D01*
X375301921Y66170491D01*
X375300482Y66180198D01*
X375300000Y66190000D01*
X375300000Y66450000D01*
X375300482Y66459802D01*
X375301921Y66469509D01*
X375304306Y66479028D01*
X375307612Y66488268D01*
X375311808Y66497140D01*
X375316853Y66505557D01*
X375322699Y66513439D01*
X375329289Y66520711D01*
X375336561Y66527301D01*
X375344443Y66533147D01*
X375352860Y66538192D01*
X375361732Y66542388D01*
X375370972Y66545694D01*
X375380491Y66548079D01*
X375390198Y66549518D01*
X375400000Y66550000D01*
X375600000Y66550000D01*
X375609802Y66549518D01*
G37*
G04 #@! TD.AperFunction*
G04 #@! TA.AperFunction,SMDPad,CuDef*
G36*
X377609802Y66549518D02*
G01*
X377619509Y66548079D01*
X377629028Y66545694D01*
X377638268Y66542388D01*
X377647140Y66538192D01*
X377655557Y66533147D01*
X377663439Y66527301D01*
X377670711Y66520711D01*
X377677301Y66513439D01*
X377683147Y66505557D01*
X377688192Y66497140D01*
X377692388Y66488268D01*
X377695694Y66479028D01*
X377698079Y66469509D01*
X377699518Y66459802D01*
X377700000Y66450000D01*
X377700000Y66190000D01*
X377699518Y66180198D01*
X377698079Y66170491D01*
X377695694Y66160972D01*
X377692388Y66151732D01*
X377688192Y66142860D01*
X377683147Y66134443D01*
X377677301Y66126561D01*
X377670711Y66119289D01*
X377663439Y66112699D01*
X377655557Y66106853D01*
X377647140Y66101808D01*
X377638268Y66097612D01*
X377629028Y66094306D01*
X377619509Y66091921D01*
X377609802Y66090482D01*
X377600000Y66090000D01*
X377400000Y66090000D01*
X377390198Y66090482D01*
X377380491Y66091921D01*
X377370972Y66094306D01*
X377361732Y66097612D01*
X377352860Y66101808D01*
X377344443Y66106853D01*
X377336561Y66112699D01*
X377329289Y66119289D01*
X377322699Y66126561D01*
X377316853Y66134443D01*
X377311808Y66142860D01*
X377307612Y66151732D01*
X377304306Y66160972D01*
X377301921Y66170491D01*
X377300482Y66180198D01*
X377300000Y66190000D01*
X377300000Y66450000D01*
X377300482Y66459802D01*
X377301921Y66469509D01*
X377304306Y66479028D01*
X377307612Y66488268D01*
X377311808Y66497140D01*
X377316853Y66505557D01*
X377322699Y66513439D01*
X377329289Y66520711D01*
X377336561Y66527301D01*
X377344443Y66533147D01*
X377352860Y66538192D01*
X377361732Y66542388D01*
X377370972Y66545694D01*
X377380491Y66548079D01*
X377390198Y66549518D01*
X377400000Y66550000D01*
X377600000Y66550000D01*
X377609802Y66549518D01*
G37*
G04 #@! TD.AperFunction*
G04 #@! TA.AperFunction,SMDPad,CuDef*
G36*
X377609802Y65909518D02*
G01*
X377619509Y65908079D01*
X377629028Y65905694D01*
X377638268Y65902388D01*
X377647140Y65898192D01*
X377655557Y65893147D01*
X377663439Y65887301D01*
X377670711Y65880711D01*
X377677301Y65873439D01*
X377683147Y65865557D01*
X377688192Y65857140D01*
X377692388Y65848268D01*
X377695694Y65839028D01*
X377698079Y65829509D01*
X377699518Y65819802D01*
X377700000Y65810000D01*
X377700000Y65550000D01*
X377699518Y65540198D01*
X377698079Y65530491D01*
X377695694Y65520972D01*
X377692388Y65511732D01*
X377688192Y65502860D01*
X377683147Y65494443D01*
X377677301Y65486561D01*
X377670711Y65479289D01*
X377663439Y65472699D01*
X377655557Y65466853D01*
X377647140Y65461808D01*
X377638268Y65457612D01*
X377629028Y65454306D01*
X377619509Y65451921D01*
X377609802Y65450482D01*
X377600000Y65450000D01*
X377400000Y65450000D01*
X377390198Y65450482D01*
X377380491Y65451921D01*
X377370972Y65454306D01*
X377361732Y65457612D01*
X377352860Y65461808D01*
X377344443Y65466853D01*
X377336561Y65472699D01*
X377329289Y65479289D01*
X377322699Y65486561D01*
X377316853Y65494443D01*
X377311808Y65502860D01*
X377307612Y65511732D01*
X377304306Y65520972D01*
X377301921Y65530491D01*
X377300482Y65540198D01*
X377300000Y65550000D01*
X377300000Y65810000D01*
X377300482Y65819802D01*
X377301921Y65829509D01*
X377304306Y65839028D01*
X377307612Y65848268D01*
X377311808Y65857140D01*
X377316853Y65865557D01*
X377322699Y65873439D01*
X377329289Y65880711D01*
X377336561Y65887301D01*
X377344443Y65893147D01*
X377352860Y65898192D01*
X377361732Y65902388D01*
X377370972Y65905694D01*
X377380491Y65908079D01*
X377390198Y65909518D01*
X377400000Y65910000D01*
X377600000Y65910000D01*
X377609802Y65909518D01*
G37*
G04 #@! TD.AperFunction*
D11*
X372000000Y64000000D03*
D12*
X372000000Y66500000D03*
X370000000Y66500000D03*
X370000000Y64000000D03*
D13*
X367290000Y59230000D03*
X367290000Y71270000D03*
D11*
X392500000Y57000000D03*
D14*
X392500000Y54460000D03*
X389960000Y57000000D03*
X389960000Y54460000D03*
X387420000Y57000000D03*
X387420000Y54460000D03*
G04 #@! TA.AperFunction,SMDPad,CuDef*
D10*
G36*
X386165191Y61973947D02*
G01*
X386186426Y61970797D01*
X386207250Y61965581D01*
X386227462Y61958349D01*
X386246868Y61949170D01*
X386265281Y61938134D01*
X386282524Y61925346D01*
X386298430Y61910930D01*
X386312846Y61895024D01*
X386325634Y61877781D01*
X386336670Y61859368D01*
X386345849Y61839962D01*
X386353081Y61819750D01*
X386358297Y61798926D01*
X386361447Y61777691D01*
X386362500Y61756250D01*
X386362500Y61243750D01*
X386361447Y61222309D01*
X386358297Y61201074D01*
X386353081Y61180250D01*
X386345849Y61160038D01*
X386336670Y61140632D01*
X386325634Y61122219D01*
X386312846Y61104976D01*
X386298430Y61089070D01*
X386282524Y61074654D01*
X386265281Y61061866D01*
X386246868Y61050830D01*
X386227462Y61041651D01*
X386207250Y61034419D01*
X386186426Y61029203D01*
X386165191Y61026053D01*
X386143750Y61025000D01*
X385706250Y61025000D01*
X385684809Y61026053D01*
X385663574Y61029203D01*
X385642750Y61034419D01*
X385622538Y61041651D01*
X385603132Y61050830D01*
X385584719Y61061866D01*
X385567476Y61074654D01*
X385551570Y61089070D01*
X385537154Y61104976D01*
X385524366Y61122219D01*
X385513330Y61140632D01*
X385504151Y61160038D01*
X385496919Y61180250D01*
X385491703Y61201074D01*
X385488553Y61222309D01*
X385487500Y61243750D01*
X385487500Y61756250D01*
X385488553Y61777691D01*
X385491703Y61798926D01*
X385496919Y61819750D01*
X385504151Y61839962D01*
X385513330Y61859368D01*
X385524366Y61877781D01*
X385537154Y61895024D01*
X385551570Y61910930D01*
X385567476Y61925346D01*
X385584719Y61938134D01*
X385603132Y61949170D01*
X385622538Y61958349D01*
X385642750Y61965581D01*
X385663574Y61970797D01*
X385684809Y61973947D01*
X385706250Y61975000D01*
X386143750Y61975000D01*
X386165191Y61973947D01*
G37*
G04 #@! TD.AperFunction*
G04 #@! TA.AperFunction,SMDPad,CuDef*
G36*
X387740191Y61973947D02*
G01*
X387761426Y61970797D01*
X387782250Y61965581D01*
X387802462Y61958349D01*
X387821868Y61949170D01*
X387840281Y61938134D01*
X387857524Y61925346D01*
X387873430Y61910930D01*
X387887846Y61895024D01*
X387900634Y61877781D01*
X387911670Y61859368D01*
X387920849Y61839962D01*
X387928081Y61819750D01*
X387933297Y61798926D01*
X387936447Y61777691D01*
X387937500Y61756250D01*
X387937500Y61243750D01*
X387936447Y61222309D01*
X387933297Y61201074D01*
X387928081Y61180250D01*
X387920849Y61160038D01*
X387911670Y61140632D01*
X387900634Y61122219D01*
X387887846Y61104976D01*
X387873430Y61089070D01*
X387857524Y61074654D01*
X387840281Y61061866D01*
X387821868Y61050830D01*
X387802462Y61041651D01*
X387782250Y61034419D01*
X387761426Y61029203D01*
X387740191Y61026053D01*
X387718750Y61025000D01*
X387281250Y61025000D01*
X387259809Y61026053D01*
X387238574Y61029203D01*
X387217750Y61034419D01*
X387197538Y61041651D01*
X387178132Y61050830D01*
X387159719Y61061866D01*
X387142476Y61074654D01*
X387126570Y61089070D01*
X387112154Y61104976D01*
X387099366Y61122219D01*
X387088330Y61140632D01*
X387079151Y61160038D01*
X387071919Y61180250D01*
X387066703Y61201074D01*
X387063553Y61222309D01*
X387062500Y61243750D01*
X387062500Y61756250D01*
X387063553Y61777691D01*
X387066703Y61798926D01*
X387071919Y61819750D01*
X387079151Y61839962D01*
X387088330Y61859368D01*
X387099366Y61877781D01*
X387112154Y61895024D01*
X387126570Y61910930D01*
X387142476Y61925346D01*
X387159719Y61938134D01*
X387178132Y61949170D01*
X387197538Y61958349D01*
X387217750Y61965581D01*
X387238574Y61970797D01*
X387259809Y61973947D01*
X387281250Y61975000D01*
X387718750Y61975000D01*
X387740191Y61973947D01*
G37*
G04 #@! TD.AperFunction*
G04 #@! TA.AperFunction,SMDPad,CuDef*
G36*
X375952691Y70473947D02*
G01*
X375973926Y70470797D01*
X375994750Y70465581D01*
X376014962Y70458349D01*
X376034368Y70449170D01*
X376052781Y70438134D01*
X376070024Y70425346D01*
X376085930Y70410930D01*
X376100346Y70395024D01*
X376113134Y70377781D01*
X376124170Y70359368D01*
X376133349Y70339962D01*
X376140581Y70319750D01*
X376145797Y70298926D01*
X376148947Y70277691D01*
X376150000Y70256250D01*
X376150000Y69743750D01*
X376148947Y69722309D01*
X376145797Y69701074D01*
X376140581Y69680250D01*
X376133349Y69660038D01*
X376124170Y69640632D01*
X376113134Y69622219D01*
X376100346Y69604976D01*
X376085930Y69589070D01*
X376070024Y69574654D01*
X376052781Y69561866D01*
X376034368Y69550830D01*
X376014962Y69541651D01*
X375994750Y69534419D01*
X375973926Y69529203D01*
X375952691Y69526053D01*
X375931250Y69525000D01*
X375493750Y69525000D01*
X375472309Y69526053D01*
X375451074Y69529203D01*
X375430250Y69534419D01*
X375410038Y69541651D01*
X375390632Y69550830D01*
X375372219Y69561866D01*
X375354976Y69574654D01*
X375339070Y69589070D01*
X375324654Y69604976D01*
X375311866Y69622219D01*
X375300830Y69640632D01*
X375291651Y69660038D01*
X375284419Y69680250D01*
X375279203Y69701074D01*
X375276053Y69722309D01*
X375275000Y69743750D01*
X375275000Y70256250D01*
X375276053Y70277691D01*
X375279203Y70298926D01*
X375284419Y70319750D01*
X375291651Y70339962D01*
X375300830Y70359368D01*
X375311866Y70377781D01*
X375324654Y70395024D01*
X375339070Y70410930D01*
X375354976Y70425346D01*
X375372219Y70438134D01*
X375390632Y70449170D01*
X375410038Y70458349D01*
X375430250Y70465581D01*
X375451074Y70470797D01*
X375472309Y70473947D01*
X375493750Y70475000D01*
X375931250Y70475000D01*
X375952691Y70473947D01*
G37*
G04 #@! TD.AperFunction*
G04 #@! TA.AperFunction,SMDPad,CuDef*
G36*
X377527691Y70473947D02*
G01*
X377548926Y70470797D01*
X377569750Y70465581D01*
X377589962Y70458349D01*
X377609368Y70449170D01*
X377627781Y70438134D01*
X377645024Y70425346D01*
X377660930Y70410930D01*
X377675346Y70395024D01*
X377688134Y70377781D01*
X377699170Y70359368D01*
X377708349Y70339962D01*
X377715581Y70319750D01*
X377720797Y70298926D01*
X377723947Y70277691D01*
X377725000Y70256250D01*
X377725000Y69743750D01*
X377723947Y69722309D01*
X377720797Y69701074D01*
X377715581Y69680250D01*
X377708349Y69660038D01*
X377699170Y69640632D01*
X377688134Y69622219D01*
X377675346Y69604976D01*
X377660930Y69589070D01*
X377645024Y69574654D01*
X377627781Y69561866D01*
X377609368Y69550830D01*
X377589962Y69541651D01*
X377569750Y69534419D01*
X377548926Y69529203D01*
X377527691Y69526053D01*
X377506250Y69525000D01*
X377068750Y69525000D01*
X377047309Y69526053D01*
X377026074Y69529203D01*
X377005250Y69534419D01*
X376985038Y69541651D01*
X376965632Y69550830D01*
X376947219Y69561866D01*
X376929976Y69574654D01*
X376914070Y69589070D01*
X376899654Y69604976D01*
X376886866Y69622219D01*
X376875830Y69640632D01*
X376866651Y69660038D01*
X376859419Y69680250D01*
X376854203Y69701074D01*
X376851053Y69722309D01*
X376850000Y69743750D01*
X376850000Y70256250D01*
X376851053Y70277691D01*
X376854203Y70298926D01*
X376859419Y70319750D01*
X376866651Y70339962D01*
X376875830Y70359368D01*
X376886866Y70377781D01*
X376899654Y70395024D01*
X376914070Y70410930D01*
X376929976Y70425346D01*
X376947219Y70438134D01*
X376965632Y70449170D01*
X376985038Y70458349D01*
X377005250Y70465581D01*
X377026074Y70470797D01*
X377047309Y70473947D01*
X377068750Y70475000D01*
X377506250Y70475000D01*
X377527691Y70473947D01*
G37*
G04 #@! TD.AperFunction*
G04 #@! TA.AperFunction,SMDPad,CuDef*
G36*
X377527691Y72473947D02*
G01*
X377548926Y72470797D01*
X377569750Y72465581D01*
X377589962Y72458349D01*
X377609368Y72449170D01*
X377627781Y72438134D01*
X377645024Y72425346D01*
X377660930Y72410930D01*
X377675346Y72395024D01*
X377688134Y72377781D01*
X377699170Y72359368D01*
X377708349Y72339962D01*
X377715581Y72319750D01*
X377720797Y72298926D01*
X377723947Y72277691D01*
X377725000Y72256250D01*
X377725000Y71743750D01*
X377723947Y71722309D01*
X377720797Y71701074D01*
X377715581Y71680250D01*
X377708349Y71660038D01*
X377699170Y71640632D01*
X377688134Y71622219D01*
X377675346Y71604976D01*
X377660930Y71589070D01*
X377645024Y71574654D01*
X377627781Y71561866D01*
X377609368Y71550830D01*
X377589962Y71541651D01*
X377569750Y71534419D01*
X377548926Y71529203D01*
X377527691Y71526053D01*
X377506250Y71525000D01*
X377068750Y71525000D01*
X377047309Y71526053D01*
X377026074Y71529203D01*
X377005250Y71534419D01*
X376985038Y71541651D01*
X376965632Y71550830D01*
X376947219Y71561866D01*
X376929976Y71574654D01*
X376914070Y71589070D01*
X376899654Y71604976D01*
X376886866Y71622219D01*
X376875830Y71640632D01*
X376866651Y71660038D01*
X376859419Y71680250D01*
X376854203Y71701074D01*
X376851053Y71722309D01*
X376850000Y71743750D01*
X376850000Y72256250D01*
X376851053Y72277691D01*
X376854203Y72298926D01*
X376859419Y72319750D01*
X376866651Y72339962D01*
X376875830Y72359368D01*
X376886866Y72377781D01*
X376899654Y72395024D01*
X376914070Y72410930D01*
X376929976Y72425346D01*
X376947219Y72438134D01*
X376965632Y72449170D01*
X376985038Y72458349D01*
X377005250Y72465581D01*
X377026074Y72470797D01*
X377047309Y72473947D01*
X377068750Y72475000D01*
X377506250Y72475000D01*
X377527691Y72473947D01*
G37*
G04 #@! TD.AperFunction*
G04 #@! TA.AperFunction,SMDPad,CuDef*
G36*
X375952691Y72473947D02*
G01*
X375973926Y72470797D01*
X375994750Y72465581D01*
X376014962Y72458349D01*
X376034368Y72449170D01*
X376052781Y72438134D01*
X376070024Y72425346D01*
X376085930Y72410930D01*
X376100346Y72395024D01*
X376113134Y72377781D01*
X376124170Y72359368D01*
X376133349Y72339962D01*
X376140581Y72319750D01*
X376145797Y72298926D01*
X376148947Y72277691D01*
X376150000Y72256250D01*
X376150000Y71743750D01*
X376148947Y71722309D01*
X376145797Y71701074D01*
X376140581Y71680250D01*
X376133349Y71660038D01*
X376124170Y71640632D01*
X376113134Y71622219D01*
X376100346Y71604976D01*
X376085930Y71589070D01*
X376070024Y71574654D01*
X376052781Y71561866D01*
X376034368Y71550830D01*
X376014962Y71541651D01*
X375994750Y71534419D01*
X375973926Y71529203D01*
X375952691Y71526053D01*
X375931250Y71525000D01*
X375493750Y71525000D01*
X375472309Y71526053D01*
X375451074Y71529203D01*
X375430250Y71534419D01*
X375410038Y71541651D01*
X375390632Y71550830D01*
X375372219Y71561866D01*
X375354976Y71574654D01*
X375339070Y71589070D01*
X375324654Y71604976D01*
X375311866Y71622219D01*
X375300830Y71640632D01*
X375291651Y71660038D01*
X375284419Y71680250D01*
X375279203Y71701074D01*
X375276053Y71722309D01*
X375275000Y71743750D01*
X375275000Y72256250D01*
X375276053Y72277691D01*
X375279203Y72298926D01*
X375284419Y72319750D01*
X375291651Y72339962D01*
X375300830Y72359368D01*
X375311866Y72377781D01*
X375324654Y72395024D01*
X375339070Y72410930D01*
X375354976Y72425346D01*
X375372219Y72438134D01*
X375390632Y72449170D01*
X375410038Y72458349D01*
X375430250Y72465581D01*
X375451074Y72470797D01*
X375472309Y72473947D01*
X375493750Y72475000D01*
X375931250Y72475000D01*
X375952691Y72473947D01*
G37*
G04 #@! TD.AperFunction*
G04 #@! TA.AperFunction,SMDPad,CuDef*
G36*
X384480142Y68923826D02*
G01*
X384503803Y68920316D01*
X384527007Y68914504D01*
X384549529Y68906446D01*
X384571153Y68896218D01*
X384591670Y68883921D01*
X384610883Y68869671D01*
X384628607Y68853607D01*
X384644671Y68835883D01*
X384658921Y68816670D01*
X384671218Y68796153D01*
X384681446Y68774529D01*
X384689504Y68752007D01*
X384695316Y68728803D01*
X384698826Y68705142D01*
X384700000Y68681250D01*
X384700000Y68193750D01*
X384698826Y68169858D01*
X384695316Y68146197D01*
X384689504Y68122993D01*
X384681446Y68100471D01*
X384671218Y68078847D01*
X384658921Y68058330D01*
X384644671Y68039117D01*
X384628607Y68021393D01*
X384610883Y68005329D01*
X384591670Y67991079D01*
X384571153Y67978782D01*
X384549529Y67968554D01*
X384527007Y67960496D01*
X384503803Y67954684D01*
X384480142Y67951174D01*
X384456250Y67950000D01*
X383543750Y67950000D01*
X383519858Y67951174D01*
X383496197Y67954684D01*
X383472993Y67960496D01*
X383450471Y67968554D01*
X383428847Y67978782D01*
X383408330Y67991079D01*
X383389117Y68005329D01*
X383371393Y68021393D01*
X383355329Y68039117D01*
X383341079Y68058330D01*
X383328782Y68078847D01*
X383318554Y68100471D01*
X383310496Y68122993D01*
X383304684Y68146197D01*
X383301174Y68169858D01*
X383300000Y68193750D01*
X383300000Y68681250D01*
X383301174Y68705142D01*
X383304684Y68728803D01*
X383310496Y68752007D01*
X383318554Y68774529D01*
X383328782Y68796153D01*
X383341079Y68816670D01*
X383355329Y68835883D01*
X383371393Y68853607D01*
X383389117Y68869671D01*
X383408330Y68883921D01*
X383428847Y68896218D01*
X383450471Y68906446D01*
X383472993Y68914504D01*
X383496197Y68920316D01*
X383519858Y68923826D01*
X383543750Y68925000D01*
X384456250Y68925000D01*
X384480142Y68923826D01*
G37*
G04 #@! TD.AperFunction*
G04 #@! TA.AperFunction,SMDPad,CuDef*
G36*
X384480142Y67048826D02*
G01*
X384503803Y67045316D01*
X384527007Y67039504D01*
X384549529Y67031446D01*
X384571153Y67021218D01*
X384591670Y67008921D01*
X384610883Y66994671D01*
X384628607Y66978607D01*
X384644671Y66960883D01*
X384658921Y66941670D01*
X384671218Y66921153D01*
X384681446Y66899529D01*
X384689504Y66877007D01*
X384695316Y66853803D01*
X384698826Y66830142D01*
X384700000Y66806250D01*
X384700000Y66318750D01*
X384698826Y66294858D01*
X384695316Y66271197D01*
X384689504Y66247993D01*
X384681446Y66225471D01*
X384671218Y66203847D01*
X384658921Y66183330D01*
X384644671Y66164117D01*
X384628607Y66146393D01*
X384610883Y66130329D01*
X384591670Y66116079D01*
X384571153Y66103782D01*
X384549529Y66093554D01*
X384527007Y66085496D01*
X384503803Y66079684D01*
X384480142Y66076174D01*
X384456250Y66075000D01*
X383543750Y66075000D01*
X383519858Y66076174D01*
X383496197Y66079684D01*
X383472993Y66085496D01*
X383450471Y66093554D01*
X383428847Y66103782D01*
X383408330Y66116079D01*
X383389117Y66130329D01*
X383371393Y66146393D01*
X383355329Y66164117D01*
X383341079Y66183330D01*
X383328782Y66203847D01*
X383318554Y66225471D01*
X383310496Y66247993D01*
X383304684Y66271197D01*
X383301174Y66294858D01*
X383300000Y66318750D01*
X383300000Y66806250D01*
X383301174Y66830142D01*
X383304684Y66853803D01*
X383310496Y66877007D01*
X383318554Y66899529D01*
X383328782Y66921153D01*
X383341079Y66941670D01*
X383355329Y66960883D01*
X383371393Y66978607D01*
X383389117Y66994671D01*
X383408330Y67008921D01*
X383428847Y67021218D01*
X383450471Y67031446D01*
X383472993Y67039504D01*
X383496197Y67045316D01*
X383519858Y67048826D01*
X383543750Y67050000D01*
X384456250Y67050000D01*
X384480142Y67048826D01*
G37*
G04 #@! TD.AperFunction*
D15*
X381350000Y67400000D03*
X381350000Y69600000D03*
X379650000Y69600000D03*
X379650000Y67400000D03*
G04 #@! TA.AperFunction,SMDPad,CuDef*
D10*
G36*
X390575947Y69298804D02*
G01*
X390600060Y69295227D01*
X390623707Y69289304D01*
X390646659Y69281092D01*
X390668695Y69270669D01*
X390689604Y69258137D01*
X390709183Y69243616D01*
X390727245Y69227245D01*
X390743616Y69209183D01*
X390758137Y69189604D01*
X390770669Y69168695D01*
X390781092Y69146659D01*
X390789304Y69123707D01*
X390795227Y69100060D01*
X390798804Y69075947D01*
X390800000Y69051600D01*
X390800000Y65948400D01*
X390798804Y65924053D01*
X390795227Y65899940D01*
X390789304Y65876293D01*
X390781092Y65853341D01*
X390770669Y65831305D01*
X390758137Y65810396D01*
X390743616Y65790817D01*
X390727245Y65772755D01*
X390709183Y65756384D01*
X390689604Y65741863D01*
X390668695Y65729331D01*
X390646659Y65718908D01*
X390623707Y65710696D01*
X390600060Y65704773D01*
X390575947Y65701196D01*
X390551600Y65700000D01*
X387448400Y65700000D01*
X387424053Y65701196D01*
X387399940Y65704773D01*
X387376293Y65710696D01*
X387353341Y65718908D01*
X387331305Y65729331D01*
X387310396Y65741863D01*
X387290817Y65756384D01*
X387272755Y65772755D01*
X387256384Y65790817D01*
X387241863Y65810396D01*
X387229331Y65831305D01*
X387218908Y65853341D01*
X387210696Y65876293D01*
X387204773Y65899940D01*
X387201196Y65924053D01*
X387200000Y65948400D01*
X387200000Y69051600D01*
X387201196Y69075947D01*
X387204773Y69100060D01*
X387210696Y69123707D01*
X387218908Y69146659D01*
X387229331Y69168695D01*
X387241863Y69189604D01*
X387256384Y69209183D01*
X387272755Y69227245D01*
X387290817Y69243616D01*
X387310396Y69258137D01*
X387331305Y69270669D01*
X387353341Y69281092D01*
X387376293Y69289304D01*
X387399940Y69295227D01*
X387424053Y69298804D01*
X387448400Y69300000D01*
X390551600Y69300000D01*
X390575947Y69298804D01*
G37*
G04 #@! TD.AperFunction*
D16*
X388000000Y68500000D03*
X389000000Y68500000D03*
X390000000Y68500000D03*
X388000000Y67500000D03*
X389000000Y67500000D03*
X390000000Y67500000D03*
X388000000Y66500000D03*
X389000000Y66500000D03*
X390000000Y66500000D03*
G04 #@! TA.AperFunction,SMDPad,CuDef*
D10*
G36*
X386893626Y69374699D02*
G01*
X386899693Y69373799D01*
X386905643Y69372309D01*
X386911418Y69370242D01*
X386916962Y69367620D01*
X386922223Y69364467D01*
X386927150Y69360813D01*
X386931694Y69356694D01*
X386935813Y69352150D01*
X386939467Y69347223D01*
X386942620Y69341962D01*
X386945242Y69336418D01*
X386947309Y69330643D01*
X386948799Y69324693D01*
X386949699Y69318626D01*
X386950000Y69312500D01*
X386950000Y69187500D01*
X386949699Y69181374D01*
X386948799Y69175307D01*
X386947309Y69169357D01*
X386945242Y69163582D01*
X386942620Y69158038D01*
X386939467Y69152777D01*
X386935813Y69147850D01*
X386931694Y69143306D01*
X386927150Y69139187D01*
X386922223Y69135533D01*
X386916962Y69132380D01*
X386911418Y69129758D01*
X386905643Y69127691D01*
X386899693Y69126201D01*
X386893626Y69125301D01*
X386887500Y69125000D01*
X386212500Y69125000D01*
X386206374Y69125301D01*
X386200307Y69126201D01*
X386194357Y69127691D01*
X386188582Y69129758D01*
X386183038Y69132380D01*
X386177777Y69135533D01*
X386172850Y69139187D01*
X386168306Y69143306D01*
X386164187Y69147850D01*
X386160533Y69152777D01*
X386157380Y69158038D01*
X386154758Y69163582D01*
X386152691Y69169357D01*
X386151201Y69175307D01*
X386150301Y69181374D01*
X386150000Y69187500D01*
X386150000Y69312500D01*
X386150301Y69318626D01*
X386151201Y69324693D01*
X386152691Y69330643D01*
X386154758Y69336418D01*
X386157380Y69341962D01*
X386160533Y69347223D01*
X386164187Y69352150D01*
X386168306Y69356694D01*
X386172850Y69360813D01*
X386177777Y69364467D01*
X386183038Y69367620D01*
X386188582Y69370242D01*
X386194357Y69372309D01*
X386200307Y69373799D01*
X386206374Y69374699D01*
X386212500Y69375000D01*
X386887500Y69375000D01*
X386893626Y69374699D01*
G37*
G04 #@! TD.AperFunction*
G04 #@! TA.AperFunction,SMDPad,CuDef*
G36*
X386893626Y68874699D02*
G01*
X386899693Y68873799D01*
X386905643Y68872309D01*
X386911418Y68870242D01*
X386916962Y68867620D01*
X386922223Y68864467D01*
X386927150Y68860813D01*
X386931694Y68856694D01*
X386935813Y68852150D01*
X386939467Y68847223D01*
X386942620Y68841962D01*
X386945242Y68836418D01*
X386947309Y68830643D01*
X386948799Y68824693D01*
X386949699Y68818626D01*
X386950000Y68812500D01*
X386950000Y68687500D01*
X386949699Y68681374D01*
X386948799Y68675307D01*
X386947309Y68669357D01*
X386945242Y68663582D01*
X386942620Y68658038D01*
X386939467Y68652777D01*
X386935813Y68647850D01*
X386931694Y68643306D01*
X386927150Y68639187D01*
X386922223Y68635533D01*
X386916962Y68632380D01*
X386911418Y68629758D01*
X386905643Y68627691D01*
X386899693Y68626201D01*
X386893626Y68625301D01*
X386887500Y68625000D01*
X386212500Y68625000D01*
X386206374Y68625301D01*
X386200307Y68626201D01*
X386194357Y68627691D01*
X386188582Y68629758D01*
X386183038Y68632380D01*
X386177777Y68635533D01*
X386172850Y68639187D01*
X386168306Y68643306D01*
X386164187Y68647850D01*
X386160533Y68652777D01*
X386157380Y68658038D01*
X386154758Y68663582D01*
X386152691Y68669357D01*
X386151201Y68675307D01*
X386150301Y68681374D01*
X386150000Y68687500D01*
X386150000Y68812500D01*
X386150301Y68818626D01*
X386151201Y68824693D01*
X386152691Y68830643D01*
X386154758Y68836418D01*
X386157380Y68841962D01*
X386160533Y68847223D01*
X386164187Y68852150D01*
X386168306Y68856694D01*
X386172850Y68860813D01*
X386177777Y68864467D01*
X386183038Y68867620D01*
X386188582Y68870242D01*
X386194357Y68872309D01*
X386200307Y68873799D01*
X386206374Y68874699D01*
X386212500Y68875000D01*
X386887500Y68875000D01*
X386893626Y68874699D01*
G37*
G04 #@! TD.AperFunction*
G04 #@! TA.AperFunction,SMDPad,CuDef*
G36*
X386893626Y68374699D02*
G01*
X386899693Y68373799D01*
X386905643Y68372309D01*
X386911418Y68370242D01*
X386916962Y68367620D01*
X386922223Y68364467D01*
X386927150Y68360813D01*
X386931694Y68356694D01*
X386935813Y68352150D01*
X386939467Y68347223D01*
X386942620Y68341962D01*
X386945242Y68336418D01*
X386947309Y68330643D01*
X386948799Y68324693D01*
X386949699Y68318626D01*
X386950000Y68312500D01*
X386950000Y68187500D01*
X386949699Y68181374D01*
X386948799Y68175307D01*
X386947309Y68169357D01*
X386945242Y68163582D01*
X386942620Y68158038D01*
X386939467Y68152777D01*
X386935813Y68147850D01*
X386931694Y68143306D01*
X386927150Y68139187D01*
X386922223Y68135533D01*
X386916962Y68132380D01*
X386911418Y68129758D01*
X386905643Y68127691D01*
X386899693Y68126201D01*
X386893626Y68125301D01*
X386887500Y68125000D01*
X386212500Y68125000D01*
X386206374Y68125301D01*
X386200307Y68126201D01*
X386194357Y68127691D01*
X386188582Y68129758D01*
X386183038Y68132380D01*
X386177777Y68135533D01*
X386172850Y68139187D01*
X386168306Y68143306D01*
X386164187Y68147850D01*
X386160533Y68152777D01*
X386157380Y68158038D01*
X386154758Y68163582D01*
X386152691Y68169357D01*
X386151201Y68175307D01*
X386150301Y68181374D01*
X386150000Y68187500D01*
X386150000Y68312500D01*
X386150301Y68318626D01*
X386151201Y68324693D01*
X386152691Y68330643D01*
X386154758Y68336418D01*
X386157380Y68341962D01*
X386160533Y68347223D01*
X386164187Y68352150D01*
X386168306Y68356694D01*
X386172850Y68360813D01*
X386177777Y68364467D01*
X386183038Y68367620D01*
X386188582Y68370242D01*
X386194357Y68372309D01*
X386200307Y68373799D01*
X386206374Y68374699D01*
X386212500Y68375000D01*
X386887500Y68375000D01*
X386893626Y68374699D01*
G37*
G04 #@! TD.AperFunction*
G04 #@! TA.AperFunction,SMDPad,CuDef*
G36*
X386893626Y67874699D02*
G01*
X386899693Y67873799D01*
X386905643Y67872309D01*
X386911418Y67870242D01*
X386916962Y67867620D01*
X386922223Y67864467D01*
X386927150Y67860813D01*
X386931694Y67856694D01*
X386935813Y67852150D01*
X386939467Y67847223D01*
X386942620Y67841962D01*
X386945242Y67836418D01*
X386947309Y67830643D01*
X386948799Y67824693D01*
X386949699Y67818626D01*
X386950000Y67812500D01*
X386950000Y67687500D01*
X386949699Y67681374D01*
X386948799Y67675307D01*
X386947309Y67669357D01*
X386945242Y67663582D01*
X386942620Y67658038D01*
X386939467Y67652777D01*
X386935813Y67647850D01*
X386931694Y67643306D01*
X386927150Y67639187D01*
X386922223Y67635533D01*
X386916962Y67632380D01*
X386911418Y67629758D01*
X386905643Y67627691D01*
X386899693Y67626201D01*
X386893626Y67625301D01*
X386887500Y67625000D01*
X386212500Y67625000D01*
X386206374Y67625301D01*
X386200307Y67626201D01*
X386194357Y67627691D01*
X386188582Y67629758D01*
X386183038Y67632380D01*
X386177777Y67635533D01*
X386172850Y67639187D01*
X386168306Y67643306D01*
X386164187Y67647850D01*
X386160533Y67652777D01*
X386157380Y67658038D01*
X386154758Y67663582D01*
X386152691Y67669357D01*
X386151201Y67675307D01*
X386150301Y67681374D01*
X386150000Y67687500D01*
X386150000Y67812500D01*
X386150301Y67818626D01*
X386151201Y67824693D01*
X386152691Y67830643D01*
X386154758Y67836418D01*
X386157380Y67841962D01*
X386160533Y67847223D01*
X386164187Y67852150D01*
X386168306Y67856694D01*
X386172850Y67860813D01*
X386177777Y67864467D01*
X386183038Y67867620D01*
X386188582Y67870242D01*
X386194357Y67872309D01*
X386200307Y67873799D01*
X386206374Y67874699D01*
X386212500Y67875000D01*
X386887500Y67875000D01*
X386893626Y67874699D01*
G37*
G04 #@! TD.AperFunction*
G04 #@! TA.AperFunction,SMDPad,CuDef*
G36*
X386893626Y67374699D02*
G01*
X386899693Y67373799D01*
X386905643Y67372309D01*
X386911418Y67370242D01*
X386916962Y67367620D01*
X386922223Y67364467D01*
X386927150Y67360813D01*
X386931694Y67356694D01*
X386935813Y67352150D01*
X386939467Y67347223D01*
X386942620Y67341962D01*
X386945242Y67336418D01*
X386947309Y67330643D01*
X386948799Y67324693D01*
X386949699Y67318626D01*
X386950000Y67312500D01*
X386950000Y67187500D01*
X386949699Y67181374D01*
X386948799Y67175307D01*
X386947309Y67169357D01*
X386945242Y67163582D01*
X386942620Y67158038D01*
X386939467Y67152777D01*
X386935813Y67147850D01*
X386931694Y67143306D01*
X386927150Y67139187D01*
X386922223Y67135533D01*
X386916962Y67132380D01*
X386911418Y67129758D01*
X386905643Y67127691D01*
X386899693Y67126201D01*
X386893626Y67125301D01*
X386887500Y67125000D01*
X386212500Y67125000D01*
X386206374Y67125301D01*
X386200307Y67126201D01*
X386194357Y67127691D01*
X386188582Y67129758D01*
X386183038Y67132380D01*
X386177777Y67135533D01*
X386172850Y67139187D01*
X386168306Y67143306D01*
X386164187Y67147850D01*
X386160533Y67152777D01*
X386157380Y67158038D01*
X386154758Y67163582D01*
X386152691Y67169357D01*
X386151201Y67175307D01*
X386150301Y67181374D01*
X386150000Y67187500D01*
X386150000Y67312500D01*
X386150301Y67318626D01*
X386151201Y67324693D01*
X386152691Y67330643D01*
X386154758Y67336418D01*
X386157380Y67341962D01*
X386160533Y67347223D01*
X386164187Y67352150D01*
X386168306Y67356694D01*
X386172850Y67360813D01*
X386177777Y67364467D01*
X386183038Y67367620D01*
X386188582Y67370242D01*
X386194357Y67372309D01*
X386200307Y67373799D01*
X386206374Y67374699D01*
X386212500Y67375000D01*
X386887500Y67375000D01*
X386893626Y67374699D01*
G37*
G04 #@! TD.AperFunction*
G04 #@! TA.AperFunction,SMDPad,CuDef*
G36*
X386893626Y66874699D02*
G01*
X386899693Y66873799D01*
X386905643Y66872309D01*
X386911418Y66870242D01*
X386916962Y66867620D01*
X386922223Y66864467D01*
X386927150Y66860813D01*
X386931694Y66856694D01*
X386935813Y66852150D01*
X386939467Y66847223D01*
X386942620Y66841962D01*
X386945242Y66836418D01*
X386947309Y66830643D01*
X386948799Y66824693D01*
X386949699Y66818626D01*
X386950000Y66812500D01*
X386950000Y66687500D01*
X386949699Y66681374D01*
X386948799Y66675307D01*
X386947309Y66669357D01*
X386945242Y66663582D01*
X386942620Y66658038D01*
X386939467Y66652777D01*
X386935813Y66647850D01*
X386931694Y66643306D01*
X386927150Y66639187D01*
X386922223Y66635533D01*
X386916962Y66632380D01*
X386911418Y66629758D01*
X386905643Y66627691D01*
X386899693Y66626201D01*
X386893626Y66625301D01*
X386887500Y66625000D01*
X386212500Y66625000D01*
X386206374Y66625301D01*
X386200307Y66626201D01*
X386194357Y66627691D01*
X386188582Y66629758D01*
X386183038Y66632380D01*
X386177777Y66635533D01*
X386172850Y66639187D01*
X386168306Y66643306D01*
X386164187Y66647850D01*
X386160533Y66652777D01*
X386157380Y66658038D01*
X386154758Y66663582D01*
X386152691Y66669357D01*
X386151201Y66675307D01*
X386150301Y66681374D01*
X386150000Y66687500D01*
X386150000Y66812500D01*
X386150301Y66818626D01*
X386151201Y66824693D01*
X386152691Y66830643D01*
X386154758Y66836418D01*
X386157380Y66841962D01*
X386160533Y66847223D01*
X386164187Y66852150D01*
X386168306Y66856694D01*
X386172850Y66860813D01*
X386177777Y66864467D01*
X386183038Y66867620D01*
X386188582Y66870242D01*
X386194357Y66872309D01*
X386200307Y66873799D01*
X386206374Y66874699D01*
X386212500Y66875000D01*
X386887500Y66875000D01*
X386893626Y66874699D01*
G37*
G04 #@! TD.AperFunction*
G04 #@! TA.AperFunction,SMDPad,CuDef*
G36*
X386893626Y66374699D02*
G01*
X386899693Y66373799D01*
X386905643Y66372309D01*
X386911418Y66370242D01*
X386916962Y66367620D01*
X386922223Y66364467D01*
X386927150Y66360813D01*
X386931694Y66356694D01*
X386935813Y66352150D01*
X386939467Y66347223D01*
X386942620Y66341962D01*
X386945242Y66336418D01*
X386947309Y66330643D01*
X386948799Y66324693D01*
X386949699Y66318626D01*
X386950000Y66312500D01*
X386950000Y66187500D01*
X386949699Y66181374D01*
X386948799Y66175307D01*
X386947309Y66169357D01*
X386945242Y66163582D01*
X386942620Y66158038D01*
X386939467Y66152777D01*
X386935813Y66147850D01*
X386931694Y66143306D01*
X386927150Y66139187D01*
X386922223Y66135533D01*
X386916962Y66132380D01*
X386911418Y66129758D01*
X386905643Y66127691D01*
X386899693Y66126201D01*
X386893626Y66125301D01*
X386887500Y66125000D01*
X386212500Y66125000D01*
X386206374Y66125301D01*
X386200307Y66126201D01*
X386194357Y66127691D01*
X386188582Y66129758D01*
X386183038Y66132380D01*
X386177777Y66135533D01*
X386172850Y66139187D01*
X386168306Y66143306D01*
X386164187Y66147850D01*
X386160533Y66152777D01*
X386157380Y66158038D01*
X386154758Y66163582D01*
X386152691Y66169357D01*
X386151201Y66175307D01*
X386150301Y66181374D01*
X386150000Y66187500D01*
X386150000Y66312500D01*
X386150301Y66318626D01*
X386151201Y66324693D01*
X386152691Y66330643D01*
X386154758Y66336418D01*
X386157380Y66341962D01*
X386160533Y66347223D01*
X386164187Y66352150D01*
X386168306Y66356694D01*
X386172850Y66360813D01*
X386177777Y66364467D01*
X386183038Y66367620D01*
X386188582Y66370242D01*
X386194357Y66372309D01*
X386200307Y66373799D01*
X386206374Y66374699D01*
X386212500Y66375000D01*
X386887500Y66375000D01*
X386893626Y66374699D01*
G37*
G04 #@! TD.AperFunction*
G04 #@! TA.AperFunction,SMDPad,CuDef*
G36*
X386893626Y65874699D02*
G01*
X386899693Y65873799D01*
X386905643Y65872309D01*
X386911418Y65870242D01*
X386916962Y65867620D01*
X386922223Y65864467D01*
X386927150Y65860813D01*
X386931694Y65856694D01*
X386935813Y65852150D01*
X386939467Y65847223D01*
X386942620Y65841962D01*
X386945242Y65836418D01*
X386947309Y65830643D01*
X386948799Y65824693D01*
X386949699Y65818626D01*
X386950000Y65812500D01*
X386950000Y65687500D01*
X386949699Y65681374D01*
X386948799Y65675307D01*
X386947309Y65669357D01*
X386945242Y65663582D01*
X386942620Y65658038D01*
X386939467Y65652777D01*
X386935813Y65647850D01*
X386931694Y65643306D01*
X386927150Y65639187D01*
X386922223Y65635533D01*
X386916962Y65632380D01*
X386911418Y65629758D01*
X386905643Y65627691D01*
X386899693Y65626201D01*
X386893626Y65625301D01*
X386887500Y65625000D01*
X386212500Y65625000D01*
X386206374Y65625301D01*
X386200307Y65626201D01*
X386194357Y65627691D01*
X386188582Y65629758D01*
X386183038Y65632380D01*
X386177777Y65635533D01*
X386172850Y65639187D01*
X386168306Y65643306D01*
X386164187Y65647850D01*
X386160533Y65652777D01*
X386157380Y65658038D01*
X386154758Y65663582D01*
X386152691Y65669357D01*
X386151201Y65675307D01*
X386150301Y65681374D01*
X386150000Y65687500D01*
X386150000Y65812500D01*
X386150301Y65818626D01*
X386151201Y65824693D01*
X386152691Y65830643D01*
X386154758Y65836418D01*
X386157380Y65841962D01*
X386160533Y65847223D01*
X386164187Y65852150D01*
X386168306Y65856694D01*
X386172850Y65860813D01*
X386177777Y65864467D01*
X386183038Y65867620D01*
X386188582Y65870242D01*
X386194357Y65872309D01*
X386200307Y65873799D01*
X386206374Y65874699D01*
X386212500Y65875000D01*
X386887500Y65875000D01*
X386893626Y65874699D01*
G37*
G04 #@! TD.AperFunction*
G04 #@! TA.AperFunction,SMDPad,CuDef*
G36*
X387318626Y65449699D02*
G01*
X387324693Y65448799D01*
X387330643Y65447309D01*
X387336418Y65445242D01*
X387341962Y65442620D01*
X387347223Y65439467D01*
X387352150Y65435813D01*
X387356694Y65431694D01*
X387360813Y65427150D01*
X387364467Y65422223D01*
X387367620Y65416962D01*
X387370242Y65411418D01*
X387372309Y65405643D01*
X387373799Y65399693D01*
X387374699Y65393626D01*
X387375000Y65387500D01*
X387375000Y64712500D01*
X387374699Y64706374D01*
X387373799Y64700307D01*
X387372309Y64694357D01*
X387370242Y64688582D01*
X387367620Y64683038D01*
X387364467Y64677777D01*
X387360813Y64672850D01*
X387356694Y64668306D01*
X387352150Y64664187D01*
X387347223Y64660533D01*
X387341962Y64657380D01*
X387336418Y64654758D01*
X387330643Y64652691D01*
X387324693Y64651201D01*
X387318626Y64650301D01*
X387312500Y64650000D01*
X387187500Y64650000D01*
X387181374Y64650301D01*
X387175307Y64651201D01*
X387169357Y64652691D01*
X387163582Y64654758D01*
X387158038Y64657380D01*
X387152777Y64660533D01*
X387147850Y64664187D01*
X387143306Y64668306D01*
X387139187Y64672850D01*
X387135533Y64677777D01*
X387132380Y64683038D01*
X387129758Y64688582D01*
X387127691Y64694357D01*
X387126201Y64700307D01*
X387125301Y64706374D01*
X387125000Y64712500D01*
X387125000Y65387500D01*
X387125301Y65393626D01*
X387126201Y65399693D01*
X387127691Y65405643D01*
X387129758Y65411418D01*
X387132380Y65416962D01*
X387135533Y65422223D01*
X387139187Y65427150D01*
X387143306Y65431694D01*
X387147850Y65435813D01*
X387152777Y65439467D01*
X387158038Y65442620D01*
X387163582Y65445242D01*
X387169357Y65447309D01*
X387175307Y65448799D01*
X387181374Y65449699D01*
X387187500Y65450000D01*
X387312500Y65450000D01*
X387318626Y65449699D01*
G37*
G04 #@! TD.AperFunction*
G04 #@! TA.AperFunction,SMDPad,CuDef*
G36*
X387818626Y65449699D02*
G01*
X387824693Y65448799D01*
X387830643Y65447309D01*
X387836418Y65445242D01*
X387841962Y65442620D01*
X387847223Y65439467D01*
X387852150Y65435813D01*
X387856694Y65431694D01*
X387860813Y65427150D01*
X387864467Y65422223D01*
X387867620Y65416962D01*
X387870242Y65411418D01*
X387872309Y65405643D01*
X387873799Y65399693D01*
X387874699Y65393626D01*
X387875000Y65387500D01*
X387875000Y64712500D01*
X387874699Y64706374D01*
X387873799Y64700307D01*
X387872309Y64694357D01*
X387870242Y64688582D01*
X387867620Y64683038D01*
X387864467Y64677777D01*
X387860813Y64672850D01*
X387856694Y64668306D01*
X387852150Y64664187D01*
X387847223Y64660533D01*
X387841962Y64657380D01*
X387836418Y64654758D01*
X387830643Y64652691D01*
X387824693Y64651201D01*
X387818626Y64650301D01*
X387812500Y64650000D01*
X387687500Y64650000D01*
X387681374Y64650301D01*
X387675307Y64651201D01*
X387669357Y64652691D01*
X387663582Y64654758D01*
X387658038Y64657380D01*
X387652777Y64660533D01*
X387647850Y64664187D01*
X387643306Y64668306D01*
X387639187Y64672850D01*
X387635533Y64677777D01*
X387632380Y64683038D01*
X387629758Y64688582D01*
X387627691Y64694357D01*
X387626201Y64700307D01*
X387625301Y64706374D01*
X387625000Y64712500D01*
X387625000Y65387500D01*
X387625301Y65393626D01*
X387626201Y65399693D01*
X387627691Y65405643D01*
X387629758Y65411418D01*
X387632380Y65416962D01*
X387635533Y65422223D01*
X387639187Y65427150D01*
X387643306Y65431694D01*
X387647850Y65435813D01*
X387652777Y65439467D01*
X387658038Y65442620D01*
X387663582Y65445242D01*
X387669357Y65447309D01*
X387675307Y65448799D01*
X387681374Y65449699D01*
X387687500Y65450000D01*
X387812500Y65450000D01*
X387818626Y65449699D01*
G37*
G04 #@! TD.AperFunction*
G04 #@! TA.AperFunction,SMDPad,CuDef*
G36*
X388318626Y65449699D02*
G01*
X388324693Y65448799D01*
X388330643Y65447309D01*
X388336418Y65445242D01*
X388341962Y65442620D01*
X388347223Y65439467D01*
X388352150Y65435813D01*
X388356694Y65431694D01*
X388360813Y65427150D01*
X388364467Y65422223D01*
X388367620Y65416962D01*
X388370242Y65411418D01*
X388372309Y65405643D01*
X388373799Y65399693D01*
X388374699Y65393626D01*
X388375000Y65387500D01*
X388375000Y64712500D01*
X388374699Y64706374D01*
X388373799Y64700307D01*
X388372309Y64694357D01*
X388370242Y64688582D01*
X388367620Y64683038D01*
X388364467Y64677777D01*
X388360813Y64672850D01*
X388356694Y64668306D01*
X388352150Y64664187D01*
X388347223Y64660533D01*
X388341962Y64657380D01*
X388336418Y64654758D01*
X388330643Y64652691D01*
X388324693Y64651201D01*
X388318626Y64650301D01*
X388312500Y64650000D01*
X388187500Y64650000D01*
X388181374Y64650301D01*
X388175307Y64651201D01*
X388169357Y64652691D01*
X388163582Y64654758D01*
X388158038Y64657380D01*
X388152777Y64660533D01*
X388147850Y64664187D01*
X388143306Y64668306D01*
X388139187Y64672850D01*
X388135533Y64677777D01*
X388132380Y64683038D01*
X388129758Y64688582D01*
X388127691Y64694357D01*
X388126201Y64700307D01*
X388125301Y64706374D01*
X388125000Y64712500D01*
X388125000Y65387500D01*
X388125301Y65393626D01*
X388126201Y65399693D01*
X388127691Y65405643D01*
X388129758Y65411418D01*
X388132380Y65416962D01*
X388135533Y65422223D01*
X388139187Y65427150D01*
X388143306Y65431694D01*
X388147850Y65435813D01*
X388152777Y65439467D01*
X388158038Y65442620D01*
X388163582Y65445242D01*
X388169357Y65447309D01*
X388175307Y65448799D01*
X388181374Y65449699D01*
X388187500Y65450000D01*
X388312500Y65450000D01*
X388318626Y65449699D01*
G37*
G04 #@! TD.AperFunction*
G04 #@! TA.AperFunction,SMDPad,CuDef*
G36*
X388818626Y65449699D02*
G01*
X388824693Y65448799D01*
X388830643Y65447309D01*
X388836418Y65445242D01*
X388841962Y65442620D01*
X388847223Y65439467D01*
X388852150Y65435813D01*
X388856694Y65431694D01*
X388860813Y65427150D01*
X388864467Y65422223D01*
X388867620Y65416962D01*
X388870242Y65411418D01*
X388872309Y65405643D01*
X388873799Y65399693D01*
X388874699Y65393626D01*
X388875000Y65387500D01*
X388875000Y64712500D01*
X388874699Y64706374D01*
X388873799Y64700307D01*
X388872309Y64694357D01*
X388870242Y64688582D01*
X388867620Y64683038D01*
X388864467Y64677777D01*
X388860813Y64672850D01*
X388856694Y64668306D01*
X388852150Y64664187D01*
X388847223Y64660533D01*
X388841962Y64657380D01*
X388836418Y64654758D01*
X388830643Y64652691D01*
X388824693Y64651201D01*
X388818626Y64650301D01*
X388812500Y64650000D01*
X388687500Y64650000D01*
X388681374Y64650301D01*
X388675307Y64651201D01*
X388669357Y64652691D01*
X388663582Y64654758D01*
X388658038Y64657380D01*
X388652777Y64660533D01*
X388647850Y64664187D01*
X388643306Y64668306D01*
X388639187Y64672850D01*
X388635533Y64677777D01*
X388632380Y64683038D01*
X388629758Y64688582D01*
X388627691Y64694357D01*
X388626201Y64700307D01*
X388625301Y64706374D01*
X388625000Y64712500D01*
X388625000Y65387500D01*
X388625301Y65393626D01*
X388626201Y65399693D01*
X388627691Y65405643D01*
X388629758Y65411418D01*
X388632380Y65416962D01*
X388635533Y65422223D01*
X388639187Y65427150D01*
X388643306Y65431694D01*
X388647850Y65435813D01*
X388652777Y65439467D01*
X388658038Y65442620D01*
X388663582Y65445242D01*
X388669357Y65447309D01*
X388675307Y65448799D01*
X388681374Y65449699D01*
X388687500Y65450000D01*
X388812500Y65450000D01*
X388818626Y65449699D01*
G37*
G04 #@! TD.AperFunction*
G04 #@! TA.AperFunction,SMDPad,CuDef*
G36*
X389318626Y65449699D02*
G01*
X389324693Y65448799D01*
X389330643Y65447309D01*
X389336418Y65445242D01*
X389341962Y65442620D01*
X389347223Y65439467D01*
X389352150Y65435813D01*
X389356694Y65431694D01*
X389360813Y65427150D01*
X389364467Y65422223D01*
X389367620Y65416962D01*
X389370242Y65411418D01*
X389372309Y65405643D01*
X389373799Y65399693D01*
X389374699Y65393626D01*
X389375000Y65387500D01*
X389375000Y64712500D01*
X389374699Y64706374D01*
X389373799Y64700307D01*
X389372309Y64694357D01*
X389370242Y64688582D01*
X389367620Y64683038D01*
X389364467Y64677777D01*
X389360813Y64672850D01*
X389356694Y64668306D01*
X389352150Y64664187D01*
X389347223Y64660533D01*
X389341962Y64657380D01*
X389336418Y64654758D01*
X389330643Y64652691D01*
X389324693Y64651201D01*
X389318626Y64650301D01*
X389312500Y64650000D01*
X389187500Y64650000D01*
X389181374Y64650301D01*
X389175307Y64651201D01*
X389169357Y64652691D01*
X389163582Y64654758D01*
X389158038Y64657380D01*
X389152777Y64660533D01*
X389147850Y64664187D01*
X389143306Y64668306D01*
X389139187Y64672850D01*
X389135533Y64677777D01*
X389132380Y64683038D01*
X389129758Y64688582D01*
X389127691Y64694357D01*
X389126201Y64700307D01*
X389125301Y64706374D01*
X389125000Y64712500D01*
X389125000Y65387500D01*
X389125301Y65393626D01*
X389126201Y65399693D01*
X389127691Y65405643D01*
X389129758Y65411418D01*
X389132380Y65416962D01*
X389135533Y65422223D01*
X389139187Y65427150D01*
X389143306Y65431694D01*
X389147850Y65435813D01*
X389152777Y65439467D01*
X389158038Y65442620D01*
X389163582Y65445242D01*
X389169357Y65447309D01*
X389175307Y65448799D01*
X389181374Y65449699D01*
X389187500Y65450000D01*
X389312500Y65450000D01*
X389318626Y65449699D01*
G37*
G04 #@! TD.AperFunction*
G04 #@! TA.AperFunction,SMDPad,CuDef*
G36*
X389818626Y65449699D02*
G01*
X389824693Y65448799D01*
X389830643Y65447309D01*
X389836418Y65445242D01*
X389841962Y65442620D01*
X389847223Y65439467D01*
X389852150Y65435813D01*
X389856694Y65431694D01*
X389860813Y65427150D01*
X389864467Y65422223D01*
X389867620Y65416962D01*
X389870242Y65411418D01*
X389872309Y65405643D01*
X389873799Y65399693D01*
X389874699Y65393626D01*
X389875000Y65387500D01*
X389875000Y64712500D01*
X389874699Y64706374D01*
X389873799Y64700307D01*
X389872309Y64694357D01*
X389870242Y64688582D01*
X389867620Y64683038D01*
X389864467Y64677777D01*
X389860813Y64672850D01*
X389856694Y64668306D01*
X389852150Y64664187D01*
X389847223Y64660533D01*
X389841962Y64657380D01*
X389836418Y64654758D01*
X389830643Y64652691D01*
X389824693Y64651201D01*
X389818626Y64650301D01*
X389812500Y64650000D01*
X389687500Y64650000D01*
X389681374Y64650301D01*
X389675307Y64651201D01*
X389669357Y64652691D01*
X389663582Y64654758D01*
X389658038Y64657380D01*
X389652777Y64660533D01*
X389647850Y64664187D01*
X389643306Y64668306D01*
X389639187Y64672850D01*
X389635533Y64677777D01*
X389632380Y64683038D01*
X389629758Y64688582D01*
X389627691Y64694357D01*
X389626201Y64700307D01*
X389625301Y64706374D01*
X389625000Y64712500D01*
X389625000Y65387500D01*
X389625301Y65393626D01*
X389626201Y65399693D01*
X389627691Y65405643D01*
X389629758Y65411418D01*
X389632380Y65416962D01*
X389635533Y65422223D01*
X389639187Y65427150D01*
X389643306Y65431694D01*
X389647850Y65435813D01*
X389652777Y65439467D01*
X389658038Y65442620D01*
X389663582Y65445242D01*
X389669357Y65447309D01*
X389675307Y65448799D01*
X389681374Y65449699D01*
X389687500Y65450000D01*
X389812500Y65450000D01*
X389818626Y65449699D01*
G37*
G04 #@! TD.AperFunction*
G04 #@! TA.AperFunction,SMDPad,CuDef*
G36*
X390318626Y65449699D02*
G01*
X390324693Y65448799D01*
X390330643Y65447309D01*
X390336418Y65445242D01*
X390341962Y65442620D01*
X390347223Y65439467D01*
X390352150Y65435813D01*
X390356694Y65431694D01*
X390360813Y65427150D01*
X390364467Y65422223D01*
X390367620Y65416962D01*
X390370242Y65411418D01*
X390372309Y65405643D01*
X390373799Y65399693D01*
X390374699Y65393626D01*
X390375000Y65387500D01*
X390375000Y64712500D01*
X390374699Y64706374D01*
X390373799Y64700307D01*
X390372309Y64694357D01*
X390370242Y64688582D01*
X390367620Y64683038D01*
X390364467Y64677777D01*
X390360813Y64672850D01*
X390356694Y64668306D01*
X390352150Y64664187D01*
X390347223Y64660533D01*
X390341962Y64657380D01*
X390336418Y64654758D01*
X390330643Y64652691D01*
X390324693Y64651201D01*
X390318626Y64650301D01*
X390312500Y64650000D01*
X390187500Y64650000D01*
X390181374Y64650301D01*
X390175307Y64651201D01*
X390169357Y64652691D01*
X390163582Y64654758D01*
X390158038Y64657380D01*
X390152777Y64660533D01*
X390147850Y64664187D01*
X390143306Y64668306D01*
X390139187Y64672850D01*
X390135533Y64677777D01*
X390132380Y64683038D01*
X390129758Y64688582D01*
X390127691Y64694357D01*
X390126201Y64700307D01*
X390125301Y64706374D01*
X390125000Y64712500D01*
X390125000Y65387500D01*
X390125301Y65393626D01*
X390126201Y65399693D01*
X390127691Y65405643D01*
X390129758Y65411418D01*
X390132380Y65416962D01*
X390135533Y65422223D01*
X390139187Y65427150D01*
X390143306Y65431694D01*
X390147850Y65435813D01*
X390152777Y65439467D01*
X390158038Y65442620D01*
X390163582Y65445242D01*
X390169357Y65447309D01*
X390175307Y65448799D01*
X390181374Y65449699D01*
X390187500Y65450000D01*
X390312500Y65450000D01*
X390318626Y65449699D01*
G37*
G04 #@! TD.AperFunction*
G04 #@! TA.AperFunction,SMDPad,CuDef*
G36*
X390818626Y65449699D02*
G01*
X390824693Y65448799D01*
X390830643Y65447309D01*
X390836418Y65445242D01*
X390841962Y65442620D01*
X390847223Y65439467D01*
X390852150Y65435813D01*
X390856694Y65431694D01*
X390860813Y65427150D01*
X390864467Y65422223D01*
X390867620Y65416962D01*
X390870242Y65411418D01*
X390872309Y65405643D01*
X390873799Y65399693D01*
X390874699Y65393626D01*
X390875000Y65387500D01*
X390875000Y64712500D01*
X390874699Y64706374D01*
X390873799Y64700307D01*
X390872309Y64694357D01*
X390870242Y64688582D01*
X390867620Y64683038D01*
X390864467Y64677777D01*
X390860813Y64672850D01*
X390856694Y64668306D01*
X390852150Y64664187D01*
X390847223Y64660533D01*
X390841962Y64657380D01*
X390836418Y64654758D01*
X390830643Y64652691D01*
X390824693Y64651201D01*
X390818626Y64650301D01*
X390812500Y64650000D01*
X390687500Y64650000D01*
X390681374Y64650301D01*
X390675307Y64651201D01*
X390669357Y64652691D01*
X390663582Y64654758D01*
X390658038Y64657380D01*
X390652777Y64660533D01*
X390647850Y64664187D01*
X390643306Y64668306D01*
X390639187Y64672850D01*
X390635533Y64677777D01*
X390632380Y64683038D01*
X390629758Y64688582D01*
X390627691Y64694357D01*
X390626201Y64700307D01*
X390625301Y64706374D01*
X390625000Y64712500D01*
X390625000Y65387500D01*
X390625301Y65393626D01*
X390626201Y65399693D01*
X390627691Y65405643D01*
X390629758Y65411418D01*
X390632380Y65416962D01*
X390635533Y65422223D01*
X390639187Y65427150D01*
X390643306Y65431694D01*
X390647850Y65435813D01*
X390652777Y65439467D01*
X390658038Y65442620D01*
X390663582Y65445242D01*
X390669357Y65447309D01*
X390675307Y65448799D01*
X390681374Y65449699D01*
X390687500Y65450000D01*
X390812500Y65450000D01*
X390818626Y65449699D01*
G37*
G04 #@! TD.AperFunction*
G04 #@! TA.AperFunction,SMDPad,CuDef*
G36*
X391793626Y65874699D02*
G01*
X391799693Y65873799D01*
X391805643Y65872309D01*
X391811418Y65870242D01*
X391816962Y65867620D01*
X391822223Y65864467D01*
X391827150Y65860813D01*
X391831694Y65856694D01*
X391835813Y65852150D01*
X391839467Y65847223D01*
X391842620Y65841962D01*
X391845242Y65836418D01*
X391847309Y65830643D01*
X391848799Y65824693D01*
X391849699Y65818626D01*
X391850000Y65812500D01*
X391850000Y65687500D01*
X391849699Y65681374D01*
X391848799Y65675307D01*
X391847309Y65669357D01*
X391845242Y65663582D01*
X391842620Y65658038D01*
X391839467Y65652777D01*
X391835813Y65647850D01*
X391831694Y65643306D01*
X391827150Y65639187D01*
X391822223Y65635533D01*
X391816962Y65632380D01*
X391811418Y65629758D01*
X391805643Y65627691D01*
X391799693Y65626201D01*
X391793626Y65625301D01*
X391787500Y65625000D01*
X391112500Y65625000D01*
X391106374Y65625301D01*
X391100307Y65626201D01*
X391094357Y65627691D01*
X391088582Y65629758D01*
X391083038Y65632380D01*
X391077777Y65635533D01*
X391072850Y65639187D01*
X391068306Y65643306D01*
X391064187Y65647850D01*
X391060533Y65652777D01*
X391057380Y65658038D01*
X391054758Y65663582D01*
X391052691Y65669357D01*
X391051201Y65675307D01*
X391050301Y65681374D01*
X391050000Y65687500D01*
X391050000Y65812500D01*
X391050301Y65818626D01*
X391051201Y65824693D01*
X391052691Y65830643D01*
X391054758Y65836418D01*
X391057380Y65841962D01*
X391060533Y65847223D01*
X391064187Y65852150D01*
X391068306Y65856694D01*
X391072850Y65860813D01*
X391077777Y65864467D01*
X391083038Y65867620D01*
X391088582Y65870242D01*
X391094357Y65872309D01*
X391100307Y65873799D01*
X391106374Y65874699D01*
X391112500Y65875000D01*
X391787500Y65875000D01*
X391793626Y65874699D01*
G37*
G04 #@! TD.AperFunction*
G04 #@! TA.AperFunction,SMDPad,CuDef*
G36*
X391793626Y66374699D02*
G01*
X391799693Y66373799D01*
X391805643Y66372309D01*
X391811418Y66370242D01*
X391816962Y66367620D01*
X391822223Y66364467D01*
X391827150Y66360813D01*
X391831694Y66356694D01*
X391835813Y66352150D01*
X391839467Y66347223D01*
X391842620Y66341962D01*
X391845242Y66336418D01*
X391847309Y66330643D01*
X391848799Y66324693D01*
X391849699Y66318626D01*
X391850000Y66312500D01*
X391850000Y66187500D01*
X391849699Y66181374D01*
X391848799Y66175307D01*
X391847309Y66169357D01*
X391845242Y66163582D01*
X391842620Y66158038D01*
X391839467Y66152777D01*
X391835813Y66147850D01*
X391831694Y66143306D01*
X391827150Y66139187D01*
X391822223Y66135533D01*
X391816962Y66132380D01*
X391811418Y66129758D01*
X391805643Y66127691D01*
X391799693Y66126201D01*
X391793626Y66125301D01*
X391787500Y66125000D01*
X391112500Y66125000D01*
X391106374Y66125301D01*
X391100307Y66126201D01*
X391094357Y66127691D01*
X391088582Y66129758D01*
X391083038Y66132380D01*
X391077777Y66135533D01*
X391072850Y66139187D01*
X391068306Y66143306D01*
X391064187Y66147850D01*
X391060533Y66152777D01*
X391057380Y66158038D01*
X391054758Y66163582D01*
X391052691Y66169357D01*
X391051201Y66175307D01*
X391050301Y66181374D01*
X391050000Y66187500D01*
X391050000Y66312500D01*
X391050301Y66318626D01*
X391051201Y66324693D01*
X391052691Y66330643D01*
X391054758Y66336418D01*
X391057380Y66341962D01*
X391060533Y66347223D01*
X391064187Y66352150D01*
X391068306Y66356694D01*
X391072850Y66360813D01*
X391077777Y66364467D01*
X391083038Y66367620D01*
X391088582Y66370242D01*
X391094357Y66372309D01*
X391100307Y66373799D01*
X391106374Y66374699D01*
X391112500Y66375000D01*
X391787500Y66375000D01*
X391793626Y66374699D01*
G37*
G04 #@! TD.AperFunction*
G04 #@! TA.AperFunction,SMDPad,CuDef*
G36*
X391793626Y66874699D02*
G01*
X391799693Y66873799D01*
X391805643Y66872309D01*
X391811418Y66870242D01*
X391816962Y66867620D01*
X391822223Y66864467D01*
X391827150Y66860813D01*
X391831694Y66856694D01*
X391835813Y66852150D01*
X391839467Y66847223D01*
X391842620Y66841962D01*
X391845242Y66836418D01*
X391847309Y66830643D01*
X391848799Y66824693D01*
X391849699Y66818626D01*
X391850000Y66812500D01*
X391850000Y66687500D01*
X391849699Y66681374D01*
X391848799Y66675307D01*
X391847309Y66669357D01*
X391845242Y66663582D01*
X391842620Y66658038D01*
X391839467Y66652777D01*
X391835813Y66647850D01*
X391831694Y66643306D01*
X391827150Y66639187D01*
X391822223Y66635533D01*
X391816962Y66632380D01*
X391811418Y66629758D01*
X391805643Y66627691D01*
X391799693Y66626201D01*
X391793626Y66625301D01*
X391787500Y66625000D01*
X391112500Y66625000D01*
X391106374Y66625301D01*
X391100307Y66626201D01*
X391094357Y66627691D01*
X391088582Y66629758D01*
X391083038Y66632380D01*
X391077777Y66635533D01*
X391072850Y66639187D01*
X391068306Y66643306D01*
X391064187Y66647850D01*
X391060533Y66652777D01*
X391057380Y66658038D01*
X391054758Y66663582D01*
X391052691Y66669357D01*
X391051201Y66675307D01*
X391050301Y66681374D01*
X391050000Y66687500D01*
X391050000Y66812500D01*
X391050301Y66818626D01*
X391051201Y66824693D01*
X391052691Y66830643D01*
X391054758Y66836418D01*
X391057380Y66841962D01*
X391060533Y66847223D01*
X391064187Y66852150D01*
X391068306Y66856694D01*
X391072850Y66860813D01*
X391077777Y66864467D01*
X391083038Y66867620D01*
X391088582Y66870242D01*
X391094357Y66872309D01*
X391100307Y66873799D01*
X391106374Y66874699D01*
X391112500Y66875000D01*
X391787500Y66875000D01*
X391793626Y66874699D01*
G37*
G04 #@! TD.AperFunction*
G04 #@! TA.AperFunction,SMDPad,CuDef*
G36*
X391793626Y67374699D02*
G01*
X391799693Y67373799D01*
X391805643Y67372309D01*
X391811418Y67370242D01*
X391816962Y67367620D01*
X391822223Y67364467D01*
X391827150Y67360813D01*
X391831694Y67356694D01*
X391835813Y67352150D01*
X391839467Y67347223D01*
X391842620Y67341962D01*
X391845242Y67336418D01*
X391847309Y67330643D01*
X391848799Y67324693D01*
X391849699Y67318626D01*
X391850000Y67312500D01*
X391850000Y67187500D01*
X391849699Y67181374D01*
X391848799Y67175307D01*
X391847309Y67169357D01*
X391845242Y67163582D01*
X391842620Y67158038D01*
X391839467Y67152777D01*
X391835813Y67147850D01*
X391831694Y67143306D01*
X391827150Y67139187D01*
X391822223Y67135533D01*
X391816962Y67132380D01*
X391811418Y67129758D01*
X391805643Y67127691D01*
X391799693Y67126201D01*
X391793626Y67125301D01*
X391787500Y67125000D01*
X391112500Y67125000D01*
X391106374Y67125301D01*
X391100307Y67126201D01*
X391094357Y67127691D01*
X391088582Y67129758D01*
X391083038Y67132380D01*
X391077777Y67135533D01*
X391072850Y67139187D01*
X391068306Y67143306D01*
X391064187Y67147850D01*
X391060533Y67152777D01*
X391057380Y67158038D01*
X391054758Y67163582D01*
X391052691Y67169357D01*
X391051201Y67175307D01*
X391050301Y67181374D01*
X391050000Y67187500D01*
X391050000Y67312500D01*
X391050301Y67318626D01*
X391051201Y67324693D01*
X391052691Y67330643D01*
X391054758Y67336418D01*
X391057380Y67341962D01*
X391060533Y67347223D01*
X391064187Y67352150D01*
X391068306Y67356694D01*
X391072850Y67360813D01*
X391077777Y67364467D01*
X391083038Y67367620D01*
X391088582Y67370242D01*
X391094357Y67372309D01*
X391100307Y67373799D01*
X391106374Y67374699D01*
X391112500Y67375000D01*
X391787500Y67375000D01*
X391793626Y67374699D01*
G37*
G04 #@! TD.AperFunction*
G04 #@! TA.AperFunction,SMDPad,CuDef*
G36*
X391793626Y67874699D02*
G01*
X391799693Y67873799D01*
X391805643Y67872309D01*
X391811418Y67870242D01*
X391816962Y67867620D01*
X391822223Y67864467D01*
X391827150Y67860813D01*
X391831694Y67856694D01*
X391835813Y67852150D01*
X391839467Y67847223D01*
X391842620Y67841962D01*
X391845242Y67836418D01*
X391847309Y67830643D01*
X391848799Y67824693D01*
X391849699Y67818626D01*
X391850000Y67812500D01*
X391850000Y67687500D01*
X391849699Y67681374D01*
X391848799Y67675307D01*
X391847309Y67669357D01*
X391845242Y67663582D01*
X391842620Y67658038D01*
X391839467Y67652777D01*
X391835813Y67647850D01*
X391831694Y67643306D01*
X391827150Y67639187D01*
X391822223Y67635533D01*
X391816962Y67632380D01*
X391811418Y67629758D01*
X391805643Y67627691D01*
X391799693Y67626201D01*
X391793626Y67625301D01*
X391787500Y67625000D01*
X391112500Y67625000D01*
X391106374Y67625301D01*
X391100307Y67626201D01*
X391094357Y67627691D01*
X391088582Y67629758D01*
X391083038Y67632380D01*
X391077777Y67635533D01*
X391072850Y67639187D01*
X391068306Y67643306D01*
X391064187Y67647850D01*
X391060533Y67652777D01*
X391057380Y67658038D01*
X391054758Y67663582D01*
X391052691Y67669357D01*
X391051201Y67675307D01*
X391050301Y67681374D01*
X391050000Y67687500D01*
X391050000Y67812500D01*
X391050301Y67818626D01*
X391051201Y67824693D01*
X391052691Y67830643D01*
X391054758Y67836418D01*
X391057380Y67841962D01*
X391060533Y67847223D01*
X391064187Y67852150D01*
X391068306Y67856694D01*
X391072850Y67860813D01*
X391077777Y67864467D01*
X391083038Y67867620D01*
X391088582Y67870242D01*
X391094357Y67872309D01*
X391100307Y67873799D01*
X391106374Y67874699D01*
X391112500Y67875000D01*
X391787500Y67875000D01*
X391793626Y67874699D01*
G37*
G04 #@! TD.AperFunction*
G04 #@! TA.AperFunction,SMDPad,CuDef*
G36*
X391793626Y68374699D02*
G01*
X391799693Y68373799D01*
X391805643Y68372309D01*
X391811418Y68370242D01*
X391816962Y68367620D01*
X391822223Y68364467D01*
X391827150Y68360813D01*
X391831694Y68356694D01*
X391835813Y68352150D01*
X391839467Y68347223D01*
X391842620Y68341962D01*
X391845242Y68336418D01*
X391847309Y68330643D01*
X391848799Y68324693D01*
X391849699Y68318626D01*
X391850000Y68312500D01*
X391850000Y68187500D01*
X391849699Y68181374D01*
X391848799Y68175307D01*
X391847309Y68169357D01*
X391845242Y68163582D01*
X391842620Y68158038D01*
X391839467Y68152777D01*
X391835813Y68147850D01*
X391831694Y68143306D01*
X391827150Y68139187D01*
X391822223Y68135533D01*
X391816962Y68132380D01*
X391811418Y68129758D01*
X391805643Y68127691D01*
X391799693Y68126201D01*
X391793626Y68125301D01*
X391787500Y68125000D01*
X391112500Y68125000D01*
X391106374Y68125301D01*
X391100307Y68126201D01*
X391094357Y68127691D01*
X391088582Y68129758D01*
X391083038Y68132380D01*
X391077777Y68135533D01*
X391072850Y68139187D01*
X391068306Y68143306D01*
X391064187Y68147850D01*
X391060533Y68152777D01*
X391057380Y68158038D01*
X391054758Y68163582D01*
X391052691Y68169357D01*
X391051201Y68175307D01*
X391050301Y68181374D01*
X391050000Y68187500D01*
X391050000Y68312500D01*
X391050301Y68318626D01*
X391051201Y68324693D01*
X391052691Y68330643D01*
X391054758Y68336418D01*
X391057380Y68341962D01*
X391060533Y68347223D01*
X391064187Y68352150D01*
X391068306Y68356694D01*
X391072850Y68360813D01*
X391077777Y68364467D01*
X391083038Y68367620D01*
X391088582Y68370242D01*
X391094357Y68372309D01*
X391100307Y68373799D01*
X391106374Y68374699D01*
X391112500Y68375000D01*
X391787500Y68375000D01*
X391793626Y68374699D01*
G37*
G04 #@! TD.AperFunction*
G04 #@! TA.AperFunction,SMDPad,CuDef*
G36*
X391793626Y68874699D02*
G01*
X391799693Y68873799D01*
X391805643Y68872309D01*
X391811418Y68870242D01*
X391816962Y68867620D01*
X391822223Y68864467D01*
X391827150Y68860813D01*
X391831694Y68856694D01*
X391835813Y68852150D01*
X391839467Y68847223D01*
X391842620Y68841962D01*
X391845242Y68836418D01*
X391847309Y68830643D01*
X391848799Y68824693D01*
X391849699Y68818626D01*
X391850000Y68812500D01*
X391850000Y68687500D01*
X391849699Y68681374D01*
X391848799Y68675307D01*
X391847309Y68669357D01*
X391845242Y68663582D01*
X391842620Y68658038D01*
X391839467Y68652777D01*
X391835813Y68647850D01*
X391831694Y68643306D01*
X391827150Y68639187D01*
X391822223Y68635533D01*
X391816962Y68632380D01*
X391811418Y68629758D01*
X391805643Y68627691D01*
X391799693Y68626201D01*
X391793626Y68625301D01*
X391787500Y68625000D01*
X391112500Y68625000D01*
X391106374Y68625301D01*
X391100307Y68626201D01*
X391094357Y68627691D01*
X391088582Y68629758D01*
X391083038Y68632380D01*
X391077777Y68635533D01*
X391072850Y68639187D01*
X391068306Y68643306D01*
X391064187Y68647850D01*
X391060533Y68652777D01*
X391057380Y68658038D01*
X391054758Y68663582D01*
X391052691Y68669357D01*
X391051201Y68675307D01*
X391050301Y68681374D01*
X391050000Y68687500D01*
X391050000Y68812500D01*
X391050301Y68818626D01*
X391051201Y68824693D01*
X391052691Y68830643D01*
X391054758Y68836418D01*
X391057380Y68841962D01*
X391060533Y68847223D01*
X391064187Y68852150D01*
X391068306Y68856694D01*
X391072850Y68860813D01*
X391077777Y68864467D01*
X391083038Y68867620D01*
X391088582Y68870242D01*
X391094357Y68872309D01*
X391100307Y68873799D01*
X391106374Y68874699D01*
X391112500Y68875000D01*
X391787500Y68875000D01*
X391793626Y68874699D01*
G37*
G04 #@! TD.AperFunction*
G04 #@! TA.AperFunction,SMDPad,CuDef*
G36*
X391793626Y69374699D02*
G01*
X391799693Y69373799D01*
X391805643Y69372309D01*
X391811418Y69370242D01*
X391816962Y69367620D01*
X391822223Y69364467D01*
X391827150Y69360813D01*
X391831694Y69356694D01*
X391835813Y69352150D01*
X391839467Y69347223D01*
X391842620Y69341962D01*
X391845242Y69336418D01*
X391847309Y69330643D01*
X391848799Y69324693D01*
X391849699Y69318626D01*
X391850000Y69312500D01*
X391850000Y69187500D01*
X391849699Y69181374D01*
X391848799Y69175307D01*
X391847309Y69169357D01*
X391845242Y69163582D01*
X391842620Y69158038D01*
X391839467Y69152777D01*
X391835813Y69147850D01*
X391831694Y69143306D01*
X391827150Y69139187D01*
X391822223Y69135533D01*
X391816962Y69132380D01*
X391811418Y69129758D01*
X391805643Y69127691D01*
X391799693Y69126201D01*
X391793626Y69125301D01*
X391787500Y69125000D01*
X391112500Y69125000D01*
X391106374Y69125301D01*
X391100307Y69126201D01*
X391094357Y69127691D01*
X391088582Y69129758D01*
X391083038Y69132380D01*
X391077777Y69135533D01*
X391072850Y69139187D01*
X391068306Y69143306D01*
X391064187Y69147850D01*
X391060533Y69152777D01*
X391057380Y69158038D01*
X391054758Y69163582D01*
X391052691Y69169357D01*
X391051201Y69175307D01*
X391050301Y69181374D01*
X391050000Y69187500D01*
X391050000Y69312500D01*
X391050301Y69318626D01*
X391051201Y69324693D01*
X391052691Y69330643D01*
X391054758Y69336418D01*
X391057380Y69341962D01*
X391060533Y69347223D01*
X391064187Y69352150D01*
X391068306Y69356694D01*
X391072850Y69360813D01*
X391077777Y69364467D01*
X391083038Y69367620D01*
X391088582Y69370242D01*
X391094357Y69372309D01*
X391100307Y69373799D01*
X391106374Y69374699D01*
X391112500Y69375000D01*
X391787500Y69375000D01*
X391793626Y69374699D01*
G37*
G04 #@! TD.AperFunction*
G04 #@! TA.AperFunction,SMDPad,CuDef*
G36*
X390818626Y70349699D02*
G01*
X390824693Y70348799D01*
X390830643Y70347309D01*
X390836418Y70345242D01*
X390841962Y70342620D01*
X390847223Y70339467D01*
X390852150Y70335813D01*
X390856694Y70331694D01*
X390860813Y70327150D01*
X390864467Y70322223D01*
X390867620Y70316962D01*
X390870242Y70311418D01*
X390872309Y70305643D01*
X390873799Y70299693D01*
X390874699Y70293626D01*
X390875000Y70287500D01*
X390875000Y69612500D01*
X390874699Y69606374D01*
X390873799Y69600307D01*
X390872309Y69594357D01*
X390870242Y69588582D01*
X390867620Y69583038D01*
X390864467Y69577777D01*
X390860813Y69572850D01*
X390856694Y69568306D01*
X390852150Y69564187D01*
X390847223Y69560533D01*
X390841962Y69557380D01*
X390836418Y69554758D01*
X390830643Y69552691D01*
X390824693Y69551201D01*
X390818626Y69550301D01*
X390812500Y69550000D01*
X390687500Y69550000D01*
X390681374Y69550301D01*
X390675307Y69551201D01*
X390669357Y69552691D01*
X390663582Y69554758D01*
X390658038Y69557380D01*
X390652777Y69560533D01*
X390647850Y69564187D01*
X390643306Y69568306D01*
X390639187Y69572850D01*
X390635533Y69577777D01*
X390632380Y69583038D01*
X390629758Y69588582D01*
X390627691Y69594357D01*
X390626201Y69600307D01*
X390625301Y69606374D01*
X390625000Y69612500D01*
X390625000Y70287500D01*
X390625301Y70293626D01*
X390626201Y70299693D01*
X390627691Y70305643D01*
X390629758Y70311418D01*
X390632380Y70316962D01*
X390635533Y70322223D01*
X390639187Y70327150D01*
X390643306Y70331694D01*
X390647850Y70335813D01*
X390652777Y70339467D01*
X390658038Y70342620D01*
X390663582Y70345242D01*
X390669357Y70347309D01*
X390675307Y70348799D01*
X390681374Y70349699D01*
X390687500Y70350000D01*
X390812500Y70350000D01*
X390818626Y70349699D01*
G37*
G04 #@! TD.AperFunction*
G04 #@! TA.AperFunction,SMDPad,CuDef*
G36*
X390318626Y70349699D02*
G01*
X390324693Y70348799D01*
X390330643Y70347309D01*
X390336418Y70345242D01*
X390341962Y70342620D01*
X390347223Y70339467D01*
X390352150Y70335813D01*
X390356694Y70331694D01*
X390360813Y70327150D01*
X390364467Y70322223D01*
X390367620Y70316962D01*
X390370242Y70311418D01*
X390372309Y70305643D01*
X390373799Y70299693D01*
X390374699Y70293626D01*
X390375000Y70287500D01*
X390375000Y69612500D01*
X390374699Y69606374D01*
X390373799Y69600307D01*
X390372309Y69594357D01*
X390370242Y69588582D01*
X390367620Y69583038D01*
X390364467Y69577777D01*
X390360813Y69572850D01*
X390356694Y69568306D01*
X390352150Y69564187D01*
X390347223Y69560533D01*
X390341962Y69557380D01*
X390336418Y69554758D01*
X390330643Y69552691D01*
X390324693Y69551201D01*
X390318626Y69550301D01*
X390312500Y69550000D01*
X390187500Y69550000D01*
X390181374Y69550301D01*
X390175307Y69551201D01*
X390169357Y69552691D01*
X390163582Y69554758D01*
X390158038Y69557380D01*
X390152777Y69560533D01*
X390147850Y69564187D01*
X390143306Y69568306D01*
X390139187Y69572850D01*
X390135533Y69577777D01*
X390132380Y69583038D01*
X390129758Y69588582D01*
X390127691Y69594357D01*
X390126201Y69600307D01*
X390125301Y69606374D01*
X390125000Y69612500D01*
X390125000Y70287500D01*
X390125301Y70293626D01*
X390126201Y70299693D01*
X390127691Y70305643D01*
X390129758Y70311418D01*
X390132380Y70316962D01*
X390135533Y70322223D01*
X390139187Y70327150D01*
X390143306Y70331694D01*
X390147850Y70335813D01*
X390152777Y70339467D01*
X390158038Y70342620D01*
X390163582Y70345242D01*
X390169357Y70347309D01*
X390175307Y70348799D01*
X390181374Y70349699D01*
X390187500Y70350000D01*
X390312500Y70350000D01*
X390318626Y70349699D01*
G37*
G04 #@! TD.AperFunction*
G04 #@! TA.AperFunction,SMDPad,CuDef*
G36*
X389818626Y70349699D02*
G01*
X389824693Y70348799D01*
X389830643Y70347309D01*
X389836418Y70345242D01*
X389841962Y70342620D01*
X389847223Y70339467D01*
X389852150Y70335813D01*
X389856694Y70331694D01*
X389860813Y70327150D01*
X389864467Y70322223D01*
X389867620Y70316962D01*
X389870242Y70311418D01*
X389872309Y70305643D01*
X389873799Y70299693D01*
X389874699Y70293626D01*
X389875000Y70287500D01*
X389875000Y69612500D01*
X389874699Y69606374D01*
X389873799Y69600307D01*
X389872309Y69594357D01*
X389870242Y69588582D01*
X389867620Y69583038D01*
X389864467Y69577777D01*
X389860813Y69572850D01*
X389856694Y69568306D01*
X389852150Y69564187D01*
X389847223Y69560533D01*
X389841962Y69557380D01*
X389836418Y69554758D01*
X389830643Y69552691D01*
X389824693Y69551201D01*
X389818626Y69550301D01*
X389812500Y69550000D01*
X389687500Y69550000D01*
X389681374Y69550301D01*
X389675307Y69551201D01*
X389669357Y69552691D01*
X389663582Y69554758D01*
X389658038Y69557380D01*
X389652777Y69560533D01*
X389647850Y69564187D01*
X389643306Y69568306D01*
X389639187Y69572850D01*
X389635533Y69577777D01*
X389632380Y69583038D01*
X389629758Y69588582D01*
X389627691Y69594357D01*
X389626201Y69600307D01*
X389625301Y69606374D01*
X389625000Y69612500D01*
X389625000Y70287500D01*
X389625301Y70293626D01*
X389626201Y70299693D01*
X389627691Y70305643D01*
X389629758Y70311418D01*
X389632380Y70316962D01*
X389635533Y70322223D01*
X389639187Y70327150D01*
X389643306Y70331694D01*
X389647850Y70335813D01*
X389652777Y70339467D01*
X389658038Y70342620D01*
X389663582Y70345242D01*
X389669357Y70347309D01*
X389675307Y70348799D01*
X389681374Y70349699D01*
X389687500Y70350000D01*
X389812500Y70350000D01*
X389818626Y70349699D01*
G37*
G04 #@! TD.AperFunction*
G04 #@! TA.AperFunction,SMDPad,CuDef*
G36*
X389318626Y70349699D02*
G01*
X389324693Y70348799D01*
X389330643Y70347309D01*
X389336418Y70345242D01*
X389341962Y70342620D01*
X389347223Y70339467D01*
X389352150Y70335813D01*
X389356694Y70331694D01*
X389360813Y70327150D01*
X389364467Y70322223D01*
X389367620Y70316962D01*
X389370242Y70311418D01*
X389372309Y70305643D01*
X389373799Y70299693D01*
X389374699Y70293626D01*
X389375000Y70287500D01*
X389375000Y69612500D01*
X389374699Y69606374D01*
X389373799Y69600307D01*
X389372309Y69594357D01*
X389370242Y69588582D01*
X389367620Y69583038D01*
X389364467Y69577777D01*
X389360813Y69572850D01*
X389356694Y69568306D01*
X389352150Y69564187D01*
X389347223Y69560533D01*
X389341962Y69557380D01*
X389336418Y69554758D01*
X389330643Y69552691D01*
X389324693Y69551201D01*
X389318626Y69550301D01*
X389312500Y69550000D01*
X389187500Y69550000D01*
X389181374Y69550301D01*
X389175307Y69551201D01*
X389169357Y69552691D01*
X389163582Y69554758D01*
X389158038Y69557380D01*
X389152777Y69560533D01*
X389147850Y69564187D01*
X389143306Y69568306D01*
X389139187Y69572850D01*
X389135533Y69577777D01*
X389132380Y69583038D01*
X389129758Y69588582D01*
X389127691Y69594357D01*
X389126201Y69600307D01*
X389125301Y69606374D01*
X389125000Y69612500D01*
X389125000Y70287500D01*
X389125301Y70293626D01*
X389126201Y70299693D01*
X389127691Y70305643D01*
X389129758Y70311418D01*
X389132380Y70316962D01*
X389135533Y70322223D01*
X389139187Y70327150D01*
X389143306Y70331694D01*
X389147850Y70335813D01*
X389152777Y70339467D01*
X389158038Y70342620D01*
X389163582Y70345242D01*
X389169357Y70347309D01*
X389175307Y70348799D01*
X389181374Y70349699D01*
X389187500Y70350000D01*
X389312500Y70350000D01*
X389318626Y70349699D01*
G37*
G04 #@! TD.AperFunction*
G04 #@! TA.AperFunction,SMDPad,CuDef*
G36*
X388818626Y70349699D02*
G01*
X388824693Y70348799D01*
X388830643Y70347309D01*
X388836418Y70345242D01*
X388841962Y70342620D01*
X388847223Y70339467D01*
X388852150Y70335813D01*
X388856694Y70331694D01*
X388860813Y70327150D01*
X388864467Y70322223D01*
X388867620Y70316962D01*
X388870242Y70311418D01*
X388872309Y70305643D01*
X388873799Y70299693D01*
X388874699Y70293626D01*
X388875000Y70287500D01*
X388875000Y69612500D01*
X388874699Y69606374D01*
X388873799Y69600307D01*
X388872309Y69594357D01*
X388870242Y69588582D01*
X388867620Y69583038D01*
X388864467Y69577777D01*
X388860813Y69572850D01*
X388856694Y69568306D01*
X388852150Y69564187D01*
X388847223Y69560533D01*
X388841962Y69557380D01*
X388836418Y69554758D01*
X388830643Y69552691D01*
X388824693Y69551201D01*
X388818626Y69550301D01*
X388812500Y69550000D01*
X388687500Y69550000D01*
X388681374Y69550301D01*
X388675307Y69551201D01*
X388669357Y69552691D01*
X388663582Y69554758D01*
X388658038Y69557380D01*
X388652777Y69560533D01*
X388647850Y69564187D01*
X388643306Y69568306D01*
X388639187Y69572850D01*
X388635533Y69577777D01*
X388632380Y69583038D01*
X388629758Y69588582D01*
X388627691Y69594357D01*
X388626201Y69600307D01*
X388625301Y69606374D01*
X388625000Y69612500D01*
X388625000Y70287500D01*
X388625301Y70293626D01*
X388626201Y70299693D01*
X388627691Y70305643D01*
X388629758Y70311418D01*
X388632380Y70316962D01*
X388635533Y70322223D01*
X388639187Y70327150D01*
X388643306Y70331694D01*
X388647850Y70335813D01*
X388652777Y70339467D01*
X388658038Y70342620D01*
X388663582Y70345242D01*
X388669357Y70347309D01*
X388675307Y70348799D01*
X388681374Y70349699D01*
X388687500Y70350000D01*
X388812500Y70350000D01*
X388818626Y70349699D01*
G37*
G04 #@! TD.AperFunction*
G04 #@! TA.AperFunction,SMDPad,CuDef*
G36*
X388318626Y70349699D02*
G01*
X388324693Y70348799D01*
X388330643Y70347309D01*
X388336418Y70345242D01*
X388341962Y70342620D01*
X388347223Y70339467D01*
X388352150Y70335813D01*
X388356694Y70331694D01*
X388360813Y70327150D01*
X388364467Y70322223D01*
X388367620Y70316962D01*
X388370242Y70311418D01*
X388372309Y70305643D01*
X388373799Y70299693D01*
X388374699Y70293626D01*
X388375000Y70287500D01*
X388375000Y69612500D01*
X388374699Y69606374D01*
X388373799Y69600307D01*
X388372309Y69594357D01*
X388370242Y69588582D01*
X388367620Y69583038D01*
X388364467Y69577777D01*
X388360813Y69572850D01*
X388356694Y69568306D01*
X388352150Y69564187D01*
X388347223Y69560533D01*
X388341962Y69557380D01*
X388336418Y69554758D01*
X388330643Y69552691D01*
X388324693Y69551201D01*
X388318626Y69550301D01*
X388312500Y69550000D01*
X388187500Y69550000D01*
X388181374Y69550301D01*
X388175307Y69551201D01*
X388169357Y69552691D01*
X388163582Y69554758D01*
X388158038Y69557380D01*
X388152777Y69560533D01*
X388147850Y69564187D01*
X388143306Y69568306D01*
X388139187Y69572850D01*
X388135533Y69577777D01*
X388132380Y69583038D01*
X388129758Y69588582D01*
X388127691Y69594357D01*
X388126201Y69600307D01*
X388125301Y69606374D01*
X388125000Y69612500D01*
X388125000Y70287500D01*
X388125301Y70293626D01*
X388126201Y70299693D01*
X388127691Y70305643D01*
X388129758Y70311418D01*
X388132380Y70316962D01*
X388135533Y70322223D01*
X388139187Y70327150D01*
X388143306Y70331694D01*
X388147850Y70335813D01*
X388152777Y70339467D01*
X388158038Y70342620D01*
X388163582Y70345242D01*
X388169357Y70347309D01*
X388175307Y70348799D01*
X388181374Y70349699D01*
X388187500Y70350000D01*
X388312500Y70350000D01*
X388318626Y70349699D01*
G37*
G04 #@! TD.AperFunction*
G04 #@! TA.AperFunction,SMDPad,CuDef*
G36*
X387818626Y70349699D02*
G01*
X387824693Y70348799D01*
X387830643Y70347309D01*
X387836418Y70345242D01*
X387841962Y70342620D01*
X387847223Y70339467D01*
X387852150Y70335813D01*
X387856694Y70331694D01*
X387860813Y70327150D01*
X387864467Y70322223D01*
X387867620Y70316962D01*
X387870242Y70311418D01*
X387872309Y70305643D01*
X387873799Y70299693D01*
X387874699Y70293626D01*
X387875000Y70287500D01*
X387875000Y69612500D01*
X387874699Y69606374D01*
X387873799Y69600307D01*
X387872309Y69594357D01*
X387870242Y69588582D01*
X387867620Y69583038D01*
X387864467Y69577777D01*
X387860813Y69572850D01*
X387856694Y69568306D01*
X387852150Y69564187D01*
X387847223Y69560533D01*
X387841962Y69557380D01*
X387836418Y69554758D01*
X387830643Y69552691D01*
X387824693Y69551201D01*
X387818626Y69550301D01*
X387812500Y69550000D01*
X387687500Y69550000D01*
X387681374Y69550301D01*
X387675307Y69551201D01*
X387669357Y69552691D01*
X387663582Y69554758D01*
X387658038Y69557380D01*
X387652777Y69560533D01*
X387647850Y69564187D01*
X387643306Y69568306D01*
X387639187Y69572850D01*
X387635533Y69577777D01*
X387632380Y69583038D01*
X387629758Y69588582D01*
X387627691Y69594357D01*
X387626201Y69600307D01*
X387625301Y69606374D01*
X387625000Y69612500D01*
X387625000Y70287500D01*
X387625301Y70293626D01*
X387626201Y70299693D01*
X387627691Y70305643D01*
X387629758Y70311418D01*
X387632380Y70316962D01*
X387635533Y70322223D01*
X387639187Y70327150D01*
X387643306Y70331694D01*
X387647850Y70335813D01*
X387652777Y70339467D01*
X387658038Y70342620D01*
X387663582Y70345242D01*
X387669357Y70347309D01*
X387675307Y70348799D01*
X387681374Y70349699D01*
X387687500Y70350000D01*
X387812500Y70350000D01*
X387818626Y70349699D01*
G37*
G04 #@! TD.AperFunction*
G04 #@! TA.AperFunction,SMDPad,CuDef*
G36*
X387318626Y70349699D02*
G01*
X387324693Y70348799D01*
X387330643Y70347309D01*
X387336418Y70345242D01*
X387341962Y70342620D01*
X387347223Y70339467D01*
X387352150Y70335813D01*
X387356694Y70331694D01*
X387360813Y70327150D01*
X387364467Y70322223D01*
X387367620Y70316962D01*
X387370242Y70311418D01*
X387372309Y70305643D01*
X387373799Y70299693D01*
X387374699Y70293626D01*
X387375000Y70287500D01*
X387375000Y69612500D01*
X387374699Y69606374D01*
X387373799Y69600307D01*
X387372309Y69594357D01*
X387370242Y69588582D01*
X387367620Y69583038D01*
X387364467Y69577777D01*
X387360813Y69572850D01*
X387356694Y69568306D01*
X387352150Y69564187D01*
X387347223Y69560533D01*
X387341962Y69557380D01*
X387336418Y69554758D01*
X387330643Y69552691D01*
X387324693Y69551201D01*
X387318626Y69550301D01*
X387312500Y69550000D01*
X387187500Y69550000D01*
X387181374Y69550301D01*
X387175307Y69551201D01*
X387169357Y69552691D01*
X387163582Y69554758D01*
X387158038Y69557380D01*
X387152777Y69560533D01*
X387147850Y69564187D01*
X387143306Y69568306D01*
X387139187Y69572850D01*
X387135533Y69577777D01*
X387132380Y69583038D01*
X387129758Y69588582D01*
X387127691Y69594357D01*
X387126201Y69600307D01*
X387125301Y69606374D01*
X387125000Y69612500D01*
X387125000Y70287500D01*
X387125301Y70293626D01*
X387126201Y70299693D01*
X387127691Y70305643D01*
X387129758Y70311418D01*
X387132380Y70316962D01*
X387135533Y70322223D01*
X387139187Y70327150D01*
X387143306Y70331694D01*
X387147850Y70335813D01*
X387152777Y70339467D01*
X387158038Y70342620D01*
X387163582Y70345242D01*
X387169357Y70347309D01*
X387175307Y70348799D01*
X387181374Y70349699D01*
X387187500Y70350000D01*
X387312500Y70350000D01*
X387318626Y70349699D01*
G37*
G04 #@! TD.AperFunction*
D17*
X393000000Y69000000D03*
X394000000Y64000000D03*
X375500000Y57500000D03*
X383000000Y72500000D03*
X388000000Y74000000D03*
X383500000Y63000000D03*
X384000000Y70000000D03*
X379500000Y65000000D03*
X382500000Y67500000D03*
X375000000Y63500000D03*
X375497837Y61625010D03*
X385000000Y64500000D03*
X385000000Y70500000D03*
X380500000Y58000000D03*
X374500000Y67000000D03*
X374500000Y68500000D03*
X378500000Y71000000D03*
X388500000Y71500000D03*
D18*
X389750000Y70875000D02*
X390875000Y72000000D01*
X389750000Y69950000D02*
X389750000Y70875000D01*
X390875000Y72000000D02*
X393000000Y72000000D01*
X393537500Y72537500D02*
X393537500Y74000000D01*
X393000000Y72000000D02*
X393537500Y72537500D01*
X386320000Y58100000D02*
X383000000Y58100000D01*
X387420000Y57000000D02*
X386320000Y58100000D01*
X392750000Y69250000D02*
X391450000Y69250000D01*
X393000000Y69000000D02*
X392750000Y69250000D01*
X390750000Y65050000D02*
X395000000Y60800000D01*
X395000000Y60800000D02*
X395000000Y52500000D01*
X391920000Y52500000D02*
X389960000Y54460000D01*
X395000000Y52500000D02*
X391920000Y52500000D01*
X390809999Y64041979D02*
X390809999Y57849999D01*
X390809999Y57849999D02*
X389960000Y57000000D01*
X390250000Y64601978D02*
X390809999Y64041979D01*
X390250000Y65050000D02*
X390250000Y64601978D01*
X392250000Y65750000D02*
X391450000Y65750000D01*
X394000000Y64000000D02*
X392250000Y65750000D01*
X370000000Y62797919D02*
X370000000Y64000000D01*
X381350000Y69500000D02*
X381350000Y69600000D01*
X379650000Y67800000D02*
X381350000Y69500000D01*
X379650000Y67400000D02*
X379650000Y67800000D01*
X381350000Y71912500D02*
X381437500Y72000000D01*
X381350000Y69600000D02*
X381350000Y71912500D01*
X382937500Y64500000D02*
X382937500Y63800000D01*
X375500000Y57500000D02*
X370000000Y62797919D01*
X382500000Y72000000D02*
X383000000Y72500000D01*
X381437500Y72000000D02*
X382500000Y72000000D01*
X388000000Y74000000D02*
X390462500Y74000000D01*
X382068750Y62931250D02*
X383431250Y62931250D01*
X382937500Y63800000D02*
X382068750Y62931250D01*
X383431250Y62931250D02*
X383500000Y63000000D01*
X381750000Y70000000D02*
X381350000Y69600000D01*
X384000000Y70000000D02*
X381750000Y70000000D01*
X380700000Y61562500D02*
X382063720Y62926220D01*
X382063720Y62926220D02*
X382068750Y62931250D01*
X377500000Y61562500D02*
X380700000Y61562500D01*
X381350000Y68350000D02*
X381350000Y67400000D01*
X381437500Y68437500D02*
X381350000Y68350000D01*
X384000000Y68437500D02*
X381437500Y68437500D01*
X380000000Y64500000D02*
X379500000Y65000000D01*
X381062500Y64500000D02*
X380000000Y64500000D01*
X381450000Y67500000D02*
X381350000Y67400000D01*
X382500000Y67500000D02*
X381450000Y67500000D01*
X378800000Y69600000D02*
X379650000Y69600000D01*
X378724999Y69524999D02*
X378800000Y69600000D01*
X378724999Y66439999D02*
X378724999Y69524999D01*
X379088025Y66076973D02*
X378724999Y66439999D01*
X383514473Y66076973D02*
X379088025Y66076973D01*
X384000000Y66562500D02*
X383514473Y66076973D01*
X379650000Y71912500D02*
X379562500Y72000000D01*
X379650000Y69600000D02*
X379650000Y71912500D01*
X384013240Y66575740D02*
X384000000Y66562500D01*
X367290000Y71270000D02*
X367290000Y59230000D01*
X375500000Y65680000D02*
X377500000Y65680000D01*
X377500000Y65680000D02*
X377500000Y63437500D01*
X375500000Y64000000D02*
X375000000Y63500000D01*
X375500000Y65680000D02*
X375500000Y64000000D01*
X389250000Y72787500D02*
X390462500Y74000000D01*
X389250000Y69950000D02*
X389250000Y72787500D01*
X383441851Y64500000D02*
X385374979Y66433128D01*
X385965567Y68250000D02*
X386150000Y68250000D01*
X385374979Y66433128D02*
X385374979Y67659412D01*
X382937500Y64500000D02*
X383441851Y64500000D01*
X385374979Y67659412D02*
X385965567Y68250000D01*
X386150000Y68250000D02*
X386550000Y68250000D01*
X377500000Y61562500D02*
X377500000Y63437500D01*
X377437490Y61625010D02*
X376063522Y61625010D01*
X376063522Y61625010D02*
X375497837Y61625010D01*
X377500000Y61562500D02*
X377437490Y61625010D01*
X378540000Y54460000D02*
X375500000Y57500000D01*
X387420000Y54460000D02*
X378540000Y54460000D01*
X389250000Y69950000D02*
X389250000Y68075001D01*
X386550000Y68250000D02*
X387424999Y68250000D01*
X384937500Y69375000D02*
X384485527Y68923027D01*
X386425000Y69375000D02*
X384937500Y69375000D01*
X384485527Y68923027D02*
X384000000Y68437500D01*
X386550000Y69250000D02*
X386425000Y69375000D01*
X385829156Y68750000D02*
X384485527Y67406371D01*
X384485527Y67406371D02*
X384485527Y67048027D01*
X386550000Y68750000D02*
X385829156Y68750000D01*
X384485527Y67048027D02*
X384000000Y66562500D01*
X389750000Y63037500D02*
X390000000Y62787500D01*
X389750000Y65050000D02*
X389750000Y63037500D01*
X387787500Y61212500D02*
X387500000Y61500000D01*
X390000000Y61212500D02*
X387787500Y61212500D01*
X387750000Y69950000D02*
X387250000Y69950000D01*
X386101978Y67750000D02*
X386150000Y67750000D01*
X386150000Y67750000D02*
X386550000Y67750000D01*
X385824990Y67473012D02*
X386101978Y67750000D01*
X383600000Y61500000D02*
X383000000Y60900000D01*
X385925000Y61500000D02*
X383600000Y61500000D01*
X372000000Y62900000D02*
X372000000Y64000000D01*
X374000000Y60900000D02*
X372000000Y62900000D01*
X375400000Y59500000D02*
X374000000Y60900000D01*
X380500000Y59500000D02*
X375400000Y59500000D01*
X381900000Y60900000D02*
X380500000Y59500000D01*
X383000000Y60900000D02*
X381900000Y60900000D01*
X385675010Y63824990D02*
X385000000Y64500000D01*
X385824990Y63824990D02*
X385675010Y63824990D01*
X385824990Y63824990D02*
X385824990Y67473012D01*
X386700000Y70500000D02*
X387250000Y69950000D01*
X385000000Y70500000D02*
X386700000Y70500000D01*
X380500000Y58000000D02*
X380500000Y59500000D01*
X385274999Y61712501D02*
X385274999Y63348001D01*
X385925000Y61500000D02*
X385487500Y61500000D01*
X385274999Y63348001D02*
X385751988Y63824990D01*
X385487500Y61500000D02*
X385274999Y61712501D01*
X385751988Y63824990D02*
X385824990Y63824990D01*
X375320000Y66500000D02*
X375500000Y66320000D01*
X374500000Y66500000D02*
X374500000Y67000000D01*
X374500000Y66500000D02*
X375320000Y66500000D01*
X372000000Y66500000D02*
X374500000Y66500000D01*
X374500000Y71225000D02*
X375275000Y72000000D01*
X375275000Y72000000D02*
X375712500Y72000000D01*
X374500000Y68500000D02*
X374500000Y71225000D01*
X375392500Y70320000D02*
X375712500Y70000000D01*
X377500000Y66550000D02*
X377500000Y66320000D01*
X370000000Y66500000D02*
X371225002Y67725002D01*
X371225002Y67725002D02*
X376324998Y67725002D01*
X376324998Y67725002D02*
X377500000Y66550000D01*
X375712500Y69525000D02*
X376324998Y68912502D01*
X376324998Y68912502D02*
X376324998Y67725002D01*
X375712500Y70000000D02*
X375712500Y69525000D01*
X377287500Y70000000D02*
X377287500Y70475000D01*
X377500000Y70000000D02*
X378500000Y71000000D01*
X377287500Y70000000D02*
X377500000Y70000000D01*
X388750000Y71250000D02*
X388750000Y69950000D01*
X388500000Y71500000D02*
X388750000Y71250000D01*
X377287500Y72000000D02*
X377287500Y72475000D01*
X377287500Y72475000D02*
X378037502Y73225002D01*
X388250000Y70350000D02*
X388250000Y69950000D01*
X385423020Y73225002D02*
X388250000Y70398022D01*
X388250000Y70398022D02*
X388250000Y70350000D01*
X378037502Y73225002D02*
X385423020Y73225002D01*
D19*
G36*
X404340001Y45660000D02*
G01*
X365660000Y45660000D01*
X365660000Y50220128D01*
X366765000Y50220128D01*
X366765000Y49779872D01*
X366850890Y49348075D01*
X367019369Y48941331D01*
X367263962Y48575271D01*
X367575271Y48263962D01*
X367941331Y48019369D01*
X368348075Y47850890D01*
X368779872Y47765000D01*
X369220128Y47765000D01*
X369651925Y47850890D01*
X370058669Y48019369D01*
X370424729Y48263962D01*
X370736038Y48575271D01*
X370980631Y48941331D01*
X371149110Y49348075D01*
X371235000Y49779872D01*
X371235000Y50220128D01*
X397765000Y50220128D01*
X397765000Y49779872D01*
X397850890Y49348075D01*
X398019369Y48941331D01*
X398263962Y48575271D01*
X398575271Y48263962D01*
X398941331Y48019369D01*
X399348075Y47850890D01*
X399779872Y47765000D01*
X400220128Y47765000D01*
X400651925Y47850890D01*
X401058669Y48019369D01*
X401424729Y48263962D01*
X401736038Y48575271D01*
X401980631Y48941331D01*
X402149110Y49348075D01*
X402235000Y49779872D01*
X402235000Y50220128D01*
X402149110Y50651925D01*
X401980631Y51058669D01*
X401736038Y51424729D01*
X401424729Y51736038D01*
X401058669Y51980631D01*
X400651925Y52149110D01*
X400220128Y52235000D01*
X399779872Y52235000D01*
X399348075Y52149110D01*
X398941331Y51980631D01*
X398575271Y51736038D01*
X398263962Y51424729D01*
X398019369Y51058669D01*
X397850890Y50651925D01*
X397765000Y50220128D01*
X371235000Y50220128D01*
X371149110Y50651925D01*
X370980631Y51058669D01*
X370736038Y51424729D01*
X370424729Y51736038D01*
X370058669Y51980631D01*
X369651925Y52149110D01*
X369220128Y52235000D01*
X368779872Y52235000D01*
X368348075Y52149110D01*
X367941331Y51980631D01*
X367575271Y51736038D01*
X367263962Y51424729D01*
X367019369Y51058669D01*
X366850890Y50651925D01*
X366765000Y50220128D01*
X365660000Y50220128D01*
X365660000Y54103109D01*
X385978519Y54103109D01*
X386075843Y53828748D01*
X386224822Y53578645D01*
X386419731Y53362412D01*
X386653080Y53188359D01*
X386915901Y53063175D01*
X387063110Y53018524D01*
X387293000Y53139845D01*
X387293000Y54333000D01*
X386099186Y54333000D01*
X385978519Y54103109D01*
X365660000Y54103109D01*
X365660000Y57471650D01*
X365685629Y57446021D01*
X365799998Y57560390D01*
X365986073Y57219234D01*
X366403409Y57003487D01*
X366854815Y56873304D01*
X367322946Y56833687D01*
X367789811Y56886158D01*
X368237468Y57028703D01*
X368593927Y57219234D01*
X368780003Y57560391D01*
X367290000Y59050395D01*
X367275858Y59036252D01*
X367096252Y59215858D01*
X367110395Y59230000D01*
X367469605Y59230000D01*
X368959609Y57739997D01*
X369300766Y57926073D01*
X369516513Y58343409D01*
X369646696Y58794815D01*
X369686313Y59262946D01*
X369633842Y59729811D01*
X369491297Y60177468D01*
X369300766Y60533927D01*
X368959609Y60720003D01*
X367469605Y59230000D01*
X367110395Y59230000D01*
X367096252Y59244142D01*
X367275858Y59423748D01*
X367290000Y59409605D01*
X368780003Y60899609D01*
X368593927Y61240766D01*
X368176591Y61456513D01*
X367725185Y61586696D01*
X367257054Y61626313D01*
X366790189Y61573842D01*
X366342532Y61431297D01*
X365986073Y61240766D01*
X365799998Y60899610D01*
X365685629Y61013979D01*
X365660000Y60988350D01*
X365660000Y63931469D01*
X368509389Y63931469D01*
X368551401Y63641981D01*
X368649081Y63366253D01*
X368722528Y63228843D01*
X368971603Y63151208D01*
X369820395Y64000000D01*
X368971603Y64848792D01*
X368722528Y64771157D01*
X368596629Y64507117D01*
X368524661Y64223589D01*
X368509389Y63931469D01*
X365660000Y63931469D01*
X365660000Y66646260D01*
X368515000Y66646260D01*
X368515000Y66353740D01*
X368572068Y66066842D01*
X368684010Y65796589D01*
X368846525Y65553368D01*
X369053368Y65346525D01*
X369216410Y65237584D01*
X369151208Y65028397D01*
X370000000Y64179605D01*
X370014143Y64193748D01*
X370193748Y64014143D01*
X370179605Y64000000D01*
X370193748Y63985858D01*
X370014143Y63806253D01*
X370000000Y63820395D01*
X369151208Y62971603D01*
X369228843Y62722528D01*
X369492883Y62596629D01*
X369776411Y62524661D01*
X370068531Y62509389D01*
X370358019Y62551401D01*
X370633747Y62649081D01*
X370709850Y62689759D01*
X370795506Y62619463D01*
X370905820Y62560498D01*
X371025518Y62524188D01*
X371150000Y62511928D01*
X371345674Y62511928D01*
X371365026Y62475724D01*
X371404871Y62427174D01*
X371459999Y62359999D01*
X371489003Y62336196D01*
X373488997Y60336201D01*
X373489002Y60336197D01*
X374836201Y58988997D01*
X374859999Y58959999D01*
X374888997Y58936201D01*
X374975723Y58865026D01*
X375090012Y58803937D01*
X375107753Y58794454D01*
X375251014Y58750997D01*
X375362667Y58740000D01*
X375362677Y58740000D01*
X375400000Y58736324D01*
X375437322Y58740000D01*
X379740000Y58740000D01*
X379740000Y58703711D01*
X379696063Y58659774D01*
X379582795Y58490256D01*
X379504774Y58301898D01*
X379465000Y58101939D01*
X379465000Y57898061D01*
X379504774Y57698102D01*
X379582795Y57509744D01*
X379696063Y57340226D01*
X379840226Y57196063D01*
X380009744Y57082795D01*
X380198102Y57004774D01*
X380398061Y56965000D01*
X380601939Y56965000D01*
X380801898Y57004774D01*
X380990256Y57082795D01*
X381159774Y57196063D01*
X381303937Y57340226D01*
X381417205Y57509744D01*
X381490662Y57687084D01*
X381503992Y57551746D01*
X381554528Y57385150D01*
X381636595Y57231614D01*
X381747038Y57097038D01*
X381881614Y56986595D01*
X382035150Y56904528D01*
X382201746Y56853992D01*
X382375000Y56836928D01*
X383625000Y56836928D01*
X383798254Y56853992D01*
X383964850Y56904528D01*
X384118386Y56986595D01*
X384252962Y57097038D01*
X384363405Y57231614D01*
X384421339Y57340000D01*
X385973538Y57340000D01*
X385935000Y57146260D01*
X385935000Y56853740D01*
X385992068Y56566842D01*
X386104010Y56296589D01*
X386266525Y56053368D01*
X386473368Y55846525D01*
X386649406Y55728900D01*
X386419731Y55557588D01*
X386224822Y55341355D01*
X386075843Y55091252D01*
X385978519Y54816891D01*
X386099186Y54587000D01*
X387293000Y54587000D01*
X387293000Y54607000D01*
X387547000Y54607000D01*
X387547000Y54587000D01*
X387567000Y54587000D01*
X387567000Y54333000D01*
X387547000Y54333000D01*
X387547000Y53139845D01*
X387776890Y53018524D01*
X387924099Y53063175D01*
X388186920Y53188359D01*
X388420269Y53362412D01*
X388615178Y53578645D01*
X388684805Y53695534D01*
X388806525Y53513368D01*
X389013368Y53306525D01*
X389256589Y53144010D01*
X389526842Y53032068D01*
X389813740Y52975000D01*
X390106260Y52975000D01*
X390326408Y53018791D01*
X391356201Y51988997D01*
X391379999Y51959999D01*
X391408997Y51936201D01*
X391495724Y51865026D01*
X391627753Y51794454D01*
X391771014Y51750997D01*
X391920000Y51736323D01*
X391957333Y51740000D01*
X394962667Y51740000D01*
X395000000Y51736323D01*
X395148986Y51750997D01*
X395292247Y51794454D01*
X395424276Y51865026D01*
X395540001Y51959999D01*
X395634974Y52075724D01*
X395705546Y52207753D01*
X395749003Y52351014D01*
X395760000Y52462667D01*
X395763677Y52500000D01*
X395760000Y52537333D01*
X395760000Y60762675D01*
X395763676Y60800000D01*
X395760000Y60837325D01*
X395760000Y60837333D01*
X395749003Y60948986D01*
X395705546Y61092247D01*
X395634974Y61224276D01*
X395540001Y61340001D01*
X395511004Y61363798D01*
X393909802Y62965000D01*
X394101939Y62965000D01*
X394301898Y63004774D01*
X394490256Y63082795D01*
X394659774Y63196063D01*
X394803937Y63340226D01*
X394917205Y63509744D01*
X394995226Y63698102D01*
X395035000Y63898061D01*
X395035000Y64101939D01*
X394995226Y64301898D01*
X394917205Y64490256D01*
X394803937Y64659774D01*
X394659774Y64803937D01*
X394490256Y64917205D01*
X394301898Y64995226D01*
X394101939Y65035000D01*
X394039802Y65035000D01*
X392813804Y66260997D01*
X392790001Y66290001D01*
X392674276Y66384974D01*
X392542247Y66455546D01*
X392465628Y66478788D01*
X392459193Y66500000D01*
X392474611Y66550825D01*
X392488072Y66687500D01*
X392488072Y66812500D01*
X392474611Y66949175D01*
X392459193Y67000000D01*
X392474611Y67050825D01*
X392488072Y67187500D01*
X392488072Y67312500D01*
X392474611Y67449175D01*
X392459193Y67500000D01*
X392474611Y67550825D01*
X392488072Y67687500D01*
X392488072Y67812500D01*
X392474611Y67949175D01*
X392459193Y68000000D01*
X392474611Y68050825D01*
X392479735Y68102847D01*
X392509744Y68082795D01*
X392698102Y68004774D01*
X392898061Y67965000D01*
X393101939Y67965000D01*
X393301898Y68004774D01*
X393490256Y68082795D01*
X393659774Y68196063D01*
X393803937Y68340226D01*
X393917205Y68509744D01*
X393995226Y68698102D01*
X394035000Y68898061D01*
X394035000Y69101939D01*
X393995226Y69301898D01*
X393917205Y69490256D01*
X393803937Y69659774D01*
X393659774Y69803937D01*
X393490256Y69917205D01*
X393301898Y69995226D01*
X393101939Y70035000D01*
X392898061Y70035000D01*
X392777326Y70010985D01*
X392750000Y70013676D01*
X392712678Y70010000D01*
X391818691Y70010000D01*
X391787500Y70013072D01*
X391513072Y70013072D01*
X391513072Y70287500D01*
X391499611Y70424175D01*
X391459744Y70555597D01*
X391395004Y70676717D01*
X391307879Y70782879D01*
X391201717Y70870004D01*
X391080597Y70934744D01*
X390949175Y70974611D01*
X390926633Y70976831D01*
X391189802Y71240000D01*
X392962678Y71240000D01*
X393000000Y71236324D01*
X393037322Y71240000D01*
X393037333Y71240000D01*
X393148986Y71250997D01*
X393292247Y71294454D01*
X393424276Y71365026D01*
X393540001Y71459999D01*
X393563803Y71489002D01*
X394048503Y71973702D01*
X394077501Y71997499D01*
X394172474Y72113224D01*
X394239905Y72239377D01*
X394289851Y72254528D01*
X394443387Y72336595D01*
X394577962Y72447038D01*
X394688405Y72581613D01*
X394770472Y72735149D01*
X394821008Y72901745D01*
X394838072Y73074999D01*
X394838072Y74925001D01*
X394821008Y75098255D01*
X394770472Y75264851D01*
X394688405Y75418387D01*
X394577962Y75552962D01*
X394443387Y75663405D01*
X394289851Y75745472D01*
X394123255Y75796008D01*
X393950001Y75813072D01*
X393124999Y75813072D01*
X392951745Y75796008D01*
X392785149Y75745472D01*
X392631613Y75663405D01*
X392497038Y75552962D01*
X392386595Y75418387D01*
X392304528Y75264851D01*
X392253992Y75098255D01*
X392236928Y74925001D01*
X392236928Y73074999D01*
X392253992Y72901745D01*
X392296990Y72760000D01*
X391756670Y72760000D01*
X391763072Y72825000D01*
X391760000Y73714250D01*
X391601250Y73873000D01*
X390589500Y73873000D01*
X390589500Y73853000D01*
X390335500Y73853000D01*
X390335500Y73873000D01*
X389323750Y73873000D01*
X389165000Y73714250D01*
X389161928Y72825000D01*
X389174188Y72700518D01*
X389210498Y72580820D01*
X389269463Y72470506D01*
X389348815Y72373815D01*
X389445506Y72294463D01*
X389555820Y72235498D01*
X389675518Y72199188D01*
X389800000Y72186928D01*
X389988665Y72188466D01*
X389512957Y71712758D01*
X389495226Y71801898D01*
X389417205Y71990256D01*
X389303937Y72159774D01*
X389159774Y72303937D01*
X388990256Y72417205D01*
X388801898Y72495226D01*
X388601939Y72535000D01*
X388398061Y72535000D01*
X388198102Y72495226D01*
X388009744Y72417205D01*
X387840226Y72303937D01*
X387696063Y72159774D01*
X387642786Y72080039D01*
X385986824Y73735999D01*
X385963021Y73765003D01*
X385847296Y73859976D01*
X385715267Y73930548D01*
X385572006Y73974005D01*
X385460353Y73985002D01*
X385460342Y73985002D01*
X385423020Y73988678D01*
X385385698Y73985002D01*
X378074824Y73985002D01*
X378037501Y73988678D01*
X378000179Y73985002D01*
X378000169Y73985002D01*
X377888516Y73974005D01*
X377745255Y73930548D01*
X377613225Y73859976D01*
X377529585Y73791334D01*
X377497501Y73765003D01*
X377473703Y73736004D01*
X376805009Y73067310D01*
X376740858Y73047850D01*
X376592725Y72968671D01*
X376500000Y72892574D01*
X376407275Y72968671D01*
X376259142Y73047850D01*
X376098408Y73096608D01*
X375931250Y73113072D01*
X375493750Y73113072D01*
X375326592Y73096608D01*
X375165858Y73047850D01*
X375017725Y72968671D01*
X374887885Y72862115D01*
X374781329Y72732275D01*
X374702150Y72584142D01*
X374666362Y72466164D01*
X373988998Y71788799D01*
X373960000Y71765001D01*
X373936202Y71736003D01*
X373936201Y71736002D01*
X373865026Y71649276D01*
X373794454Y71517246D01*
X373750998Y71373985D01*
X373736324Y71225000D01*
X373740001Y71187668D01*
X373740000Y69203711D01*
X373696063Y69159774D01*
X373582795Y68990256D01*
X373504774Y68801898D01*
X373465000Y68601939D01*
X373465000Y68485002D01*
X371262324Y68485002D01*
X371225001Y68488678D01*
X371187678Y68485002D01*
X371187669Y68485002D01*
X371076016Y68474005D01*
X370932755Y68430548D01*
X370800726Y68359976D01*
X370800724Y68359975D01*
X370800725Y68359975D01*
X370713998Y68288801D01*
X370713994Y68288797D01*
X370685001Y68265003D01*
X370661207Y68236010D01*
X370366407Y67941210D01*
X370146260Y67985000D01*
X369853740Y67985000D01*
X369566842Y67927932D01*
X369296589Y67815990D01*
X369053368Y67653475D01*
X368846525Y67446632D01*
X368684010Y67203411D01*
X368572068Y66933158D01*
X368515000Y66646260D01*
X365660000Y66646260D01*
X365660000Y69511650D01*
X365685629Y69486021D01*
X365799998Y69600390D01*
X365986073Y69259234D01*
X366403409Y69043487D01*
X366854815Y68913304D01*
X367322946Y68873687D01*
X367789811Y68926158D01*
X368237468Y69068703D01*
X368593927Y69259234D01*
X368780003Y69600391D01*
X367290000Y71090395D01*
X367275858Y71076252D01*
X367096252Y71255858D01*
X367110395Y71270000D01*
X367469605Y71270000D01*
X368959609Y69779997D01*
X369300766Y69966073D01*
X369516513Y70383409D01*
X369646696Y70834815D01*
X369686313Y71302946D01*
X369633842Y71769811D01*
X369491297Y72217468D01*
X369300766Y72573927D01*
X368959609Y72760003D01*
X367469605Y71270000D01*
X367110395Y71270000D01*
X367096252Y71284142D01*
X367275858Y71463748D01*
X367290000Y71449605D01*
X368780003Y72939609D01*
X368593927Y73280766D01*
X368176591Y73496513D01*
X367725185Y73626696D01*
X367257054Y73666313D01*
X366790189Y73613842D01*
X366342532Y73471297D01*
X365986073Y73280766D01*
X365799998Y72939610D01*
X365685629Y73053979D01*
X365660000Y73028350D01*
X365660000Y75175000D01*
X389161928Y75175000D01*
X389165000Y74285750D01*
X389323750Y74127000D01*
X390335500Y74127000D01*
X390335500Y75651250D01*
X390589500Y75651250D01*
X390589500Y74127000D01*
X391601250Y74127000D01*
X391760000Y74285750D01*
X391763072Y75175000D01*
X391750812Y75299482D01*
X391714502Y75419180D01*
X391655537Y75529494D01*
X391576185Y75626185D01*
X391479494Y75705537D01*
X391369180Y75764502D01*
X391249482Y75800812D01*
X391125000Y75813072D01*
X390748250Y75810000D01*
X390589500Y75651250D01*
X390335500Y75651250D01*
X390176750Y75810000D01*
X389800000Y75813072D01*
X389675518Y75800812D01*
X389555820Y75764502D01*
X389445506Y75705537D01*
X389348815Y75626185D01*
X389269463Y75529494D01*
X389210498Y75419180D01*
X389174188Y75299482D01*
X389161928Y75175000D01*
X365660000Y75175000D01*
X365660000Y80220128D01*
X366765000Y80220128D01*
X366765000Y79779872D01*
X366850890Y79348075D01*
X367019369Y78941331D01*
X367263962Y78575271D01*
X367575271Y78263962D01*
X367941331Y78019369D01*
X368348075Y77850890D01*
X368779872Y77765000D01*
X369220128Y77765000D01*
X369651925Y77850890D01*
X370058669Y78019369D01*
X370424729Y78263962D01*
X370736038Y78575271D01*
X370980631Y78941331D01*
X371149110Y79348075D01*
X371235000Y79779872D01*
X371235000Y80220128D01*
X397765000Y80220128D01*
X397765000Y79779872D01*
X397850890Y79348075D01*
X398019369Y78941331D01*
X398263962Y78575271D01*
X398575271Y78263962D01*
X398941331Y78019369D01*
X399348075Y77850890D01*
X399779872Y77765000D01*
X400220128Y77765000D01*
X400651925Y77850890D01*
X401058669Y78019369D01*
X401424729Y78263962D01*
X401736038Y78575271D01*
X401980631Y78941331D01*
X402149110Y79348075D01*
X402235000Y79779872D01*
X402235000Y80220128D01*
X402149110Y80651925D01*
X401980631Y81058669D01*
X401736038Y81424729D01*
X401424729Y81736038D01*
X401058669Y81980631D01*
X400651925Y82149110D01*
X400220128Y82235000D01*
X399779872Y82235000D01*
X399348075Y82149110D01*
X398941331Y81980631D01*
X398575271Y81736038D01*
X398263962Y81424729D01*
X398019369Y81058669D01*
X397850890Y80651925D01*
X397765000Y80220128D01*
X371235000Y80220128D01*
X371149110Y80651925D01*
X370980631Y81058669D01*
X370736038Y81424729D01*
X370424729Y81736038D01*
X370058669Y81980631D01*
X369651925Y82149110D01*
X369220128Y82235000D01*
X368779872Y82235000D01*
X368348075Y82149110D01*
X367941331Y81980631D01*
X367575271Y81736038D01*
X367263962Y81424729D01*
X367019369Y81058669D01*
X366850890Y80651925D01*
X366765000Y80220128D01*
X365660000Y80220128D01*
X365660000Y84340000D01*
X404340000Y84340000D01*
X404340001Y45660000D01*
G37*
X404340001Y45660000D02*
X365660000Y45660000D01*
X365660000Y50220128D01*
X366765000Y50220128D01*
X366765000Y49779872D01*
X366850890Y49348075D01*
X367019369Y48941331D01*
X367263962Y48575271D01*
X367575271Y48263962D01*
X367941331Y48019369D01*
X368348075Y47850890D01*
X368779872Y47765000D01*
X369220128Y47765000D01*
X369651925Y47850890D01*
X370058669Y48019369D01*
X370424729Y48263962D01*
X370736038Y48575271D01*
X370980631Y48941331D01*
X371149110Y49348075D01*
X371235000Y49779872D01*
X371235000Y50220128D01*
X397765000Y50220128D01*
X397765000Y49779872D01*
X397850890Y49348075D01*
X398019369Y48941331D01*
X398263962Y48575271D01*
X398575271Y48263962D01*
X398941331Y48019369D01*
X399348075Y47850890D01*
X399779872Y47765000D01*
X400220128Y47765000D01*
X400651925Y47850890D01*
X401058669Y48019369D01*
X401424729Y48263962D01*
X401736038Y48575271D01*
X401980631Y48941331D01*
X402149110Y49348075D01*
X402235000Y49779872D01*
X402235000Y50220128D01*
X402149110Y50651925D01*
X401980631Y51058669D01*
X401736038Y51424729D01*
X401424729Y51736038D01*
X401058669Y51980631D01*
X400651925Y52149110D01*
X400220128Y52235000D01*
X399779872Y52235000D01*
X399348075Y52149110D01*
X398941331Y51980631D01*
X398575271Y51736038D01*
X398263962Y51424729D01*
X398019369Y51058669D01*
X397850890Y50651925D01*
X397765000Y50220128D01*
X371235000Y50220128D01*
X371149110Y50651925D01*
X370980631Y51058669D01*
X370736038Y51424729D01*
X370424729Y51736038D01*
X370058669Y51980631D01*
X369651925Y52149110D01*
X369220128Y52235000D01*
X368779872Y52235000D01*
X368348075Y52149110D01*
X367941331Y51980631D01*
X367575271Y51736038D01*
X367263962Y51424729D01*
X367019369Y51058669D01*
X366850890Y50651925D01*
X366765000Y50220128D01*
X365660000Y50220128D01*
X365660000Y54103109D01*
X385978519Y54103109D01*
X386075843Y53828748D01*
X386224822Y53578645D01*
X386419731Y53362412D01*
X386653080Y53188359D01*
X386915901Y53063175D01*
X387063110Y53018524D01*
X387293000Y53139845D01*
X387293000Y54333000D01*
X386099186Y54333000D01*
X385978519Y54103109D01*
X365660000Y54103109D01*
X365660000Y57471650D01*
X365685629Y57446021D01*
X365799998Y57560390D01*
X365986073Y57219234D01*
X366403409Y57003487D01*
X366854815Y56873304D01*
X367322946Y56833687D01*
X367789811Y56886158D01*
X368237468Y57028703D01*
X368593927Y57219234D01*
X368780003Y57560391D01*
X367290000Y59050395D01*
X367275858Y59036252D01*
X367096252Y59215858D01*
X367110395Y59230000D01*
X367469605Y59230000D01*
X368959609Y57739997D01*
X369300766Y57926073D01*
X369516513Y58343409D01*
X369646696Y58794815D01*
X369686313Y59262946D01*
X369633842Y59729811D01*
X369491297Y60177468D01*
X369300766Y60533927D01*
X368959609Y60720003D01*
X367469605Y59230000D01*
X367110395Y59230000D01*
X367096252Y59244142D01*
X367275858Y59423748D01*
X367290000Y59409605D01*
X368780003Y60899609D01*
X368593927Y61240766D01*
X368176591Y61456513D01*
X367725185Y61586696D01*
X367257054Y61626313D01*
X366790189Y61573842D01*
X366342532Y61431297D01*
X365986073Y61240766D01*
X365799998Y60899610D01*
X365685629Y61013979D01*
X365660000Y60988350D01*
X365660000Y63931469D01*
X368509389Y63931469D01*
X368551401Y63641981D01*
X368649081Y63366253D01*
X368722528Y63228843D01*
X368971603Y63151208D01*
X369820395Y64000000D01*
X368971603Y64848792D01*
X368722528Y64771157D01*
X368596629Y64507117D01*
X368524661Y64223589D01*
X368509389Y63931469D01*
X365660000Y63931469D01*
X365660000Y66646260D01*
X368515000Y66646260D01*
X368515000Y66353740D01*
X368572068Y66066842D01*
X368684010Y65796589D01*
X368846525Y65553368D01*
X369053368Y65346525D01*
X369216410Y65237584D01*
X369151208Y65028397D01*
X370000000Y64179605D01*
X370014143Y64193748D01*
X370193748Y64014143D01*
X370179605Y64000000D01*
X370193748Y63985858D01*
X370014143Y63806253D01*
X370000000Y63820395D01*
X369151208Y62971603D01*
X369228843Y62722528D01*
X369492883Y62596629D01*
X369776411Y62524661D01*
X370068531Y62509389D01*
X370358019Y62551401D01*
X370633747Y62649081D01*
X370709850Y62689759D01*
X370795506Y62619463D01*
X370905820Y62560498D01*
X371025518Y62524188D01*
X371150000Y62511928D01*
X371345674Y62511928D01*
X371365026Y62475724D01*
X371404871Y62427174D01*
X371459999Y62359999D01*
X371489003Y62336196D01*
X373488997Y60336201D01*
X373489002Y60336197D01*
X374836201Y58988997D01*
X374859999Y58959999D01*
X374888997Y58936201D01*
X374975723Y58865026D01*
X375090012Y58803937D01*
X375107753Y58794454D01*
X375251014Y58750997D01*
X375362667Y58740000D01*
X375362677Y58740000D01*
X375400000Y58736324D01*
X375437322Y58740000D01*
X379740000Y58740000D01*
X379740000Y58703711D01*
X379696063Y58659774D01*
X379582795Y58490256D01*
X379504774Y58301898D01*
X379465000Y58101939D01*
X379465000Y57898061D01*
X379504774Y57698102D01*
X379582795Y57509744D01*
X379696063Y57340226D01*
X379840226Y57196063D01*
X380009744Y57082795D01*
X380198102Y57004774D01*
X380398061Y56965000D01*
X380601939Y56965000D01*
X380801898Y57004774D01*
X380990256Y57082795D01*
X381159774Y57196063D01*
X381303937Y57340226D01*
X381417205Y57509744D01*
X381490662Y57687084D01*
X381503992Y57551746D01*
X381554528Y57385150D01*
X381636595Y57231614D01*
X381747038Y57097038D01*
X381881614Y56986595D01*
X382035150Y56904528D01*
X382201746Y56853992D01*
X382375000Y56836928D01*
X383625000Y56836928D01*
X383798254Y56853992D01*
X383964850Y56904528D01*
X384118386Y56986595D01*
X384252962Y57097038D01*
X384363405Y57231614D01*
X384421339Y57340000D01*
X385973538Y57340000D01*
X385935000Y57146260D01*
X385935000Y56853740D01*
X385992068Y56566842D01*
X386104010Y56296589D01*
X386266525Y56053368D01*
X386473368Y55846525D01*
X386649406Y55728900D01*
X386419731Y55557588D01*
X386224822Y55341355D01*
X386075843Y55091252D01*
X385978519Y54816891D01*
X386099186Y54587000D01*
X387293000Y54587000D01*
X387293000Y54607000D01*
X387547000Y54607000D01*
X387547000Y54587000D01*
X387567000Y54587000D01*
X387567000Y54333000D01*
X387547000Y54333000D01*
X387547000Y53139845D01*
X387776890Y53018524D01*
X387924099Y53063175D01*
X388186920Y53188359D01*
X388420269Y53362412D01*
X388615178Y53578645D01*
X388684805Y53695534D01*
X388806525Y53513368D01*
X389013368Y53306525D01*
X389256589Y53144010D01*
X389526842Y53032068D01*
X389813740Y52975000D01*
X390106260Y52975000D01*
X390326408Y53018791D01*
X391356201Y51988997D01*
X391379999Y51959999D01*
X391408997Y51936201D01*
X391495724Y51865026D01*
X391627753Y51794454D01*
X391771014Y51750997D01*
X391920000Y51736323D01*
X391957333Y51740000D01*
X394962667Y51740000D01*
X395000000Y51736323D01*
X395148986Y51750997D01*
X395292247Y51794454D01*
X395424276Y51865026D01*
X395540001Y51959999D01*
X395634974Y52075724D01*
X395705546Y52207753D01*
X395749003Y52351014D01*
X395760000Y52462667D01*
X395763677Y52500000D01*
X395760000Y52537333D01*
X395760000Y60762675D01*
X395763676Y60800000D01*
X395760000Y60837325D01*
X395760000Y60837333D01*
X395749003Y60948986D01*
X395705546Y61092247D01*
X395634974Y61224276D01*
X395540001Y61340001D01*
X395511004Y61363798D01*
X393909802Y62965000D01*
X394101939Y62965000D01*
X394301898Y63004774D01*
X394490256Y63082795D01*
X394659774Y63196063D01*
X394803937Y63340226D01*
X394917205Y63509744D01*
X394995226Y63698102D01*
X395035000Y63898061D01*
X395035000Y64101939D01*
X394995226Y64301898D01*
X394917205Y64490256D01*
X394803937Y64659774D01*
X394659774Y64803937D01*
X394490256Y64917205D01*
X394301898Y64995226D01*
X394101939Y65035000D01*
X394039802Y65035000D01*
X392813804Y66260997D01*
X392790001Y66290001D01*
X392674276Y66384974D01*
X392542247Y66455546D01*
X392465628Y66478788D01*
X392459193Y66500000D01*
X392474611Y66550825D01*
X392488072Y66687500D01*
X392488072Y66812500D01*
X392474611Y66949175D01*
X392459193Y67000000D01*
X392474611Y67050825D01*
X392488072Y67187500D01*
X392488072Y67312500D01*
X392474611Y67449175D01*
X392459193Y67500000D01*
X392474611Y67550825D01*
X392488072Y67687500D01*
X392488072Y67812500D01*
X392474611Y67949175D01*
X392459193Y68000000D01*
X392474611Y68050825D01*
X392479735Y68102847D01*
X392509744Y68082795D01*
X392698102Y68004774D01*
X392898061Y67965000D01*
X393101939Y67965000D01*
X393301898Y68004774D01*
X393490256Y68082795D01*
X393659774Y68196063D01*
X393803937Y68340226D01*
X393917205Y68509744D01*
X393995226Y68698102D01*
X394035000Y68898061D01*
X394035000Y69101939D01*
X393995226Y69301898D01*
X393917205Y69490256D01*
X393803937Y69659774D01*
X393659774Y69803937D01*
X393490256Y69917205D01*
X393301898Y69995226D01*
X393101939Y70035000D01*
X392898061Y70035000D01*
X392777326Y70010985D01*
X392750000Y70013676D01*
X392712678Y70010000D01*
X391818691Y70010000D01*
X391787500Y70013072D01*
X391513072Y70013072D01*
X391513072Y70287500D01*
X391499611Y70424175D01*
X391459744Y70555597D01*
X391395004Y70676717D01*
X391307879Y70782879D01*
X391201717Y70870004D01*
X391080597Y70934744D01*
X390949175Y70974611D01*
X390926633Y70976831D01*
X391189802Y71240000D01*
X392962678Y71240000D01*
X393000000Y71236324D01*
X393037322Y71240000D01*
X393037333Y71240000D01*
X393148986Y71250997D01*
X393292247Y71294454D01*
X393424276Y71365026D01*
X393540001Y71459999D01*
X393563803Y71489002D01*
X394048503Y71973702D01*
X394077501Y71997499D01*
X394172474Y72113224D01*
X394239905Y72239377D01*
X394289851Y72254528D01*
X394443387Y72336595D01*
X394577962Y72447038D01*
X394688405Y72581613D01*
X394770472Y72735149D01*
X394821008Y72901745D01*
X394838072Y73074999D01*
X394838072Y74925001D01*
X394821008Y75098255D01*
X394770472Y75264851D01*
X394688405Y75418387D01*
X394577962Y75552962D01*
X394443387Y75663405D01*
X394289851Y75745472D01*
X394123255Y75796008D01*
X393950001Y75813072D01*
X393124999Y75813072D01*
X392951745Y75796008D01*
X392785149Y75745472D01*
X392631613Y75663405D01*
X392497038Y75552962D01*
X392386595Y75418387D01*
X392304528Y75264851D01*
X392253992Y75098255D01*
X392236928Y74925001D01*
X392236928Y73074999D01*
X392253992Y72901745D01*
X392296990Y72760000D01*
X391756670Y72760000D01*
X391763072Y72825000D01*
X391760000Y73714250D01*
X391601250Y73873000D01*
X390589500Y73873000D01*
X390589500Y73853000D01*
X390335500Y73853000D01*
X390335500Y73873000D01*
X389323750Y73873000D01*
X389165000Y73714250D01*
X389161928Y72825000D01*
X389174188Y72700518D01*
X389210498Y72580820D01*
X389269463Y72470506D01*
X389348815Y72373815D01*
X389445506Y72294463D01*
X389555820Y72235498D01*
X389675518Y72199188D01*
X389800000Y72186928D01*
X389988665Y72188466D01*
X389512957Y71712758D01*
X389495226Y71801898D01*
X389417205Y71990256D01*
X389303937Y72159774D01*
X389159774Y72303937D01*
X388990256Y72417205D01*
X388801898Y72495226D01*
X388601939Y72535000D01*
X388398061Y72535000D01*
X388198102Y72495226D01*
X388009744Y72417205D01*
X387840226Y72303937D01*
X387696063Y72159774D01*
X387642786Y72080039D01*
X385986824Y73735999D01*
X385963021Y73765003D01*
X385847296Y73859976D01*
X385715267Y73930548D01*
X385572006Y73974005D01*
X385460353Y73985002D01*
X385460342Y73985002D01*
X385423020Y73988678D01*
X385385698Y73985002D01*
X378074824Y73985002D01*
X378037501Y73988678D01*
X378000179Y73985002D01*
X378000169Y73985002D01*
X377888516Y73974005D01*
X377745255Y73930548D01*
X377613225Y73859976D01*
X377529585Y73791334D01*
X377497501Y73765003D01*
X377473703Y73736004D01*
X376805009Y73067310D01*
X376740858Y73047850D01*
X376592725Y72968671D01*
X376500000Y72892574D01*
X376407275Y72968671D01*
X376259142Y73047850D01*
X376098408Y73096608D01*
X375931250Y73113072D01*
X375493750Y73113072D01*
X375326592Y73096608D01*
X375165858Y73047850D01*
X375017725Y72968671D01*
X374887885Y72862115D01*
X374781329Y72732275D01*
X374702150Y72584142D01*
X374666362Y72466164D01*
X373988998Y71788799D01*
X373960000Y71765001D01*
X373936202Y71736003D01*
X373936201Y71736002D01*
X373865026Y71649276D01*
X373794454Y71517246D01*
X373750998Y71373985D01*
X373736324Y71225000D01*
X373740001Y71187668D01*
X373740000Y69203711D01*
X373696063Y69159774D01*
X373582795Y68990256D01*
X373504774Y68801898D01*
X373465000Y68601939D01*
X373465000Y68485002D01*
X371262324Y68485002D01*
X371225001Y68488678D01*
X371187678Y68485002D01*
X371187669Y68485002D01*
X371076016Y68474005D01*
X370932755Y68430548D01*
X370800726Y68359976D01*
X370800724Y68359975D01*
X370800725Y68359975D01*
X370713998Y68288801D01*
X370713994Y68288797D01*
X370685001Y68265003D01*
X370661207Y68236010D01*
X370366407Y67941210D01*
X370146260Y67985000D01*
X369853740Y67985000D01*
X369566842Y67927932D01*
X369296589Y67815990D01*
X369053368Y67653475D01*
X368846525Y67446632D01*
X368684010Y67203411D01*
X368572068Y66933158D01*
X368515000Y66646260D01*
X365660000Y66646260D01*
X365660000Y69511650D01*
X365685629Y69486021D01*
X365799998Y69600390D01*
X365986073Y69259234D01*
X366403409Y69043487D01*
X366854815Y68913304D01*
X367322946Y68873687D01*
X367789811Y68926158D01*
X368237468Y69068703D01*
X368593927Y69259234D01*
X368780003Y69600391D01*
X367290000Y71090395D01*
X367275858Y71076252D01*
X367096252Y71255858D01*
X367110395Y71270000D01*
X367469605Y71270000D01*
X368959609Y69779997D01*
X369300766Y69966073D01*
X369516513Y70383409D01*
X369646696Y70834815D01*
X369686313Y71302946D01*
X369633842Y71769811D01*
X369491297Y72217468D01*
X369300766Y72573927D01*
X368959609Y72760003D01*
X367469605Y71270000D01*
X367110395Y71270000D01*
X367096252Y71284142D01*
X367275858Y71463748D01*
X367290000Y71449605D01*
X368780003Y72939609D01*
X368593927Y73280766D01*
X368176591Y73496513D01*
X367725185Y73626696D01*
X367257054Y73666313D01*
X366790189Y73613842D01*
X366342532Y73471297D01*
X365986073Y73280766D01*
X365799998Y72939610D01*
X365685629Y73053979D01*
X365660000Y73028350D01*
X365660000Y75175000D01*
X389161928Y75175000D01*
X389165000Y74285750D01*
X389323750Y74127000D01*
X390335500Y74127000D01*
X390335500Y75651250D01*
X390589500Y75651250D01*
X390589500Y74127000D01*
X391601250Y74127000D01*
X391760000Y74285750D01*
X391763072Y75175000D01*
X391750812Y75299482D01*
X391714502Y75419180D01*
X391655537Y75529494D01*
X391576185Y75626185D01*
X391479494Y75705537D01*
X391369180Y75764502D01*
X391249482Y75800812D01*
X391125000Y75813072D01*
X390748250Y75810000D01*
X390589500Y75651250D01*
X390335500Y75651250D01*
X390176750Y75810000D01*
X389800000Y75813072D01*
X389675518Y75800812D01*
X389555820Y75764502D01*
X389445506Y75705537D01*
X389348815Y75626185D01*
X389269463Y75529494D01*
X389210498Y75419180D01*
X389174188Y75299482D01*
X389161928Y75175000D01*
X365660000Y75175000D01*
X365660000Y80220128D01*
X366765000Y80220128D01*
X366765000Y79779872D01*
X366850890Y79348075D01*
X367019369Y78941331D01*
X367263962Y78575271D01*
X367575271Y78263962D01*
X367941331Y78019369D01*
X368348075Y77850890D01*
X368779872Y77765000D01*
X369220128Y77765000D01*
X369651925Y77850890D01*
X370058669Y78019369D01*
X370424729Y78263962D01*
X370736038Y78575271D01*
X370980631Y78941331D01*
X371149110Y79348075D01*
X371235000Y79779872D01*
X371235000Y80220128D01*
X397765000Y80220128D01*
X397765000Y79779872D01*
X397850890Y79348075D01*
X398019369Y78941331D01*
X398263962Y78575271D01*
X398575271Y78263962D01*
X398941331Y78019369D01*
X399348075Y77850890D01*
X399779872Y77765000D01*
X400220128Y77765000D01*
X400651925Y77850890D01*
X401058669Y78019369D01*
X401424729Y78263962D01*
X401736038Y78575271D01*
X401980631Y78941331D01*
X402149110Y79348075D01*
X402235000Y79779872D01*
X402235000Y80220128D01*
X402149110Y80651925D01*
X401980631Y81058669D01*
X401736038Y81424729D01*
X401424729Y81736038D01*
X401058669Y81980631D01*
X400651925Y82149110D01*
X400220128Y82235000D01*
X399779872Y82235000D01*
X399348075Y82149110D01*
X398941331Y81980631D01*
X398575271Y81736038D01*
X398263962Y81424729D01*
X398019369Y81058669D01*
X397850890Y80651925D01*
X397765000Y80220128D01*
X371235000Y80220128D01*
X371149110Y80651925D01*
X370980631Y81058669D01*
X370736038Y81424729D01*
X370424729Y81736038D01*
X370058669Y81980631D01*
X369651925Y82149110D01*
X369220128Y82235000D01*
X368779872Y82235000D01*
X368348075Y82149110D01*
X367941331Y81980631D01*
X367575271Y81736038D01*
X367263962Y81424729D01*
X367019369Y81058669D01*
X366850890Y80651925D01*
X366765000Y80220128D01*
X365660000Y80220128D01*
X365660000Y84340000D01*
X404340000Y84340000D01*
X404340001Y45660000D01*
G36*
X376661928Y66313270D02*
G01*
X376661928Y66190000D01*
X376676110Y66046009D01*
X376677594Y66041116D01*
X376670843Y66016291D01*
X376665000Y65941750D01*
X376739827Y65866923D01*
X376786316Y65779949D01*
X376878104Y65668104D01*
X376989116Y65577000D01*
X376823750Y65577000D01*
X376665000Y65418250D01*
X376670843Y65343709D01*
X376703669Y65223009D01*
X376759411Y65111032D01*
X376835928Y65012081D01*
X376930278Y64929960D01*
X377038837Y64867823D01*
X377157433Y64828059D01*
X377268250Y64815000D01*
X377427000Y64973750D01*
X377427000Y65451928D01*
X377573000Y65451928D01*
X377573000Y64973750D01*
X377731750Y64815000D01*
X377842567Y64828059D01*
X377961163Y64867823D01*
X378069722Y64929960D01*
X378164072Y65012081D01*
X378240589Y65111032D01*
X378296331Y65223009D01*
X378329157Y65343709D01*
X378335000Y65418250D01*
X378176250Y65577000D01*
X378010884Y65577000D01*
X378121896Y65668104D01*
X378213684Y65779949D01*
X378247320Y65842877D01*
X378524221Y65565976D01*
X378548024Y65536972D01*
X378590640Y65501998D01*
X378582795Y65490256D01*
X378504774Y65301898D01*
X378465000Y65101939D01*
X378465000Y64898061D01*
X378504774Y64698102D01*
X378582795Y64509744D01*
X378696063Y64340226D01*
X378840226Y64196063D01*
X379009744Y64082795D01*
X379198102Y64004774D01*
X379398061Y63965000D01*
X379455895Y63965000D01*
X379459999Y63959999D01*
X379575724Y63865026D01*
X379707753Y63794454D01*
X379851014Y63750997D01*
X379962667Y63740000D01*
X379962675Y63740000D01*
X379994787Y63736837D01*
X380004053Y63706291D01*
X380085542Y63553836D01*
X380195208Y63420208D01*
X380328836Y63310542D01*
X380481291Y63229053D01*
X380646715Y63178872D01*
X380818750Y63161928D01*
X381306250Y63161928D01*
X381478285Y63178872D01*
X381643709Y63229053D01*
X381796164Y63310542D01*
X381929792Y63420208D01*
X381935008Y63426564D01*
X381998815Y63348815D01*
X382095506Y63269463D01*
X382205820Y63210498D01*
X382325518Y63174188D01*
X382450000Y63161928D01*
X382651750Y63165000D01*
X382810500Y63323750D01*
X382810500Y64373000D01*
X382790500Y64373000D01*
X382790500Y64627000D01*
X382810500Y64627000D01*
X382810500Y64647000D01*
X383064500Y64647000D01*
X383064500Y64627000D01*
X383084500Y64627000D01*
X383084500Y64373000D01*
X383064500Y64373000D01*
X383064500Y63323750D01*
X383223250Y63165000D01*
X383425000Y63161928D01*
X383549482Y63174188D01*
X383669180Y63210498D01*
X383779494Y63269463D01*
X383876185Y63348815D01*
X383955537Y63445506D01*
X384014502Y63555820D01*
X384050812Y63675518D01*
X384063072Y63800000D01*
X384061129Y64062051D01*
X384082795Y64009744D01*
X384196063Y63840226D01*
X384340226Y63696063D01*
X384509744Y63582795D01*
X384547306Y63567236D01*
X384525997Y63496987D01*
X384520384Y63440001D01*
X384511323Y63348001D01*
X384515000Y63310669D01*
X384514999Y62260000D01*
X383637322Y62260000D01*
X383599999Y62263676D01*
X383562676Y62260000D01*
X383562667Y62260000D01*
X383451014Y62249003D01*
X383307753Y62205546D01*
X383228290Y62163072D01*
X382375000Y62163072D01*
X382201746Y62146008D01*
X382035150Y62095472D01*
X381881614Y62013405D01*
X381747038Y61902962D01*
X381636595Y61768386D01*
X381554528Y61614850D01*
X381540859Y61569790D01*
X381475723Y61534974D01*
X381392083Y61466332D01*
X381359999Y61440001D01*
X381336201Y61411003D01*
X380185199Y60260000D01*
X375714802Y60260000D01*
X374563803Y61410998D01*
X374563799Y61411003D01*
X373287345Y62687457D01*
X373301185Y62698815D01*
X373380537Y62795506D01*
X373439502Y62905820D01*
X373475812Y63025518D01*
X373488072Y63150000D01*
X373488072Y64850000D01*
X373475812Y64974482D01*
X373439502Y65094180D01*
X373380537Y65204494D01*
X373301185Y65301185D01*
X373204494Y65380537D01*
X373094180Y65439502D01*
X373052310Y65452203D01*
X373153475Y65553368D01*
X373278178Y65740000D01*
X374462667Y65740000D01*
X374500000Y65736323D01*
X374537333Y65740000D01*
X374819101Y65740000D01*
X374878104Y65668104D01*
X374989116Y65577000D01*
X374823750Y65577000D01*
X374665000Y65418250D01*
X374670843Y65343709D01*
X374703669Y65223009D01*
X374759411Y65111032D01*
X374835928Y65012081D01*
X374930278Y64929960D01*
X375038837Y64867823D01*
X375157433Y64828059D01*
X375268250Y64815000D01*
X375427000Y64973750D01*
X375427000Y65451928D01*
X375573000Y65451928D01*
X375573000Y64973750D01*
X375731750Y64815000D01*
X375842567Y64828059D01*
X375961163Y64867823D01*
X376069722Y64929960D01*
X376164072Y65012081D01*
X376240589Y65111032D01*
X376296331Y65223009D01*
X376329157Y65343709D01*
X376335000Y65418250D01*
X376176250Y65577000D01*
X376010884Y65577000D01*
X376121896Y65668104D01*
X376213684Y65779949D01*
X376260173Y65866923D01*
X376335000Y65941750D01*
X376329157Y66016291D01*
X376322406Y66041116D01*
X376323890Y66046009D01*
X376338072Y66190000D01*
X376338072Y66450000D01*
X376323890Y66593991D01*
X376298932Y66676266D01*
X376661928Y66313270D01*
G37*
X376661928Y66313270D02*
X376661928Y66190000D01*
X376676110Y66046009D01*
X376677594Y66041116D01*
X376670843Y66016291D01*
X376665000Y65941750D01*
X376739827Y65866923D01*
X376786316Y65779949D01*
X376878104Y65668104D01*
X376989116Y65577000D01*
X376823750Y65577000D01*
X376665000Y65418250D01*
X376670843Y65343709D01*
X376703669Y65223009D01*
X376759411Y65111032D01*
X376835928Y65012081D01*
X376930278Y64929960D01*
X377038837Y64867823D01*
X377157433Y64828059D01*
X377268250Y64815000D01*
X377427000Y64973750D01*
X377427000Y65451928D01*
X377573000Y65451928D01*
X377573000Y64973750D01*
X377731750Y64815000D01*
X377842567Y64828059D01*
X377961163Y64867823D01*
X378069722Y64929960D01*
X378164072Y65012081D01*
X378240589Y65111032D01*
X378296331Y65223009D01*
X378329157Y65343709D01*
X378335000Y65418250D01*
X378176250Y65577000D01*
X378010884Y65577000D01*
X378121896Y65668104D01*
X378213684Y65779949D01*
X378247320Y65842877D01*
X378524221Y65565976D01*
X378548024Y65536972D01*
X378590640Y65501998D01*
X378582795Y65490256D01*
X378504774Y65301898D01*
X378465000Y65101939D01*
X378465000Y64898061D01*
X378504774Y64698102D01*
X378582795Y64509744D01*
X378696063Y64340226D01*
X378840226Y64196063D01*
X379009744Y64082795D01*
X379198102Y64004774D01*
X379398061Y63965000D01*
X379455895Y63965000D01*
X379459999Y63959999D01*
X379575724Y63865026D01*
X379707753Y63794454D01*
X379851014Y63750997D01*
X379962667Y63740000D01*
X379962675Y63740000D01*
X379994787Y63736837D01*
X380004053Y63706291D01*
X380085542Y63553836D01*
X380195208Y63420208D01*
X380328836Y63310542D01*
X380481291Y63229053D01*
X380646715Y63178872D01*
X380818750Y63161928D01*
X381306250Y63161928D01*
X381478285Y63178872D01*
X381643709Y63229053D01*
X381796164Y63310542D01*
X381929792Y63420208D01*
X381935008Y63426564D01*
X381998815Y63348815D01*
X382095506Y63269463D01*
X382205820Y63210498D01*
X382325518Y63174188D01*
X382450000Y63161928D01*
X382651750Y63165000D01*
X382810500Y63323750D01*
X382810500Y64373000D01*
X382790500Y64373000D01*
X382790500Y64627000D01*
X382810500Y64627000D01*
X382810500Y64647000D01*
X383064500Y64647000D01*
X383064500Y64627000D01*
X383084500Y64627000D01*
X383084500Y64373000D01*
X383064500Y64373000D01*
X383064500Y63323750D01*
X383223250Y63165000D01*
X383425000Y63161928D01*
X383549482Y63174188D01*
X383669180Y63210498D01*
X383779494Y63269463D01*
X383876185Y63348815D01*
X383955537Y63445506D01*
X384014502Y63555820D01*
X384050812Y63675518D01*
X384063072Y63800000D01*
X384061129Y64062051D01*
X384082795Y64009744D01*
X384196063Y63840226D01*
X384340226Y63696063D01*
X384509744Y63582795D01*
X384547306Y63567236D01*
X384525997Y63496987D01*
X384520384Y63440001D01*
X384511323Y63348001D01*
X384515000Y63310669D01*
X384514999Y62260000D01*
X383637322Y62260000D01*
X383599999Y62263676D01*
X383562676Y62260000D01*
X383562667Y62260000D01*
X383451014Y62249003D01*
X383307753Y62205546D01*
X383228290Y62163072D01*
X382375000Y62163072D01*
X382201746Y62146008D01*
X382035150Y62095472D01*
X381881614Y62013405D01*
X381747038Y61902962D01*
X381636595Y61768386D01*
X381554528Y61614850D01*
X381540859Y61569790D01*
X381475723Y61534974D01*
X381392083Y61466332D01*
X381359999Y61440001D01*
X381336201Y61411003D01*
X380185199Y60260000D01*
X375714802Y60260000D01*
X374563803Y61410998D01*
X374563799Y61411003D01*
X373287345Y62687457D01*
X373301185Y62698815D01*
X373380537Y62795506D01*
X373439502Y62905820D01*
X373475812Y63025518D01*
X373488072Y63150000D01*
X373488072Y64850000D01*
X373475812Y64974482D01*
X373439502Y65094180D01*
X373380537Y65204494D01*
X373301185Y65301185D01*
X373204494Y65380537D01*
X373094180Y65439502D01*
X373052310Y65452203D01*
X373153475Y65553368D01*
X373278178Y65740000D01*
X374462667Y65740000D01*
X374500000Y65736323D01*
X374537333Y65740000D01*
X374819101Y65740000D01*
X374878104Y65668104D01*
X374989116Y65577000D01*
X374823750Y65577000D01*
X374665000Y65418250D01*
X374670843Y65343709D01*
X374703669Y65223009D01*
X374759411Y65111032D01*
X374835928Y65012081D01*
X374930278Y64929960D01*
X375038837Y64867823D01*
X375157433Y64828059D01*
X375268250Y64815000D01*
X375427000Y64973750D01*
X375427000Y65451928D01*
X375573000Y65451928D01*
X375573000Y64973750D01*
X375731750Y64815000D01*
X375842567Y64828059D01*
X375961163Y64867823D01*
X376069722Y64929960D01*
X376164072Y65012081D01*
X376240589Y65111032D01*
X376296331Y65223009D01*
X376329157Y65343709D01*
X376335000Y65418250D01*
X376176250Y65577000D01*
X376010884Y65577000D01*
X376121896Y65668104D01*
X376213684Y65779949D01*
X376260173Y65866923D01*
X376335000Y65941750D01*
X376329157Y66016291D01*
X376322406Y66041116D01*
X376323890Y66046009D01*
X376338072Y66190000D01*
X376338072Y66450000D01*
X376323890Y66593991D01*
X376298932Y66676266D01*
X376661928Y66313270D01*
G36*
X379777000Y67527000D02*
G01*
X379797000Y67527000D01*
X379797000Y67273000D01*
X379777000Y67273000D01*
X379777000Y67253000D01*
X379523000Y67253000D01*
X379523000Y67273000D01*
X379503000Y67273000D01*
X379503000Y67527000D01*
X379523000Y67527000D01*
X379523000Y67547000D01*
X379777000Y67547000D01*
X379777000Y67527000D01*
G37*
X379777000Y67527000D02*
X379797000Y67527000D01*
X379797000Y67273000D01*
X379777000Y67273000D01*
X379777000Y67253000D01*
X379523000Y67253000D01*
X379523000Y67273000D01*
X379503000Y67273000D01*
X379503000Y67527000D01*
X379523000Y67527000D01*
X379523000Y67547000D01*
X379777000Y67547000D01*
X379777000Y67527000D01*
G36*
X388913998Y67614887D02*
G01*
X389088328Y67615116D01*
X389092032Y67615858D01*
X389116042Y67591848D01*
X389114887Y67586002D01*
X389115116Y67411672D01*
X389115858Y67407968D01*
X389091848Y67383958D01*
X389086002Y67385113D01*
X388911672Y67384884D01*
X388907968Y67384142D01*
X388883958Y67408152D01*
X388885113Y67413998D01*
X388884884Y67588328D01*
X388884142Y67592032D01*
X388908152Y67616042D01*
X388913998Y67614887D01*
G37*
X388913998Y67614887D02*
X389088328Y67615116D01*
X389092032Y67615858D01*
X389116042Y67591848D01*
X389114887Y67586002D01*
X389115116Y67411672D01*
X389115858Y67407968D01*
X389091848Y67383958D01*
X389086002Y67385113D01*
X388911672Y67384884D01*
X388907968Y67384142D01*
X388883958Y67408152D01*
X388885113Y67413998D01*
X388884884Y67588328D01*
X388884142Y67592032D01*
X388908152Y67616042D01*
X388913998Y67614887D01*
G36*
X386313220Y71260000D02*
G01*
X385703711Y71260000D01*
X385659774Y71303937D01*
X385490256Y71417205D01*
X385301898Y71495226D01*
X385101939Y71535000D01*
X384898061Y71535000D01*
X384698102Y71495226D01*
X384509744Y71417205D01*
X384340226Y71303937D01*
X384196063Y71159774D01*
X384082795Y70990256D01*
X384004774Y70801898D01*
X383965000Y70601939D01*
X383965000Y70398061D01*
X384004774Y70198102D01*
X384082795Y70009744D01*
X384196063Y69840226D01*
X384261994Y69774295D01*
X384050771Y69563072D01*
X383543750Y69563072D01*
X383371715Y69546128D01*
X383206291Y69495947D01*
X383053836Y69414458D01*
X382920208Y69304792D01*
X382832155Y69197500D01*
X382585866Y69197500D01*
X382585000Y69314250D01*
X382426250Y69473000D01*
X381477000Y69473000D01*
X381477000Y69453000D01*
X381223000Y69453000D01*
X381223000Y69473000D01*
X381203000Y69473000D01*
X381203000Y69727000D01*
X381223000Y69727000D01*
X381223000Y70736250D01*
X381263000Y70776250D01*
X381477000Y70776250D01*
X381477000Y69727000D01*
X382426250Y69727000D01*
X382585000Y69885750D01*
X382588072Y70300000D01*
X382575812Y70424482D01*
X382539502Y70544180D01*
X382480537Y70654494D01*
X382401185Y70751185D01*
X382329204Y70810258D01*
X382376185Y70848815D01*
X382455537Y70945506D01*
X382514502Y71055820D01*
X382550812Y71175518D01*
X382563072Y71300000D01*
X382560000Y71714250D01*
X382401250Y71873000D01*
X381564500Y71873000D01*
X381564500Y70863750D01*
X381477000Y70776250D01*
X381263000Y70776250D01*
X381310500Y70823750D01*
X381310500Y71873000D01*
X381290500Y71873000D01*
X381290500Y72127000D01*
X381310500Y72127000D01*
X381310500Y72147000D01*
X381564500Y72147000D01*
X381564500Y72127000D01*
X382401250Y72127000D01*
X382560000Y72285750D01*
X382561329Y72465002D01*
X385108219Y72465002D01*
X386313220Y71260000D01*
G37*
X386313220Y71260000D02*
X385703711Y71260000D01*
X385659774Y71303937D01*
X385490256Y71417205D01*
X385301898Y71495226D01*
X385101939Y71535000D01*
X384898061Y71535000D01*
X384698102Y71495226D01*
X384509744Y71417205D01*
X384340226Y71303937D01*
X384196063Y71159774D01*
X384082795Y70990256D01*
X384004774Y70801898D01*
X383965000Y70601939D01*
X383965000Y70398061D01*
X384004774Y70198102D01*
X384082795Y70009744D01*
X384196063Y69840226D01*
X384261994Y69774295D01*
X384050771Y69563072D01*
X383543750Y69563072D01*
X383371715Y69546128D01*
X383206291Y69495947D01*
X383053836Y69414458D01*
X382920208Y69304792D01*
X382832155Y69197500D01*
X382585866Y69197500D01*
X382585000Y69314250D01*
X382426250Y69473000D01*
X381477000Y69473000D01*
X381477000Y69453000D01*
X381223000Y69453000D01*
X381223000Y69473000D01*
X381203000Y69473000D01*
X381203000Y69727000D01*
X381223000Y69727000D01*
X381223000Y70736250D01*
X381263000Y70776250D01*
X381477000Y70776250D01*
X381477000Y69727000D01*
X382426250Y69727000D01*
X382585000Y69885750D01*
X382588072Y70300000D01*
X382575812Y70424482D01*
X382539502Y70544180D01*
X382480537Y70654494D01*
X382401185Y70751185D01*
X382329204Y70810258D01*
X382376185Y70848815D01*
X382455537Y70945506D01*
X382514502Y71055820D01*
X382550812Y71175518D01*
X382563072Y71300000D01*
X382560000Y71714250D01*
X382401250Y71873000D01*
X381564500Y71873000D01*
X381564500Y70863750D01*
X381477000Y70776250D01*
X381263000Y70776250D01*
X381310500Y70823750D01*
X381310500Y71873000D01*
X381290500Y71873000D01*
X381290500Y72127000D01*
X381310500Y72127000D01*
X381310500Y72147000D01*
X381564500Y72147000D01*
X381564500Y72127000D01*
X382401250Y72127000D01*
X382560000Y72285750D01*
X382561329Y72465002D01*
X385108219Y72465002D01*
X386313220Y71260000D01*
M02*
