G04 #@! TF.GenerationSoftware,KiCad,Pcbnew,(5.1.5-0-10_14)*
G04 #@! TF.CreationDate,2020-04-17T14:33:50+12:00*
G04 #@! TF.ProjectId,ZapierStompBox,5a617069-6572-4537-946f-6d70426f782e,rev?*
G04 #@! TF.SameCoordinates,Original*
G04 #@! TF.FileFunction,Soldermask,Bot*
G04 #@! TF.FilePolarity,Negative*
%FSLAX46Y46*%
G04 Gerber Fmt 4.6, Leading zero omitted, Abs format (unit mm)*
G04 Created by KiCad (PCBNEW (5.1.5-0-10_14)) date 2020-04-17 14:33:50*
%MOMM*%
%LPD*%
G04 APERTURE LIST*
%ADD10C,0.100000*%
G04 APERTURE END LIST*
D10*
G36*
X391113512Y49356073D02*
G01*
X391262812Y49326376D01*
X391426784Y49258456D01*
X391574354Y49159853D01*
X391699853Y49034354D01*
X391798456Y48886784D01*
X391866376Y48722812D01*
X391901000Y48548741D01*
X391901000Y48371259D01*
X391866376Y48197188D01*
X391798456Y48033216D01*
X391699853Y47885646D01*
X391574354Y47760147D01*
X391426784Y47661544D01*
X391262812Y47593624D01*
X391113512Y47563927D01*
X391088742Y47559000D01*
X390911258Y47559000D01*
X390886488Y47563927D01*
X390737188Y47593624D01*
X390573216Y47661544D01*
X390425646Y47760147D01*
X390300147Y47885646D01*
X390201544Y48033216D01*
X390133624Y48197188D01*
X390099000Y48371259D01*
X390099000Y48548741D01*
X390133624Y48722812D01*
X390201544Y48886784D01*
X390300147Y49034354D01*
X390425646Y49159853D01*
X390573216Y49258456D01*
X390737188Y49326376D01*
X390886488Y49356073D01*
X390911258Y49361000D01*
X391088742Y49361000D01*
X391113512Y49356073D01*
G37*
G36*
X388573512Y49356073D02*
G01*
X388722812Y49326376D01*
X388886784Y49258456D01*
X389034354Y49159853D01*
X389159853Y49034354D01*
X389258456Y48886784D01*
X389326376Y48722812D01*
X389361000Y48548741D01*
X389361000Y48371259D01*
X389326376Y48197188D01*
X389258456Y48033216D01*
X389159853Y47885646D01*
X389034354Y47760147D01*
X388886784Y47661544D01*
X388722812Y47593624D01*
X388573512Y47563927D01*
X388548742Y47559000D01*
X388371258Y47559000D01*
X388346488Y47563927D01*
X388197188Y47593624D01*
X388033216Y47661544D01*
X387885646Y47760147D01*
X387760147Y47885646D01*
X387661544Y48033216D01*
X387593624Y48197188D01*
X387559000Y48371259D01*
X387559000Y48548741D01*
X387593624Y48722812D01*
X387661544Y48886784D01*
X387760147Y49034354D01*
X387885646Y49159853D01*
X388033216Y49258456D01*
X388197188Y49326376D01*
X388346488Y49356073D01*
X388371258Y49361000D01*
X388548742Y49361000D01*
X388573512Y49356073D01*
G37*
G36*
X386033512Y49356073D02*
G01*
X386182812Y49326376D01*
X386346784Y49258456D01*
X386494354Y49159853D01*
X386619853Y49034354D01*
X386718456Y48886784D01*
X386786376Y48722812D01*
X386821000Y48548741D01*
X386821000Y48371259D01*
X386786376Y48197188D01*
X386718456Y48033216D01*
X386619853Y47885646D01*
X386494354Y47760147D01*
X386346784Y47661544D01*
X386182812Y47593624D01*
X386033512Y47563927D01*
X386008742Y47559000D01*
X385831258Y47559000D01*
X385806488Y47563927D01*
X385657188Y47593624D01*
X385493216Y47661544D01*
X385345646Y47760147D01*
X385220147Y47885646D01*
X385121544Y48033216D01*
X385053624Y48197188D01*
X385019000Y48371259D01*
X385019000Y48548741D01*
X385053624Y48722812D01*
X385121544Y48886784D01*
X385220147Y49034354D01*
X385345646Y49159853D01*
X385493216Y49258456D01*
X385657188Y49326376D01*
X385806488Y49356073D01*
X385831258Y49361000D01*
X386008742Y49361000D01*
X386033512Y49356073D01*
G37*
G36*
X400375256Y51608702D02*
G01*
X400481579Y51587553D01*
X400782042Y51463097D01*
X401052451Y51282415D01*
X401282415Y51052451D01*
X401463097Y50782042D01*
X401587553Y50481579D01*
X401598679Y50425646D01*
X401643256Y50201544D01*
X401651000Y50162609D01*
X401651000Y49837391D01*
X401587553Y49518421D01*
X401463097Y49217958D01*
X401282415Y48947549D01*
X401052451Y48717585D01*
X400782042Y48536903D01*
X400481579Y48412447D01*
X400375256Y48391298D01*
X400162611Y48349000D01*
X399837389Y48349000D01*
X399624744Y48391298D01*
X399518421Y48412447D01*
X399217958Y48536903D01*
X398947549Y48717585D01*
X398717585Y48947549D01*
X398536903Y49217958D01*
X398412447Y49518421D01*
X398349000Y49837391D01*
X398349000Y50162609D01*
X398356745Y50201544D01*
X398401321Y50425646D01*
X398412447Y50481579D01*
X398536903Y50782042D01*
X398717585Y51052451D01*
X398947549Y51282415D01*
X399217958Y51463097D01*
X399518421Y51587553D01*
X399624744Y51608702D01*
X399837389Y51651000D01*
X400162611Y51651000D01*
X400375256Y51608702D01*
G37*
G36*
X369375256Y51608702D02*
G01*
X369481579Y51587553D01*
X369782042Y51463097D01*
X370052451Y51282415D01*
X370282415Y51052451D01*
X370463097Y50782042D01*
X370587553Y50481579D01*
X370598679Y50425646D01*
X370643256Y50201544D01*
X370651000Y50162609D01*
X370651000Y49837391D01*
X370587553Y49518421D01*
X370463097Y49217958D01*
X370282415Y48947549D01*
X370052451Y48717585D01*
X369782042Y48536903D01*
X369481579Y48412447D01*
X369375256Y48391298D01*
X369162611Y48349000D01*
X368837389Y48349000D01*
X368624744Y48391298D01*
X368518421Y48412447D01*
X368217958Y48536903D01*
X367947549Y48717585D01*
X367717585Y48947549D01*
X367536903Y49217958D01*
X367412447Y49518421D01*
X367349000Y49837391D01*
X367349000Y50162609D01*
X367356745Y50201544D01*
X367401321Y50425646D01*
X367412447Y50481579D01*
X367536903Y50782042D01*
X367717585Y51052451D01*
X367947549Y51282415D01*
X368217958Y51463097D01*
X368518421Y51587553D01*
X368624744Y51608702D01*
X368837389Y51651000D01*
X369162611Y51651000D01*
X369375256Y51608702D01*
G37*
G36*
X388573512Y51896073D02*
G01*
X388722812Y51866376D01*
X388886784Y51798456D01*
X389034354Y51699853D01*
X389159853Y51574354D01*
X389258456Y51426784D01*
X389326376Y51262812D01*
X389361000Y51088741D01*
X389361000Y50911259D01*
X389326376Y50737188D01*
X389258456Y50573216D01*
X389159853Y50425646D01*
X389034354Y50300147D01*
X388886784Y50201544D01*
X388722812Y50133624D01*
X388573512Y50103927D01*
X388548742Y50099000D01*
X388371258Y50099000D01*
X388346488Y50103927D01*
X388197188Y50133624D01*
X388033216Y50201544D01*
X387885646Y50300147D01*
X387760147Y50425646D01*
X387661544Y50573216D01*
X387593624Y50737188D01*
X387559000Y50911259D01*
X387559000Y51088741D01*
X387593624Y51262812D01*
X387661544Y51426784D01*
X387760147Y51574354D01*
X387885646Y51699853D01*
X388033216Y51798456D01*
X388197188Y51866376D01*
X388346488Y51896073D01*
X388371258Y51901000D01*
X388548742Y51901000D01*
X388573512Y51896073D01*
G37*
G36*
X386033512Y51896073D02*
G01*
X386182812Y51866376D01*
X386346784Y51798456D01*
X386494354Y51699853D01*
X386619853Y51574354D01*
X386718456Y51426784D01*
X386786376Y51262812D01*
X386821000Y51088741D01*
X386821000Y50911259D01*
X386786376Y50737188D01*
X386718456Y50573216D01*
X386619853Y50425646D01*
X386494354Y50300147D01*
X386346784Y50201544D01*
X386182812Y50133624D01*
X386033512Y50103927D01*
X386008742Y50099000D01*
X385831258Y50099000D01*
X385806488Y50103927D01*
X385657188Y50133624D01*
X385493216Y50201544D01*
X385345646Y50300147D01*
X385220147Y50425646D01*
X385121544Y50573216D01*
X385053624Y50737188D01*
X385019000Y50911259D01*
X385019000Y51088741D01*
X385053624Y51262812D01*
X385121544Y51426784D01*
X385220147Y51574354D01*
X385345646Y51699853D01*
X385493216Y51798456D01*
X385657188Y51866376D01*
X385806488Y51896073D01*
X385831258Y51901000D01*
X386008742Y51901000D01*
X386033512Y51896073D01*
G37*
G36*
X391901000Y50099000D02*
G01*
X390099000Y50099000D01*
X390099000Y51901000D01*
X391901000Y51901000D01*
X391901000Y50099000D01*
G37*
G36*
X367815331Y60961789D02*
G01*
X368143092Y60826026D01*
X368438070Y60628928D01*
X368688928Y60378070D01*
X368886026Y60083092D01*
X369021789Y59755331D01*
X369091000Y59407384D01*
X369091000Y59052616D01*
X369021789Y58704669D01*
X368886026Y58376908D01*
X368688928Y58081930D01*
X368438070Y57831072D01*
X368143092Y57633974D01*
X367815331Y57498211D01*
X367467384Y57429000D01*
X367112616Y57429000D01*
X366764669Y57498211D01*
X366436908Y57633974D01*
X366141930Y57831072D01*
X365891072Y58081930D01*
X365693974Y58376908D01*
X365558211Y58704669D01*
X365489000Y59052616D01*
X365489000Y59407384D01*
X365558211Y59755331D01*
X365693974Y60083092D01*
X365891072Y60378070D01*
X366141930Y60628928D01*
X366436908Y60826026D01*
X366764669Y60961789D01*
X367112616Y61031000D01*
X367467384Y61031000D01*
X367815331Y60961789D01*
G37*
G36*
X370113512Y64896073D02*
G01*
X370262812Y64866376D01*
X370426784Y64798456D01*
X370574354Y64699853D01*
X370699853Y64574354D01*
X370798456Y64426784D01*
X370858523Y64281771D01*
X370870068Y64260171D01*
X370885613Y64241229D01*
X370904555Y64225684D01*
X370926166Y64214133D01*
X370949615Y64207020D01*
X370974001Y64204618D01*
X370998387Y64207020D01*
X371021836Y64214133D01*
X371043447Y64225684D01*
X371062389Y64241229D01*
X371077934Y64260171D01*
X371089485Y64281782D01*
X371096598Y64305231D01*
X371099000Y64329617D01*
X371099000Y64901000D01*
X372901000Y64901000D01*
X372901000Y63099000D01*
X371099000Y63099000D01*
X371099000Y63670383D01*
X371096598Y63694769D01*
X371089485Y63718218D01*
X371077934Y63739829D01*
X371062389Y63758771D01*
X371043447Y63774316D01*
X371021836Y63785867D01*
X370998387Y63792980D01*
X370974001Y63795382D01*
X370949615Y63792980D01*
X370926166Y63785867D01*
X370904555Y63774316D01*
X370885613Y63758771D01*
X370870068Y63739829D01*
X370858523Y63718229D01*
X370798456Y63573216D01*
X370699853Y63425646D01*
X370574354Y63300147D01*
X370426784Y63201544D01*
X370262812Y63133624D01*
X370113512Y63103927D01*
X370088742Y63099000D01*
X369911258Y63099000D01*
X369886488Y63103927D01*
X369737188Y63133624D01*
X369573216Y63201544D01*
X369425646Y63300147D01*
X369300147Y63425646D01*
X369201544Y63573216D01*
X369133624Y63737188D01*
X369099000Y63911259D01*
X369099000Y64088741D01*
X369133624Y64262812D01*
X369201544Y64426784D01*
X369300147Y64574354D01*
X369425646Y64699853D01*
X369573216Y64798456D01*
X369737188Y64866376D01*
X369886488Y64896073D01*
X369911258Y64901000D01*
X370088742Y64901000D01*
X370113512Y64896073D01*
G37*
G36*
X370113512Y67396073D02*
G01*
X370262812Y67366376D01*
X370426784Y67298456D01*
X370574354Y67199853D01*
X370699853Y67074354D01*
X370798456Y66926784D01*
X370866376Y66762812D01*
X370877405Y66707362D01*
X370884516Y66683922D01*
X370896067Y66662311D01*
X370911613Y66643369D01*
X370930555Y66627824D01*
X370952165Y66616273D01*
X370975614Y66609160D01*
X371000000Y66606758D01*
X371024387Y66609160D01*
X371047835Y66616273D01*
X371069446Y66627824D01*
X371088388Y66643370D01*
X371103933Y66662312D01*
X371115484Y66683922D01*
X371122595Y66707362D01*
X371133624Y66762812D01*
X371201544Y66926784D01*
X371300147Y67074354D01*
X371425646Y67199853D01*
X371573216Y67298456D01*
X371737188Y67366376D01*
X371886488Y67396073D01*
X371911258Y67401000D01*
X372088742Y67401000D01*
X372113512Y67396073D01*
X372262812Y67366376D01*
X372426784Y67298456D01*
X372574354Y67199853D01*
X372699853Y67074354D01*
X372798456Y66926784D01*
X372866376Y66762812D01*
X372901000Y66588741D01*
X372901000Y66411259D01*
X372866376Y66237188D01*
X372798456Y66073216D01*
X372699853Y65925646D01*
X372574354Y65800147D01*
X372426784Y65701544D01*
X372262812Y65633624D01*
X372113512Y65603927D01*
X372088742Y65599000D01*
X371911258Y65599000D01*
X371886488Y65603927D01*
X371737188Y65633624D01*
X371573216Y65701544D01*
X371425646Y65800147D01*
X371300147Y65925646D01*
X371201544Y66073216D01*
X371133624Y66237188D01*
X371122595Y66292638D01*
X371115484Y66316078D01*
X371103933Y66337689D01*
X371088387Y66356631D01*
X371069445Y66372176D01*
X371047835Y66383727D01*
X371024386Y66390840D01*
X371000000Y66393242D01*
X370975613Y66390840D01*
X370952165Y66383727D01*
X370930554Y66372176D01*
X370911612Y66356630D01*
X370896067Y66337688D01*
X370884516Y66316078D01*
X370877405Y66292638D01*
X370866376Y66237188D01*
X370798456Y66073216D01*
X370699853Y65925646D01*
X370574354Y65800147D01*
X370426784Y65701544D01*
X370262812Y65633624D01*
X370113512Y65603927D01*
X370088742Y65599000D01*
X369911258Y65599000D01*
X369886488Y65603927D01*
X369737188Y65633624D01*
X369573216Y65701544D01*
X369425646Y65800147D01*
X369300147Y65925646D01*
X369201544Y66073216D01*
X369133624Y66237188D01*
X369099000Y66411259D01*
X369099000Y66588741D01*
X369133624Y66762812D01*
X369201544Y66926784D01*
X369300147Y67074354D01*
X369425646Y67199853D01*
X369573216Y67298456D01*
X369737188Y67366376D01*
X369886488Y67396073D01*
X369911258Y67401000D01*
X370088742Y67401000D01*
X370113512Y67396073D01*
G37*
G36*
X367815331Y73001789D02*
G01*
X368143092Y72866026D01*
X368438070Y72668928D01*
X368688928Y72418070D01*
X368886026Y72123092D01*
X369021789Y71795331D01*
X369091000Y71447384D01*
X369091000Y71092616D01*
X369021789Y70744669D01*
X368886026Y70416908D01*
X368688928Y70121930D01*
X368438070Y69871072D01*
X368143092Y69673974D01*
X367815331Y69538211D01*
X367467384Y69469000D01*
X367112616Y69469000D01*
X366764669Y69538211D01*
X366436908Y69673974D01*
X366141930Y69871072D01*
X365891072Y70121930D01*
X365693974Y70416908D01*
X365558211Y70744669D01*
X365489000Y71092616D01*
X365489000Y71447384D01*
X365558211Y71795331D01*
X365693974Y72123092D01*
X365891072Y72418070D01*
X366141930Y72668928D01*
X366436908Y72866026D01*
X366764669Y73001789D01*
X367112616Y73071000D01*
X367467384Y73071000D01*
X367815331Y73001789D01*
G37*
G36*
X400375256Y81608702D02*
G01*
X400481579Y81587553D01*
X400782042Y81463097D01*
X401052451Y81282415D01*
X401282415Y81052451D01*
X401463097Y80782042D01*
X401587553Y80481579D01*
X401651000Y80162609D01*
X401651000Y79837391D01*
X401587553Y79518421D01*
X401463097Y79217958D01*
X401282415Y78947549D01*
X401052451Y78717585D01*
X400782042Y78536903D01*
X400481579Y78412447D01*
X400375256Y78391298D01*
X400162611Y78349000D01*
X399837389Y78349000D01*
X399624744Y78391298D01*
X399518421Y78412447D01*
X399217958Y78536903D01*
X398947549Y78717585D01*
X398717585Y78947549D01*
X398536903Y79217958D01*
X398412447Y79518421D01*
X398349000Y79837391D01*
X398349000Y80162609D01*
X398412447Y80481579D01*
X398536903Y80782042D01*
X398717585Y81052451D01*
X398947549Y81282415D01*
X399217958Y81463097D01*
X399518421Y81587553D01*
X399624744Y81608702D01*
X399837389Y81651000D01*
X400162611Y81651000D01*
X400375256Y81608702D01*
G37*
G36*
X369375256Y81608702D02*
G01*
X369481579Y81587553D01*
X369782042Y81463097D01*
X370052451Y81282415D01*
X370282415Y81052451D01*
X370463097Y80782042D01*
X370587553Y80481579D01*
X370651000Y80162609D01*
X370651000Y79837391D01*
X370587553Y79518421D01*
X370463097Y79217958D01*
X370282415Y78947549D01*
X370052451Y78717585D01*
X369782042Y78536903D01*
X369481579Y78412447D01*
X369375256Y78391298D01*
X369162611Y78349000D01*
X368837389Y78349000D01*
X368624744Y78391298D01*
X368518421Y78412447D01*
X368217958Y78536903D01*
X367947549Y78717585D01*
X367717585Y78947549D01*
X367536903Y79217958D01*
X367412447Y79518421D01*
X367349000Y79837391D01*
X367349000Y80162609D01*
X367412447Y80481579D01*
X367536903Y80782042D01*
X367717585Y81052451D01*
X367947549Y81282415D01*
X368217958Y81463097D01*
X368518421Y81587553D01*
X368624744Y81608702D01*
X368837389Y81651000D01*
X369162611Y81651000D01*
X369375256Y81608702D01*
G37*
M02*
